999
DXF file: C:\Users\SESA644935\Desktop\Gen2D\CAD\LV525439_3D-CAD\drw0001_4.dxf
999
Pro/ENGINEER 2019471 by Parametric Technology Corporation
  0
SECTION
  2
HEADER
  9
$ACADVER
  1
AC1024
  9
$DWGCODEPAGE
  3
ANSI_1252
  9
$EXTMAX
 10
132.3503190175
 20
187.1811654676
 30
0.0
  9
$EXTMIN
 10
0.0
 20
0.0
 30
0.0
  9
$LIMMIN
 10
0.0
 20
0.0
  9
$LIMMAX
 10
132.3503190175
 20
187.1811654676
  9
$VIEWCTR
 10
66.1751595088
 20
93.5905827338
  9
$VIEWSIZE
 40
187.1811654676
  9
$CLAYER
  8
0
  9
$LTSCALE
 40
12.2014389342
  9
$CELTYPE
  6
BYLAYER
  9
$DIMSCALE
 40
1.0
  9
$DIMASZ
 40
1.5755990359
  9
$DIMEXO
 40
1.0
  9
$DIMDLI
 40
8.4300850818
  9
$DIMEXE
 40
1.0
  9
$DIMCEN
 40
1.9965990983
  9
$DIMLFAC
 40
1.0
  9
$DIMBLK
  1
_FILLED
  9
$DIMALT
 70
0
  9
$DIMALTF
 40
0.0393700787
  9
$DIMTXT
 40
2.2058386503
  9
$DIMTOL
 70
1
  9
$DIMLIM
 70
0
  9
$DIMTFAC
 40
1.0
  9
$DIMTP
 40
0.01
  9
$DIMTM
 40
0.01
  9
$DIMGAP
 40
0.625
  9
$DIMDSEP
 70
46
  9
$AUNITS
 70
0
  9
$PDMODE
 70
3
  9
$PDSIZE
 40
0.3125
  9
$HANDSEED
  5
36C
  9
$TILEMODE
 70
1
  9
$MEASUREMENT
 70
1
  9
$INSUNITS
 70
4
  0
ENDSEC
  0
SECTION
  2
CLASSES
  0
CLASS
  1
ACDBDICTIONARYWDFLT
  2
AcDbDictionaryWithDefault
  3
AutoCAD 2000
 90
0
 91
1
280
0
281
0
  0
CLASS
  1
ACDBPLACEHOLDER
  2
AcDbPlaceHolder
  3
AutoCAD 2000
 90
0
 91
1
280
0
281
0
  0
CLASS
  1
LAYOUT
  2
AcDbLayout
  3
AutoCAD 2000
 90
0
 91
0
280
0
281
0
  0
ENDSEC
  0
SECTION
  2
TABLES
  0
TABLE
  2
VPORT
  5
8
100
AcDbSymbolTable
 70
2
  0
VPORT
  5
1F4
100
AcDbSymbolTableRecord
100
AcDbViewportTableRecord
  2
*ACTIVE
 70
0
 10
0.0
 20
0.0
 11
1.0
 21
1.0
 12
66.1751595088
 22
93.5905827338
 13
0.0
 23
0.0
 14
1.0
 24
1.0
 15
0.0
 25
0.0
 16
0.0
 26
0.0
 36
1.0
 17
0.0
 27
0.0
 37
0.0
 40
187.1811654676
 41
0.7070707071
 42
50.0
 43
0.0
 44
0.0
 50
0.0
 51
0.0
 71
0
 72
100
 73
1
 74
1
 75
0
 76
0
 77
0
 78
0
  0
ENDTAB
  0
TABLE
  2
LTYPE
  5
5
100
AcDbSymbolTable
 70
6
  0
LTYPE
  5
14
100
AcDbSymbolTableRecord
100
AcDbLinetypeTableRecord
  2
BYBLOCK
 70
0
  3

 72
65
 73
0
 40
0.0
  0
LTYPE
  5
15
100
AcDbSymbolTableRecord
100
AcDbLinetypeTableRecord
  2
BYLAYER
 70
0
  3

 72
65
 73
0
 40
0.0
  0
LTYPE
  5
16
100
AcDbSymbolTableRecord
100
AcDbLinetypeTableRecord
  2
CONTINUOUS
 70
64
  3
Solid line
 72
65
 73
0
 40
0.0
  0
LTYPE
  5
1F5
100
AcDbSymbolTableRecord
100
AcDbLinetypeTableRecord
  2
CENTER
 70
64
  3
____ _ ____ _ ____ _ ____ _ ____ _ ____ _ ____
 72
65
 73
4
 40
0.6
 49
0.375
 74
0
 49
-0.075
 74
0
 49
0.075
 74
0
 49
-0.075
 74
0
  0
LTYPE
  5
1F6
100
AcDbSymbolTableRecord
100
AcDbLinetypeTableRecord
  2
HIDDEN
 70
64
  3
- - - - - - - - - - - - - - - - - - - -
 72
65
 73
2
 40
0.2
 49
0.1
 74
0
 49
-0.1
 74
0
  0
LTYPE
  5
1F7
100
AcDbSymbolTableRecord
100
AcDbLinetypeTableRecord
  2
PHANTOM
 70
64
  3
_____ _ _ _____ _ _ _____ _ _ _____
 72
65
 73
6
 40
0.8
 49
0.45
 74
0
 49
-0.05
 74
0
 49
0.1
 74
0
 49
-0.05
 74
0
 49
0.1
 74
0
 49
-0.05
 74
0
  0
LTYPE
  5
1F8
100
AcDbSymbolTableRecord
100
AcDbLinetypeTableRecord
  2
DOT
 70
64
  3
. . . . . . . . . . . . . . . . . . . .
 72
65
 73
2
 40
0.2
 49
0.1
 74
0
 49
-0.1
 74
0
  0
LTYPE
  5
1F9
100
AcDbSymbolTableRecord
100
AcDbLinetypeTableRecord
  2
DASHED
 70
64
  3
- - - - - - - - - - - - - - - - - - - -
 72
65
 73
2
 40
0.2
 49
0.1
 74
0
 49
-0.1
 74
0
  0
ENDTAB
  0
TABLE
  2
LAYER
  5
2
100
AcDbSymbolTable
 70
36
  0
LAYER
  5
10
100
AcDbSymbolTableRecord
100
AcDbLayerTableRecord
  2
0
 70
0
 62
7
  6
CONTINUOUS
370
-3
390
F
  0
LAYER
  5
1FA
100
AcDbSymbolTableRecord
100
AcDbLayerTableRecord
  2
DEFAULT_1
 70
0
 62
7
  6
CENTER
370
-3
390
F
  0
LAYER
  5
1FB
100
AcDbSymbolTableRecord
100
AcDbLayerTableRecord
  2
DEFAULT_2
 70
0
 62
8
  6
HIDDEN
370
-3
390
F
  0
LAYER
  5
1FC
100
AcDbSymbolTableRecord
100
AcDbLayerTableRecord
  2
DEFAULT_3
 70
0
 62
7
  6
PHANTOM
370
-3
390
F
  0
LAYER
  5
1FD
100
AcDbSymbolTableRecord
100
AcDbLayerTableRecord
  2
00_COMPONENTS
 70
0
 62
7
  6
CONTINUOUS
370
-3
390
F
  0
LAYER
  5
1FE
100
AcDbSymbolTableRecord
100
AcDbLayerTableRecord
  2
01_1_DEFAULT_DATUMS
 70
0
 62
7
  6
CONTINUOUS
370
-3
390
F
  0
LAYER
  5
1FF
100
AcDbSymbolTableRecord
100
AcDbLayerTableRecord
  2
01_PLANES
 70
0
 62
7
  6
CONTINUOUS
370
-3
390
F
  0
LAYER
  5
200
100
AcDbSymbolTableRecord
100
AcDbLayerTableRecord
  2
02_COORD_SYS
 70
0
 62
7
  6
CONTINUOUS
370
-3
390
F
  0
LAYER
  5
201
100
AcDbSymbolTableRecord
100
AcDbLayerTableRecord
  2
03_AXES
 70
0
 62
7
  6
CONTINUOUS
370
-3
390
F
  0
LAYER
  5
202
100
AcDbSymbolTableRecord
100
AcDbLayerTableRecord
  2
04_POINTS
 70
0
 62
7
  6
CONTINUOUS
370
-3
390
F
  0
LAYER
  5
203
100
AcDbSymbolTableRecord
100
AcDbLayerTableRecord
  2
05_CURVES
 70
0
 62
7
  6
CONTINUOUS
370
-3
390
F
  0
LAYER
  5
204
100
AcDbSymbolTableRecord
100
AcDbLayerTableRecord
  2
06_SURFS
 70
0
 62
7
  6
CONTINUOUS
370
-3
390
F
  0
LAYER
  5
205
100
AcDbSymbolTableRecord
100
AcDbLayerTableRecord
  2
07_COSMETICS
 70
0
 62
7
  6
CONTINUOUS
370
-3
390
F
  0
LAYER
  5
206
100
AcDbSymbolTableRecord
100
AcDbLayerTableRecord
  2
10_NOTES
 70
0
 62
7
  6
CONTINUOUS
370
-3
390
F
  0
LAYER
  5
207
100
AcDbSymbolTableRecord
100
AcDbLayerTableRecord
  2
11_NOTES_PUB
 70
0
 62
7
  6
CONTINUOUS
370
-3
390
F
  0
LAYER
  5
208
100
AcDbSymbolTableRecord
100
AcDbLayerTableRecord
  2
13_REF_GTOL
 70
0
 62
7
  6
CONTINUOUS
370
-3
390
F
  0
LAYER
  5
209
100
AcDbSymbolTableRecord
100
AcDbLayerTableRecord
  2
16_MISC
 70
0
 62
7
  6
CONTINUOUS
370
-3
390
F
  0
LAYER
  5
20A
100
AcDbSymbolTableRecord
100
AcDbLayerTableRecord
  2
17_NO_PRINT
 70
0
 62
7
  6
CONTINUOUS
370
-3
390
F
  0
LAYER
  5
20B
100
AcDbSymbolTableRecord
100
AcDbLayerTableRecord
  2
18_DATUM_CAMS_JOINTS
 70
0
 62
7
  6
CONTINUOUS
370
-3
390
F
  0
LAYER
  5
20C
100
AcDbSymbolTableRecord
100
AcDbLayerTableRecord
  2
19_DATUM_FUNCTIONAL
 70
0
 62
7
  6
CONTINUOUS
370
-3
390
F
  0
LAYER
  5
20D
100
AcDbSymbolTableRecord
100
AcDbLayerTableRecord
  2
20_DATUM_KINEMATIC_SCHEME
 70
0
 62
7
  6
CONTINUOUS
370
-3
390
F
  0
LAYER
  5
20E
100
AcDbSymbolTableRecord
100
AcDbLayerTableRecord
  2
INTFCLR_40401
 70
0
 62
7
  6
CONTINUOUS
370
-3
390
F
  0
ENDTAB
  0
TABLE
  2
STYLE
  5
3
100
AcDbSymbolTable
 70
1
  0
STYLE
  5
11
100
AcDbSymbolTableRecord
100
AcDbTextStyleTableRecord
  2
STANDARD
 70
0
 40
0.0
 41
0.8
 50
0.0
 71
0
 42
0.2
  3
txt
  4

  0
STYLE
  5
20F
100
AcDbSymbolTableRecord
100
AcDbTextStyleTableRecord
  2
TEXTSTYLE_1
 70
0
 40
0.0
 41
0.8
 50
0.0
 71
0
 42
0.2
  3
gdt
  4

  0
ENDTAB
  0
TABLE
  2
VIEW
  5
6
100
AcDbSymbolTable
 70
0
  0
ENDTAB
  0
TABLE
  2
UCS
  5
7
100
AcDbSymbolTable
 70
0
  0
ENDTAB
  0
TABLE
  2
APPID
  5
9
100
AcDbSymbolTable
 70
1
  0
APPID
  5
210
100
AcDbSymbolTableRecord
100
AcDbRegAppTableRecord
  2
ACAD
 70
0
  0
ENDTAB
  0
TABLE
  2
BLOCK_RECORD
  5
1
100
AcDbSymbolTable
 70
0
  0
BLOCK_RECORD
  5
211
100
AcDbSymbolTableRecord
100
AcDbBlockTableRecord
  2
*Model_Space
  0
BLOCK_RECORD
  5
212
100
AcDbSymbolTableRecord
100
AcDbBlockTableRecord
  2
*Paper_Space
  0
BLOCK_RECORD
  5
213
100
AcDbSymbolTableRecord
100
AcDbBlockTableRecord
  2
_FILLED
  0
ENDTAB
  0
TABLE
  2
DIMSTYLE
  5
A
100
AcDbSymbolTable
 70
1
100
AcDbDimStyleTable
 71
0
  0
DIMSTYLE
105
214
100
AcDbSymbolTableRecord
100
AcDbDimStyleTableRecord
  2
STANDARD
 70
0
  3

  4

 40
1.0
 41
1.5755990359
 42
1.0
 43
0.38
 44
1.0
 45
0.0
 46
0.0
 47
0.01
 48
0.01
140
2.2058386503
141
0.09
142
0.0
143
25.4
144
1.0
145
0.0
146
1.0
147
0.625
 71
1
 72
0
 73
0
 74
0
 75
0
 76
0
 77
1
 78
8
 79
2
170
0
171
1
172
0
173
0
174
0
175
0
176
0
177
0
178
0
270
2
179
2
271
2
272
2
273
2
274
2
275
0
280
0
281
0
282
0
283
1
284
8
285
0
286
0
287
3
288
0
340
11
278
46
341
213
342
213
343
213
344
213
  0
ENDTAB
  0
ENDSEC
  0
SECTION
  2
BLOCKS
  0
BLOCK
  5
20
100
AcDbEntity
  8
0
100
AcDbBlockBegin
  2
*Model_Space
 70
0
 10
0.0
 20
0.0
 30
0.0
  3
*Model_Space
  1

  0
ENDBLK
  5
21
100
AcDbEntity
  8
0
100
AcDbBlockEnd
  0
BLOCK
  5
1C
100
AcDbEntity
  8
0
100
AcDbBlockBegin
  2
*Paper_Space
 70
0
 10
0.0
 20
0.0
 30
0.0
  3
*Paper_Space
  1

  0
ENDBLK
  5
1D
100
AcDbEntity
  8
0
100
AcDbBlockEnd
  0
BLOCK
  5
215
100
AcDbEntity
  8
0
100
AcDbBlockBegin
  2
_FILLED
 70
64
 10
0.0
 20
0.0
  3
_FILLED
  1

  0
SOLID
  5
216
100
AcDbEntity
  8
0
  6
BYBLOCK
 62
0
100
AcDbTrace
 10
0.0
 20
0.0
 11
-1.0
 21
0.25
 12
-1.0
 22
-0.25
 13
-1.0
 23
-0.25
  0
ENDBLK
  5
217
100
AcDbEntity
  8
0
  6
BYBLOCK
 62
0
100
AcDbBlockEnd
  0
ENDSEC
  0
SECTION
  2
ENTITIES
  0
LINE
  5
218
100
AcDbEntity
  8
0
100
AcDbLine
 62
7
  6
CONTINUOUS
 10
115.1309978106
 20
14.5728129496
 11
110.0934688613
 21
13.4560196687
  0
LINE
  5
219
100
AcDbEntity
  8
0
100
AcDbLine
 62
7
  6
CONTINUOUS
 10
25.3934688613
 20
13.4560196687
 11
20.355939912
 21
14.5728129496
  0
LINE
  5
21A
100
AcDbEntity
  8
0
100
AcDbLine
 62
7
  6
CONTINUOUS
 10
80.1309978106
 20
14.5728129496
 11
75.0934688613
 21
13.4560196687
  0
LINE
  5
21B
100
AcDbEntity
  8
0
100
AcDbLine
 62
7
  6
CONTINUOUS
 10
25.3934688613
 20
13.4028129496
 11
40.0934688613
 21
13.4028129496
  0
LINE
  5
21C
100
AcDbEntity
  8
0
100
AcDbLine
 62
7
  6
CONTINUOUS
 10
60.3934688613
 20
13.4028129496
 11
75.0934688613
 21
13.4028129496
  0
LINE
  5
21D
100
AcDbEntity
  8
0
100
AcDbLine
 62
7
  6
CONTINUOUS
 10
95.3934688613
 20
13.4028129496
 11
110.0934688613
 21
13.4028129496
  0
LINE
  5
21E
100
AcDbEntity
  8
0
100
AcDbLine
 62
7
  6
CONTINUOUS
 10
17.1508175106
 20
14.5728129496
 11
49.1934688613
 21
14.5728129496
  0
LINE
  5
21F
100
AcDbEntity
  8
0
100
AcDbLine
 62
7
  6
CONTINUOUS
 10
51.6434688613
 20
14.5728129496
 11
84.1934688613
 21
14.5728129496
  0
LINE
  5
220
100
AcDbEntity
  8
0
100
AcDbLine
 62
7
  6
CONTINUOUS
 10
86.6434688613
 20
14.5728129496
 11
118.636120212
 21
14.5728129496
  0
LINE
  5
221
100
AcDbEntity
  8
0
100
AcDbLine
 62
7
  6
CONTINUOUS
 10
49.222026626
 20
17.5728129496
 11
51.5649110966
 21
17.5728129496
  0
LINE
  5
222
100
AcDbEntity
  8
0
100
AcDbLine
 62
7
  6
CONTINUOUS
 10
84.222026626
 20
17.5728129496
 11
86.5649110966
 21
17.5728129496
  0
LINE
  5
223
100
AcDbEntity
  8
0
100
AcDbLine
 62
7
  6
CONTINUOUS
 10
37.3934688613
 20
15.3588760231
 11
28.3934688613
 21
15.3616615559
  0
LINE
  5
224
100
AcDbEntity
  8
0
100
AcDbLine
 62
7
  6
CONTINUOUS
 10
72.3934688613
 20
15.3588760231
 11
63.3934688613
 21
15.3616615559
  0
LINE
  5
225
100
AcDbEntity
  8
0
100
AcDbLine
 62
7
  6
CONTINUOUS
 10
107.3934688613
 20
15.3581446142
 11
98.3934688613
 21
15.3616748983
  0
LINE
  5
226
100
AcDbEntity
  8
0
100
AcDbLine
 62
7
  6
CONTINUOUS
 10
107.3934688613
 20
15.47090007
 11
98.3934688613
 21
15.4744303542
  0
LINE
  5
227
100
AcDbEntity
  8
0
100
AcDbLine
 62
7
  6
CONTINUOUS
 10
37.3934688613
 20
15.47013909
 11
28.3934688613
 21
15.4750731297
  0
LINE
  5
228
100
AcDbEntity
  8
0
100
AcDbLine
 62
7
  6
CONTINUOUS
 10
72.3934688613
 20
15.470140141
 11
63.3934688613
 21
15.4750722422
  0
LINE
  5
229
100
AcDbEntity
  8
0
100
AcDbLine
 62
7
  6
CONTINUOUS
 10
60.3934688613
 20
13.4560196687
 11
55.355939912
 21
14.5728129496
  0
LINE
  5
22A
100
AcDbEntity
  8
0
100
AcDbLine
 62
7
  6
CONTINUOUS
 10
45.1309978106
 20
14.5728129496
 11
40.0934688613
 21
13.4560196687
  0
LINE
  5
22B
100
AcDbEntity
  8
0
100
AcDbLine
 62
7
  6
CONTINUOUS
 10
86.4994462926
 20
20.0728129496
 11
84.2874914299
 21
20.0728129496
  0
LINE
  5
22C
100
AcDbEntity
  8
0
100
AcDbLine
 62
7
  6
CONTINUOUS
 10
51.4994462926
 20
20.0728129496
 11
49.2874914299
 21
20.0728129496
  0
LINE
  5
22D
100
AcDbEntity
  8
0
100
AcDbLine
 62
7
  6
CONTINUOUS
 10
16.5434688613
 20
20.7228129496
 11
17.0434688613
 21
20.7228129496
  0
LINE
  5
22E
100
AcDbEntity
  8
0
100
AcDbLine
 62
7
  6
CONTINUOUS
 10
118.7434688613
 20
20.7228129496
 11
119.2434688613
 21
20.7228129496
  0
LINE
  5
22F
100
AcDbEntity
  8
0
100
AcDbLine
 62
7
  6
CONTINUOUS
 10
95.3934688613
 20
13.4560196687
 11
90.355939912
 21
14.5728129496
  0
LINE
  5
230
100
AcDbEntity
  8
0
100
AcDbLine
 62
7
  6
CONTINUOUS
 10
116.8434688613
 20
24.1728129496
 11
115.4934688613
 21
24.1728129496
  0
LINE
  5
231
100
AcDbEntity
  8
0
100
AcDbLine
 62
7
  6
CONTINUOUS
 10
20.2934688613
 20
24.1728129496
 11
18.9434688613
 21
24.1728129496
  0
LINE
  5
232
100
AcDbEntity
  8
0
100
AcDbLine
 62
7
  6
CONTINUOUS
 10
18.9434688613
 20
26.1728129496
 11
16.6434688613
 21
26.1728129496
  0
LINE
  5
233
100
AcDbEntity
  8
0
100
AcDbLine
 62
7
  6
CONTINUOUS
 10
116.8434688613
 20
26.1728129496
 11
119.1434688613
 21
26.1728129496
  0
LINE
  5
234
100
AcDbEntity
  8
0
100
AcDbLine
 62
7
  6
CONTINUOUS
 10
16.6434688613
 20
26.3928129496
 11
16.5434688613
 21
26.3928129496
  0
LINE
  5
235
100
AcDbEntity
  8
0
100
AcDbLine
 62
7
  6
CONTINUOUS
 10
119.1434688613
 20
26.3928129496
 11
119.2434688613
 21
26.3928129496
  0
LINE
  5
236
100
AcDbEntity
  8
0
100
AcDbLine
 62
7
  6
CONTINUOUS
 10
115.4934688613
 20
30.5828129496
 11
55.4801648269
 21
30.5828129496
  0
LINE
  5
237
100
AcDbEntity
  8
0
100
AcDbLine
 62
7
  6
CONTINUOUS
 10
45.4067728957
 20
30.5828129496
 11
20.2934688613
 21
30.5828129496
  0
LINE
  5
238
100
AcDbEntity
  8
0
100
AcDbLine
 62
7
  6
CONTINUOUS
 10
20.2934688613
 20
35.1728129496
 11
15.5434688613
 21
35.1728129496
  0
LINE
  5
239
100
AcDbEntity
  8
0
100
AcDbLine
 62
7
  6
CONTINUOUS
 10
115.4934688613
 20
35.1728129496
 11
120.2434688613
 21
35.1728129496
  0
LINE
  5
23A
100
AcDbEntity
  8
0
100
AcDbLine
 62
7
  6
CONTINUOUS
 10
17.1508175106
 20
14.5728129496
 11
17.0434688613
 21
20.7228129496
  0
LINE
  5
23B
100
AcDbEntity
  8
0
100
AcDbLine
 62
7
  6
CONTINUOUS
 10
17.2434688613
 20
14.5728129496
 11
17.1700204887
 21
18.7806673971
  0
LINE
  5
23C
100
AcDbEntity
  8
0
100
AcDbLine
 62
7
  6
CONTINUOUS
 10
15.5434688613
 20
33.1684824201
 11
15.5434688613
 21
152.9771434791
  0
LINE
  5
23D
100
AcDbEntity
  8
0
100
AcDbLine
 62
7
  6
CONTINUOUS
 10
16.5434688613
 20
28.2409681864
 11
16.5434688613
 21
20.7228129496
  0
LINE
  5
23E
100
AcDbEntity
  8
0
100
AcDbLine
 62
7
  6
CONTINUOUS
 10
16.5434688613
 20
157.9046577129
 11
16.5434688613
 21
165.4228129496
  0
LINE
  5
23F
100
AcDbEntity
  8
0
100
AcDbLine
 62
7
  6
CONTINUOUS
 10
16.6434688613
 20
26.3928129496
 11
16.6434688613
 21
21.8048637572
  0
LINE
  5
240
100
AcDbEntity
  8
0
100
AcDbLine
 62
7
  6
CONTINUOUS
 10
16.8634688613
 20
109.8728129496
 11
16.8634688613
 21
110.8728129496
  0
LINE
  5
241
100
AcDbEntity
  8
0
100
AcDbLine
 62
7
  6
CONTINUOUS
 10
17.0634688613
 20
165.4228129496
 11
17.0634688613
 21
171.5728129496
  0
LINE
  5
242
100
AcDbEntity
  8
0
100
AcDbLine
 62
7
  6
CONTINUOUS
 10
17.5434688613
 20
47.3828129496
 11
17.5434688613
 21
47.5428129496
  0
LINE
  5
243
100
AcDbEntity
  8
0
100
AcDbLine
 62
7
  6
CONTINUOUS
 10
17.5434688613
 20
62.9428129496
 11
17.5434688613
 21
63.5728129496
  0
LINE
  5
244
100
AcDbEntity
  8
0
100
AcDbLine
 62
7
  6
CONTINUOUS
 10
17.6434688613
 20
83.1728129496
 11
17.6434688613
 21
106.8728129496
  0
LINE
  5
245
100
AcDbEntity
  8
0
100
AcDbLine
 62
7
  6
CONTINUOUS
 10
17.6434688613
 20
113.8728129496
 11
17.6434688613
 21
131.0728129496
  0
LINE
  5
246
100
AcDbEntity
  8
0
100
AcDbLine
 62
7
  6
CONTINUOUS
 10
116.0434688613
 20
38.9728129496
 11
19.7434688613
 21
38.9728129496
  0
LINE
  5
247
100
AcDbEntity
  8
0
100
AcDbLine
 62
7
  6
CONTINUOUS
 10
120.2434688613
 20
40.5828129496
 11
15.5434688613
 21
40.5828129496
  0
LINE
  5
248
100
AcDbEntity
  8
0
100
AcDbLine
 62
7
  6
CONTINUOUS
 10
117.2934688613
 20
40.9928129496
 11
116.0434688613
 21
40.9928129496
  0
LINE
  5
249
100
AcDbEntity
  8
0
100
AcDbLine
 62
7
  6
CONTINUOUS
 10
114.7434688613
 20
40.9928129496
 11
18.1934688613
 21
40.9928129496
  0
LINE
  5
24A
100
AcDbEntity
  8
0
100
AcDbLine
 62
7
  6
CONTINUOUS
 10
18.1934688613
 20
41.1428129496
 11
18.1434688613
 21
41.1428129496
  0
LINE
  5
24B
100
AcDbEntity
  8
0
100
AcDbLine
 62
7
  6
CONTINUOUS
 10
117.2934688613
 20
41.1428129496
 11
117.6434688613
 21
41.1428129496
  0
LINE
  5
24C
100
AcDbEntity
  8
0
100
AcDbLine
 62
7
  6
CONTINUOUS
 10
15.5434688613
 20
41.5828129496
 11
18.1434688613
 21
41.5828129496
  0
LINE
  5
24D
100
AcDbEntity
  8
0
100
AcDbLine
 62
7
  6
CONTINUOUS
 10
117.6434688613
 20
41.5828129496
 11
120.2434688613
 21
41.5828129496
  0
LINE
  5
24E
100
AcDbEntity
  8
0
100
AcDbLine
 62
7
  6
CONTINUOUS
 10
18.1934688613
 20
41.9178129496
 11
114.7434688613
 21
41.9178129496
  0
LINE
  5
24F
100
AcDbEntity
  8
0
100
AcDbLine
 62
7
  6
CONTINUOUS
 10
116.0434688613
 20
41.9178129496
 11
117.2934688613
 21
41.9178129496
  0
LINE
  5
250
100
AcDbEntity
  8
0
100
AcDbLine
 62
7
  6
CONTINUOUS
 10
114.1434688613
 20
42.4928129496
 11
114.7434688613
 21
42.4928129496
  0
LINE
  5
251
100
AcDbEntity
  8
0
100
AcDbLine
 62
7
  6
CONTINUOUS
 10
18.1934688613
 20
42.6428129496
 11
18.1434688613
 21
42.6428129496
  0
LINE
  5
252
100
AcDbEntity
  8
0
100
AcDbLine
 62
7
  6
CONTINUOUS
 10
117.2934688613
 20
42.6428129496
 11
117.6434688613
 21
42.6428129496
  0
LINE
  5
253
100
AcDbEntity
  8
0
100
AcDbLine
 62
7
  6
CONTINUOUS
 10
18.1434688613
 20
40.5828129496
 11
18.1434688613
 21
47.5428129496
  0
LINE
  5
254
100
AcDbEntity
  8
0
100
AcDbLine
 62
7
  6
CONTINUOUS
 10
18.1934688613
 20
40.992823788
 11
18.1934688613
 21
47.5428129496
  0
LINE
  5
255
100
AcDbEntity
  8
0
100
AcDbLine
 62
7
  6
CONTINUOUS
 10
18.4434688613
 20
107.5651992965
 11
18.4434688613
 21
109.8728129496
  0
LINE
  5
256
100
AcDbEntity
  8
0
100
AcDbLine
 62
7
  6
CONTINUOUS
 10
18.4434688613
 20
110.8728129496
 11
18.4434688613
 21
113.1804266028
  0
LINE
  5
257
100
AcDbEntity
  8
0
100
AcDbLine
 62
7
  6
CONTINUOUS
 10
18.9434688613
 20
24.1728129496
 11
18.9434688613
 21
26.1728129496
  0
LINE
  5
258
100
AcDbEntity
  8
0
100
AcDbLine
 62
7
  6
CONTINUOUS
 10
19.0934688613
 20
160.0728129496
 11
19.0934688613
 21
162.0728129496
  0
LINE
  5
259
100
AcDbEntity
  8
0
100
AcDbLine
 62
7
  6
CONTINUOUS
 10
19.5434688613
 20
113.1804266028
 11
19.5434688613
 21
110.8728129496
  0
LINE
  5
25A
100
AcDbEntity
  8
0
100
AcDbLine
 62
7
  6
CONTINUOUS
 10
19.5434688613
 20
109.8728129496
 11
19.5434688613
 21
107.5651992965
  0
LINE
  5
25B
100
AcDbEntity
  8
0
100
AcDbLine
 62
7
  6
CONTINUOUS
 10
19.7434688613
 20
38.9728129496
 11
19.7434688613
 21
40.5828129496
  0
LINE
  5
25C
100
AcDbEntity
  8
0
100
AcDbLine
 62
7
  6
CONTINUOUS
 10
20.2934688613
 20
24.1728129496
 11
20.2934688613
 21
35.1728129496
  0
LINE
  5
25D
100
AcDbEntity
  8
0
100
AcDbLine
 62
7
  6
CONTINUOUS
 10
20.5934688613
 20
162.0728129496
 11
20.5934688613
 21
155.5728129496
  0
LINE
  5
25E
100
AcDbEntity
  8
0
100
AcDbLine
 62
7
  6
CONTINUOUS
 10
21.1234688613
 20
110.8728129496
 11
21.1234688613
 21
109.8728129496
  0
LINE
  5
25F
100
AcDbEntity
  8
0
100
AcDbLine
 62
7
  6
CONTINUOUS
 10
21.645119291
 20
114.0851235511
 11
20.8805237261
 21
113.3205279863
  0
LINE
  5
260
100
AcDbEntity
  8
0
100
AcDbLine
 62
7
  6
CONTINUOUS
 10
21.9411838979
 20
112.2598678145
 11
22.7057794628
 21
113.0244633793
  0
LINE
  5
261
100
AcDbEntity
  8
0
100
AcDbLine
 62
7
  6
CONTINUOUS
 10
18.1934688613
 20
43.6928129496
 11
114.1434688613
 21
43.6928129496
  0
LINE
  5
262
100
AcDbEntity
  8
0
100
AcDbLine
 62
7
  6
CONTINUOUS
 10
116.0434688613
 20
43.6928129496
 11
117.2934688613
 21
43.6928129496
  0
LINE
  5
263
100
AcDbEntity
  8
0
100
AcDbLine
 62
7
  6
CONTINUOUS
 10
115.8434688613
 20
43.8328129496
 11
114.3434688613
 21
43.8328129496
  0
LINE
  5
264
100
AcDbEntity
  8
0
100
AcDbLine
 62
7
  6
CONTINUOUS
 10
18.1434688613
 20
47.3828129496
 11
15.5434688613
 21
47.3828129496
  0
LINE
  5
265
100
AcDbEntity
  8
0
100
AcDbLine
 62
7
  6
CONTINUOUS
 10
117.6434688613
 20
47.3828129496
 11
120.2434688613
 21
47.3828129496
  0
LINE
  5
266
100
AcDbEntity
  8
0
100
AcDbLine
 62
7
  6
CONTINUOUS
 10
120.2434688613
 20
47.5428129496
 11
117.2934688613
 21
47.5428129496
  0
LINE
  5
267
100
AcDbEntity
  8
0
100
AcDbLine
 62
7
  6
CONTINUOUS
 10
18.1934688613
 20
47.5428129496
 11
15.5434688613
 21
47.5428129496
  0
LINE
  5
268
100
AcDbEntity
  8
0
100
AcDbLine
 62
7
  6
CONTINUOUS
 10
25.3934688613
 20
14.5728129496
 11
25.3934688613
 21
13.4028129496
  0
LINE
  5
269
100
AcDbEntity
  8
0
100
AcDbLine
 62
7
  6
CONTINUOUS
 10
25.6934688613
 20
172.6328129496
 11
25.6934688613
 21
171.5728129496
  0
LINE
  5
26A
100
AcDbEntity
  8
0
100
AcDbLine
 62
7
  6
CONTINUOUS
 10
27.8684688613
 20
23.1728129496
 11
27.8684688613
 21
14.5728129496
  0
LINE
  5
26B
100
AcDbEntity
  8
0
100
AcDbLine
 62
7
  6
CONTINUOUS
 10
27.8684688613
 20
162.9728129496
 11
27.8684688613
 21
171.5728129496
  0
LINE
  5
26C
100
AcDbEntity
  8
0
100
AcDbLine
 62
7
  6
CONTINUOUS
 10
28.3934688613
 20
23.0728129496
 11
28.3934688613
 21
14.5728129496
  0
LINE
  5
26D
100
AcDbEntity
  8
0
100
AcDbLine
 62
7
  6
CONTINUOUS
 10
28.3934688613
 20
163.0728129496
 11
28.3934688613
 21
171.5728129496
  0
LINE
  5
26E
100
AcDbEntity
  8
0
100
AcDbLine
 62
7
  6
CONTINUOUS
 10
118.3434688613
 20
56.1445109979
 11
113.3434688613
 21
56.1445109979
  0
LINE
  5
26F
100
AcDbEntity
  8
0
100
AcDbLine
 62
7
  6
CONTINUOUS
 10
113.3434688613
 20
57.4007666661
 11
118.3434688613
 21
57.4007666661
  0
LINE
  5
270
100
AcDbEntity
  8
0
100
AcDbLine
 62
7
  6
CONTINUOUS
 10
85.5934688613
 20
58.1428129496
 11
87.6934688613
 21
58.1428129496
  0
LINE
  5
271
100
AcDbEntity
  8
0
100
AcDbLine
 62
7
  6
CONTINUOUS
 10
87.4434688613
 20
58.4828129496
 11
85.8434688613
 21
58.4828129496
  0
LINE
  5
272
100
AcDbEntity
  8
0
100
AcDbLine
 62
7
  6
CONTINUOUS
 10
91.3934688613
 20
59.4428129496
 11
87.6934688613
 21
59.4428129496
  0
LINE
  5
273
100
AcDbEntity
  8
0
100
AcDbLine
 62
7
  6
CONTINUOUS
 10
85.5934688613
 20
59.4428129496
 11
81.8934688613
 21
59.4428129496
  0
LINE
  5
274
100
AcDbEntity
  8
0
100
AcDbLine
 62
7
  6
CONTINUOUS
 10
113.8434688613
 20
59.6007666661
 11
114.5434688613
 21
59.6007666661
  0
LINE
  5
275
100
AcDbEntity
  8
0
100
AcDbLine
 62
7
  6
CONTINUOUS
 10
117.1434688613
 20
59.6007666661
 11
117.8434688613
 21
59.6007666661
  0
LINE
  5
276
100
AcDbEntity
  8
0
100
AcDbLine
 62
7
  6
CONTINUOUS
 10
91.3934688613
 20
61.3428129496
 11
87.6934688613
 21
61.3428129496
  0
LINE
  5
277
100
AcDbEntity
  8
0
100
AcDbLine
 62
7
  6
CONTINUOUS
 10
85.5934688613
 20
61.3428129496
 11
81.8934688613
 21
61.3428129496
  0
LINE
  5
278
100
AcDbEntity
  8
0
100
AcDbLine
 62
7
  6
CONTINUOUS
 10
37.3934688613
 20
23.0728129496
 11
37.3934688613
 21
14.5728129496
  0
LINE
  5
279
100
AcDbEntity
  8
0
100
AcDbLine
 62
7
  6
CONTINUOUS
 10
37.3934688613
 20
163.0728129496
 11
37.3934688613
 21
171.5728129496
  0
LINE
  5
27A
100
AcDbEntity
  8
0
100
AcDbLine
 62
7
  6
CONTINUOUS
 10
37.8684688613
 20
23.1728129496
 11
37.8684688613
 21
14.5728129496
  0
LINE
  5
27B
100
AcDbEntity
  8
0
100
AcDbLine
 62
7
  6
CONTINUOUS
 10
37.8684688613
 20
162.9728129496
 11
37.8684688613
 21
171.5728129496
  0
LINE
  5
27C
100
AcDbEntity
  8
0
100
AcDbLine
 62
7
  6
CONTINUOUS
 10
40.0934688613
 20
13.4028129496
 11
40.0934688613
 21
14.5728129496
  0
LINE
  5
27D
100
AcDbEntity
  8
0
100
AcDbLine
 62
7
  6
CONTINUOUS
 10
40.3934688613
 20
171.5728129496
 11
40.3934688613
 21
172.6328129496
  0
LINE
  5
27E
100
AcDbEntity
  8
0
100
AcDbLine
 62
7
  6
CONTINUOUS
 10
85.5934688613
 20
62.5828129496
 11
87.6934688613
 21
62.5828129496
  0
LINE
  5
27F
100
AcDbEntity
  8
0
100
AcDbLine
 62
7
  6
CONTINUOUS
 10
15.5434688613
 20
62.9428129496
 11
85.5934688613
 21
62.9428129496
  0
LINE
  5
280
100
AcDbEntity
  8
0
100
AcDbLine
 62
7
  6
CONTINUOUS
 10
87.6934688613
 20
62.9428129496
 11
120.2434688613
 21
62.9428129496
  0
LINE
  5
281
100
AcDbEntity
  8
0
100
AcDbLine
 62
7
  6
CONTINUOUS
 10
120.2434688613
 20
63.5728129496
 11
15.5434688613
 21
63.5728129496
  0
LINE
  5
282
100
AcDbEntity
  8
0
100
AcDbLine
 62
7
  6
CONTINUOUS
 10
120.2434688613
 20
64.1728129496
 11
15.5434688613
 21
64.1728129496
  0
LINE
  5
283
100
AcDbEntity
  8
0
100
AcDbLine
 62
7
  6
CONTINUOUS
 10
54.4082146949
 20
65.5896639951
 11
81.3696336405
 21
65.5896639951
  0
LINE
  5
284
100
AcDbEntity
  8
0
100
AcDbLine
 62
7
  6
CONTINUOUS
 10
81.3696336405
 20
65.8172583361
 11
54.4082212936
 21
65.8172583361
  0
LINE
  5
285
100
AcDbEntity
  8
0
100
AcDbLine
 62
7
  6
CONTINUOUS
 10
81.3696336405
 20
66.4120437944
 11
54.4082385381
 21
66.4120437944
  0
LINE
  5
286
100
AcDbEntity
  8
0
100
AcDbLine
 62
7
  6
CONTINUOUS
 10
81.3696336405
 20
66.5728129496
 11
54.4082431993
 21
66.5728129496
  0
LINE
  5
287
100
AcDbEntity
  8
0
100
AcDbLine
 62
7
  6
CONTINUOUS
 10
80.0684688613
 20
67.5728129496
 11
69.2859225969
 21
67.5728129496
  0
LINE
  5
288
100
AcDbEntity
  8
0
100
AcDbLine
 62
7
  6
CONTINUOUS
 10
51.6434688613
 20
14.5728129496
 11
51.4394004253
 21
22.3658721115
  0
LINE
  5
289
100
AcDbEntity
  8
0
100
AcDbLine
 62
7
  6
CONTINUOUS
 10
47.7434688613
 20
30.0728129496
 11
47.7434688613
 21
31.0728129496
  0
LINE
  5
28A
100
AcDbEntity
  8
0
100
AcDbLine
 62
7
  6
CONTINUOUS
 10
49.1434688613
 20
168.2378764591
 11
49.1434688613
 21
171.5728129496
  0
LINE
  5
28B
100
AcDbEntity
  8
0
100
AcDbLine
 62
7
  6
CONTINUOUS
 10
49.1934688613
 20
17.9077494402
 11
49.1934688613
 21
14.5728129496
  0
LINE
  5
28C
100
AcDbEntity
  8
0
100
AcDbLine
 62
7
  6
CONTINUOUS
 10
51.439993371
 20
163.8023974699
 11
51.6434688613
 21
171.5728129497
  0
LINE
  5
28D
100
AcDbEntity
  8
0
100
AcDbLine
 62
7
  6
CONTINUOUS
 10
69.2859225969
 20
72.5728129496
 11
80.0684688613
 21
72.5728129496
  0
LINE
  5
28E
100
AcDbEntity
  8
0
100
AcDbLine
 62
7
  6
CONTINUOUS
 10
81.3696336405
 20
73.5728129496
 11
54.4084461493
 21
73.5728129496
  0
LINE
  5
28F
100
AcDbEntity
  8
0
100
AcDbLine
 62
7
  6
CONTINUOUS
 10
81.3696336405
 20
73.7335824652
 11
54.4084508105
 21
73.7335824652
  0
LINE
  5
290
100
AcDbEntity
  8
0
100
AcDbLine
 62
7
  6
CONTINUOUS
 10
49.1434688613
 20
171.5728129496
 11
49.3469443516
 21
163.8023974699
  0
LINE
  5
291
100
AcDbEntity
  8
0
100
AcDbLine
 62
7
  6
CONTINUOUS
 10
51.6434688613
 20
168.2378764591
 11
51.6434688613
 21
171.5728129496
  0
LINE
  5
292
100
AcDbEntity
  8
0
100
AcDbLine
 62
7
  6
CONTINUOUS
 10
51.6934688613
 20
17.9077494402
 11
51.6934688613
 21
14.5728129496
  0
LINE
  5
293
100
AcDbEntity
  8
0
100
AcDbLine
 62
7
  6
CONTINUOUS
 10
53.0434688613
 20
31.0728129496
 11
53.0434688613
 21
30.0728129496
  0
LINE
  5
294
100
AcDbEntity
  8
0
100
AcDbLine
 62
7
  6
CONTINUOUS
 10
53.90364032
 20
131.0728129496
 11
53.90364032
 21
83.1728129496
  0
LINE
  5
295
100
AcDbEntity
  8
0
100
AcDbLine
 62
7
  6
CONTINUOUS
 10
54.4082146949
 20
65.5896639951
 11
54.4103372843
 21
138.8004072722
  0
LINE
  5
296
100
AcDbEntity
  8
0
100
AcDbLine
 62
7
  6
CONTINUOUS
 10
55.3434688613
 20
66.5728129496
 11
55.3434688613
 21
73.5728129496
  0
LINE
  5
297
100
AcDbEntity
  8
0
100
AcDbLine
 62
7
  6
CONTINUOUS
 10
49.3463151388
 20
22.3191997617
 11
49.1934688613
 21
16.4822359146
  0
LINE
  5
298
100
AcDbEntity
  8
0
100
AcDbLine
 62
7
  6
CONTINUOUS
 10
81.3696336405
 20
75.0120434343
 11
54.4084878767
 21
75.0120434343
  0
LINE
  5
299
100
AcDbEntity
  8
0
100
AcDbLine
 62
7
  6
CONTINUOUS
 10
81.3696336405
 20
75.1728129496
 11
54.4084925379
 21
75.1728129496
  0
LINE
  5
29A
100
AcDbEntity
  8
0
100
AcDbLine
 62
7
  6
CONTINUOUS
 10
22.7057794628
 20
113.0244633793
 11
21.645119291
 21
114.0851235511
  0
LINE
  5
29B
100
AcDbEntity
  8
0
100
AcDbLine
 62
7
  6
CONTINUOUS
 10
60.3934688613
 20
14.5728129496
 11
60.3934688613
 21
13.4028129496
  0
LINE
  5
29C
100
AcDbEntity
  8
0
100
AcDbLine
 62
7
  6
CONTINUOUS
 10
60.6389241677
 20
85.2731532557
 11
60.6389241677
 21
128.4877740845
  0
LINE
  5
29D
100
AcDbEntity
  8
0
100
AcDbLine
 62
7
  6
CONTINUOUS
 10
60.6934688613
 20
172.6328129496
 11
60.6934688613
 21
171.5728129496
  0
LINE
  5
29E
100
AcDbEntity
  8
0
100
AcDbLine
 62
7
  6
CONTINUOUS
 10
61.4434688613
 20
66.5728129496
 11
61.4434688613
 21
73.5728129496
  0
LINE
  5
29F
100
AcDbEntity
  8
0
100
AcDbLine
 62
7
  6
CONTINUOUS
 10
81.3696336405
 20
83.1728130135
 11
54.4087244809
 21
83.1728130135
  0
LINE
  5
2A0
100
AcDbEntity
  8
0
100
AcDbLine
 62
7
  6
CONTINUOUS
 10
53.90364032
 20
83.1728129496
 11
17.6434688613
 21
83.1728129496
  0
LINE
  5
2A1
100
AcDbEntity
  8
0
100
AcDbLine
 62
7
  6
CONTINUOUS
 10
60.6389241677
 20
85.2731532557
 11
75.1389241677
 21
85.2731532557
  0
LINE
  5
2A2
100
AcDbEntity
  8
0
100
AcDbLine
 62
7
  6
CONTINUOUS
 10
62.5789241677
 20
85.3247549076
 11
73.1989241677
 21
85.3247549076
  0
LINE
  5
2A3
100
AcDbEntity
  8
0
100
AcDbLine
 62
7
  6
CONTINUOUS
 10
75.1389241677
 20
86.2881940328
 11
73.1989241677
 21
86.2881940328
  0
LINE
  5
2A4
100
AcDbEntity
  8
0
100
AcDbLine
 62
7
  6
CONTINUOUS
 10
62.5789241677
 20
86.2881940328
 11
60.6389241677
 21
86.2881940328
  0
LINE
  5
2A5
100
AcDbEntity
  8
0
100
AcDbLine
 62
7
  6
CONTINUOUS
 10
62.5789241677
 20
87.1312533534
 11
73.1989241677
 21
87.1312533534
  0
LINE
  5
2A6
100
AcDbEntity
  8
0
100
AcDbLine
 62
7
  6
CONTINUOUS
 10
62.5789241677
 20
85.3250735665
 11
62.5789241677
 21
99.3656093417
  0
LINE
  5
2A7
100
AcDbEntity
  8
0
100
AcDbLine
 62
7
  6
CONTINUOUS
 10
62.8684688613
 20
23.1728129496
 11
62.8684688613
 21
14.5728129496
  0
LINE
  5
2A8
100
AcDbEntity
  8
0
100
AcDbLine
 62
7
  6
CONTINUOUS
 10
62.8684688613
 20
162.9728129496
 11
62.8684688613
 21
171.5728129496
  0
LINE
  5
2A9
100
AcDbEntity
  8
0
100
AcDbLine
 62
7
  6
CONTINUOUS
 10
63.3934688613
 20
23.0728129496
 11
63.3934688613
 21
14.5728129496
  0
LINE
  5
2AA
100
AcDbEntity
  8
0
100
AcDbLine
 62
7
  6
CONTINUOUS
 10
63.3934688613
 20
163.0728129496
 11
63.3934688613
 21
171.5728129496
  0
LINE
  5
2AB
100
AcDbEntity
  8
0
100
AcDbLine
 62
7
  6
CONTINUOUS
 10
73.1989241677
 20
87.7959388721
 11
62.5789241677
 21
87.7959388721
  0
LINE
  5
2AC
100
AcDbEntity
  8
0
100
AcDbLine
 62
7
  6
CONTINUOUS
 10
75.1389241677
 20
88.8442088424
 11
73.1989241677
 21
88.8442088424
  0
LINE
  5
2AD
100
AcDbEntity
  8
0
100
AcDbLine
 62
7
  6
CONTINUOUS
 10
62.5789241677
 20
88.8442088424
 11
60.6389241677
 21
88.8442088424
  0
LINE
  5
2AE
100
AcDbEntity
  8
0
100
AcDbLine
 62
7
  6
CONTINUOUS
 10
62.5789241677
 20
90.8445090093
 11
73.1989241677
 21
90.8445090093
  0
LINE
  5
2AF
100
AcDbEntity
  8
0
100
AcDbLine
 62
7
  6
CONTINUOUS
 10
69.2859225969
 20
67.5728129496
 11
69.2859225969
 21
72.5728129496
  0
LINE
  5
2B0
100
AcDbEntity
  8
0
100
AcDbLine
 62
7
  6
CONTINUOUS
 10
72.3934688613
 20
23.0728129496
 11
72.3934688613
 21
14.5728129496
  0
LINE
  5
2B1
100
AcDbEntity
  8
0
100
AcDbLine
 62
7
  6
CONTINUOUS
 10
72.3934688613
 20
163.0728129496
 11
72.3934688613
 21
171.5728129496
  0
LINE
  5
2B2
100
AcDbEntity
  8
0
100
AcDbLine
 62
7
  6
CONTINUOUS
 10
72.8684688613
 20
23.1728129496
 11
72.8684688613
 21
14.5728129496
  0
LINE
  5
2B3
100
AcDbEntity
  8
0
100
AcDbLine
 62
7
  6
CONTINUOUS
 10
72.8684688613
 20
162.9728129496
 11
72.8684688613
 21
171.5728129496
  0
LINE
  5
2B4
100
AcDbEntity
  8
0
100
AcDbLine
 62
7
  6
CONTINUOUS
 10
73.1989241677
 20
85.3250754311
 11
73.1989241677
 21
99.3656093417
  0
LINE
  5
2B5
100
AcDbEntity
  8
0
100
AcDbLine
 62
7
  6
CONTINUOUS
 10
75.0934688613
 20
13.4028129496
 11
75.0934688613
 21
14.5728129496
  0
LINE
  5
2B6
100
AcDbEntity
  8
0
100
AcDbLine
 62
7
  6
CONTINUOUS
 10
73.1989241677
 20
96.0165215269
 11
62.5789241677
 21
96.0165215269
  0
LINE
  5
2B7
100
AcDbEntity
  8
0
100
AcDbLine
 62
7
  6
CONTINUOUS
 10
73.1989241677
 20
96.2835274491
 11
62.5789241677
 21
96.2835274491
  0
LINE
  5
2B8
100
AcDbEntity
  8
0
100
AcDbLine
 62
7
  6
CONTINUOUS
 10
62.5789241677
 20
96.4816818484
 11
73.1989241677
 21
96.4816818484
  0
LINE
  5
2B9
100
AcDbEntity
  8
0
100
AcDbLine
 62
7
  6
CONTINUOUS
 10
73.1989241677
 20
96.5147391827
 11
62.5789241677
 21
96.5147391827
  0
LINE
  5
2BA
100
AcDbEntity
  8
0
100
AcDbLine
 62
7
  6
CONTINUOUS
 10
73.1989241677
 20
99.3656093428
 11
62.5789241677
 21
99.3656093428
  0
LINE
  5
2BB
100
AcDbEntity
  8
0
100
AcDbLine
 62
7
  6
CONTINUOUS
 10
75.1389241677
 20
128.4877740845
 11
75.1389241677
 21
85.2731532557
  0
LINE
  5
2BC
100
AcDbEntity
  8
0
100
AcDbLine
 62
7
  6
CONTINUOUS
 10
75.3934688613
 20
171.5728129496
 11
75.3934688613
 21
172.6328129496
  0
LINE
  5
2BD
100
AcDbEntity
  8
0
100
AcDbLine
 62
7
  6
CONTINUOUS
 10
80.0684688613
 20
72.5728129496
 11
80.0684688613
 21
67.5728129496
  0
LINE
  5
2BE
100
AcDbEntity
  8
0
100
AcDbLine
 62
7
  6
CONTINUOUS
 10
81.3696336405
 20
65.5896639951
 11
81.3696336405
 21
138.8004072722
  0
LINE
  5
2BF
100
AcDbEntity
  8
0
100
AcDbLine
 62
7
  6
CONTINUOUS
 10
86.6434688613
 20
14.5728129496
 11
86.4394004253
 21
22.3658721115
  0
LINE
  5
2C0
100
AcDbEntity
  8
0
100
AcDbLine
 62
7
  6
CONTINUOUS
 10
84.1434688613
 20
171.5728129496
 11
84.3472236422
 21
163.7917317932
  0
LINE
  5
2C1
100
AcDbEntity
  8
0
100
AcDbLine
 62
7
  6
CONTINUOUS
 10
81.8934688613
 20
61.3428129496
 11
81.8934688613
 21
59.4428129496
  0
LINE
  5
2C2
100
AcDbEntity
  8
0
100
AcDbLine
 62
7
  6
CONTINUOUS
 10
84.1184688613
 20
168.2378764591
 11
84.1184688613
 21
171.5728129496
  0
LINE
  5
2C3
100
AcDbEntity
  8
0
100
AcDbLine
 62
7
  6
CONTINUOUS
 10
84.1934688613
 20
17.9077494402
 11
84.1934688613
 21
14.5728129496
  0
LINE
  5
2C4
100
AcDbEntity
  8
0
100
AcDbLine
 62
7
  6
CONTINUOUS
 10
85.5934688613
 20
62.9428129496
 11
85.5934688613
 21
58.1428129496
  0
LINE
  5
2C5
100
AcDbEntity
  8
0
100
AcDbLine
 62
7
  6
CONTINUOUS
 10
85.8434688613
 20
58.4828129496
 11
85.8434688613
 21
62.5828129496
  0
LINE
  5
2C6
100
AcDbEntity
  8
0
100
AcDbLine
 62
7
  6
CONTINUOUS
 10
86.6184688613
 20
168.2378764591
 11
86.6184688613
 21
171.5728129496
  0
LINE
  5
2C7
100
AcDbEntity
  8
0
100
AcDbLine
 62
7
  6
CONTINUOUS
 10
86.6934688613
 20
17.9077494402
 11
86.6934688613
 21
14.5728129496
  0
LINE
  5
2C8
100
AcDbEntity
  8
0
100
AcDbLine
 62
7
  6
CONTINUOUS
 10
87.4434688613
 20
62.5828129496
 11
87.4434688613
 21
58.4828129496
  0
LINE
  5
2C9
100
AcDbEntity
  8
0
100
AcDbLine
 62
7
  6
CONTINUOUS
 10
87.6934688613
 20
58.1428129496
 11
87.6934688613
 21
62.9428129496
  0
LINE
  5
2CA
100
AcDbEntity
  8
0
100
AcDbLine
 62
7
  6
CONTINUOUS
 10
86.4403033683
 20
163.8142357892
 11
86.6184688613
 21
170.6181014671
  0
LINE
  5
2CB
100
AcDbEntity
  8
0
100
AcDbLine
 62
7
  6
CONTINUOUS
 10
84.3463151388
 20
22.3191997617
 11
84.1934688613
 21
16.4822359146
  0
LINE
  5
2CC
100
AcDbEntity
  8
0
100
AcDbLine
 62
7
  6
CONTINUOUS
 10
114.1418184316
 20
114.0851235511
 11
113.0811582598
 21
113.0244633794
  0
LINE
  5
2CD
100
AcDbEntity
  8
0
100
AcDbLine
 62
7
  6
CONTINUOUS
 10
18.9934688613
 20
106.8728129496
 11
15.5434688613
 21
106.8728129496
  0
LINE
  5
2CE
100
AcDbEntity
  8
0
100
AcDbLine
 62
7
  6
CONTINUOUS
 10
116.7934688613
 20
106.8728129496
 11
120.2434688613
 21
106.8728129496
  0
LINE
  5
2CF
100
AcDbEntity
  8
0
100
AcDbLine
 62
7
  6
CONTINUOUS
 10
118.9234688613
 20
109.8728129496
 11
117.3434688613
 21
109.8728129496
  0
LINE
  5
2D0
100
AcDbEntity
  8
0
100
AcDbLine
 62
7
  6
CONTINUOUS
 10
116.2434688613
 20
109.8728129496
 11
114.6634688613
 21
109.8728129496
  0
LINE
  5
2D1
100
AcDbEntity
  8
0
100
AcDbLine
 62
7
  6
CONTINUOUS
 10
21.1234688613
 20
109.8728129496
 11
19.5434688613
 21
109.8728129496
  0
LINE
  5
2D2
100
AcDbEntity
  8
0
100
AcDbLine
 62
7
  6
CONTINUOUS
 10
18.4434688613
 20
109.8728129496
 11
16.8634688613
 21
109.8728129496
  0
LINE
  5
2D3
100
AcDbEntity
  8
0
100
AcDbLine
 62
7
  6
CONTINUOUS
 10
16.8634688613
 20
110.8728129496
 11
18.4434688613
 21
110.8728129496
  0
LINE
  5
2D4
100
AcDbEntity
  8
0
100
AcDbLine
 62
7
  6
CONTINUOUS
 10
19.5434688613
 20
110.8728129496
 11
21.1234688613
 21
110.8728129496
  0
LINE
  5
2D5
100
AcDbEntity
  8
0
100
AcDbLine
 62
7
  6
CONTINUOUS
 10
114.6634688613
 20
110.8728129496
 11
116.2434688613
 21
110.8728129496
  0
LINE
  5
2D6
100
AcDbEntity
  8
0
100
AcDbLine
 62
7
  6
CONTINUOUS
 10
117.3434688613
 20
110.8728129496
 11
118.9234688613
 21
110.8728129496
  0
LINE
  5
2D7
100
AcDbEntity
  8
0
100
AcDbLine
 62
7
  6
CONTINUOUS
 10
91.3934688613
 20
61.3428129496
 11
91.3934688613
 21
59.4428129496
  0
LINE
  5
2D8
100
AcDbEntity
  8
0
100
AcDbLine
 62
7
  6
CONTINUOUS
 10
18.9872474553
 20
113.8728129496
 11
15.5434688613
 21
113.8728129496
  0
LINE
  5
2D9
100
AcDbEntity
  8
0
100
AcDbLine
 62
7
  6
CONTINUOUS
 10
116.7934688613
 20
113.8728129496
 11
120.2434688613
 21
113.8728129496
  0
LINE
  5
2DA
100
AcDbEntity
  8
0
100
AcDbLine
 62
7
  6
CONTINUOUS
 10
60.6389241677
 20
114.643574658
 11
75.1389241677
 21
114.643574658
  0
LINE
  5
2DB
100
AcDbEntity
  8
0
100
AcDbLine
 62
7
  6
CONTINUOUS
 10
75.1389241677
 20
115.1798213291
 11
60.6389241677
 21
115.1798213291
  0
LINE
  5
2DC
100
AcDbEntity
  8
0
100
AcDbLine
 62
7
  6
CONTINUOUS
 10
75.1389241677
 20
118.9410956492
 11
60.6389241677
 21
118.9410956492
  0
LINE
  5
2DD
100
AcDbEntity
  8
0
100
AcDbLine
 62
7
  6
CONTINUOUS
 10
95.3934688613
 20
14.5728129496
 11
95.3934688613
 21
13.4028129496
  0
LINE
  5
2DE
100
AcDbEntity
  8
0
100
AcDbLine
 62
7
  6
CONTINUOUS
 10
95.6934688613
 20
172.6328129496
 11
95.6934688613
 21
171.5728129496
  0
LINE
  5
2DF
100
AcDbEntity
  8
0
100
AcDbLine
 62
7
  6
CONTINUOUS
 10
97.8684688613
 20
23.1728129496
 11
97.8684688613
 21
14.5728129496
  0
LINE
  5
2E0
100
AcDbEntity
  8
0
100
AcDbLine
 62
7
  6
CONTINUOUS
 10
97.8684688613
 20
162.9728129496
 11
97.8684688613
 21
171.5728129496
  0
LINE
  5
2E1
100
AcDbEntity
  8
0
100
AcDbLine
 62
7
  6
CONTINUOUS
 10
98.3934688613
 20
23.0728129496
 11
98.3934688613
 21
14.5728129496
  0
LINE
  5
2E2
100
AcDbEntity
  8
0
100
AcDbLine
 62
7
  6
CONTINUOUS
 10
98.3934688613
 20
163.0728129496
 11
98.3934688613
 21
171.5728129496
  0
LINE
  5
2E3
100
AcDbEntity
  8
0
100
AcDbLine
 62
7
  6
CONTINUOUS
 10
75.1389241677
 20
120.0118492998
 11
60.6389241677
 21
120.0118492998
  0
LINE
  5
2E4
100
AcDbEntity
  8
0
100
AcDbLine
 62
7
  6
CONTINUOUS
 10
75.1389241677
 20
124.8061428009
 11
60.6389241677
 21
124.8061428009
  0
LINE
  5
2E5
100
AcDbEntity
  8
0
100
AcDbLine
 62
7
  6
CONTINUOUS
 10
75.1389241677
 20
126.1000814151
 11
60.6389241677
 21
126.1000814151
  0
LINE
  5
2E6
100
AcDbEntity
  8
0
100
AcDbLine
 62
7
  6
CONTINUOUS
 10
75.1389241677
 20
128.4877740845
 11
60.6389241677
 21
128.4877740845
  0
LINE
  5
2E7
100
AcDbEntity
  8
0
100
AcDbLine
 62
7
  6
CONTINUOUS
 10
17.6434688613
 20
131.0728129496
 11
53.90364032
 21
131.0728129496
  0
LINE
  5
2E8
100
AcDbEntity
  8
0
100
AcDbLine
 62
7
  6
CONTINUOUS
 10
54.4101132392
 20
131.0728129496
 11
81.3696336405
 21
131.0728129496
  0
LINE
  5
2E9
100
AcDbEntity
  8
0
100
AcDbLine
 62
7
  6
CONTINUOUS
 10
107.3934688613
 20
23.0728129496
 11
107.3934688613
 21
14.5728129496
  0
LINE
  5
2EA
100
AcDbEntity
  8
0
100
AcDbLine
 62
7
  6
CONTINUOUS
 10
107.3934688613
 20
163.0728129496
 11
107.3934688613
 21
171.5728129496
  0
LINE
  5
2EB
100
AcDbEntity
  8
0
100
AcDbLine
 62
7
  6
CONTINUOUS
 10
107.8684688613
 20
23.1728129496
 11
107.8684688613
 21
14.5728129496
  0
LINE
  5
2EC
100
AcDbEntity
  8
0
100
AcDbLine
 62
7
  6
CONTINUOUS
 10
107.8684688613
 20
162.9728129496
 11
107.8684688613
 21
171.5728129496
  0
LINE
  5
2ED
100
AcDbEntity
  8
0
100
AcDbLine
 62
7
  6
CONTINUOUS
 10
110.0934688613
 20
13.4028129496
 11
110.0934688613
 21
14.5728129496
  0
LINE
  5
2EE
100
AcDbEntity
  8
0
100
AcDbLine
 62
7
  6
CONTINUOUS
 10
110.3934688613
 20
171.5728129496
 11
110.3934688613
 21
172.6328129496
  0
LINE
  5
2EF
100
AcDbEntity
  8
0
100
AcDbLine
 62
7
  6
CONTINUOUS
 10
117.8434688613
 20
59.6007666661
 11
118.3434688613
 21
57.4007666661
  0
LINE
  5
2F0
100
AcDbEntity
  8
0
100
AcDbLine
 62
7
  6
CONTINUOUS
 10
113.3434688613
 20
56.1445109979
 11
113.3434688613
 21
57.4007666661
  0
LINE
  5
2F1
100
AcDbEntity
  8
0
100
AcDbLine
 62
7
  6
CONTINUOUS
 10
114.1434688613
 20
46.5928129496
 11
114.1434688613
 21
42.4928129496
  0
LINE
  5
2F2
100
AcDbEntity
  8
0
100
AcDbLine
 62
7
  6
CONTINUOUS
 10
114.3434688613
 20
43.8328129496
 11
114.3434688613
 21
46.6328129496
  0
LINE
  5
2F3
100
AcDbEntity
  8
0
100
AcDbLine
 62
7
  6
CONTINUOUS
 10
114.5434688613
 20
57.4007666661
 11
114.5434688613
 21
59.6007666661
  0
LINE
  5
2F4
100
AcDbEntity
  8
0
100
AcDbLine
 62
7
  6
CONTINUOUS
 10
114.6634688613
 20
109.8728129496
 11
114.6634688613
 21
110.8728129496
  0
LINE
  5
2F5
100
AcDbEntity
  8
0
100
AcDbLine
 62
7
  6
CONTINUOUS
 10
114.7434688613
 20
40.992823788
 11
114.7434688613
 21
42.4928129496
  0
LINE
  5
2F6
100
AcDbEntity
  8
0
100
AcDbLine
 62
7
  6
CONTINUOUS
 10
115.1934688613
 20
162.0728129496
 11
115.1934688613
 21
155.5728129496
  0
LINE
  5
2F7
100
AcDbEntity
  8
0
100
AcDbLine
 62
7
  6
CONTINUOUS
 10
115.4934688613
 20
24.1728129496
 11
115.4934688613
 21
35.1728129496
  0
LINE
  5
2F8
100
AcDbEntity
  8
0
100
AcDbLine
 62
7
  6
CONTINUOUS
 10
115.8434688613
 20
46.6328129496
 11
115.8434688613
 21
43.8328129496
  0
LINE
  5
2F9
100
AcDbEntity
  8
0
100
AcDbLine
 62
7
  6
CONTINUOUS
 10
116.0434688613
 20
38.9728129496
 11
116.0434688613
 21
40.5828129496
  0
LINE
  5
2FA
100
AcDbEntity
  8
0
100
AcDbLine
 62
7
  6
CONTINUOUS
 10
116.0434688613
 20
40.992823788
 11
116.0434688613
 21
46.5928129496
  0
LINE
  5
2FB
100
AcDbEntity
  8
0
100
AcDbLine
 62
7
  6
CONTINUOUS
 10
116.2434688613
 20
107.5651992965
 11
116.2434688613
 21
109.8728129496
  0
LINE
  5
2FC
100
AcDbEntity
  8
0
100
AcDbLine
 62
7
  6
CONTINUOUS
 10
116.2434688613
 20
110.8728129496
 11
116.2434688613
 21
113.1804266028
  0
LINE
  5
2FD
100
AcDbEntity
  8
0
100
AcDbLine
 62
7
  6
CONTINUOUS
 10
116.6934688613
 20
160.0728129496
 11
116.6934688613
 21
162.0728129496
  0
LINE
  5
2FE
100
AcDbEntity
  8
0
100
AcDbLine
 62
7
  6
CONTINUOUS
 10
116.8434688613
 20
26.1728129496
 11
116.8434688613
 21
24.1728129496
  0
LINE
  5
2FF
100
AcDbEntity
  8
0
100
AcDbLine
 62
7
  6
CONTINUOUS
 10
117.1434688613
 20
59.6007666661
 11
117.1434688613
 21
57.4007666661
  0
LINE
  5
300
100
AcDbEntity
  8
0
100
AcDbLine
 62
7
  6
CONTINUOUS
 10
117.2934688613
 20
40.992823788
 11
117.2934688613
 21
47.5428129496
  0
LINE
  5
301
100
AcDbEntity
  8
0
100
AcDbLine
 62
7
  6
CONTINUOUS
 10
117.3434688613
 20
113.1804266028
 11
117.3434688613
 21
110.8728129496
  0
LINE
  5
302
100
AcDbEntity
  8
0
100
AcDbLine
 62
7
  6
CONTINUOUS
 10
117.3434688613
 20
109.8728129496
 11
117.3434688613
 21
107.5651992965
  0
LINE
  5
303
100
AcDbEntity
  8
0
100
AcDbLine
 62
7
  6
CONTINUOUS
 10
117.5934688613
 20
47.5428129496
 11
117.5934688613
 21
42.6428129496
  0
LINE
  5
304
100
AcDbEntity
  8
0
100
AcDbLine
 62
7
  6
CONTINUOUS
 10
117.5934688613
 20
41.1428129496
 11
117.5934688613
 21
40.5828129496
  0
LINE
  5
305
100
AcDbEntity
  8
0
100
AcDbLine
 62
7
  6
CONTINUOUS
 10
117.6434688613
 20
47.3828129496
 11
117.6434688613
 21
40.5828129496
  0
LINE
  5
306
100
AcDbEntity
  8
0
100
AcDbLine
 62
7
  6
CONTINUOUS
 10
118.2434688613
 20
47.3828129496
 11
118.2434688613
 21
47.5428129496
  0
LINE
  5
307
100
AcDbEntity
  8
0
100
AcDbLine
 62
7
  6
CONTINUOUS
 10
118.2434688613
 20
62.9428129496
 11
118.2434688613
 21
63.5728129496
  0
LINE
  5
308
100
AcDbEntity
  8
0
100
AcDbLine
 62
7
  6
CONTINUOUS
 10
118.3434688613
 20
57.4007666661
 11
118.3434688613
 21
56.1445109979
  0
LINE
  5
309
100
AcDbEntity
  8
0
100
AcDbLine
 62
7
  6
CONTINUOUS
 10
118.7234688613
 20
165.4228129496
 11
118.7234688613
 21
171.5728129496
  0
LINE
  5
30A
100
AcDbEntity
  8
0
100
AcDbLine
 62
7
  6
CONTINUOUS
 10
118.9234688613
 20
110.8728129496
 11
118.9234688613
 21
109.8728129496
  0
LINE
  5
30B
100
AcDbEntity
  8
0
100
AcDbLine
 62
7
  6
CONTINUOUS
 10
119.1434688613
 20
21.8048637572
 11
119.1434688613
 21
26.3928129496
  0
LINE
  5
30C
100
AcDbEntity
  8
0
100
AcDbLine
 62
7
  6
CONTINUOUS
 10
119.2434688613
 20
28.2409681864
 11
119.2434688613
 21
20.7228129496
  0
LINE
  5
30D
100
AcDbEntity
  8
0
100
AcDbLine
 62
7
  6
CONTINUOUS
 10
119.2434688613
 20
157.9046577129
 11
119.2434688613
 21
165.4228129496
  0
LINE
  5
30E
100
AcDbEntity
  8
0
100
AcDbLine
 62
7
  6
CONTINUOUS
 10
81.3696336405
 20
138.6426544886
 11
54.4103327106
 21
138.6426544886
  0
LINE
  5
30F
100
AcDbEntity
  8
0
100
AcDbLine
 62
7
  6
CONTINUOUS
 10
81.3696336405
 20
138.8004072722
 11
54.4103372843
 21
138.8004072722
  0
LINE
  5
310
100
AcDbEntity
  8
0
100
AcDbLine
 62
7
  6
CONTINUOUS
 10
113.0811582598
 20
113.0244633794
 11
113.8457538247
 21
112.2598678145
  0
LINE
  5
311
100
AcDbEntity
  8
0
100
AcDbLine
 62
7
  6
CONTINUOUS
 10
114.9068449202
 20
113.3200970625
 11
114.1418184316
 21
114.0851235511
  0
LINE
  5
312
100
AcDbEntity
  8
0
100
AcDbLine
 62
7
  6
CONTINUOUS
 10
120.2434688613
 20
33.1684824201
 11
120.2434688613
 21
152.9771434791
  0
LINE
  5
313
100
AcDbEntity
  8
0
100
AcDbLine
 62
7
  6
CONTINUOUS
 10
118.6169172339
 20
18.7806673971
 11
118.5434688613
 21
14.5728129496
  0
LINE
  5
314
100
AcDbEntity
  8
0
100
AcDbLine
 62
7
  6
CONTINUOUS
 10
118.7434688613
 20
20.7228129496
 11
118.636120212
 21
14.5728129496
  0
LINE
  5
315
100
AcDbEntity
  8
0
100
AcDbLine
 62
7
  6
CONTINUOUS
 10
113.3434688613
 20
57.4007666661
 11
113.8434688613
 21
59.6007666661
  0
LINE
  5
316
100
AcDbEntity
  8
0
100
AcDbLine
 62
7
  6
CONTINUOUS
 10
120.2434688613
 20
145.5728129496
 11
15.5434688613
 21
145.5728129496
  0
LINE
  5
317
100
AcDbEntity
  8
0
100
AcDbLine
 62
7
  6
CONTINUOUS
 10
115.7234688613
 20
155.5728129496
 11
90.1434688613
 21
155.5728129496
  0
LINE
  5
318
100
AcDbEntity
  8
0
100
AcDbLine
 62
7
  6
CONTINUOUS
 10
80.6434688613
 20
155.5728129496
 11
20.0634688613
 21
155.5728129496
  0
LINE
  5
319
100
AcDbEntity
  8
0
100
AcDbLine
 62
7
  6
CONTINUOUS
 10
19.0934688613
 20
160.0728129496
 11
16.5434688613
 21
160.0728129496
  0
LINE
  5
31A
100
AcDbEntity
  8
0
100
AcDbLine
 62
7
  6
CONTINUOUS
 10
116.6934688613
 20
160.0728129496
 11
119.2434688613
 21
160.0728129496
  0
LINE
  5
31B
100
AcDbEntity
  8
0
100
AcDbLine
 62
7
  6
CONTINUOUS
 10
116.6934688613
 20
162.0728129496
 11
115.1934688613
 21
162.0728129496
  0
LINE
  5
31C
100
AcDbEntity
  8
0
100
AcDbLine
 62
7
  6
CONTINUOUS
 10
19.0934688613
 20
162.0728129496
 11
20.5934688613
 21
162.0728129496
  0
LINE
  5
31D
100
AcDbEntity
  8
0
100
AcDbLine
 62
7
  6
CONTINUOUS
 10
91.1521178474
 20
171.5728129496
 11
95.6934688613
 21
172.5796062306
  0
LINE
  5
31E
100
AcDbEntity
  8
0
100
AcDbLine
 62
7
  6
CONTINUOUS
 10
28.3934688613
 20
169.1878661662
 11
37.3934688613
 21
169.260635735
  0
LINE
  5
31F
100
AcDbEntity
  8
0
100
AcDbLine
 62
7
  6
CONTINUOUS
 10
63.3934688613
 20
169.4708589337
 11
72.3934688613
 21
169.5436285025
  0
LINE
  5
320
100
AcDbEntity
  8
0
100
AcDbLine
 62
7
  6
CONTINUOUS
 10
98.3934688613
 20
169.7538517012
 11
107.3934688613
 21
169.82662127
  0
LINE
  5
321
100
AcDbEntity
  8
0
100
AcDbLine
 62
7
  6
CONTINUOUS
 10
17.0634688613
 20
165.4228129496
 11
16.5434688613
 21
165.4228129496
  0
LINE
  5
322
100
AcDbEntity
  8
0
100
AcDbLine
 62
7
  6
CONTINUOUS
 10
118.7234688613
 20
165.4228129496
 11
119.2434688613
 21
165.4228129496
  0
LINE
  5
323
100
AcDbEntity
  8
0
100
AcDbLine
 62
7
  6
CONTINUOUS
 10
49.2874914299
 20
166.0728129496
 11
51.4994462926
 21
166.0728129496
  0
LINE
  5
324
100
AcDbEntity
  8
0
100
AcDbLine
 62
7
  6
CONTINUOUS
 10
84.2874914299
 20
166.0728129496
 11
86.4994462926
 21
166.0728129496
  0
LINE
  5
325
100
AcDbEntity
  8
0
100
AcDbLine
 62
7
  6
CONTINUOUS
 10
86.5649110966
 20
168.5728129496
 11
84.222026626
 21
168.5728129496
  0
LINE
  5
326
100
AcDbEntity
  8
0
100
AcDbLine
 62
7
  6
CONTINUOUS
 10
51.5649110966
 20
168.5728129496
 11
49.222026626
 21
168.5728129496
  0
LINE
  5
327
100
AcDbEntity
  8
0
100
AcDbLine
 62
7
  6
CONTINUOUS
 10
37.3934688613
 20
169.4128129496
 11
28.3934688613
 21
169.4128129496
  0
LINE
  5
328
100
AcDbEntity
  8
0
100
AcDbLine
 62
7
  6
CONTINUOUS
 10
40.3934688613
 20
172.5796062306
 11
44.9348198753
 21
171.5728129496
  0
LINE
  5
329
100
AcDbEntity
  8
0
100
AcDbLine
 62
7
  6
CONTINUOUS
 10
56.1521178474
 20
171.5728129496
 11
60.6934688613
 21
172.5796062306
  0
LINE
  5
32A
100
AcDbEntity
  8
0
100
AcDbLine
 62
7
  6
CONTINUOUS
 10
118.7234688613
 20
171.5728129496
 11
86.6184688613
 21
171.5728129496
  0
LINE
  5
32B
100
AcDbEntity
  8
0
100
AcDbLine
 62
7
  6
CONTINUOUS
 10
84.1184688613
 20
171.5728129496
 11
51.6434688613
 21
171.5728129496
  0
LINE
  5
32C
100
AcDbEntity
  8
0
100
AcDbLine
 62
7
  6
CONTINUOUS
 10
49.1434688613
 20
171.5728129496
 11
17.0634688613
 21
171.5728129496
  0
LINE
  5
32D
100
AcDbEntity
  8
0
100
AcDbLine
 62
7
  6
CONTINUOUS
 10
110.3934688613
 20
172.6328129496
 11
95.6934688613
 21
172.6328129496
  0
LINE
  5
32E
100
AcDbEntity
  8
0
100
AcDbLine
 62
7
  6
CONTINUOUS
 10
75.3934688613
 20
172.6328129496
 11
60.6934688613
 21
172.6328129496
  0
LINE
  5
32F
100
AcDbEntity
  8
0
100
AcDbLine
 62
7
  6
CONTINUOUS
 10
40.3934688613
 20
172.6328129496
 11
25.6934688613
 21
172.6328129496
  0
LINE
  5
330
100
AcDbEntity
  8
0
100
AcDbLine
 62
7
  6
CONTINUOUS
 10
75.3934688613
 20
172.5796062306
 11
79.9348198753
 21
171.5728129496
  0
LINE
  5
331
100
AcDbEntity
  8
0
100
AcDbLine
 62
7
  6
CONTINUOUS
 10
21.1521178474
 20
171.5728129496
 11
25.6934688613
 21
172.5796062306
  0
LINE
  5
332
100
AcDbEntity
  8
0
100
AcDbLine
 62
7
  6
CONTINUOUS
 10
110.3934688613
 20
172.5796062306
 11
114.9348198753
 21
171.5728129496
  0
CIRCLE
  5
333
100
AcDbEntity
  8
0
100
AcDbCircle
 62
7
  6
CONTINUOUS
 10
50.4434688613
 20
30.6728129496
 40
5.0375
  0
ARC
  5
334
100
AcDbEntity
  8
0
100
AcDbCircle
 62
7
  6
CONTINUOUS
 10
67.8684688613
 20
23.1728129496
 40
5.0
100
AcDbArc
 50
0.0
 51
180.0
  0
ARC
  5
335
100
AcDbEntity
  8
0
100
AcDbCircle
 62
7
  6
CONTINUOUS
 10
32.8684688613
 20
23.1728129496
 40
5.0
100
AcDbArc
 50
0.0
 51
180.0
  0
ARC
  5
336
100
AcDbEntity
  8
0
100
AcDbCircle
 62
7
  6
CONTINUOUS
 10
67.5184688613
 20
23.8228129496
 40
4.805
100
AcDbArc
 50
210.6190421787
 51
356.8850157576
  0
ARC
  5
337
100
AcDbEntity
  8
0
100
AcDbCircle
 62
7
  6
CONTINUOUS
 10
32.5184688613
 20
23.8228129496
 40
4.805
100
AcDbArc
 50
210.619041047
 51
356.8850159223
  0
ARC
  5
338
100
AcDbEntity
  8
0
100
AcDbCircle
 62
7
  6
CONTINUOUS
 10
32.8934688613
 20
23.0728129496
 40
4.5
100
AcDbArc
 50
0.0
 51
180.0
  0
ARC
  5
339
100
AcDbEntity
  8
0
100
AcDbCircle
 62
7
  6
CONTINUOUS
 10
50.3934688613
 20
31.0728129496
 40
2.65
100
AcDbArc
 50
0.0
 51
180.0
  0
ARC
  5
33A
100
AcDbEntity
  8
0
100
AcDbCircle
 62
7
  6
CONTINUOUS
 10
50.3934688613
 20
30.0728129496
 40
2.65
100
AcDbArc
 50
180.0
 51
360.0
  0
ARC
  5
33B
100
AcDbEntity
  8
0
100
AcDbCircle
 62
7
  6
CONTINUOUS
 10
15.3934688613
 20
30.5728129496
 40
2.6
100
AcDbArc
 50
296.251213935
 51
86.6926378203
  0
ARC
  5
33C
100
AcDbEntity
  8
0
100
AcDbCircle
 62
7
  6
CONTINUOUS
 10
50.4434688613
 20
20.0728129496
 40
2.5
100
AcDbArc
 50
300.0
 51
240.0
  0
ARC
  5
33D
100
AcDbEntity
  8
0
100
AcDbCircle
 62
7
  6
CONTINUOUS
 10
15.6434688613
 20
20.0728129496
 40
2.0
100
AcDbArc
 50
319.7538437238
 51
60.0
  0
CIRCLE
  5
33E
100
AcDbEntity
  8
0
100
AcDbCircle
 62
7
  6
CONTINUOUS
 10
20.0934688613
 20
17.2728129496
 40
1.5
  0
CIRCLE
  5
33F
100
AcDbEntity
  8
0
100
AcDbCircle
 62
7
  6
CONTINUOUS
 10
20.0934688613
 20
17.2728129496
 40
1.225
  0
ARC
  5
340
100
AcDbEntity
  8
0
100
AcDbCircle
 62
7
  6
CONTINUOUS
 10
32.8684688613
 20
162.9728129496
 40
5.0
100
AcDbArc
 50
180.0
 51
360.0
  0
ARC
  5
341
100
AcDbEntity
  8
0
100
AcDbCircle
 62
7
  6
CONTINUOUS
 10
67.8684688613
 20
162.9728129496
 40
5.0
100
AcDbArc
 50
180.0
 51
360.0
  0
ARC
  5
342
100
AcDbEntity
  8
0
100
AcDbCircle
 62
7
  6
CONTINUOUS
 10
15.3934688613
 20
155.5728129496
 40
4.67
100
AcDbArc
 50
271.8406521197
 51
360.0
  0
ARC
  5
343
100
AcDbEntity
  8
0
100
AcDbCircle
 62
7
  6
CONTINUOUS
 10
33.236077993
 20
161.0467537382
 40
4.5
100
AcDbArc
 50
23.529368394
 51
174.9075138768
  0
ARC
  5
344
100
AcDbEntity
  8
0
100
AcDbCircle
 62
7
  6
CONTINUOUS
 10
32.8934688613
 20
163.0728129496
 40
4.5
100
AcDbArc
 50
180.0
 51
360.0
  0
ARC
  5
345
100
AcDbEntity
  8
0
100
AcDbCircle
 62
7
  6
CONTINUOUS
 10
18.9934688613
 20
110.3728129496
 40
3.5
100
AcDbArc
 50
270.0
 51
32.6263748835
  0
ARC
  5
346
100
AcDbEntity
  8
0
100
AcDbCircle
 62
7
  6
CONTINUOUS
 10
18.9934688613
 20
110.3728129496
 40
3.5
100
AcDbArc
 50
57.3736251163
 51
90.1018456939
  0
CIRCLE
  5
347
100
AcDbEntity
  8
0
100
AcDbCircle
 62
7
  6
CONTINUOUS
 10
18.9934688613
 20
110.3728129496
 40
2.8609778792
  0
ARC
  5
348
100
AcDbEntity
  8
0
100
AcDbCircle
 62
7
  6
CONTINUOUS
 10
15.3934688613
 20
155.5728129496
 40
2.6
100
AcDbArc
 50
273.3073621797
 51
63.748786065
  0
ARC
  5
349
100
AcDbEntity
  8
0
100
AcDbCircle
 62
7
  6
CONTINUOUS
 10
15.3934688613
 20
166.0728129496
 40
2.5
100
AcDbArc
 50
297.3871075026
 51
48.0871091166
  0
ARC
  5
34A
100
AcDbEntity
  8
0
100
AcDbCircle
 62
7
  6
CONTINUOUS
 10
50.3934688613
 20
166.0728129496
 40
2.5
100
AcDbArc
 50
120.0
 51
60.0
  0
CIRCLE
  5
34B
100
AcDbEntity
  8
0
100
AcDbCircle
 62
7
  6
CONTINUOUS
 10
20.3934688613
 20
168.8728129496
 40
1.5
  0
CIRCLE
  5
34C
100
AcDbEntity
  8
0
100
AcDbCircle
 62
7
  6
CONTINUOUS
 10
48.9934688613
 20
104.7028129496
 40
1.45
  0
CIRCLE
  5
34D
100
AcDbEntity
  8
0
100
AcDbCircle
 62
7
  6
CONTINUOUS
 10
20.3934688613
 20
168.8728129496
 40
1.225
  0
ARC
  5
34E
100
AcDbEntity
  8
0
100
AcDbCircle
 62
7
  6
CONTINUOUS
 10
102.8684688613
 20
23.1728129496
 40
5.0
100
AcDbArc
 50
0.0
 51
180.0
  0
ARC
  5
34F
100
AcDbEntity
  8
0
100
AcDbCircle
 62
7
  6
CONTINUOUS
 10
102.5184688613
 20
23.8228129496
 40
4.805
100
AcDbArc
 50
210.6198608318
 51
356.8848966242
  0
ARC
  5
350
100
AcDbEntity
  8
0
100
AcDbCircle
 62
7
  6
CONTINUOUS
 10
67.8934688613
 20
23.0728129496
 40
4.5
100
AcDbArc
 50
0.0
 51
180.0
  0
ARC
  5
351
100
AcDbEntity
  8
0
100
AcDbCircle
 62
7
  6
CONTINUOUS
 10
102.8934688613
 20
23.0728129496
 40
4.5
100
AcDbArc
 50
0.0
 51
180.0
  0
ARC
  5
352
100
AcDbEntity
  8
0
100
AcDbCircle
 62
7
  6
CONTINUOUS
 10
120.3934688613
 20
30.5728129496
 40
2.6
100
AcDbArc
 50
93.3073621797
 51
243.748786065
  0
ARC
  5
353
100
AcDbEntity
  8
0
100
AcDbCircle
 62
7
  6
CONTINUOUS
 10
85.4434688613
 20
20.0728129496
 40
2.5
100
AcDbArc
 50
300.0
 51
240.0
  0
ARC
  5
354
100
AcDbEntity
  8
0
100
AcDbCircle
 62
7
  6
CONTINUOUS
 10
120.1434688613
 20
20.0728129496
 40
2.0
100
AcDbArc
 50
120.0
 51
220.246156276
  0
CIRCLE
  5
355
100
AcDbEntity
  8
0
100
AcDbCircle
 62
7
  6
CONTINUOUS
 10
115.7934688613
 20
17.2728129496
 40
1.5
  0
CIRCLE
  5
356
100
AcDbEntity
  8
0
100
AcDbCircle
 62
7
  6
CONTINUOUS
 10
115.7934688613
 20
17.2728129496
 40
1.225
  0
ARC
  5
357
100
AcDbEntity
  8
0
100
AcDbCircle
 62
7
  6
CONTINUOUS
 10
115.0934688613
 20
46.5928129496
 40
0.95
100
AcDbArc
 50
0.0
 51
180.0
  0
ARC
  5
358
100
AcDbEntity
  8
0
100
AcDbCircle
 62
7
  6
CONTINUOUS
 10
115.0934688613
 20
46.6328129496
 40
0.75
100
AcDbArc
 50
0.0
 51
180.0
  0
CIRCLE
  5
359
100
AcDbEntity
  8
0
100
AcDbCircle
 62
7
  6
CONTINUOUS
 10
86.7934688613
 20
104.7028129496
 40
1.45
  0
CIRCLE
  5
35A
100
AcDbEntity
  8
0
100
AcDbCircle
 62
7
  6
CONTINUOUS
 10
85.3934688613
 20
155.5728129496
 40
4.75
  0
ARC
  5
35B
100
AcDbEntity
  8
0
100
AcDbCircle
 62
7
  6
CONTINUOUS
 10
68.236077993
 20
161.0467537382
 40
4.5
100
AcDbArc
 50
23.529368394
 51
174.9075138768
  0
ARC
  5
35C
100
AcDbEntity
  8
0
100
AcDbCircle
 62
7
  6
CONTINUOUS
 10
67.8934688613
 20
163.0728129496
 40
4.5
100
AcDbArc
 50
180.0
 51
360.0
  0
CIRCLE
  5
35D
100
AcDbEntity
  8
0
100
AcDbCircle
 62
7
  6
CONTINUOUS
 10
85.3934688613
 20
155.5728129496
 40
2.6
  0
ARC
  5
35E
100
AcDbEntity
  8
0
100
AcDbCircle
 62
7
  6
CONTINUOUS
 10
85.3684688613
 20
166.0728129496
 40
2.5
100
AcDbArc
 50
120.0
 51
60.0
  0
ARC
  5
35F
100
AcDbEntity
  8
0
100
AcDbCircle
 62
7
  6
CONTINUOUS
 10
116.7934688613
 20
110.3728129496
 40
3.5
100
AcDbArc
 50
90.0
 51
122.6242367385
  0
ARC
  5
360
100
AcDbEntity
  8
0
100
AcDbCircle
 62
7
  6
CONTINUOUS
 10
116.7934688613
 20
110.3728129496
 40
3.5
100
AcDbArc
 50
147.3736251159
 51
270.0
  0
CIRCLE
  5
361
100
AcDbEntity
  8
0
100
AcDbCircle
 62
7
  6
CONTINUOUS
 10
116.7934688613
 20
110.3728129496
 40
2.8609778792
  0
ARC
  5
362
100
AcDbEntity
  8
0
100
AcDbCircle
 62
7
  6
CONTINUOUS
 10
102.8684688613
 20
162.9728129496
 40
5.0
100
AcDbArc
 50
180.0
 51
360.0
  0
ARC
  5
363
100
AcDbEntity
  8
0
100
AcDbCircle
 62
7
  6
CONTINUOUS
 10
120.3934688613
 20
155.5728129496
 40
4.67
100
AcDbArc
 50
180.0
 51
268.1593478803
  0
ARC
  5
364
100
AcDbEntity
  8
0
100
AcDbCircle
 62
7
  6
CONTINUOUS
 10
103.236077993
 20
161.0467537382
 40
4.5
100
AcDbArc
 50
23.529368394
 51
174.9075138768
  0
ARC
  5
365
100
AcDbEntity
  8
0
100
AcDbCircle
 62
7
  6
CONTINUOUS
 10
102.8934688613
 20
163.0728129496
 40
4.5
100
AcDbArc
 50
180.0
 51
360.0
  0
ARC
  5
366
100
AcDbEntity
  8
0
100
AcDbCircle
 62
7
  6
CONTINUOUS
 10
120.3934688613
 20
155.5728129496
 40
2.6
100
AcDbArc
 50
116.251213935
 51
266.6926378203
  0
ARC
  5
367
100
AcDbEntity
  8
0
100
AcDbCircle
 62
7
  6
CONTINUOUS
 10
120.3934688613
 20
166.0728129496
 40
2.5
100
AcDbArc
 50
131.9128908834
 51
242.6128924973
  0
CIRCLE
  5
368
100
AcDbEntity
  8
0
100
AcDbCircle
 62
7
  6
CONTINUOUS
 10
115.7434688613
 20
168.8728129496
 40
1.5
  0
CIRCLE
  5
369
100
AcDbEntity
  8
0
100
AcDbCircle
 62
7
  6
CONTINUOUS
 10
115.7434688613
 20
168.8728129496
 40
1.225
  0
ENDSEC
  0
SECTION
  2
OBJECTS
  0
DICTIONARY
  5
C
100
AcDbDictionary
280
0
281
1
  3
ACAD_GROUP
350
D
  3
ACAD_MLINESTYLE
350
17
  3
ACAD_LAYOUT
350
1A
  3
ACAD_PLOTSETTINGS
350
19
  3
ACAD_PLOTSTYLENAME
350
E
  0
DICTIONARY
  5
D
102
{ACAD_REACTORS
330
C
102
}
100
AcDbDictionary
280
0
281
1
  0
ACDBDICTIONARYWDFLT
  5
E
102
{ACAD_REACTORS
330
C
102
}
100
AcDbDictionary
281
1
  3
Normal
350
F
100
AcDbDictionaryWithDefault
340
F
  0
DICTIONARY
  5
17
102
{ACAD_REACTORS
330
C
102
}
100
AcDbDictionary
280
0
281
1
  3
Standard
350
18
  0
DICTIONARY
  5
19
102
{ACAD_REACTORS
330
C
102
}
100
AcDbDictionary
281
1
  0
DICTIONARY
  5
1A
102
{ACAD_REACTORS
330
C
102
}
100
AcDbDictionary
281
1
  3
Model
350
36A
  3
Layout1
350
36B
  0
ACDBPLACEHOLDER
  5
F
102
{ACAD_REACTORS
330
E
102
}
  0
MLINESTYLE
  5
18
102
{ACAD_REACTORS
330
17
102
}
100
AcDbMlineStyle
  2
STANDARD
 70
0
  3

 62
256
 51
90.0
 52
90.0
 71
2
 49
0.5
 62
256
  6
BYLAYER
 49
-0.5
 62
256
  6
BYLAYER
  0
LAYOUT
  5
36A
102
{ACAD_REACTORS
330
1A
102
}
100
AcDbPlotSettings
  1

  2
none_device
  4

  6

 40
0.0
 41
0.0
 42
0.0
 43
0.0
 44
210.0
 45
297.0
 46
0.0
 47
0.0
 48
0.0
 49
0.0
140
0.0
141
0.0
142
1.0
143
1.0
 70
1024
 72
1
 73
0
 74
0
  7

 75
0
147
1.0
148
0.0
149
0.0
100
AcDbLayout
  1
Model
 70
0
 71
0
 10
0.0
 20
0.0
 11
210.0
 21
297.0
 12
0.0
 22
0.0
 32
0.0
 14
0.0
 24
0.0
 34
0.0
 15
0.0
 25
0.0
 35
0.0
146
0.0
 13
0.0
 23
0.0
 33
0.0
 16
1.0
 26
0.0
 36
0.0
 17
0.0
 27
1.0
 37
0.0
 76
0
330
211
345
0
346
0
  0
LAYOUT
  5
36B
102
{ACAD_REACTORS
330
1A
102
}
100
AcDbPlotSettings
  1

  2
none_device
  4

  6

 40
0.0
 41
0.0
 42
0.0
 43
0.0
 44
210.0
 45
297.0
 46
0.0
 47
0.0
 48
0.0
 49
0.0
140
0.0
141
0.0
142
1.0
143
1.0
 70
0
 72
1
 73
0
 74
0
  7

 75
0
147
1.0
148
0.0
149
0.0
100
AcDbLayout
  1
Layout1
 70
0
 71
1
 10
0.0
 20
0.0
 11
210.0
 21
297.0
 12
0.0
 22
0.0
 32
0.0
 14
0.0
 24
0.0
 34
0.0
 15
0.0
 25
0.0
 35
0.0
146
0.0
 13
0.0
 23
0.0
 33
0.0
 16
1.0
 26
0.0
 36
0.0
 17
0.0
 27
1.0
 37
0.0
 76
0
330
212
345
0
346
0
  0
ENDSEC
  0
EOF
