999
DXF file: C:\Users\sesa63760\Dev\_Creo\CAD\MCADPP0003373_3D-CAD\drw0001_4.dxf
999
Pro/ENGINEER 2019471 by Parametric Technology Corporation
  0
SECTION
  2
HEADER
  9
$ACADVER
  1
AC1024
  9
$DWGCODEPAGE
  3
ANSI_1252
  9
$EXTMAX
 10
62.0649269675
 20
87.7775395683
 30
0.0
  9
$EXTMIN
 10
0.0
 20
0.0
 30
0.0
  9
$LIMMIN
 10
0.0
 20
0.0
  9
$LIMMAX
 10
62.0649269675
 20
87.7775395683
  9
$VIEWCTR
 10
31.0324634838
 20
43.8887697842
  9
$VIEWSIZE
 40
87.7775395683
  9
$CLAYER
  8
0
  9
$LTSCALE
 40
5.7217951719
  9
$CELTYPE
  6
BYLAYER
  9
$DIMSCALE
 40
1.0
  9
$DIMASZ
 40
0.7388681782
  9
$DIMEXO
 40
1.0
  9
$DIMDLI
 40
3.9532403006
  9
$DIMEXE
 40
1.0
  9
$DIMCEN
 40
0.9362937554
  9
$DIMLFAC
 40
1.0
  9
$DIMBLK
  1
_FILLED
  9
$DIMALT
 70
0
  9
$DIMALTF
 40
0.0393700787
  9
$DIMTXT
 40
1.0344154495
  9
$DIMTOL
 70
1
  9
$DIMLIM
 70
0
  9
$DIMTFAC
 40
1.0
  9
$DIMTP
 40
0.01
  9
$DIMTM
 40
0.01
  9
$DIMGAP
 40
0.625
  9
$DIMDSEP
 70
46
  9
$AUNITS
 70
0
  9
$PDMODE
 70
3
  9
$PDSIZE
 40
0.3125
  9
$HANDSEED
  5
462
  9
$TILEMODE
 70
1
  9
$MEASUREMENT
 70
1
  9
$INSUNITS
 70
4
  0
ENDSEC
  0
SECTION
  2
CLASSES
  0
CLASS
  1
ACDBDICTIONARYWDFLT
  2
AcDbDictionaryWithDefault
  3
AutoCAD 2000
 90
0
 91
1
280
0
281
0
  0
CLASS
  1
ACDBPLACEHOLDER
  2
AcDbPlaceHolder
  3
AutoCAD 2000
 90
0
 91
1
280
0
281
0
  0
CLASS
  1
LAYOUT
  2
AcDbLayout
  3
AutoCAD 2000
 90
0
 91
0
280
0
281
0
  0
ENDSEC
  0
SECTION
  2
TABLES
  0
TABLE
  2
VPORT
  5
8
100
AcDbSymbolTable
 70
2
  0
VPORT
  5
1F4
100
AcDbSymbolTableRecord
100
AcDbViewportTableRecord
  2
*ACTIVE
 70
0
 10
0.0
 20
0.0
 11
1.0
 21
1.0
 12
31.0324634838
 22
43.8887697842
 13
0.0
 23
0.0
 14
1.0
 24
1.0
 15
0.0
 25
0.0
 16
0.0
 26
0.0
 36
1.0
 17
0.0
 27
0.0
 37
0.0
 40
87.7775395683
 41
0.7070707071
 42
50.0
 43
0.0
 44
0.0
 50
0.0
 51
0.0
 71
0
 72
100
 73
1
 74
1
 75
0
 76
0
 77
0
 78
0
  0
ENDTAB
  0
TABLE
  2
LTYPE
  5
5
100
AcDbSymbolTable
 70
6
  0
LTYPE
  5
14
100
AcDbSymbolTableRecord
100
AcDbLinetypeTableRecord
  2
BYBLOCK
 70
0
  3

 72
65
 73
0
 40
0.0
  0
LTYPE
  5
15
100
AcDbSymbolTableRecord
100
AcDbLinetypeTableRecord
  2
BYLAYER
 70
0
  3

 72
65
 73
0
 40
0.0
  0
LTYPE
  5
16
100
AcDbSymbolTableRecord
100
AcDbLinetypeTableRecord
  2
CONTINUOUS
 70
64
  3
Solid line
 72
65
 73
0
 40
0.0
  0
LTYPE
  5
1F5
100
AcDbSymbolTableRecord
100
AcDbLinetypeTableRecord
  2
CENTER
 70
64
  3
____ _ ____ _ ____ _ ____ _ ____ _ ____ _ ____
 72
65
 73
4
 40
0.6
 49
0.375
 74
0
 49
-0.075
 74
0
 49
0.075
 74
0
 49
-0.075
 74
0
  0
LTYPE
  5
1F6
100
AcDbSymbolTableRecord
100
AcDbLinetypeTableRecord
  2
HIDDEN
 70
64
  3
- - - - - - - - - - - - - - - - - - - -
 72
65
 73
2
 40
0.2
 49
0.1
 74
0
 49
-0.1
 74
0
  0
LTYPE
  5
1F7
100
AcDbSymbolTableRecord
100
AcDbLinetypeTableRecord
  2
PHANTOM
 70
64
  3
_____ _ _ _____ _ _ _____ _ _ _____
 72
65
 73
6
 40
0.8
 49
0.45
 74
0
 49
-0.05
 74
0
 49
0.1
 74
0
 49
-0.05
 74
0
 49
0.1
 74
0
 49
-0.05
 74
0
  0
LTYPE
  5
1F8
100
AcDbSymbolTableRecord
100
AcDbLinetypeTableRecord
  2
DOT
 70
64
  3
. . . . . . . . . . . . . . . . . . . .
 72
65
 73
2
 40
0.2
 49
0.1
 74
0
 49
-0.1
 74
0
  0
LTYPE
  5
1F9
100
AcDbSymbolTableRecord
100
AcDbLinetypeTableRecord
  2
DASHED
 70
64
  3
- - - - - - - - - - - - - - - - - - - -
 72
65
 73
2
 40
0.2
 49
0.1
 74
0
 49
-0.1
 74
0
  0
ENDTAB
  0
TABLE
  2
LAYER
  5
2
100
AcDbSymbolTable
 70
36
  0
LAYER
  5
10
100
AcDbSymbolTableRecord
100
AcDbLayerTableRecord
  2
0
 70
0
 62
7
  6
CONTINUOUS
370
-3
390
F
  0
LAYER
  5
1FA
100
AcDbSymbolTableRecord
100
AcDbLayerTableRecord
  2
DEFAULT_1
 70
0
 62
7
  6
CENTER
370
-3
390
F
  0
LAYER
  5
1FB
100
AcDbSymbolTableRecord
100
AcDbLayerTableRecord
  2
DEFAULT_2
 70
0
 62
8
  6
HIDDEN
370
-3
390
F
  0
LAYER
  5
1FC
100
AcDbSymbolTableRecord
100
AcDbLayerTableRecord
  2
DEFAULT_3
 70
0
 62
7
  6
PHANTOM
370
-3
390
F
  0
LAYER
  5
1FD
100
AcDbSymbolTableRecord
100
AcDbLayerTableRecord
  2
00_COMPONENTS
 70
0
 62
7
  6
CONTINUOUS
370
-3
390
F
  0
LAYER
  5
1FE
100
AcDbSymbolTableRecord
100
AcDbLayerTableRecord
  2
01_1_DEFAULT_DATUMS
 70
0
 62
7
  6
CONTINUOUS
370
-3
390
F
  0
LAYER
  5
1FF
100
AcDbSymbolTableRecord
100
AcDbLayerTableRecord
  2
01_PLANES
 70
0
 62
7
  6
CONTINUOUS
370
-3
390
F
  0
LAYER
  5
200
100
AcDbSymbolTableRecord
100
AcDbLayerTableRecord
  2
02_COORD_SYS
 70
0
 62
7
  6
CONTINUOUS
370
-3
390
F
  0
LAYER
  5
201
100
AcDbSymbolTableRecord
100
AcDbLayerTableRecord
  2
03_AXES
 70
0
 62
7
  6
CONTINUOUS
370
-3
390
F
  0
LAYER
  5
202
100
AcDbSymbolTableRecord
100
AcDbLayerTableRecord
  2
04_POINTS
 70
0
 62
7
  6
CONTINUOUS
370
-3
390
F
  0
LAYER
  5
203
100
AcDbSymbolTableRecord
100
AcDbLayerTableRecord
  2
05_CURVES
 70
0
 62
7
  6
CONTINUOUS
370
-3
390
F
  0
LAYER
  5
204
100
AcDbSymbolTableRecord
100
AcDbLayerTableRecord
  2
06_SURFS
 70
0
 62
7
  6
CONTINUOUS
370
-3
390
F
  0
LAYER
  5
205
100
AcDbSymbolTableRecord
100
AcDbLayerTableRecord
  2
07_COSMETICS
 70
0
 62
7
  6
CONTINUOUS
370
-3
390
F
  0
LAYER
  5
206
100
AcDbSymbolTableRecord
100
AcDbLayerTableRecord
  2
10_NOTES
 70
0
 62
7
  6
CONTINUOUS
370
-3
390
F
  0
LAYER
  5
207
100
AcDbSymbolTableRecord
100
AcDbLayerTableRecord
  2
11_NOTES_PUB
 70
0
 62
7
  6
CONTINUOUS
370
-3
390
F
  0
LAYER
  5
208
100
AcDbSymbolTableRecord
100
AcDbLayerTableRecord
  2
13_REF_GTOL
 70
0
 62
7
  6
CONTINUOUS
370
-3
390
F
  0
LAYER
  5
209
100
AcDbSymbolTableRecord
100
AcDbLayerTableRecord
  2
16_MISC
 70
0
 62
7
  6
CONTINUOUS
370
-3
390
F
  0
LAYER
  5
20A
100
AcDbSymbolTableRecord
100
AcDbLayerTableRecord
  2
17_NO_PRINT
 70
0
 62
7
  6
CONTINUOUS
370
-3
390
F
  0
LAYER
  5
20B
100
AcDbSymbolTableRecord
100
AcDbLayerTableRecord
  2
18_DATUM_CAMS_JOINTS
 70
0
 62
7
  6
CONTINUOUS
370
-3
390
F
  0
LAYER
  5
20C
100
AcDbSymbolTableRecord
100
AcDbLayerTableRecord
  2
19_DATUM_FUNCTIONAL
 70
0
 62
7
  6
CONTINUOUS
370
-3
390
F
  0
LAYER
  5
20D
100
AcDbSymbolTableRecord
100
AcDbLayerTableRecord
  2
20_DATUM_KINEMATIC_SCHEME
 70
0
 62
7
  6
CONTINUOUS
370
-3
390
F
  0
ENDTAB
  0
TABLE
  2
STYLE
  5
3
100
AcDbSymbolTable
 70
1
  0
STYLE
  5
11
100
AcDbSymbolTableRecord
100
AcDbTextStyleTableRecord
  2
STANDARD
 70
0
 40
0.0
 41
0.8
 50
0.0
 71
0
 42
0.2
  3
txt
  4

  0
STYLE
  5
20E
100
AcDbSymbolTableRecord
100
AcDbTextStyleTableRecord
  2
TEXTSTYLE_1
 70
0
 40
0.0
 41
0.8
 50
0.0
 71
0
 42
0.2
  3
gdt
  4

  0
ENDTAB
  0
TABLE
  2
VIEW
  5
6
100
AcDbSymbolTable
 70
0
  0
ENDTAB
  0
TABLE
  2
UCS
  5
7
100
AcDbSymbolTable
 70
0
  0
ENDTAB
  0
TABLE
  2
APPID
  5
9
100
AcDbSymbolTable
 70
1
  0
APPID
  5
20F
100
AcDbSymbolTableRecord
100
AcDbRegAppTableRecord
  2
ACAD
 70
0
  0
ENDTAB
  0
TABLE
  2
BLOCK_RECORD
  5
1
100
AcDbSymbolTable
 70
0
  0
BLOCK_RECORD
  5
210
100
AcDbSymbolTableRecord
100
AcDbBlockTableRecord
  2
*Model_Space
  0
BLOCK_RECORD
  5
211
100
AcDbSymbolTableRecord
100
AcDbBlockTableRecord
  2
*Paper_Space
  0
BLOCK_RECORD
  5
212
100
AcDbSymbolTableRecord
100
AcDbBlockTableRecord
  2
_FILLED
  0
ENDTAB
  0
TABLE
  2
DIMSTYLE
  5
A
100
AcDbSymbolTable
 70
1
100
AcDbDimStyleTable
 71
0
  0
DIMSTYLE
105
213
100
AcDbSymbolTableRecord
100
AcDbDimStyleTableRecord
  2
STANDARD
 70
0
  3

  4

 40
1.0
 41
0.7388681782
 42
1.0
 43
0.38
 44
1.0
 45
0.0
 46
0.0
 47
0.01
 48
0.01
140
1.0344154495
141
0.09
142
0.0
143
25.4
144
1.0
145
0.0
146
1.0
147
0.625
 71
1
 72
0
 73
0
 74
0
 75
0
 76
0
 77
1
 78
8
 79
2
170
0
171
1
172
0
173
0
174
0
175
0
176
0
177
0
178
0
270
2
179
2
271
2
272
2
273
2
274
2
275
0
280
0
281
0
282
0
283
1
284
8
285
0
286
0
287
3
288
0
340
11
278
46
341
212
342
212
343
212
344
212
  0
ENDTAB
  0
ENDSEC
  0
SECTION
  2
BLOCKS
  0
BLOCK
  5
20
100
AcDbEntity
  8
0
100
AcDbBlockBegin
  2
*Model_Space
 70
0
 10
0.0
 20
0.0
 30
0.0
  3
*Model_Space
  1

  0
ENDBLK
  5
21
100
AcDbEntity
  8
0
100
AcDbBlockEnd
  0
BLOCK
  5
1C
100
AcDbEntity
  8
0
100
AcDbBlockBegin
  2
*Paper_Space
 70
0
 10
0.0
 20
0.0
 30
0.0
  3
*Paper_Space
  1

  0
ENDBLK
  5
1D
100
AcDbEntity
  8
0
100
AcDbBlockEnd
  0
BLOCK
  5
214
100
AcDbEntity
  8
0
100
AcDbBlockBegin
  2
_FILLED
 70
64
 10
0.0
 20
0.0
  3
_FILLED
  1

  0
SOLID
  5
215
100
AcDbEntity
  8
0
  6
BYBLOCK
 62
0
100
AcDbTrace
 10
0.0
 20
0.0
 11
-1.0
 21
0.25
 12
-1.0
 22
-0.25
 13
-1.0
 23
-0.25
  0
ENDBLK
  5
216
100
AcDbEntity
  8
0
  6
BYBLOCK
 62
0
100
AcDbBlockEnd
  0
ENDSEC
  0
SECTION
  2
ENTITIES
  0
LINE
  5
217
100
AcDbEntity
  8
0
100
AcDbLine
 62
7
  6
CONTINUOUS
 10
51.6491540049
 20
6.2851726619
 11
31.8632548507
 21
6.2851726619
  0
LINE
  5
218
100
AcDbEntity
  8
0
100
AcDbLine
 62
7
  6
CONTINUOUS
 10
51.6491542278
 20
6.7851726643
 11
31.8632558963
 21
6.7851726742
  0
LINE
  5
219
100
AcDbEntity
  8
0
100
AcDbLine
 62
7
  6
CONTINUOUS
 10
34.3632449554
 20
7.412627415
 11
52.8692673721
 21
7.4126331795
  0
LINE
  5
21A
100
AcDbEntity
  8
0
100
AcDbLine
 62
7
  6
CONTINUOUS
 10
52.8692607778
 20
7.8917344656
 11
34.3632548507
 21
7.8917345331
  0
LINE
  5
21B
100
AcDbEntity
  8
0
100
AcDbLine
 62
7
  6
CONTINUOUS
 10
29.8632548507
 20
8.2851726619
 11
30.3632548507
 21
8.2851726619
  0
LINE
  5
21C
100
AcDbEntity
  8
0
100
AcDbLine
 62
7
  6
CONTINUOUS
 10
34.3632548614
 20
8.6786112103
 11
53.1467050587
 21
8.6786110373
  0
LINE
  5
21D
100
AcDbEntity
  8
0
100
AcDbLine
 62
7
  6
CONTINUOUS
 10
46.5632492773
 20
8.7851726619
 11
34.363254857
 21
8.7851726619
  0
LINE
  5
21E
100
AcDbEntity
  8
0
100
AcDbLine
 62
7
  6
CONTINUOUS
 10
53.1725167274
 20
9.1577203367
 11
47.7257519307
 21
9.1577205031
  0
LINE
  5
21F
100
AcDbEntity
  8
0
100
AcDbLine
 62
7
  6
CONTINUOUS
 10
31.8632548087
 20
10.0216319376
 11
32.3632548507
 21
10.0216319376
  0
LINE
  5
220
100
AcDbEntity
  8
0
100
AcDbLine
 62
7
  6
CONTINUOUS
 10
10.7382548507
 20
10.3650105871
 11
18.8132548507
 21
10.3650105871
  0
LINE
  5
221
100
AcDbEntity
  8
0
100
AcDbLine
 62
7
  6
CONTINUOUS
 10
44.8132548507
 20
10.3650105871
 11
52.8882548507
 21
10.3650105871
  0
LINE
  5
222
100
AcDbEntity
  8
0
100
AcDbLine
 62
7
  6
CONTINUOUS
 10
53.7382548506
 20
10.3851726619
 11
53.1382548507
 21
10.3851726619
  0
LINE
  5
223
100
AcDbEntity
  8
0
100
AcDbLine
 62
7
  6
CONTINUOUS
 10
10.5382548507
 20
10.3851726619
 11
9.9382548505
 21
10.3851726619
  0
LINE
  5
224
100
AcDbEntity
  8
0
100
AcDbLine
 62
7
  6
CONTINUOUS
 10
18.8132548507
 20
10.3851726619
 11
44.8132548507
 21
10.3851726619
  0
LINE
  5
225
100
AcDbEntity
  8
0
100
AcDbLine
 62
7
  6
CONTINUOUS
 10
10.7382548507
 20
10.4378267325
 11
18.8132548507
 21
10.4378267325
  0
LINE
  5
226
100
AcDbEntity
  8
0
100
AcDbLine
 62
7
  6
CONTINUOUS
 10
44.8132548507
 20
10.4378267325
 11
52.8882548507
 21
10.4378267325
  0
LINE
  5
227
100
AcDbEntity
  8
0
100
AcDbLine
 62
7
  6
CONTINUOUS
 10
9.9382548504
 20
10.4454800411
 11
10.5382548507
 21
10.4454800411
  0
LINE
  5
228
100
AcDbEntity
  8
0
100
AcDbLine
 62
7
  6
CONTINUOUS
 10
53.1382548507
 20
10.4454800411
 11
53.7382548506
 21
10.4454800411
  0
LINE
  5
229
100
AcDbEntity
  8
0
100
AcDbLine
 62
7
  6
CONTINUOUS
 10
44.8132548507
 20
10.5358177283
 11
18.8132548507
 21
10.5358177283
  0
LINE
  5
22A
100
AcDbEntity
  8
0
100
AcDbLine
 62
7
  6
CONTINUOUS
 10
18.8132548507
 20
10.5470217521
 11
44.8132548507
 21
10.5470217521
  0
LINE
  5
22B
100
AcDbEntity
  8
0
100
AcDbLine
 62
7
  6
CONTINUOUS
 10
29.7632548507
 20
11.5327706385
 11
23.2632548507
 21
11.5327706385
  0
LINE
  5
22C
100
AcDbEntity
  8
0
100
AcDbLine
 62
7
  6
CONTINUOUS
 10
53.1725166578
 20
9.1577203069
 11
53.6723453202
 21
9.1446318328
  0
LINE
  5
22D
100
AcDbEntity
  8
0
100
AcDbLine
 62
7
  6
CONTINUOUS
 10
53.7382548506
 20
12.0748652827
 11
53.1382548507
 21
12.0748652827
  0
LINE
  5
22E
100
AcDbEntity
  8
0
100
AcDbLine
 62
7
  6
CONTINUOUS
 10
10.5382548507
 20
12.0748652827
 11
9.9382548506
 21
12.0748652827
  0
LINE
  5
22F
100
AcDbEntity
  8
0
100
AcDbLine
 62
7
  6
CONTINUOUS
 10
53.7382548507
 20
12.1351726619
 11
53.0632548507
 21
12.1351726619
  0
LINE
  5
230
100
AcDbEntity
  8
0
100
AcDbLine
 62
7
  6
CONTINUOUS
 10
43.5632548507
 20
12.1351726619
 11
41.3132548507
 21
12.1351726619
  0
LINE
  5
231
100
AcDbEntity
  8
0
100
AcDbLine
 62
7
  6
CONTINUOUS
 10
32.9632548507
 20
12.1351726619
 11
30.7132548507
 21
12.1351726619
  0
LINE
  5
232
100
AcDbEntity
  8
0
100
AcDbLine
 62
7
  6
CONTINUOUS
 10
22.3632548507
 20
12.1351726619
 11
20.1132548507
 21
12.1351726619
  0
LINE
  5
233
100
AcDbEntity
  8
0
100
AcDbLine
 62
7
  6
CONTINUOUS
 10
11.7632548507
 20
12.1351726619
 11
9.9382548507
 21
12.1351726619
  0
LINE
  5
234
100
AcDbEntity
  8
0
100
AcDbLine
 62
7
  6
CONTINUOUS
 10
25.7636581814
 20
13.2351726619
 11
27.3128515199
 21
13.2351726619
  0
LINE
  5
235
100
AcDbEntity
  8
0
100
AcDbLine
 62
7
  6
CONTINUOUS
 10
9.3382548507
 20
13.6351726619
 11
11.7632548507
 21
13.6351726619
  0
LINE
  5
236
100
AcDbEntity
  8
0
100
AcDbLine
 62
7
  6
CONTINUOUS
 10
20.1132548507
 20
13.6351726619
 11
22.3632548507
 21
13.6351726619
  0
LINE
  5
237
100
AcDbEntity
  8
0
100
AcDbLine
 62
7
  6
CONTINUOUS
 10
30.7132548507
 20
13.6351726619
 11
32.9632548507
 21
13.6351726619
  0
LINE
  5
238
100
AcDbEntity
  8
0
100
AcDbLine
 62
7
  6
CONTINUOUS
 10
41.3132548507
 20
13.6351726619
 11
43.5632548507
 21
13.6351726619
  0
LINE
  5
239
100
AcDbEntity
  8
0
100
AcDbLine
 62
7
  6
CONTINUOUS
 10
51.9132548507
 20
13.6351726619
 11
54.3382548507
 21
13.6351726619
  0
LINE
  5
23A
100
AcDbEntity
  8
0
100
AcDbLine
 62
7
  6
CONTINUOUS
 10
51.9132548507
 20
15.3114742397
 11
43.5632548507
 21
15.3114742397
  0
LINE
  5
23B
100
AcDbEntity
  8
0
100
AcDbLine
 62
7
  6
CONTINUOUS
 10
41.3132548507
 20
15.3114742397
 11
32.9632548507
 21
15.3114742397
  0
LINE
  5
23C
100
AcDbEntity
  8
0
100
AcDbLine
 62
7
  6
CONTINUOUS
 10
30.7132548507
 20
15.3114742397
 11
29.7632548507
 21
15.3114742397
  0
LINE
  5
23D
100
AcDbEntity
  8
0
100
AcDbLine
 62
7
  6
CONTINUOUS
 10
23.2632548507
 20
15.3114742397
 11
22.3632548507
 21
15.3114742397
  0
LINE
  5
23E
100
AcDbEntity
  8
0
100
AcDbLine
 62
7
  6
CONTINUOUS
 10
20.1132548507
 20
15.3114742397
 11
11.7632548507
 21
15.3114742397
  0
LINE
  5
23F
100
AcDbEntity
  8
0
100
AcDbLine
 62
7
  6
CONTINUOUS
 10
27.3128515199
 20
16.0351726619
 11
25.7636581814
 21
16.0351726619
  0
LINE
  5
240
100
AcDbEntity
  8
0
100
AcDbLine
 62
7
  6
CONTINUOUS
 10
9.3382548507
 20
16.9351726619
 11
54.3382548507
 21
16.9351726619
  0
LINE
  5
241
100
AcDbEntity
  8
0
100
AcDbLine
 62
7
  6
CONTINUOUS
 10
9.9882371088
 20
16.972681108
 11
53.6884107481
 21
16.9726811362
  0
LINE
  5
242
100
AcDbEntity
  8
0
100
AcDbLine
 62
7
  6
CONTINUOUS
 10
53.6882548379
 20
17.2722698252
 11
9.988254852
 21
17.2722699831
  0
LINE
  5
243
100
AcDbEntity
  8
0
100
AcDbLine
 62
7
  6
CONTINUOUS
 10
9.3888558162
 20
17.2375940725
 11
9.3882548507
 21
17.2565472926
  0
LINE
  5
244
100
AcDbEntity
  8
0
100
AcDbLine
 62
7
  6
CONTINUOUS
 10
25.993956501
 20
20.3432844701
 11
27.0833775447
 21
20.3432844701
  0
LINE
  5
245
100
AcDbEntity
  8
0
100
AcDbLine
 62
7
  6
CONTINUOUS
 10
9.3382548507
 20
80.0851726619
 11
9.3382548507
 21
12.7351745165
  0
LINE
  5
246
100
AcDbEntity
  8
0
100
AcDbLine
 62
7
  6
CONTINUOUS
 10
9.3382548507
 20
12.6386861799
 11
9.3382548507
 21
10.9851726619
  0
LINE
  5
247
100
AcDbEntity
  8
0
100
AcDbLine
 62
7
  6
CONTINUOUS
 10
9.3882548507
 20
27.4851726619
 11
9.3882548507
 21
17.2356209842
  0
LINE
  5
248
100
AcDbEntity
  8
0
100
AcDbLine
 62
7
  6
CONTINUOUS
 10
9.3932548507
 20
70.2342443164
 11
9.3932548507
 21
60.2851726619
  0
LINE
  5
249
100
AcDbEntity
  8
0
100
AcDbLine
 62
7
  6
CONTINUOUS
 10
9.9382548507
 20
80.6851726619
 11
9.9382548507
 21
70.8351726619
  0
LINE
  5
24A
100
AcDbEntity
  8
0
100
AcDbLine
 62
7
  6
CONTINUOUS
 10
9.9382548507
 20
16.9351726619
 11
9.9382548507
 21
12.1351726619
  0
LINE
  5
24B
100
AcDbEntity
  8
0
100
AcDbLine
 62
7
  6
CONTINUOUS
 10
9.9382548506
 20
12.0748652827
 11
9.9382548502
 21
10.3851726619
  0
LINE
  5
24C
100
AcDbEntity
  8
0
100
AcDbLine
 62
7
  6
CONTINUOUS
 10
9.9882548509
 20
27.4851726619
 11
9.9882548516
 21
16.9726811221
  0
LINE
  5
24D
100
AcDbEntity
  8
0
100
AcDbLine
 62
7
  6
CONTINUOUS
 10
9.9932548507
 20
70.2133861426
 11
9.9932548507
 21
60.2851726619
  0
LINE
  5
24E
100
AcDbEntity
  8
0
100
AcDbLine
 62
7
  6
CONTINUOUS
 10
10.2779442207
 20
70.797664373
 11
10.2779442207
 21
70.4980755126
  0
LINE
  5
24F
100
AcDbEntity
  8
0
100
AcDbLine
 62
7
  6
CONTINUOUS
 10
10.5382548507
 20
10.3851726619
 11
10.5382548507
 21
12.1351726619
  0
LINE
  5
250
100
AcDbEntity
  8
0
100
AcDbLine
 62
7
  6
CONTINUOUS
 10
10.5382548507
 20
29.6351726619
 11
10.5382548507
 21
30.5851726619
  0
LINE
  5
251
100
AcDbEntity
  8
0
100
AcDbLine
 62
7
  6
CONTINUOUS
 10
10.5382548507
 20
57.1851726619
 11
10.5382548507
 21
58.1351726619
  0
LINE
  5
252
100
AcDbEntity
  8
0
100
AcDbLine
 62
7
  6
CONTINUOUS
 10
10.5382548507
 20
75.6351726619
 11
10.5382548507
 21
80.6851726619
  0
LINE
  5
253
100
AcDbEntity
  8
0
100
AcDbLine
 62
7
  6
CONTINUOUS
 10
10.6032548507
 20
80.8851726619
 11
10.6032548507
 21
75.6388897861
  0
LINE
  5
254
100
AcDbEntity
  8
0
100
AcDbLine
 62
7
  6
CONTINUOUS
 10
10.7382548507
 20
78.7268383628
 11
10.7382548507
 21
75.6351726619
  0
LINE
  5
255
100
AcDbEntity
  8
0
100
AcDbLine
 62
7
  6
CONTINUOUS
 10
10.7382548507
 20
12.1351726619
 11
10.7382548507
 21
10.3650410494
  0
LINE
  5
256
100
AcDbEntity
  8
0
100
AcDbLine
 62
7
  6
CONTINUOUS
 10
10.9382548507
 20
49.0851726619
 11
10.9382548507
 21
38.3851726619
  0
LINE
  5
257
100
AcDbEntity
  8
0
100
AcDbLine
 62
7
  6
CONTINUOUS
 10
11.0632548507
 20
48.8851726619
 11
11.0632548507
 21
38.8851726619
  0
LINE
  5
258
100
AcDbEntity
  8
0
100
AcDbLine
 62
7
  6
CONTINUOUS
 10
11.2132548507
 20
39.4851726619
 11
11.2132548507
 21
48.4851726619
  0
LINE
  5
259
100
AcDbEntity
  8
0
100
AcDbLine
 62
7
  6
CONTINUOUS
 10
11.3632548507
 20
75.6351726619
 11
11.3632548507
 21
76.1864331703
  0
LINE
  5
25A
100
AcDbEntity
  8
0
100
AcDbLine
 62
7
  6
CONTINUOUS
 10
11.7632548507
 20
12.1351726619
 11
11.7632548507
 21
16.9351726463
  0
LINE
  5
25B
100
AcDbEntity
  8
0
100
AcDbLine
 62
7
  6
CONTINUOUS
 10
11.7632548507
 20
70.8351727126
 11
11.7632548507
 21
75.6351726619
  0
LINE
  5
25C
100
AcDbEntity
  8
0
100
AcDbLine
 62
7
  6
CONTINUOUS
 10
11.7971940954
 20
80.8851726619
 11
11.7971940954
 21
80.143991707
  0
LINE
  5
25D
100
AcDbEntity
  8
0
100
AcDbLine
 62
7
  6
CONTINUOUS
 10
9.9930821048
 20
70.8125662502
 11
9.9931146498
 21
70.835172713
  0
LINE
  5
25E
100
AcDbEntity
  8
0
100
AcDbLine
 62
7
  6
CONTINUOUS
 10
9.6882273597
 20
16.9351726457
 11
9.688260851
 21
16.9569106539
  0
LINE
  5
25F
100
AcDbEntity
  8
0
100
AcDbLine
 62
7
  6
CONTINUOUS
 10
11.6012424474
 20
80.6584545506
 11
11.5881376737
 21
80.4223360723
  0
LINE
  5
260
100
AcDbEntity
  8
0
100
AcDbLine
 62
7
  6
CONTINUOUS
 10
19.6382548507
 20
78.9851726619
 11
20.1382548507
 21
80.9551726619
  0
LINE
  5
261
100
AcDbEntity
  8
0
100
AcDbLine
 62
7
  6
CONTINUOUS
 10
50.1674358375
 20
21.3851726619
 11
45.3073863516
 21
21.3851726619
  0
LINE
  5
262
100
AcDbEntity
  8
0
100
AcDbLine
 62
7
  6
CONTINUOUS
 10
39.5674358375
 20
21.3851726619
 11
34.7073863516
 21
21.3851726619
  0
LINE
  5
263
100
AcDbEntity
  8
0
100
AcDbLine
 62
7
  6
CONTINUOUS
 10
28.9674358375
 20
21.3851726619
 11
24.1073863516
 21
21.3851726619
  0
LINE
  5
264
100
AcDbEntity
  8
0
100
AcDbLine
 62
7
  6
CONTINUOUS
 10
18.3674358375
 20
21.3851726619
 11
13.5073863516
 21
21.3851726619
  0
LINE
  5
265
100
AcDbEntity
  8
0
100
AcDbLine
 62
7
  6
CONTINUOUS
 10
49.0132548507
 20
23.3414569512
 11
46.4132548507
 21
23.3414569512
  0
LINE
  5
266
100
AcDbEntity
  8
0
100
AcDbLine
 62
7
  6
CONTINUOUS
 10
27.8132548507
 20
23.3414569512
 11
25.2132548507
 21
23.3414569512
  0
LINE
  5
267
100
AcDbEntity
  8
0
100
AcDbLine
 62
7
  6
CONTINUOUS
 10
17.2132548507
 20
23.3414569512
 11
14.6132548507
 21
23.3414569512
  0
LINE
  5
268
100
AcDbEntity
  8
0
100
AcDbLine
 62
7
  6
CONTINUOUS
 10
35.8132548507
 20
23.3414569512
 11
38.4132548507
 21
23.3414569512
  0
LINE
  5
269
100
AcDbEntity
  8
0
100
AcDbLine
 62
7
  6
CONTINUOUS
 10
12.9382548507
 20
22.2369171293
 11
12.9382548507
 21
24.733568403
  0
LINE
  5
26A
100
AcDbEntity
  8
0
100
AcDbLine
 62
7
  6
CONTINUOUS
 10
12.9382548507
 20
63.0552657426
 11
12.9382548507
 21
65.5086004882
  0
LINE
  5
26B
100
AcDbEntity
  8
0
100
AcDbLine
 62
7
  6
CONTINUOUS
 10
13.0632548507
 20
39.4851726619
 11
13.0632548507
 21
38.8851726619
  0
LINE
  5
26C
100
AcDbEntity
  8
0
100
AcDbLine
 62
7
  6
CONTINUOUS
 10
13.0632548507
 20
48.4851726619
 11
13.0632548507
 21
48.8851726619
  0
LINE
  5
26D
100
AcDbEntity
  8
0
100
AcDbLine
 62
7
  6
CONTINUOUS
 10
13.2382548507
 20
25.1821633702
 11
13.2382548507
 21
21.7879464787
  0
LINE
  5
26E
100
AcDbEntity
  8
0
100
AcDbLine
 62
7
  6
CONTINUOUS
 10
13.2382548507
 20
62.5954293229
 11
13.2382548507
 21
65.9747228053
  0
LINE
  5
26F
100
AcDbEntity
  8
0
100
AcDbLine
 62
7
  6
CONTINUOUS
 10
52.8692656918
 20
7.4126318482
 11
53.2759888069
 21
7.1218117863
  0
LINE
  5
270
100
AcDbEntity
  8
0
100
AcDbLine
 62
7
  6
CONTINUOUS
 10
17.3014877541
 20
22.3145828993
 11
17.2132548507
 21
23.3414569512
  0
LINE
  5
271
100
AcDbEntity
  8
0
100
AcDbLine
 62
7
  6
CONTINUOUS
 10
14.4069721529
 20
67.0918041362
 11
14.6132548507
 21
64.6851726619
  0
LINE
  5
272
100
AcDbEntity
  8
0
100
AcDbLine
 62
7
  6
CONTINUOUS
 10
17.6382548507
 20
73.1426630434
 11
17.6382548507
 21
71.9883663047
  0
LINE
  5
273
100
AcDbEntity
  8
0
100
AcDbLine
 62
7
  6
CONTINUOUS
 10
17.2132548507
 20
64.6851726619
 11
17.4228304282
 21
67.1302210663
  0
LINE
  5
274
100
AcDbEntity
  8
0
100
AcDbLine
 62
7
  6
CONTINUOUS
 10
14.6132548507
 20
23.3414569512
 11
14.3853590462
 21
20.6891551551
  0
LINE
  5
275
100
AcDbEntity
  8
0
100
AcDbLine
 62
7
  6
CONTINUOUS
 10
9.3382548507
 20
27.4851726619
 11
54.3382548507
 21
27.4851726619
  0
LINE
  5
276
100
AcDbEntity
  8
0
100
AcDbLine
 62
7
  6
CONTINUOUS
 10
20.8382548507
 20
27.7851726619
 11
42.8382548507
 21
27.7851726619
  0
LINE
  5
277
100
AcDbEntity
  8
0
100
AcDbLine
 62
7
  6
CONTINUOUS
 10
18.0901971095
 20
80.4223377298
 11
18.0752672539
 21
80.6584545506
  0
LINE
  5
278
100
AcDbEntity
  8
0
100
AcDbLine
 62
7
  6
CONTINUOUS
 10
17.8632548507
 20
76.1864318819
 11
17.8632548507
 21
73.0351726619
  0
LINE
  5
279
100
AcDbEntity
  8
0
100
AcDbLine
 62
7
  6
CONTINUOUS
 10
18.6382548507
 20
25.182398845
 11
18.6382548507
 21
21.7881819535
  0
LINE
  5
27A
100
AcDbEntity
  8
0
100
AcDbLine
 62
7
  6
CONTINUOUS
 10
18.6382548507
 20
62.5807413886
 11
18.6382548507
 21
65.9898816892
  0
LINE
  5
27B
100
AcDbEntity
  8
0
100
AcDbLine
 62
7
  6
CONTINUOUS
 10
18.7982548507
 20
78.7268804528
 11
18.7982548507
 21
80.8851726619
  0
LINE
  5
27C
100
AcDbEntity
  8
0
100
AcDbLine
 62
7
  6
CONTINUOUS
 10
18.8132548507
 20
10.3650410494
 11
18.8132548507
 21
10.5470206355
  0
LINE
  5
27D
100
AcDbEntity
  8
0
100
AcDbLine
 62
7
  6
CONTINUOUS
 10
18.8132548507
 20
78.6653679681
 11
18.8132548507
 21
78.7268380855
  0
LINE
  5
27E
100
AcDbEntity
  8
0
100
AcDbLine
 62
7
  6
CONTINUOUS
 10
18.8632548507
 20
48.8851726619
 11
18.8632548507
 21
48.4851726619
  0
LINE
  5
27F
100
AcDbEntity
  8
0
100
AcDbLine
 62
7
  6
CONTINUOUS
 10
18.8632548507
 20
39.4851726619
 11
18.8632548507
 21
38.8851726619
  0
LINE
  5
280
100
AcDbEntity
  8
0
100
AcDbLine
 62
7
  6
CONTINUOUS
 10
18.9382548507
 20
65.5409110386
 11
18.9382548507
 21
63.0271752857
  0
LINE
  5
281
100
AcDbEntity
  8
0
100
AcDbLine
 62
7
  6
CONTINUOUS
 10
18.9382548507
 20
24.7334281944
 11
18.9382548507
 21
22.2367769208
  0
LINE
  5
282
100
AcDbEntity
  8
0
100
AcDbLine
 62
7
  6
CONTINUOUS
 10
19.1382548507
 20
79.9460727376
 11
19.1382548507
 21
78.6653679681
  0
LINE
  5
283
100
AcDbEntity
  8
0
100
AcDbLine
 62
7
  6
CONTINUOUS
 10
20.1132548507
 20
75.6351726619
 11
20.1132548507
 21
70.8351727108
  0
LINE
  5
284
100
AcDbEntity
  8
0
100
AcDbLine
 62
7
  6
CONTINUOUS
 10
20.1132548507
 20
16.9351726488
 11
20.1132548507
 21
12.1351726619
  0
LINE
  5
285
100
AcDbEntity
  8
0
100
AcDbLine
 62
7
  6
CONTINUOUS
 10
20.1632548507
 20
38.8851726619
 11
20.1632548507
 21
48.8851726619
  0
LINE
  5
286
100
AcDbEntity
  8
0
100
AcDbLine
 62
7
  6
CONTINUOUS
 10
20.5382548507
 20
38.3851726619
 11
20.5382548507
 21
49.0851726619
  0
LINE
  5
287
100
AcDbEntity
  8
0
100
AcDbLine
 62
7
  6
CONTINUOUS
 10
53.1382548507
 20
29.6351726619
 11
42.8382548507
 21
29.6351726619
  0
LINE
  5
288
100
AcDbEntity
  8
0
100
AcDbLine
 62
7
  6
CONTINUOUS
 10
20.8382548507
 20
29.6351726619
 11
10.5382548507
 21
29.6351726619
  0
LINE
  5
289
100
AcDbEntity
  8
0
100
AcDbLine
 62
7
  6
CONTINUOUS
 10
9.3382548507
 20
30.5851726619
 11
20.8382548507
 21
30.5851726619
  0
LINE
  5
28A
100
AcDbEntity
  8
0
100
AcDbLine
 62
7
  6
CONTINUOUS
 10
42.8382548507
 20
30.5851726619
 11
54.3382548507
 21
30.5851726619
  0
LINE
  5
28B
100
AcDbEntity
  8
0
100
AcDbLine
 62
7
  6
CONTINUOUS
 10
20.8382548507
 20
27.7851726619
 11
20.8382548507
 21
37.3851726619
  0
LINE
  5
28C
100
AcDbEntity
  8
0
100
AcDbLine
 62
7
  6
CONTINUOUS
 10
21.1382548507
 20
37.3851726619
 11
21.1382548507
 21
27.4851726619
  0
LINE
  5
28D
100
AcDbEntity
  8
0
100
AcDbLine
 62
7
  6
CONTINUOUS
 10
21.9882548507
 20
48.8851726619
 11
21.9882548507
 21
39.2851726619
  0
LINE
  5
28E
100
AcDbEntity
  8
0
100
AcDbLine
 62
7
  6
CONTINUOUS
 10
22.3632548507
 20
48.8851726619
 11
22.3632548507
 21
39.2851726619
  0
LINE
  5
28F
100
AcDbEntity
  8
0
100
AcDbLine
 62
7
  6
CONTINUOUS
 10
22.3632548507
 20
12.1351726619
 11
22.3632548507
 21
16.9351726495
  0
LINE
  5
290
100
AcDbEntity
  8
0
100
AcDbLine
 62
7
  6
CONTINUOUS
 10
22.3632548507
 20
70.8351727104
 11
22.3632548507
 21
75.6351726619
  0
LINE
  5
291
100
AcDbEntity
  8
0
100
AcDbLine
 62
7
  6
CONTINUOUS
 10
22.7382548507
 20
35.4851726619
 11
22.7382548507
 21
38.9851726619
  0
LINE
  5
292
100
AcDbEntity
  8
0
100
AcDbLine
 62
7
  6
CONTINUOUS
 10
22.8382548507
 20
59.5851691479
 11
22.8382548507
 21
49.1851726619
  0
LINE
  5
293
100
AcDbEntity
  8
0
100
AcDbLine
 62
7
  6
CONTINUOUS
 10
23.0382548507
 20
39.2851726619
 11
23.0382548507
 21
35.4851726619
  0
LINE
  5
294
100
AcDbEntity
  8
0
100
AcDbLine
 62
7
  6
CONTINUOUS
 10
23.1382548507
 20
59.8851726619
 11
23.1382548507
 21
48.8851726619
  0
LINE
  5
295
100
AcDbEntity
  8
0
100
AcDbLine
 62
7
  6
CONTINUOUS
 10
23.2632548507
 20
11.5327706385
 11
23.2632548507
 21
15.4644052489
  0
LINE
  5
296
100
AcDbEntity
  8
0
100
AcDbLine
 62
7
  6
CONTINUOUS
 10
23.4632548507
 20
39.2851726619
 11
23.4632548507
 21
39.6351726619
  0
LINE
  5
297
100
AcDbEntity
  8
0
100
AcDbLine
 62
7
  6
CONTINUOUS
 10
23.4632548507
 20
48.4851726619
 11
23.4632548507
 21
48.8851726619
  0
LINE
  5
298
100
AcDbEntity
  8
0
100
AcDbLine
 62
7
  6
CONTINUOUS
 10
23.3270637007
 20
48.4851727257
 11
22.8632548541
 21
39.6351727272
  0
LINE
  5
299
100
AcDbEntity
  8
0
100
AcDbLine
 62
7
  6
CONTINUOUS
 10
49.3382548507
 20
34.3851726619
 11
47.3382548507
 21
34.3851726619
  0
LINE
  5
29A
100
AcDbEntity
  8
0
100
AcDbLine
 62
7
  6
CONTINUOUS
 10
27.8132548507
 20
23.3414569512
 11
27.9013451475
 21
22.3143628805
  0
LINE
  5
29B
100
AcDbEntity
  8
0
100
AcDbLine
 62
7
  6
CONTINUOUS
 10
23.5382548507
 20
22.2369171293
 11
23.5382548507
 21
24.733568403
  0
LINE
  5
29C
100
AcDbEntity
  8
0
100
AcDbLine
 62
7
  6
CONTINUOUS
 10
23.5382548507
 20
63.0552657426
 11
23.5382548507
 21
65.5086004882
  0
LINE
  5
29D
100
AcDbEntity
  8
0
100
AcDbLine
 62
7
  6
CONTINUOUS
 10
23.6632548507
 20
39.2851726619
 11
23.6632548507
 21
39.6351726619
  0
LINE
  5
29E
100
AcDbEntity
  8
0
100
AcDbLine
 62
7
  6
CONTINUOUS
 10
23.6632548507
 20
48.4901979191
 11
23.6632548507
 21
48.8851726619
  0
LINE
  5
29F
100
AcDbEntity
  8
0
100
AcDbLine
 62
7
  6
CONTINUOUS
 10
23.8382548507
 20
25.1821633702
 11
23.8382548507
 21
21.7879464787
  0
LINE
  5
2A0
100
AcDbEntity
  8
0
100
AcDbLine
 62
7
  6
CONTINUOUS
 10
23.8382548507
 20
62.5954293229
 11
23.8382548507
 21
65.9747228053
  0
LINE
  5
2A1
100
AcDbEntity
  8
0
100
AcDbLine
 62
7
  6
CONTINUOUS
 10
23.362580306
 20
39.6351730388
 11
23.8263867482
 21
48.4851730585
  0
LINE
  5
2A2
100
AcDbEntity
  8
0
100
AcDbLine
 62
7
  6
CONTINUOUS
 10
27.8132548507
 20
64.6851726619
 11
28.0228304282
 21
67.1302210663
  0
LINE
  5
2A3
100
AcDbEntity
  8
0
100
AcDbLine
 62
7
  6
CONTINUOUS
 10
22.7382548507
 20
35.4851726619
 11
40.9382548507
 21
35.4851726619
  0
LINE
  5
2A4
100
AcDbEntity
  8
0
100
AcDbLine
 62
7
  6
CONTINUOUS
 10
20.8382548507
 20
37.3851726619
 11
22.7382548507
 21
37.3851726619
  0
LINE
  5
2A5
100
AcDbEntity
  8
0
100
AcDbLine
 62
7
  6
CONTINUOUS
 10
40.9382548507
 20
37.3851726619
 11
42.8382548507
 21
37.3851726619
  0
LINE
  5
2A6
100
AcDbEntity
  8
0
100
AcDbLine
 62
7
  6
CONTINUOUS
 10
47.3382548507
 20
37.3851726619
 11
49.3382548507
 21
37.3851726619
  0
LINE
  5
2A7
100
AcDbEntity
  8
0
100
AcDbLine
 62
7
  6
CONTINUOUS
 10
25.0069721529
 20
67.0918041362
 11
25.2132548507
 21
64.6851726619
  0
LINE
  5
2A8
100
AcDbEntity
  8
0
100
AcDbLine
 62
7
  6
CONTINUOUS
 10
26.8382548507
 20
48.8851726619
 11
26.8382548507
 21
59.8851726619
  0
LINE
  5
2A9
100
AcDbEntity
  8
0
100
AcDbLine
 62
7
  6
CONTINUOUS
 10
27.1382548507
 20
60.2850050423
 11
27.1382548507
 21
59.885172662
  0
LINE
  5
2AA
100
AcDbEntity
  8
0
100
AcDbLine
 62
7
  6
CONTINUOUS
 10
27.1382548507
 20
49.1851726619
 11
27.1382548507
 21
59.585169227
  0
LINE
  5
2AB
100
AcDbEntity
  8
0
100
AcDbLine
 62
7
  6
CONTINUOUS
 10
29.2382548507
 20
25.182398845
 11
29.2382548507
 21
21.7881819535
  0
LINE
  5
2AC
100
AcDbEntity
  8
0
100
AcDbLine
 62
7
  6
CONTINUOUS
 10
29.2382548507
 20
62.5807413886
 11
29.2382548507
 21
65.9898816892
  0
LINE
  5
2AD
100
AcDbEntity
  8
0
100
AcDbLine
 62
7
  6
CONTINUOUS
 10
25.1307603548
 20
22.3796074565
 11
25.2132548507
 21
23.3414569512
  0
LINE
  5
2AE
100
AcDbEntity
  8
0
100
AcDbLine
 62
7
  6
CONTINUOUS
 10
52.7382548507
 20
38.3851726619
 11
43.1382548507
 21
38.3851726619
  0
LINE
  5
2AF
100
AcDbEntity
  8
0
100
AcDbLine
 62
7
  6
CONTINUOUS
 10
20.5382548507
 20
38.3851726619
 11
10.9382548507
 21
38.3851726619
  0
LINE
  5
2B0
100
AcDbEntity
  8
0
100
AcDbLine
 62
7
  6
CONTINUOUS
 10
10.9382548507
 20
38.6851726619
 11
20.5382548507
 21
38.6851726619
  0
LINE
  5
2B1
100
AcDbEntity
  8
0
100
AcDbLine
 62
7
  6
CONTINUOUS
 10
43.1382548507
 20
38.6851726619
 11
52.7382548507
 21
38.6851726619
  0
LINE
  5
2B2
100
AcDbEntity
  8
0
100
AcDbLine
 62
7
  6
CONTINUOUS
 10
52.7382548507
 20
38.8851726619
 11
43.1382548507
 21
38.8851726619
  0
LINE
  5
2B3
100
AcDbEntity
  8
0
100
AcDbLine
 62
7
  6
CONTINUOUS
 10
10.9382548507
 20
38.8851726619
 11
20.5382548507
 21
38.8851726619
  0
LINE
  5
2B4
100
AcDbEntity
  8
0
100
AcDbLine
 62
7
  6
CONTINUOUS
 10
21.9882548507
 20
39.2851726619
 11
41.6882548507
 21
39.2851726619
  0
LINE
  5
2B5
100
AcDbEntity
  8
0
100
AcDbLine
 62
7
  6
CONTINUOUS
 10
41.3632548507
 20
39.4851726619
 11
40.0632548507
 21
39.4851726619
  0
LINE
  5
2B6
100
AcDbEntity
  8
0
100
AcDbLine
 62
7
  6
CONTINUOUS
 10
34.2632548507
 20
39.4851726619
 11
32.8420535144
 21
39.4851726619
  0
LINE
  5
2B7
100
AcDbEntity
  8
0
100
AcDbLine
 62
7
  6
CONTINUOUS
 10
30.884456187
 20
39.4851726619
 11
29.4632548507
 21
39.4851726619
  0
LINE
  5
2B8
100
AcDbEntity
  8
0
100
AcDbLine
 62
7
  6
CONTINUOUS
 10
20.1632548507
 20
39.4851726619
 11
11.2132548507
 21
39.4851726619
  0
LINE
  5
2B9
100
AcDbEntity
  8
0
100
AcDbLine
 62
7
  6
CONTINUOUS
 10
43.5632548507
 20
39.4851726619
 11
52.5132548507
 21
39.4851726619
  0
LINE
  5
2BA
100
AcDbEntity
  8
0
100
AcDbLine
 62
7
  6
CONTINUOUS
 10
22.3632548507
 20
39.4851726656
 11
23.4632548507
 21
39.4851726707
  0
LINE
  5
2BB
100
AcDbEntity
  8
0
100
AcDbLine
 62
7
  6
CONTINUOUS
 10
41.3632548507
 20
39.635172663
 11
32.7132548507
 21
39.6351726619
  0
LINE
  5
2BC
100
AcDbEntity
  8
0
100
AcDbLine
 62
7
  6
CONTINUOUS
 10
31.0132548507
 20
39.6351726619
 11
22.3632548507
 21
39.635172663
  0
LINE
  5
2BD
100
AcDbEntity
  8
0
100
AcDbLine
 62
7
  6
CONTINUOUS
 10
29.4632548507
 20
48.8851726619
 11
29.4632548507
 21
48.4851726619
  0
LINE
  5
2BE
100
AcDbEntity
  8
0
100
AcDbLine
 62
7
  6
CONTINUOUS
 10
29.4632548507
 20
39.6351726619
 11
29.4632548507
 21
39.2851726619
  0
LINE
  5
2BF
100
AcDbEntity
  8
0
100
AcDbLine
 62
7
  6
CONTINUOUS
 10
29.5382548507
 20
65.5409110386
 11
29.5382548507
 21
63.0271752857
  0
LINE
  5
2C0
100
AcDbEntity
  8
0
100
AcDbLine
 62
7
  6
CONTINUOUS
 10
29.5382548507
 20
24.7334281944
 11
29.5382548507
 21
22.2367769208
  0
LINE
  5
2C1
100
AcDbEntity
  8
0
100
AcDbLine
 62
7
  6
CONTINUOUS
 10
29.6132548507
 20
39.6351727025
 11
29.6132548507
 21
47.484909944
  0
LINE
  5
2C2
100
AcDbEntity
  8
0
100
AcDbLine
 62
7
  6
CONTINUOUS
 10
29.7632548507
 20
15.4644052489
 11
29.7632548507
 21
11.5327706385
  0
LINE
  5
2C3
100
AcDbEntity
  8
0
100
AcDbLine
 62
7
  6
CONTINUOUS
 10
29.8632548507
 20
8.2851726619
 11
29.8632548507
 21
10.3851725821
  0
LINE
  5
2C4
100
AcDbEntity
  8
0
100
AcDbLine
 62
7
  6
CONTINUOUS
 10
30.363254863
 20
8.2851719262
 11
30.36325486
 21
10.3851725826
  0
LINE
  5
2C5
100
AcDbEntity
  8
0
100
AcDbLine
 62
7
  6
CONTINUOUS
 10
30.7132548507
 20
75.6351726619
 11
30.7132548507
 21
70.8351727086
  0
LINE
  5
2C6
100
AcDbEntity
  8
0
100
AcDbLine
 62
7
  6
CONTINUOUS
 10
30.7132548507
 20
16.935172652
 11
30.7132548507
 21
12.1351726619
  0
LINE
  5
2C7
100
AcDbEntity
  8
0
100
AcDbLine
 62
7
  6
CONTINUOUS
 10
30.9132548507
 20
42.7851726619
 11
30.9132548507
 21
48.8851726619
  0
LINE
  5
2C8
100
AcDbEntity
  8
0
100
AcDbLine
 62
7
  6
CONTINUOUS
 10
31.0132548507
 20
39.6351726619
 11
31.0132548507
 21
42.7110838395
  0
LINE
  5
2C9
100
AcDbEntity
  8
0
100
AcDbLine
 62
7
  6
CONTINUOUS
 10
31.0132548507
 20
45.0615658641
 11
31.0132548507
 21
48.4851726619
  0
LINE
  5
2CA
100
AcDbEntity
  8
0
100
AcDbLine
 62
7
  6
CONTINUOUS
 10
31.1132548507
 20
39.2851726619
 11
31.1132548507
 21
42.3851726619
  0
LINE
  5
2CB
100
AcDbEntity
  8
0
100
AcDbLine
 62
7
  6
CONTINUOUS
 10
31.1132548507
 20
45.3851726619
 11
31.1132548507
 21
48.8851726619
  0
LINE
  5
2CC
100
AcDbEntity
  8
0
100
AcDbLine
 62
7
  6
CONTINUOUS
 10
31.8632548158
 20
10.3851725841
 11
31.8632548208
 21
10.021631978
  0
LINE
  5
2CD
100
AcDbEntity
  8
0
100
AcDbLine
 62
7
  6
CONTINUOUS
 10
31.8632548507
 20
6.7851726619
 11
31.8632548507
 21
6.2851726619
  0
LINE
  5
2CE
100
AcDbEntity
  8
0
100
AcDbLine
 62
7
  6
CONTINUOUS
 10
30.8827108134
 20
39.2851726619
 11
30.9132548507
 21
42.7851726619
  0
LINE
  5
2CF
100
AcDbEntity
  8
0
100
AcDbLine
 62
7
  6
CONTINUOUS
 10
32.5632548507
 20
41.8851726619
 11
31.1132548507
 21
41.8851726619
  0
LINE
  5
2D0
100
AcDbEntity
  8
0
100
AcDbLine
 62
7
  6
CONTINUOUS
 10
31.1132548507
 20
42.3851726619
 11
32.5632548507
 21
42.3851726619
  0
LINE
  5
2D1
100
AcDbEntity
  8
0
100
AcDbLine
 62
7
  6
CONTINUOUS
 10
32.5158614875
 20
42.7851726619
 11
31.2106482138
 21
42.7851726619
  0
LINE
  5
2D2
100
AcDbEntity
  8
0
100
AcDbLine
 62
7
  6
CONTINUOUS
 10
43.2632548506
 20
42.9851726619
 11
43.1382548507
 21
42.9851726619
  0
LINE
  5
2D3
100
AcDbEntity
  8
0
100
AcDbLine
 62
7
  6
CONTINUOUS
 10
41.6882548507
 20
42.9851726619
 11
41.6632548507
 21
42.9851726619
  0
LINE
  5
2D4
100
AcDbEntity
  8
0
100
AcDbLine
 62
7
  6
CONTINUOUS
 10
22.0632548506
 20
42.9851726619
 11
21.9882548507
 21
42.9851726619
  0
LINE
  5
2D5
100
AcDbEntity
  8
0
100
AcDbLine
 62
7
  6
CONTINUOUS
 10
20.5382548507
 20
42.9851726619
 11
20.4632548507
 21
42.9851726619
  0
LINE
  5
2D6
100
AcDbEntity
  8
0
100
AcDbLine
 62
7
  6
CONTINUOUS
 10
32.8437988879
 20
39.2851726619
 11
32.8132548507
 21
42.7851726619
  0
LINE
  5
2D7
100
AcDbEntity
  8
0
100
AcDbLine
 62
7
  6
CONTINUOUS
 10
32.3632701287
 20
10.0132984701
 11
32.3632548507
 21
10.3851725845
  0
LINE
  5
2D8
100
AcDbEntity
  8
0
100
AcDbLine
 62
7
  6
CONTINUOUS
 10
32.5632548507
 20
39.2851726619
 11
32.5632548507
 21
42.3851726619
  0
LINE
  5
2D9
100
AcDbEntity
  8
0
100
AcDbLine
 62
7
  6
CONTINUOUS
 10
32.5632548507
 20
45.3851726619
 11
32.5632548507
 21
48.8851726619
  0
LINE
  5
2DA
100
AcDbEntity
  8
0
100
AcDbLine
 62
7
  6
CONTINUOUS
 10
32.7132548507
 20
39.6351726619
 11
32.7132548507
 21
42.7110838395
  0
LINE
  5
2DB
100
AcDbEntity
  8
0
100
AcDbLine
 62
7
  6
CONTINUOUS
 10
32.7132548507
 20
45.0615658641
 11
32.7132548507
 21
48.4851726619
  0
LINE
  5
2DC
100
AcDbEntity
  8
0
100
AcDbLine
 62
7
  6
CONTINUOUS
 10
32.8132548507
 20
42.7851726619
 11
32.8132548507
 21
48.8851726619
  0
LINE
  5
2DD
100
AcDbEntity
  8
0
100
AcDbLine
 62
7
  6
CONTINUOUS
 10
32.9632548507
 20
12.1351726619
 11
32.9632548507
 21
16.9351726527
  0
LINE
  5
2DE
100
AcDbEntity
  8
0
100
AcDbLine
 62
7
  6
CONTINUOUS
 10
32.9632548507
 20
70.8351727081
 11
32.9632548507
 21
75.6351726619
  0
LINE
  5
2DF
100
AcDbEntity
  8
0
100
AcDbLine
 62
7
  6
CONTINUOUS
 10
34.1132548507
 20
47.4849096869
 11
34.1132548507
 21
39.6351727016
  0
LINE
  5
2E0
100
AcDbEntity
  8
0
100
AcDbLine
 62
7
  6
CONTINUOUS
 10
34.1382548507
 20
22.2369171293
 11
34.1382548507
 21
24.733568403
  0
LINE
  5
2E1
100
AcDbEntity
  8
0
100
AcDbLine
 62
7
  6
CONTINUOUS
 10
34.1382548507
 20
63.0552657426
 11
34.1382548507
 21
65.5086004882
  0
LINE
  5
2E2
100
AcDbEntity
  8
0
100
AcDbLine
 62
7
  6
CONTINUOUS
 10
34.2132548507
 20
72.5851726619
 11
34.2132548507
 21
77.992572859
  0
LINE
  5
2E3
100
AcDbEntity
  8
0
100
AcDbLine
 62
7
  6
CONTINUOUS
 10
34.2632548507
 20
39.2851726619
 11
34.2632548507
 21
39.6351726619
  0
LINE
  5
2E4
100
AcDbEntity
  8
0
100
AcDbLine
 62
7
  6
CONTINUOUS
 10
34.2632548507
 20
48.4851726619
 11
34.2632548507
 21
48.8851726619
  0
LINE
  5
2E5
100
AcDbEntity
  8
0
100
AcDbLine
 62
7
  6
CONTINUOUS
 10
34.3632548507
 20
7.4126302972
 11
34.3632548628
 21
8.7851702261
  0
LINE
  5
2E6
100
AcDbEntity
  8
0
100
AcDbLine
 62
7
  6
CONTINUOUS
 10
34.4382548507
 20
25.1821633702
 11
34.4382548507
 21
21.7879464787
  0
LINE
  5
2E7
100
AcDbEntity
  8
0
100
AcDbLine
 62
7
  6
CONTINUOUS
 10
34.4382548507
 20
62.5954293229
 11
34.4382548507
 21
65.9747228053
  0
LINE
  5
2E8
100
AcDbEntity
  8
0
100
AcDbLine
 62
7
  6
CONTINUOUS
 10
51.4382548507
 20
72.8851726619
 11
51.6382548502
 21
73.2315828225
  0
LINE
  5
2E9
100
AcDbEntity
  8
0
100
AcDbLine
 62
7
  6
CONTINUOUS
 10
20.4632548507
 20
44.9851726619
 11
20.5382548507
 21
44.9851726619
  0
LINE
  5
2EA
100
AcDbEntity
  8
0
100
AcDbLine
 62
7
  6
CONTINUOUS
 10
21.9882548507
 20
44.9851726619
 11
22.0632548507
 21
44.9851726619
  0
LINE
  5
2EB
100
AcDbEntity
  8
0
100
AcDbLine
 62
7
  6
CONTINUOUS
 10
31.2132548507
 20
44.9851726619
 11
32.5132548507
 21
44.9851726619
  0
LINE
  5
2EC
100
AcDbEntity
  8
0
100
AcDbLine
 62
7
  6
CONTINUOUS
 10
41.6632548508
 20
44.9851726619
 11
41.6882548507
 21
44.9851726619
  0
LINE
  5
2ED
100
AcDbEntity
  8
0
100
AcDbLine
 62
7
  6
CONTINUOUS
 10
43.1382548507
 20
44.9851726619
 11
43.2632548507
 21
44.9851726619
  0
LINE
  5
2EE
100
AcDbEntity
  8
0
100
AcDbLine
 62
7
  6
CONTINUOUS
 10
32.5632548507
 20
45.3851726619
 11
31.1132548507
 21
45.3851726619
  0
LINE
  5
2EF
100
AcDbEntity
  8
0
100
AcDbLine
 62
7
  6
CONTINUOUS
 10
31.1132548507
 20
45.8851726619
 11
32.5632548507
 21
45.8851726619
  0
LINE
  5
2F0
100
AcDbEntity
  8
0
100
AcDbLine
 62
7
  6
CONTINUOUS
 10
38.5014877541
 20
22.3145828993
 11
38.4132548507
 21
23.3414569512
  0
LINE
  5
2F1
100
AcDbEntity
  8
0
100
AcDbLine
 62
7
  6
CONTINUOUS
 10
35.6069721529
 20
67.0918041362
 11
35.8132548507
 21
64.6851726619
  0
LINE
  5
2F2
100
AcDbEntity
  8
0
100
AcDbLine
 62
7
  6
CONTINUOUS
 10
36.5382548507
 20
59.5851692214
 11
36.5382548507
 21
49.1851726619
  0
LINE
  5
2F3
100
AcDbEntity
  8
0
100
AcDbLine
 62
7
  6
CONTINUOUS
 10
36.5382548507
 20
59.885172662
 11
36.5382548507
 21
60.2850050423
  0
LINE
  5
2F4
100
AcDbEntity
  8
0
100
AcDbLine
 62
7
  6
CONTINUOUS
 10
36.8382548507
 20
59.8851726619
 11
36.8382548507
 21
48.8851726619
  0
LINE
  5
2F5
100
AcDbEntity
  8
0
100
AcDbLine
 62
7
  6
CONTINUOUS
 10
38.4132548507
 20
64.6851726619
 11
38.6228304282
 21
67.1302210663
  0
LINE
  5
2F6
100
AcDbEntity
  8
0
100
AcDbLine
 62
7
  6
CONTINUOUS
 10
35.8132548507
 20
23.3414569512
 11
35.5853590462
 21
20.6891551551
  0
LINE
  5
2F7
100
AcDbEntity
  8
0
100
AcDbLine
 62
7
  6
CONTINUOUS
 10
34.1132548507
 20
47.4851726619
 11
32.8132548507
 21
47.4851726619
  0
LINE
  5
2F8
100
AcDbEntity
  8
0
100
AcDbLine
 62
7
  6
CONTINUOUS
 10
30.9132548507
 20
47.4851726619
 11
29.6132548507
 21
47.4851726619
  0
LINE
  5
2F9
100
AcDbEntity
  8
0
100
AcDbLine
 62
7
  6
CONTINUOUS
 10
20.1632548507
 20
48.4851726619
 11
11.2132548507
 21
48.4851726619
  0
LINE
  5
2FA
100
AcDbEntity
  8
0
100
AcDbLine
 62
7
  6
CONTINUOUS
 10
22.3632548507
 20
48.4851726619
 11
31.0132548507
 21
48.4851726619
  0
LINE
  5
2FB
100
AcDbEntity
  8
0
100
AcDbLine
 62
7
  6
CONTINUOUS
 10
32.7132548507
 20
48.4851726619
 11
41.3632548507
 21
48.4851726619
  0
LINE
  5
2FC
100
AcDbEntity
  8
0
100
AcDbLine
 62
7
  6
CONTINUOUS
 10
43.5632548507
 20
48.4851726619
 11
52.5132548507
 21
48.4851726619
  0
LINE
  5
2FD
100
AcDbEntity
  8
0
100
AcDbLine
 62
7
  6
CONTINUOUS
 10
22.3632548507
 20
48.6316192713
 11
23.4632548507
 21
48.6316192712
  0
LINE
  5
2FE
100
AcDbEntity
  8
0
100
AcDbLine
 62
7
  6
CONTINUOUS
 10
29.4632548507
 20
48.6316192713
 11
30.9132548507
 21
48.6316192713
  0
LINE
  5
2FF
100
AcDbEntity
  8
0
100
AcDbLine
 62
7
  6
CONTINUOUS
 10
32.8132548507
 20
48.6316192713
 11
34.2632548507
 21
48.6316192713
  0
LINE
  5
300
100
AcDbEntity
  8
0
100
AcDbLine
 62
7
  6
CONTINUOUS
 10
40.0632548507
 20
48.6316192713
 11
41.3632548507
 21
48.6316192713
  0
LINE
  5
301
100
AcDbEntity
  8
0
100
AcDbLine
 62
7
  6
CONTINUOUS
 10
52.7382548507
 20
48.8851726619
 11
43.1382548507
 21
48.8851726619
  0
LINE
  5
302
100
AcDbEntity
  8
0
100
AcDbLine
 62
7
  6
CONTINUOUS
 10
10.9382548507
 20
48.8851726619
 11
20.5382548507
 21
48.8851726619
  0
LINE
  5
303
100
AcDbEntity
  8
0
100
AcDbLine
 62
7
  6
CONTINUOUS
 10
21.9882548507
 20
48.8851726619
 11
31.1132548507
 21
48.8851726619
  0
LINE
  5
304
100
AcDbEntity
  8
0
100
AcDbLine
 62
7
  6
CONTINUOUS
 10
32.5632548507
 20
48.8851726619
 11
41.6882548507
 21
48.8851726619
  0
LINE
  5
305
100
AcDbEntity
  8
0
100
AcDbLine
 62
7
  6
CONTINUOUS
 10
10.9382548507
 20
49.0851726619
 11
20.5382548507
 21
49.0851726619
  0
LINE
  5
306
100
AcDbEntity
  8
0
100
AcDbLine
 62
7
  6
CONTINUOUS
 10
43.1382548507
 20
49.0851726619
 11
52.7382548507
 21
49.0851726619
  0
LINE
  5
307
100
AcDbEntity
  8
0
100
AcDbLine
 62
7
  6
CONTINUOUS
 10
22.8382548507
 20
49.1851726619
 11
27.1382548507
 21
49.1851726619
  0
LINE
  5
308
100
AcDbEntity
  8
0
100
AcDbLine
 62
7
  6
CONTINUOUS
 10
36.5382548507
 20
49.1851726619
 11
40.8382548507
 21
49.1851726619
  0
LINE
  5
309
100
AcDbEntity
  8
0
100
AcDbLine
 62
7
  6
CONTINUOUS
 10
39.9001230388
 20
48.4851730509
 11
40.3639294601
 21
39.6351730428
  0
LINE
  5
30A
100
AcDbEntity
  8
0
100
AcDbLine
 62
7
  6
CONTINUOUS
 10
40.8632548473
 20
39.6351727254
 11
40.3994460006
 21
48.4851727268
  0
LINE
  5
30B
100
AcDbEntity
  8
0
100
AcDbLine
 62
7
  6
CONTINUOUS
 10
39.8382548507
 20
25.182398845
 11
39.8382548507
 21
21.7881819535
  0
LINE
  5
30C
100
AcDbEntity
  8
0
100
AcDbLine
 62
7
  6
CONTINUOUS
 10
39.8382548507
 20
62.5807413886
 11
39.8382548507
 21
65.9898816892
  0
LINE
  5
30D
100
AcDbEntity
  8
0
100
AcDbLine
 62
7
  6
CONTINUOUS
 10
40.0632548507
 20
48.8851726619
 11
40.0632548507
 21
48.4851726619
  0
LINE
  5
30E
100
AcDbEntity
  8
0
100
AcDbLine
 62
7
  6
CONTINUOUS
 10
40.0632548507
 20
39.6351726619
 11
40.0632548507
 21
39.2851726619
  0
LINE
  5
30F
100
AcDbEntity
  8
0
100
AcDbLine
 62
7
  6
CONTINUOUS
 10
40.1382548507
 20
65.5409110386
 11
40.1382548507
 21
63.0271752857
  0
LINE
  5
310
100
AcDbEntity
  8
0
100
AcDbLine
 62
7
  6
CONTINUOUS
 10
40.1382548507
 20
24.7334281944
 11
40.1382548507
 21
22.2367769208
  0
LINE
  5
311
100
AcDbEntity
  8
0
100
AcDbLine
 62
7
  6
CONTINUOUS
 10
40.5382548507
 20
48.8851726619
 11
40.5382548507
 21
59.8851726619
  0
LINE
  5
312
100
AcDbEntity
  8
0
100
AcDbLine
 62
7
  6
CONTINUOUS
 10
40.6382548507
 20
35.4851726619
 11
40.6382548507
 21
39.2851726619
  0
LINE
  5
313
100
AcDbEntity
  8
0
100
AcDbLine
 62
7
  6
CONTINUOUS
 10
40.7132548507
 20
77.992572859
 11
40.7132548507
 21
72.5851726619
  0
LINE
  5
314
100
AcDbEntity
  8
0
100
AcDbLine
 62
7
  6
CONTINUOUS
 10
40.8382548507
 20
49.1851726619
 11
40.8382548507
 21
59.5851726619
  0
LINE
  5
315
100
AcDbEntity
  8
0
100
AcDbLine
 62
7
  6
CONTINUOUS
 10
40.9382548507
 20
38.9851726619
 11
40.9382548507
 21
35.4851726619
  0
LINE
  5
316
100
AcDbEntity
  8
0
100
AcDbLine
 62
7
  6
CONTINUOUS
 10
41.3132548507
 20
75.6351726619
 11
41.3132548507
 21
70.8351727064
  0
LINE
  5
317
100
AcDbEntity
  8
0
100
AcDbLine
 62
7
  6
CONTINUOUS
 10
41.3132548507
 20
16.9351726552
 11
41.3132548507
 21
12.1351726619
  0
LINE
  5
318
100
AcDbEntity
  8
0
100
AcDbLine
 62
7
  6
CONTINUOUS
 10
41.3632548507
 20
39.2851726619
 11
41.3632548507
 21
48.8851726619
  0
LINE
  5
319
100
AcDbEntity
  8
0
100
AcDbLine
 62
7
  6
CONTINUOUS
 10
41.6882548507
 20
39.2851726619
 11
41.6882548507
 21
48.8851726619
  0
LINE
  5
31A
100
AcDbEntity
  8
0
100
AcDbLine
 62
7
  6
CONTINUOUS
 10
42.5382548507
 20
27.4851726619
 11
42.5382548507
 21
37.3851726619
  0
LINE
  5
31B
100
AcDbEntity
  8
0
100
AcDbLine
 62
7
  6
CONTINUOUS
 10
42.8382548507
 20
37.3851726619
 11
42.8382548507
 21
27.7851726619
  0
LINE
  5
31C
100
AcDbEntity
  8
0
100
AcDbLine
 62
7
  6
CONTINUOUS
 10
43.1382548507
 20
49.0851726619
 11
43.1382548507
 21
38.3851726619
  0
LINE
  5
31D
100
AcDbEntity
  8
0
100
AcDbLine
 62
7
  6
CONTINUOUS
 10
43.5632548507
 20
48.8851726619
 11
43.5632548507
 21
38.8851726619
  0
LINE
  5
31E
100
AcDbEntity
  8
0
100
AcDbLine
 62
7
  6
CONTINUOUS
 10
43.5632548507
 20
12.1351726619
 11
43.5632548507
 21
16.9351726559
  0
LINE
  5
31F
100
AcDbEntity
  8
0
100
AcDbLine
 62
7
  6
CONTINUOUS
 10
43.5632548507
 20
70.8351727059
 11
43.5632548507
 21
75.6351726619
  0
LINE
  5
320
100
AcDbEntity
  8
0
100
AcDbLine
 62
7
  6
CONTINUOUS
 10
45.6012424474
 20
80.6584545506
 11
45.5881376737
 21
80.4223360723
  0
LINE
  5
321
100
AcDbEntity
  8
0
100
AcDbLine
 62
7
  6
CONTINUOUS
 10
44.5382548507
 20
78.6653679681
 11
44.5382548507
 21
79.9460727376
  0
LINE
  5
322
100
AcDbEntity
  8
0
100
AcDbLine
 62
7
  6
CONTINUOUS
 10
44.6132548507
 20
38.8851726619
 11
44.6132548507
 21
39.4851726619
  0
LINE
  5
323
100
AcDbEntity
  8
0
100
AcDbLine
 62
7
  6
CONTINUOUS
 10
44.6132548507
 20
48.4851726619
 11
44.6132548507
 21
48.8851726619
  0
LINE
  5
324
100
AcDbEntity
  8
0
100
AcDbLine
 62
7
  6
CONTINUOUS
 10
44.7382548507
 20
22.2369171293
 11
44.7382548507
 21
24.733568403
  0
LINE
  5
325
100
AcDbEntity
  8
0
100
AcDbLine
 62
7
  6
CONTINUOUS
 10
44.7382548507
 20
63.0552657426
 11
44.7382548507
 21
65.5086004882
  0
LINE
  5
326
100
AcDbEntity
  8
0
100
AcDbLine
 62
7
  6
CONTINUOUS
 10
44.8132548507
 20
78.7268383628
 11
44.8132548507
 21
78.6653679681
  0
LINE
  5
327
100
AcDbEntity
  8
0
100
AcDbLine
 62
7
  6
CONTINUOUS
 10
44.8132548507
 20
10.5470206355
 11
44.8132548507
 21
10.3650410494
  0
LINE
  5
328
100
AcDbEntity
  8
0
100
AcDbLine
 62
7
  6
CONTINUOUS
 10
44.8782548507
 20
78.7268804528
 11
44.8782548507
 21
80.8851726619
  0
LINE
  5
329
100
AcDbEntity
  8
0
100
AcDbLine
 62
7
  6
CONTINUOUS
 10
45.0382548507
 20
25.1821633702
 11
45.0382548507
 21
21.7879464787
  0
LINE
  5
32A
100
AcDbEntity
  8
0
100
AcDbLine
 62
7
  6
CONTINUOUS
 10
45.0382548507
 20
62.5954293229
 11
45.0382548507
 21
65.9747228053
  0
LINE
  5
32B
100
AcDbEntity
  8
0
100
AcDbLine
 62
7
  6
CONTINUOUS
 10
45.7632548507
 20
73.0351726619
 11
45.7632548507
 21
76.1864321673
  0
LINE
  5
32C
100
AcDbEntity
  8
0
100
AcDbLine
 62
7
  6
CONTINUOUS
 10
46.0382548507
 20
71.7706109027
 11
46.0382548507
 21
73.342241648
  0
LINE
  5
32D
100
AcDbEntity
  8
0
100
AcDbLine
 62
7
  6
CONTINUOUS
 10
9.3382548507
 20
57.1851726619
 11
22.8382548507
 21
57.1851726619
  0
LINE
  5
32E
100
AcDbEntity
  8
0
100
AcDbLine
 62
7
  6
CONTINUOUS
 10
40.8382548507
 20
57.1851726619
 11
54.3382548507
 21
57.1851726619
  0
LINE
  5
32F
100
AcDbEntity
  8
0
100
AcDbLine
 62
7
  6
CONTINUOUS
 10
27.1382548507
 20
57.2851726619
 11
36.5382548507
 21
57.2851726619
  0
LINE
  5
330
100
AcDbEntity
  8
0
100
AcDbLine
 62
7
  6
CONTINUOUS
 10
10.5382548507
 20
58.1351726619
 11
22.8382548507
 21
58.1351726619
  0
LINE
  5
331
100
AcDbEntity
  8
0
100
AcDbLine
 62
7
  6
CONTINUOUS
 10
40.8382548507
 20
58.1351726619
 11
53.1382548507
 21
58.1351726619
  0
LINE
  5
332
100
AcDbEntity
  8
0
100
AcDbLine
 62
7
  6
CONTINUOUS
 10
49.1014877541
 20
22.3145828993
 11
49.0132548507
 21
23.3414569512
  0
LINE
  5
333
100
AcDbEntity
  8
0
100
AcDbLine
 62
7
  6
CONTINUOUS
 10
46.2069721529
 20
67.0918041362
 11
46.4132548507
 21
64.6851726619
  0
LINE
  5
334
100
AcDbEntity
  8
0
100
AcDbLine
 62
7
  6
CONTINUOUS
 10
47.3382548507
 20
34.3851726619
 11
47.3382548507
 21
37.3851726619
  0
LINE
  5
335
100
AcDbEntity
  8
0
100
AcDbLine
 62
7
  6
CONTINUOUS
 10
49.3382548507
 20
37.3851726619
 11
49.3382548507
 21
34.3851726619
  0
LINE
  5
336
100
AcDbEntity
  8
0
100
AcDbLine
 62
7
  6
CONTINUOUS
 10
49.0132548507
 20
64.6851726619
 11
49.2228304282
 21
67.1302210663
  0
LINE
  5
337
100
AcDbEntity
  8
0
100
AcDbLine
 62
7
  6
CONTINUOUS
 10
46.4132548507
 20
23.3414569512
 11
46.1853590462
 21
20.6891551551
  0
LINE
  5
338
100
AcDbEntity
  8
0
100
AcDbLine
 62
7
  6
CONTINUOUS
 10
40.8382548507
 20
59.3851726619
 11
36.5382548507
 21
59.3851726619
  0
LINE
  5
339
100
AcDbEntity
  8
0
100
AcDbLine
 62
7
  6
CONTINUOUS
 10
27.1382548507
 20
59.3851726619
 11
22.8382548507
 21
59.3851726619
  0
LINE
  5
33A
100
AcDbEntity
  8
0
100
AcDbLine
 62
7
  6
CONTINUOUS
 10
23.1382548507
 20
59.8851726619
 11
27.1382548507
 21
59.8851726619
  0
LINE
  5
33B
100
AcDbEntity
  8
0
100
AcDbLine
 62
7
  6
CONTINUOUS
 10
36.5382548507
 20
59.885172662
 11
40.5382548507
 21
59.8851726619
  0
LINE
  5
33C
100
AcDbEntity
  8
0
100
AcDbLine
 62
7
  6
CONTINUOUS
 10
9.3382548507
 20
60.2851726619
 11
54.3382548507
 21
60.2851726619
  0
LINE
  5
33D
100
AcDbEntity
  8
0
100
AcDbLine
 62
7
  6
CONTINUOUS
 10
50.4382548507
 20
25.182398845
 11
50.4382548507
 21
21.7881819535
  0
LINE
  5
33E
100
AcDbEntity
  8
0
100
AcDbLine
 62
7
  6
CONTINUOUS
 10
50.4382548507
 20
62.5807413886
 11
50.4382548507
 21
65.9898816892
  0
LINE
  5
33F
100
AcDbEntity
  8
0
100
AcDbLine
 62
7
  6
CONTINUOUS
 10
50.7382548507
 20
65.5409110386
 11
50.7382548507
 21
63.0271752857
  0
LINE
  5
340
100
AcDbEntity
  8
0
100
AcDbLine
 62
7
  6
CONTINUOUS
 10
50.7382548507
 20
24.7334281944
 11
50.7382548507
 21
22.2367769208
  0
LINE
  5
341
100
AcDbEntity
  8
0
100
AcDbLine
 62
7
  6
CONTINUOUS
 10
50.9132548507
 20
39.4851726619
 11
50.9132548507
 21
38.8851726619
  0
LINE
  5
342
100
AcDbEntity
  8
0
100
AcDbLine
 62
7
  6
CONTINUOUS
 10
50.9132548507
 20
48.4851726619
 11
50.9132548507
 21
48.8851726619
  0
LINE
  5
343
100
AcDbEntity
  8
0
100
AcDbLine
 62
7
  6
CONTINUOUS
 10
51.6382548507
 20
73.9311414478
 11
51.6382548507
 21
73.2315828225
  0
LINE
  5
344
100
AcDbEntity
  8
0
100
AcDbLine
 62
7
  6
CONTINUOUS
 10
51.6491540049
 20
6.2851726619
 11
51.6491540049
 21
6.7851726619
  0
LINE
  5
345
100
AcDbEntity
  8
0
100
AcDbLine
 62
7
  6
CONTINUOUS
 10
51.8793207771
 20
79.9113496102
 11
51.8793207771
 21
80.8851726619
  0
LINE
  5
346
100
AcDbEntity
  8
0
100
AcDbLine
 62
7
  6
CONTINUOUS
 10
51.9132548507
 20
75.6351726619
 11
51.9132548507
 21
70.8351727041
  0
LINE
  5
347
100
AcDbEntity
  8
0
100
AcDbLine
 62
7
  6
CONTINUOUS
 10
51.9132548507
 20
13.2851726619
 11
51.9132548507
 21
16.9351726583
  0
LINE
  5
348
100
AcDbEntity
  8
0
100
AcDbLine
 62
7
  6
CONTINUOUS
 10
52.2632548507
 20
76.1864321673
 11
52.2632548507
 21
75.6351726619
  0
LINE
  5
349
100
AcDbEntity
  8
0
100
AcDbLine
 62
7
  6
CONTINUOUS
 10
52.5132548507
 20
39.4851726619
 11
52.5132548507
 21
48.4851726619
  0
LINE
  5
34A
100
AcDbEntity
  8
0
100
AcDbLine
 62
7
  6
CONTINUOUS
 10
43.5382548507
 20
80.9551726619
 11
44.0382548507
 21
78.9851726619
  0
LINE
  5
34B
100
AcDbEntity
  8
0
100
AcDbLine
 62
7
  6
CONTINUOUS
 10
52.0901971095
 20
80.4223377298
 11
52.0752672539
 21
80.6584545506
  0
LINE
  5
34C
100
AcDbEntity
  8
0
100
AcDbLine
 62
7
  6
CONTINUOUS
 10
53.6933844569
 20
70.8351727037
 11
53.6934225745
 21
70.8125660253
  0
LINE
  5
34D
100
AcDbEntity
  8
0
100
AcDbLine
 62
7
  6
CONTINUOUS
 10
52.6632548507
 20
38.8851726619
 11
52.6632548507
 21
48.8851726619
  0
LINE
  5
34E
100
AcDbEntity
  8
0
100
AcDbLine
 62
7
  6
CONTINUOUS
 10
52.7382548507
 20
38.3851726619
 11
52.7382548507
 21
49.0851726619
  0
LINE
  5
34F
100
AcDbEntity
  8
0
100
AcDbLine
 62
7
  6
CONTINUOUS
 10
52.8692597713
 20
7.8917345236
 11
52.8692597713
 21
7.4126302972
  0
LINE
  5
350
100
AcDbEntity
  8
0
100
AcDbLine
 62
7
  6
CONTINUOUS
 10
52.8882548507
 20
10.3650410494
 11
52.8882548507
 21
12.1908697691
  0
LINE
  5
351
100
AcDbEntity
  8
0
100
AcDbLine
 62
7
  6
CONTINUOUS
 10
52.8882548507
 20
75.6351726619
 11
52.8882548507
 21
78.7268380855
  0
LINE
  5
352
100
AcDbEntity
  8
0
100
AcDbLine
 62
7
  6
CONTINUOUS
 10
52.9132548507
 20
75.4194526154
 11
52.9132548507
 21
75.6351726619
  0
LINE
  5
353
100
AcDbEntity
  8
0
100
AcDbLine
 62
7
  6
CONTINUOUS
 10
53.0632548507
 20
16.9351726587
 11
53.0632548506
 21
12.1351726619
  0
LINE
  5
354
100
AcDbEntity
  8
0
100
AcDbLine
 62
7
  6
CONTINUOUS
 10
53.0732548507
 20
75.6388897861
 11
53.0732548507
 21
80.8851726619
  0
LINE
  5
355
100
AcDbEntity
  8
0
100
AcDbLine
 62
7
  6
CONTINUOUS
 10
53.1382548507
 20
80.6851726619
 11
53.1382548507
 21
75.6351726619
  0
LINE
  5
356
100
AcDbEntity
  8
0
100
AcDbLine
 62
7
  6
CONTINUOUS
 10
53.1382548507
 20
58.1351726619
 11
53.1382548507
 21
57.1851726619
  0
LINE
  5
357
100
AcDbEntity
  8
0
100
AcDbLine
 62
7
  6
CONTINUOUS
 10
53.1382548507
 20
30.5851726619
 11
53.1382548507
 21
29.6351726619
  0
LINE
  5
358
100
AcDbEntity
  8
0
100
AcDbLine
 62
7
  6
CONTINUOUS
 10
53.1382548507
 20
12.1082170679
 11
53.1382548507
 21
10.3851726619
  0
LINE
  5
359
100
AcDbEntity
  8
0
100
AcDbLine
 62
7
  6
CONTINUOUS
 10
53.4085654807
 20
70.4980755126
 11
53.4085654807
 21
70.797664373
  0
LINE
  5
35A
100
AcDbEntity
  8
0
100
AcDbLine
 62
7
  6
CONTINUOUS
 10
53.6882548215
 20
16.9726811221
 11
53.6882548483
 21
27.4851726619
  0
LINE
  5
35B
100
AcDbEntity
  8
0
100
AcDbLine
 62
7
  6
CONTINUOUS
 10
53.6932548507
 20
60.2851726619
 11
53.6932548507
 21
70.2133861426
  0
LINE
  5
35C
100
AcDbEntity
  8
0
100
AcDbLine
 62
7
  6
CONTINUOUS
 10
53.7382548505
 20
10.3851726619
 11
53.7382548507
 21
16.9351726619
  0
LINE
  5
35D
100
AcDbEntity
  8
0
100
AcDbLine
 62
7
  6
CONTINUOUS
 10
53.7382548507
 20
70.8351726619
 11
53.7382548507
 21
80.6851726619
  0
LINE
  5
35E
100
AcDbEntity
  8
0
100
AcDbLine
 62
7
  6
CONTINUOUS
 10
53.9882548636
 20
16.9569477598
 11
53.9882548365
 21
16.935172659
  0
LINE
  5
35F
100
AcDbEntity
  8
0
100
AcDbLine
 62
7
  6
CONTINUOUS
 10
54.2882548507
 20
17.2355843657
 11
54.2882548507
 21
27.4851726619
  0
LINE
  5
360
100
AcDbEntity
  8
0
100
AcDbLine
 62
7
  6
CONTINUOUS
 10
54.2932548507
 20
60.2851726619
 11
54.2932548507
 21
70.2342331235
  0
LINE
  5
361
100
AcDbEntity
  8
0
100
AcDbLine
 62
7
  6
CONTINUOUS
 10
54.3382548507
 20
10.9851726619
 11
54.3382548507
 21
75.0351703486
  0
LINE
  5
362
100
AcDbEntity
  8
0
100
AcDbLine
 62
7
  6
CONTINUOUS
 10
54.3382548507
 20
75.2492459274
 11
54.3382548507
 21
80.0851726619
  0
LINE
  5
363
100
AcDbEntity
  8
0
100
AcDbLine
 62
7
  6
CONTINUOUS
 10
54.2882548493
 20
17.2565188399
 11
54.2882142572
 21
17.2516192169
  0
LINE
  5
364
100
AcDbEntity
  8
0
100
AcDbLine
 62
7
  6
CONTINUOUS
 10
53.2046584956
 20
10.3851726619
 11
53.1725167274
 21
9.1577203367
  0
LINE
  5
365
100
AcDbEntity
  8
0
100
AcDbLine
 62
7
  6
CONTINUOUS
 10
53.6484684511
 20
8.2328109857
 11
53.704852929
 21
10.386047322
  0
LINE
  5
366
100
AcDbEntity
  8
0
100
AcDbLine
 62
7
  6
CONTINUOUS
 10
53.1725167225
 20
9.1577203068
 11
53.1486434813
 21
8.7018134775
  0
LINE
  5
367
100
AcDbEntity
  8
0
100
AcDbLine
 62
7
  6
CONTINUOUS
 10
14.6132548507
 20
64.6851726619
 11
17.2132548507
 21
64.6851726619
  0
LINE
  5
368
100
AcDbEntity
  8
0
100
AcDbLine
 62
7
  6
CONTINUOUS
 10
25.2132548507
 20
64.6851726619
 11
27.8132548507
 21
64.6851726619
  0
LINE
  5
369
100
AcDbEntity
  8
0
100
AcDbLine
 62
7
  6
CONTINUOUS
 10
35.8132548507
 20
64.6851726619
 11
38.4132548507
 21
64.6851726619
  0
LINE
  5
36A
100
AcDbEntity
  8
0
100
AcDbLine
 62
7
  6
CONTINUOUS
 10
46.4132548507
 20
64.6851726619
 11
49.0132548507
 21
64.6851726619
  0
LINE
  5
36B
100
AcDbEntity
  8
0
100
AcDbLine
 62
7
  6
CONTINUOUS
 10
13.5140738639
 20
66.3851726619
 11
14.467540565
 21
66.3851726619
  0
LINE
  5
36C
100
AcDbEntity
  8
0
100
AcDbLine
 62
7
  6
CONTINUOUS
 10
17.3589691364
 20
66.3851726619
 11
18.3741233497
 21
66.3851726619
  0
LINE
  5
36D
100
AcDbEntity
  8
0
100
AcDbLine
 62
7
  6
CONTINUOUS
 10
24.1140738639
 20
66.3851726619
 11
25.067540565
 21
66.3851726619
  0
LINE
  5
36E
100
AcDbEntity
  8
0
100
AcDbLine
 62
7
  6
CONTINUOUS
 10
27.9589691364
 20
66.3851726619
 11
28.9741233497
 21
66.3851726619
  0
LINE
  5
36F
100
AcDbEntity
  8
0
100
AcDbLine
 62
7
  6
CONTINUOUS
 10
34.7140738639
 20
66.3851726619
 11
35.667540565
 21
66.3851726619
  0
LINE
  5
370
100
AcDbEntity
  8
0
100
AcDbLine
 62
7
  6
CONTINUOUS
 10
38.5589691364
 20
66.3851726619
 11
39.5741233497
 21
66.3851726619
  0
LINE
  5
371
100
AcDbEntity
  8
0
100
AcDbLine
 62
7
  6
CONTINUOUS
 10
45.3140738639
 20
66.3851726619
 11
46.267540565
 21
66.3851726619
  0
LINE
  5
372
100
AcDbEntity
  8
0
100
AcDbLine
 62
7
  6
CONTINUOUS
 10
49.1589691364
 20
66.3851726619
 11
50.1741233497
 21
66.3851726619
  0
LINE
  5
373
100
AcDbEntity
  8
0
100
AcDbLine
 62
7
  6
CONTINUOUS
 10
54.2932548507
 20
70.2133861426
 11
53.6932548507
 21
70.2133861426
  0
LINE
  5
374
100
AcDbEntity
  8
0
100
AcDbLine
 62
7
  6
CONTINUOUS
 10
9.9932548507
 20
70.2133861426
 11
9.3932548507
 21
70.2133861426
  0
LINE
  5
375
100
AcDbEntity
  8
0
100
AcDbLine
 62
7
  6
CONTINUOUS
 10
53.4085654807
 20
70.4980755126
 11
10.2779442207
 21
70.4980755126
  0
LINE
  5
376
100
AcDbEntity
  8
0
100
AcDbLine
 62
7
  6
CONTINUOUS
 10
10.2779442207
 20
70.797664373
 11
53.4085654807
 21
70.797664373
  0
LINE
  5
377
100
AcDbEntity
  8
0
100
AcDbLine
 62
7
  6
CONTINUOUS
 10
9.3382548507
 20
70.8351726619
 11
9.9382548507
 21
70.8351726619
  0
LINE
  5
378
100
AcDbEntity
  8
0
100
AcDbLine
 62
7
  6
CONTINUOUS
 10
9.9931146498
 20
70.835172713
 11
53.6933844569
 21
70.8351727037
  0
LINE
  5
379
100
AcDbEntity
  8
0
100
AcDbLine
 62
7
  6
CONTINUOUS
 10
53.7382548507
 20
70.8351726619
 11
54.3382548507
 21
70.8351726619
  0
LINE
  5
37A
100
AcDbEntity
  8
0
100
AcDbLine
 62
7
  6
CONTINUOUS
 10
36.7136581814
 20
71.7351726619
 11
38.2628515199
 21
71.7351726619
  0
LINE
  5
37B
100
AcDbEntity
  8
0
100
AcDbLine
 62
7
  6
CONTINUOUS
 10
45.7632548507
 20
73.7351726619
 11
43.5632548507
 21
73.7351726619
  0
LINE
  5
37C
100
AcDbEntity
  8
0
100
AcDbLine
 62
7
  6
CONTINUOUS
 10
41.3132548507
 20
73.7351726619
 11
40.7132548507
 21
73.7351726619
  0
LINE
  5
37D
100
AcDbEntity
  8
0
100
AcDbLine
 62
7
  6
CONTINUOUS
 10
34.2132548507
 20
73.7351726619
 11
32.9632548507
 21
73.7351726619
  0
LINE
  5
37E
100
AcDbEntity
  8
0
100
AcDbLine
 62
7
  6
CONTINUOUS
 10
30.7132548507
 20
73.7351726619
 11
22.3632548507
 21
73.7351726619
  0
LINE
  5
37F
100
AcDbEntity
  8
0
100
AcDbLine
 62
7
  6
CONTINUOUS
 10
20.1132548507
 20
73.7351726619
 11
17.8632548507
 21
73.7351726619
  0
LINE
  5
380
100
AcDbEntity
  8
0
100
AcDbLine
 62
7
  6
CONTINUOUS
 10
54.3382548507
 20
74.1351726619
 11
51.9132548507
 21
74.1351726618
  0
LINE
  5
381
100
AcDbEntity
  8
0
100
AcDbLine
 62
7
  6
CONTINUOUS
 10
43.5632548507
 20
74.1351726619
 11
41.3132548507
 21
74.1351726619
  0
LINE
  5
382
100
AcDbEntity
  8
0
100
AcDbLine
 62
7
  6
CONTINUOUS
 10
32.9632548507
 20
74.1351726619
 11
30.7132548507
 21
74.1351726619
  0
LINE
  5
383
100
AcDbEntity
  8
0
100
AcDbLine
 62
7
  6
CONTINUOUS
 10
22.3632548507
 20
74.1351726619
 11
20.1132548507
 21
74.1351726619
  0
LINE
  5
384
100
AcDbEntity
  8
0
100
AcDbLine
 62
7
  6
CONTINUOUS
 10
11.7632548507
 20
74.1351726619
 11
9.3382548507
 21
74.1351726619
  0
LINE
  5
385
100
AcDbEntity
  8
0
100
AcDbLine
 62
7
  6
CONTINUOUS
 10
38.2628515199
 20
74.5351726619
 11
36.7136581814
 21
74.5351726619
  0
LINE
  5
386
100
AcDbEntity
  8
0
100
AcDbLine
 62
7
  6
CONTINUOUS
 10
51.9132548507
 20
75.4194526155
 11
52.9132548507
 21
75.4194526155
  0
LINE
  5
387
100
AcDbEntity
  8
0
100
AcDbLine
 62
7
  6
CONTINUOUS
 10
9.9382548507
 20
75.6351726619
 11
11.7632548507
 21
75.6351726619
  0
LINE
  5
388
100
AcDbEntity
  8
0
100
AcDbLine
 62
7
  6
CONTINUOUS
 10
20.1132548507
 20
75.6351726619
 11
22.3632548507
 21
75.6351726619
  0
LINE
  5
389
100
AcDbEntity
  8
0
100
AcDbLine
 62
7
  6
CONTINUOUS
 10
30.7132548507
 20
75.6351726619
 11
32.9632548507
 21
75.6351726619
  0
LINE
  5
38A
100
AcDbEntity
  8
0
100
AcDbLine
 62
7
  6
CONTINUOUS
 10
41.3132548507
 20
75.6351726619
 11
43.5632548507
 21
75.6351726619
  0
LINE
  5
38B
100
AcDbEntity
  8
0
100
AcDbLine
 62
7
  6
CONTINUOUS
 10
51.9132548507
 20
75.6351726619
 11
53.7382548507
 21
75.6351726619
  0
LINE
  5
38C
100
AcDbEntity
  8
0
100
AcDbLine
 62
7
  6
CONTINUOUS
 10
9.9382548507
 20
75.7691472581
 11
10.5382548507
 21
75.7691472581
  0
LINE
  5
38D
100
AcDbEntity
  8
0
100
AcDbLine
 62
7
  6
CONTINUOUS
 10
53.1382548507
 20
75.7691472581
 11
53.7382548507
 21
75.7691472581
  0
LINE
  5
38E
100
AcDbEntity
  8
0
100
AcDbLine
 62
7
  6
CONTINUOUS
 10
52.2632548507
 20
76.1864321673
 11
49.3671532681
 21
76.1864321673
  0
LINE
  5
38F
100
AcDbEntity
  8
0
100
AcDbLine
 62
7
  6
CONTINUOUS
 10
48.6593564332
 20
76.1864321673
 11
45.7632548507
 21
76.1864321673
  0
LINE
  5
390
100
AcDbEntity
  8
0
100
AcDbLine
 62
7
  6
CONTINUOUS
 10
17.8632548507
 20
76.1864320072
 11
14.967159003
 21
76.1864317023
  0
LINE
  5
391
100
AcDbEntity
  8
0
100
AcDbLine
 62
7
  6
CONTINUOUS
 10
14.2594084927
 20
76.1864334316
 11
11.3632548507
 21
76.1864327239
  0
LINE
  5
392
100
AcDbEntity
  8
0
100
AcDbLine
 62
7
  6
CONTINUOUS
 10
52.8882548507
 20
77.8641056825
 11
40.7132548507
 21
77.8641056825
  0
LINE
  5
393
100
AcDbEntity
  8
0
100
AcDbLine
 62
7
  6
CONTINUOUS
 10
34.2132548507
 20
77.8641056825
 11
10.7382548507
 21
77.8641056825
  0
LINE
  5
394
100
AcDbEntity
  8
0
100
AcDbLine
 62
7
  6
CONTINUOUS
 10
40.7132548507
 20
77.992572859
 11
34.2132548507
 21
77.992572859
  0
LINE
  5
395
100
AcDbEntity
  8
0
100
AcDbLine
 62
7
  6
CONTINUOUS
 10
18.8132548507
 20
78.6653679681
 11
44.8132548507
 21
78.6653679681
  0
LINE
  5
396
100
AcDbEntity
  8
0
100
AcDbLine
 62
7
  6
CONTINUOUS
 10
52.8882548507
 20
78.6964959588
 11
44.8132548507
 21
78.6964959588
  0
LINE
  5
397
100
AcDbEntity
  8
0
100
AcDbLine
 62
7
  6
CONTINUOUS
 10
18.8132548507
 20
78.6964959588
 11
10.7382548507
 21
78.6964959588
  0
LINE
  5
398
100
AcDbEntity
  8
0
100
AcDbLine
 62
7
  6
CONTINUOUS
 10
52.8882548507
 20
78.7268804528
 11
44.8132548507
 21
78.7268804528
  0
LINE
  5
399
100
AcDbEntity
  8
0
100
AcDbLine
 62
7
  6
CONTINUOUS
 10
18.8132548507
 20
78.7268804528
 11
10.7382548507
 21
78.7268804528
  0
LINE
  5
39A
100
AcDbEntity
  8
0
100
AcDbLine
 62
7
  6
CONTINUOUS
 10
19.6382548507
 20
78.9851726619
 11
44.0382548507
 21
78.9851726619
  0
LINE
  5
39B
100
AcDbEntity
  8
0
100
AcDbLine
 62
7
  6
CONTINUOUS
 10
45.6228053585
 20
79.9113506513
 11
51.8795889981
 21
79.9113532907
  0
LINE
  5
39C
100
AcDbEntity
  8
0
100
AcDbLine
 62
7
  6
CONTINUOUS
 10
18.0391408008
 20
80.143991707
 11
11.7971940672
 21
80.1439917069
  0
LINE
  5
39D
100
AcDbEntity
  8
0
100
AcDbLine
 62
7
  6
CONTINUOUS
 10
53.7382548507
 20
80.5511980657
 11
53.1382548507
 21
80.5511980657
  0
LINE
  5
39E
100
AcDbEntity
  8
0
100
AcDbLine
 62
7
  6
CONTINUOUS
 10
10.5382548507
 20
80.5511980658
 11
9.9382548507
 21
80.5511980659
  0
LINE
  5
39F
100
AcDbEntity
  8
0
100
AcDbLine
 62
7
  6
CONTINUOUS
 10
53.0732548507
 20
80.6584545506
 11
52.0752672539
 21
80.6584545506
  0
LINE
  5
3A0
100
AcDbEntity
  8
0
100
AcDbLine
 62
7
  6
CONTINUOUS
 10
45.6012424474
 20
80.6584545506
 11
44.8782548507
 21
80.6584545506
  0
LINE
  5
3A1
100
AcDbEntity
  8
0
100
AcDbLine
 62
7
  6
CONTINUOUS
 10
18.7982548507
 20
80.6584545506
 11
18.0752672539
 21
80.6584545506
  0
LINE
  5
3A2
100
AcDbEntity
  8
0
100
AcDbLine
 62
7
  6
CONTINUOUS
 10
11.6012424474
 20
80.6584545506
 11
10.6032548507
 21
80.6584545506
  0
LINE
  5
3A3
100
AcDbEntity
  8
0
100
AcDbLine
 62
7
  6
CONTINUOUS
 10
9.9382548507
 20
80.6851726619
 11
10.5382548507
 21
80.6851726619
  0
LINE
  5
3A4
100
AcDbEntity
  8
0
100
AcDbLine
 62
7
  6
CONTINUOUS
 10
53.1382548507
 20
80.6851726619
 11
53.7382548507
 21
80.6851726619
  0
LINE
  5
3A5
100
AcDbEntity
  8
0
100
AcDbLine
 62
7
  6
CONTINUOUS
 10
10.6032548507
 20
80.8851726619
 11
11.6665516402
 21
80.8851726619
  0
LINE
  5
3A6
100
AcDbEntity
  8
0
100
AcDbLine
 62
7
  6
CONTINUOUS
 10
11.7971940972
 20
80.8851726619
 11
19.8841102916
 21
80.8851726619
  0
LINE
  5
3A7
100
AcDbEntity
  8
0
100
AcDbLine
 62
7
  6
CONTINUOUS
 10
43.8024816486
 20
80.8851726619
 11
51.8793195133
 21
80.8851726619
  0
LINE
  5
3A8
100
AcDbEntity
  8
0
100
AcDbLine
 62
7
  6
CONTINUOUS
 10
52.0099580611
 20
80.8851726619
 11
53.0732548507
 21
80.8851726619
  0
LINE
  5
3A9
100
AcDbEntity
  8
0
100
AcDbLine
 62
7
  6
CONTINUOUS
 10
20.1382548507
 20
80.9551726619
 11
43.5382548507
 21
80.9551726619
  0
CIRCLE
  5
3AA
100
AcDbEntity
  8
0
100
AcDbCircle
 62
7
  6
CONTINUOUS
 10
26.5382548507
 20
23.4851726619
 40
3.25
  0
CIRCLE
  5
3AB
100
AcDbEntity
  8
0
100
AcDbCircle
 62
7
  6
CONTINUOUS
 10
15.9382548507
 20
23.4851726619
 40
3.25
  0
ARC
  5
3AC
100
AcDbEntity
  8
0
100
AcDbCircle
 62
7
  6
CONTINUOUS
 10
11.7055433376
 20
12.3851726619
 40
2.0
100
AcDbArc
 50
233.1248842433
 51
241.0237759429
  0
CIRCLE
  5
3AD
100
AcDbEntity
  8
0
100
AcDbCircle
 62
7
  6
CONTINUOUS
 10
26.5382548507
 20
23.3851726619
 40
1.8
  0
CIRCLE
  5
3AE
100
AcDbEntity
  8
0
100
AcDbCircle
 62
7
  6
CONTINUOUS
 10
15.9382548507
 20
23.3851726619
 40
1.8
  0
ARC
  5
3AF
100
AcDbEntity
  8
0
100
AcDbCircle
 62
7
  6
CONTINUOUS
 10
26.5382548507
 20
14.6351726619
 40
1.6
100
AcDbArc
 50
118.9550243719
 51
241.0449756281
  0
ARC
  5
3B0
100
AcDbEntity
  8
0
100
AcDbCircle
 62
7
  6
CONTINUOUS
 10
26.5382548507
 20
14.6351726619
 40
1.6
100
AcDbArc
 50
298.9550243719
 51
61.0449756281
  0
ARC
  5
3B1
100
AcDbEntity
  8
0
100
AcDbCircle
 62
7
  6
CONTINUOUS
 10
26.5382548507
 20
14.6351726619
 40
1.47
100
AcDbArc
 50
100.6630023073
 51
259.3369976927
  0
ARC
  5
3B2
100
AcDbEntity
  8
0
100
AcDbCircle
 62
7
  6
CONTINUOUS
 10
26.5382548507
 20
14.6351726619
 40
1.47
100
AcDbArc
 50
280.6630023073
 51
79.3369976927
  0
ARC
  5
3B3
100
AcDbEntity
  8
0
100
AcDbCircle
 62
7
  6
CONTINUOUS
 10
20.2558178608
 20
11.3855124915
 40
1.0003406146
100
AcDbArc
 50
240.6978912493
 51
269.9324171453
  0
ARC
  5
3B4
100
AcDbEntity
  8
0
100
AcDbCircle
 62
7
  6
CONTINUOUS
 10
19.9624117216
 20
11.3851726619
 40
1.0
100
AcDbArc
 50
245.9653070518
 51
270.0
  0
ARC
  5
3B5
100
AcDbEntity
  8
0
100
AcDbCircle
 62
7
  6
CONTINUOUS
 10
9.9382658401
 20
12.705345302
 40
0.6304800194
100
AcDbArc
 50
268.4545334717
 51
269.9990013005
  0
ARC
  5
3B6
100
AcDbEntity
  8
0
100
AcDbCircle
 62
7
  6
CONTINUOUS
 10
9.9382548507
 20
12.7351726619
 40
0.6
100
AcDbArc
 50
180.0
 51
270.0
  0
ARC
  5
3B7
100
AcDbEntity
  8
0
100
AcDbCircle
 62
7
  6
CONTINUOUS
 10
9.9382548507
 20
10.9851726619
 40
0.6
100
AcDbArc
 50
179.999999999
 51
269.9999999934
  0
ARC
  5
3B8
100
AcDbEntity
  8
0
100
AcDbCircle
 62
7
  6
CONTINUOUS
 10
9.862041387
 20
11.0093163068
 40
0.5237865367
100
AcDbArc
 50
180.0022635806
 51
182.3979335192
  0
ARC
  5
3B9
100
AcDbEntity
  8
0
100
AcDbCircle
 62
7
  6
CONTINUOUS
 10
9.6884871512
 20
17.2353986666
 40
0.3002309537
100
AcDbArc
 50
179.9360739339
 51
269.9291389683
  0
ARC
  5
3BA
100
AcDbEntity
  8
0
100
AcDbCircle
 62
7
  6
CONTINUOUS
 10
20.4632548507
 20
42.6851726619
 40
0.3
100
AcDbArc
 50
90.0000000005
 51
180.0000000023
  0
ARC
  5
3BB
100
AcDbEntity
  8
0
100
AcDbCircle
 62
7
  6
CONTINUOUS
 10
22.0632548507
 20
42.6851726619
 40
0.3
100
AcDbArc
 50
0.0
 51
90.0000000155
  0
ARC
  5
3BC
100
AcDbEntity
  8
0
100
AcDbCircle
 62
7
  6
CONTINUOUS
 10
31.2106482138
 20
42.4851726619
 40
0.3
100
AcDbArc
 50
90.0
 51
179.5
  0
ARC
  5
3BD
100
AcDbEntity
  8
0
100
AcDbCircle
 62
7
  6
CONTINUOUS
 10
23.0382548507
 20
38.9851726619
 40
0.3
100
AcDbArc
 50
90.0
 51
180.0
  0
ARC
  5
3BE
100
AcDbEntity
  8
0
100
AcDbCircle
 62
7
  6
CONTINUOUS
 10
21.1382548507
 20
27.7851726619
 40
0.3
100
AcDbArc
 50
180.0
 51
270.0
  0
ARC
  5
3BF
100
AcDbEntity
  8
0
100
AcDbCircle
 62
7
  6
CONTINUOUS
 10
9.6880635228
 20
17.2568017153
 40
0.2998315539
100
AcDbArc
 50
183.6730637543
 51
270.0345107647
  0
ARC
  5
3C0
100
AcDbEntity
  8
0
100
AcDbCircle
 62
7
  6
CONTINUOUS
 10
14.6123217708
 20
72.281099063
 40
3.9214197027
100
AcDbArc
 50
84.8083795427
 51
89.985441292
  0
ARC
  5
3C1
100
AcDbEntity
  8
0
100
AcDbCircle
 62
7
  6
CONTINUOUS
 10
14.6133700818
 20
72.2999411369
 40
3.9025775026
100
AcDbArc
 50
90.0007618019
 51
95.2038465548
  0
ARC
  5
3C2
100
AcDbEntity
  8
0
100
AcDbCircle
 62
7
  6
CONTINUOUS
 10
10.6975564049
 20
75.61896345
 40
3.552253174
100
AcDbArc
 50
91.6569587901
 51
92.7727610973
  0
ARC
  5
3C3
100
AcDbEntity
  8
0
100
AcDbCircle
 62
7
  6
CONTINUOUS
 10
14.6132548507
 20
73.0351726619
 40
3.25
100
AcDbArc
 50
316.6553115461
 51
360.0
  0
ARC
  5
3C4
100
AcDbEntity
  8
0
100
AcDbCircle
 62
7
  6
CONTINUOUS
 10
14.6132548507
 20
73.0351726619
 40
3.25
100
AcDbArc
 50
207.8876509912
 51
223.4283805846
  0
CIRCLE
  5
3C5
100
AcDbEntity
  8
0
100
AcDbCircle
 62
7
  6
CONTINUOUS
 10
26.5432548507
 20
64.2851726619
 40
3.25
  0
CIRCLE
  5
3C6
100
AcDbEntity
  8
0
100
AcDbCircle
 62
7
  6
CONTINUOUS
 10
15.9432548507
 20
64.2851726619
 40
3.25
  0
ARC
  5
3C7
100
AcDbEntity
  8
0
100
AcDbCircle
 62
7
  6
CONTINUOUS
 10
14.5945220786
 20
72.035965882
 40
3.2350040749
100
AcDbArc
 50
121.9898286988
 51
151.5982720692
  0
ARC
  5
3C8
100
AcDbEntity
  8
0
100
AcDbCircle
 62
7
  6
CONTINUOUS
 10
14.6396384229
 20
72.043354388
 40
3.2246009464
100
AcDbArc
 50
9.2781861131
 51
58.055918774
  0
ARC
  5
3C9
100
AcDbEntity
  8
0
100
AcDbCircle
 62
7
  6
CONTINUOUS
 10
14.7616932592
 20
73.0343502555
 40
3.1015617005
100
AcDbArc
 50
0.0151924805
 51
12.1955236894
  0
ARC
  5
3CA
100
AcDbEntity
  8
0
100
AcDbCircle
 62
7
  6
CONTINUOUS
 10
11.7971940631
 20
78.8851726619
 40
2.0
100
AcDbArc
 50
126.6656393213
 51
130.531103222
  0
ARC
  5
3CB
100
AcDbEntity
  8
0
100
AcDbCircle
 62
7
  6
CONTINUOUS
 10
11.7971940631
 20
78.8851726619
 40
2.0
100
AcDbArc
 50
90.0
 51
93.6290307953
  0
ARC
  5
3CC
100
AcDbEntity
  8
0
100
AcDbCircle
 62
7
  6
CONTINUOUS
 10
15.9382548507
 20
64.3851726619
 40
1.8
100
AcDbArc
 50
138.2977632145
 51
43.7170064877
  0
ARC
  5
3CD
100
AcDbEntity
  8
0
100
AcDbCircle
 62
7
  6
CONTINUOUS
 10
26.5382548507
 20
64.3851726619
 40
1.8
100
AcDbArc
 50
138.2977632145
 51
43.7170064877
  0
ARC
  5
3CE
100
AcDbEntity
  8
0
100
AcDbCircle
 62
7
  6
CONTINUOUS
 10
13.3382548507
 20
74.0851726619
 40
1.2
100
AcDbArc
 50
180.0
 51
69.0951446873
  0
ARC
  5
3CF
100
AcDbEntity
  8
0
100
AcDbCircle
 62
7
  6
CONTINUOUS
 10
11.8026714925
 20
79.1393013076
 40
1.0049648106
100
AcDbArc
 50
98.4127788995
 51
101.1066333482
  0
ARC
  5
3D0
100
AcDbEntity
  8
0
100
AcDbCircle
 62
7
  6
CONTINUOUS
 10
28.6132548507
 20
47.4851726619
 40
1.0
100
AcDbArc
 50
359.9887371789
 51
89.9849686604
  0
ARC
  5
3D1
100
AcDbEntity
  8
0
100
AcDbCircle
 62
7
  6
CONTINUOUS
 10
11.798355779
 20
79.1725261036
 40
0.971466298
100
AcDbArc
 50
90.068516218
 51
98.447672692
  0
ARC
  5
3D2
100
AcDbEntity
  8
0
100
AcDbCircle
 62
7
  6
CONTINUOUS
 10
9.9382966324
 20
75.0826409445
 40
0.6865063149
100
AcDbArc
 50
90.0034871023
 51
92.9717224333
  0
ARC
  5
3D3
100
AcDbEntity
  8
0
100
AcDbCircle
 62
7
  6
CONTINUOUS
 10
9.9937337814
 20
70.2347504895
 40
0.600451112
100
AcDbArc
 50
94.9123552473
 51
180.0698055347
  0
ARC
  5
3D4
100
AcDbEntity
  8
0
100
AcDbCircle
 62
7
  6
CONTINUOUS
 10
9.9382548507
 20
75.0351726619
 40
0.6
100
AcDbArc
 50
90.0
 51
180.0
  0
ARC
  5
3D5
100
AcDbEntity
  8
0
100
AcDbCircle
 62
7
  6
CONTINUOUS
 10
9.9382548507
 20
80.0851726619
 40
0.6
100
AcDbArc
 50
89.9999999981
 51
180.0000000007
  0
ARC
  5
3D6
100
AcDbEntity
  8
0
100
AcDbCircle
 62
7
  6
CONTINUOUS
 10
9.9928480458
 20
70.2129141811
 40
0.5996246873
100
AcDbArc
 50
89.9760811336
 51
179.9561812688
  0
ARC
  5
3D7
100
AcDbEntity
  8
0
100
AcDbCircle
 62
7
  6
CONTINUOUS
 10
9.9931499152
 20
70.2430438852
 40
0.5921289025
100
AcDbArc
 50
90.0249740004
 51
94.9247850055
  0
ARC
  5
3D8
100
AcDbEntity
  8
0
100
AcDbCircle
 62
7
  6
CONTINUOUS
 10
20.4632548507
 20
45.2851726619
 40
0.3
100
AcDbArc
 50
180.0
 51
270.0000000152
  0
ARC
  5
3D9
100
AcDbEntity
  8
0
100
AcDbCircle
 62
7
  6
CONTINUOUS
 10
22.0632548507
 20
45.2851726619
 40
0.3
100
AcDbArc
 50
270.000000001
 51
360.0
  0
ARC
  5
3DA
100
AcDbEntity
  8
0
100
AcDbCircle
 62
7
  6
CONTINUOUS
 10
31.2132548507
 20
45.2851726619
 40
0.3
100
AcDbArc
 50
180.0
 51
270.0000000152
  0
ARC
  5
3DB
100
AcDbEntity
  8
0
100
AcDbCircle
 62
7
  6
CONTINUOUS
 10
26.8382548507
 20
59.5851726619
 40
0.3
100
AcDbArc
 50
359.9995365213
 51
90.0000000009
  0
ARC
  5
3DC
100
AcDbEntity
  8
0
100
AcDbCircle
 62
7
  6
CONTINUOUS
 10
23.1382548507
 20
59.5851726619
 40
0.3
100
AcDbArc
 50
90.0
 51
180.0005206859
  0
ARC
  5
3DD
100
AcDbEntity
  8
0
100
AcDbCircle
 62
7
  6
CONTINUOUS
 10
23.1382548507
 20
49.1851726619
 40
0.3
100
AcDbArc
 50
180.0
 51
270.0
  0
ARC
  5
3DE
100
AcDbEntity
  8
0
100
AcDbCircle
 62
7
  6
CONTINUOUS
 10
26.8382548507
 20
49.1851726619
 40
0.3
100
AcDbArc
 50
270.0
 51
360.0
  0
CIRCLE
  5
3DF
100
AcDbEntity
  8
0
100
AcDbCircle
 62
7
  6
CONTINUOUS
 10
37.1382548507
 20
23.4851726619
 40
3.25
  0
ARC
  5
3E0
100
AcDbEntity
  8
0
100
AcDbCircle
 62
7
  6
CONTINUOUS
 10
34.4429093034
 20
10.7212444148
 40
2.0794692223
100
AcDbArc
 50
189.4738598117
 51
197.289550193
  0
ARC
  5
3E1
100
AcDbEntity
  8
0
100
AcDbCircle
 62
7
  6
CONTINUOUS
 10
31.8632548507
 20
8.2851726619
 40
2.0
100
AcDbArc
 50
179.9999999991
 51
270.0
  0
ARC
  5
3E2
100
AcDbEntity
  8
0
100
AcDbCircle
 62
7
  6
CONTINUOUS
 10
34.3632548507
 20
10.7851726619
 40
2.0
100
AcDbArc
 50
190.9525638947
 51
270.000000136
  0
CIRCLE
  5
3E3
100
AcDbEntity
  8
0
100
AcDbCircle
 62
7
  6
CONTINUOUS
 10
37.1382548507
 20
23.3851726619
 40
1.8
  0
ARC
  5
3E4
100
AcDbEntity
  8
0
100
AcDbCircle
 62
7
  6
CONTINUOUS
 10
31.8632548507
 20
8.2851726619
 40
1.4999999701
100
AcDbArc
 50
180.0000281016
 51
270.0000399407
  0
ARC
  5
3E5
100
AcDbEntity
  8
0
100
AcDbCircle
 62
7
  6
CONTINUOUS
 10
32.5158614875
 20
42.4851726619
 40
0.3
100
AcDbArc
 50
0.3251035123
 51
90.0
  0
ARC
  5
3E6
100
AcDbEntity
  8
0
100
AcDbCircle
 62
7
  6
CONTINUOUS
 10
41.6632548507
 20
42.6851726619
 40
0.3
100
AcDbArc
 50
90.0000000005
 51
180.0000000023
  0
ARC
  5
3E7
100
AcDbEntity
  8
0
100
AcDbCircle
 62
7
  6
CONTINUOUS
 10
40.6382548507
 20
38.9851726619
 40
0.3
100
AcDbArc
 50
0.0
 51
90.0
  0
ARC
  5
3E8
100
AcDbEntity
  8
0
100
AcDbCircle
 62
7
  6
CONTINUOUS
 10
42.5382548507
 20
27.7851726619
 40
0.3
100
AcDbArc
 50
270.0
 51
360.0
  0
CIRCLE
  5
3E9
100
AcDbEntity
  8
0
100
AcDbCircle
 62
7
  6
CONTINUOUS
 10
47.7382548507
 20
23.4851726619
 40
3.25
  0
ARC
  5
3EA
100
AcDbEntity
  8
0
100
AcDbCircle
 62
7
  6
CONTINUOUS
 10
46.5632548507
 20
10.7851726619
 40
2.0
100
AcDbArc
 50
270.0
 51
349.7203015665
  0
ARC
  5
3EB
100
AcDbEntity
  8
0
100
AcDbCircle
 62
7
  6
CONTINUOUS
 10
51.6491540049
 20
8.2851726619
 40
2.0
100
AcDbArc
 50
270.0
 51
358.4997772976
  0
ARC
  5
3EC
100
AcDbEntity
  8
0
100
AcDbCircle
 62
7
  6
CONTINUOUS
 10
51.9709663637
 20
12.3851726619
 40
2.0
100
AcDbArc
 50
297.4800103178
 51
306.8751327237
  0
CIRCLE
  5
3ED
100
AcDbEntity
  8
0
100
AcDbCircle
 62
7
  6
CONTINUOUS
 10
47.7382548507
 20
23.3851726619
 40
1.8
  0
ARC
  5
3EE
100
AcDbEntity
  8
0
100
AcDbCircle
 62
7
  6
CONTINUOUS
 10
51.6491540049
 20
8.2851726619
 40
1.5
100
AcDbArc
 50
270.0000085158
 51
324.4303094601
  0
ARC
  5
3EF
100
AcDbEntity
  8
0
100
AcDbCircle
 62
7
  6
CONTINUOUS
 10
53.0632548507
 20
13.2851726619
 40
1.15
100
AcDbArc
 50
180.0000000004
 51
270.0000000002
  0
ARC
  5
3F0
100
AcDbEntity
  8
0
100
AcDbCircle
 62
7
  6
CONTINUOUS
 10
51.9645388137
 20
12.3601672548
 40
1.0064909364
100
AcDbArc
 50
344.0678254374
 51
349.6225431768
  0
ARC
  5
3F1
100
AcDbEntity
  8
0
100
AcDbCircle
 62
7
  6
CONTINUOUS
 10
43.4206877313
 20
11.3855310364
 40
1.0003591032
100
AcDbArc
 50
270.0659128536
 51
299.3059137043
  0
ARC
  5
3F2
100
AcDbEntity
  8
0
100
AcDbCircle
 62
7
  6
CONTINUOUS
 10
43.7140979797
 20
11.3851726619
 40
1.0
100
AcDbArc
 50
270.0
 51
294.0373408047
  0
ARC
  5
3F3
100
AcDbEntity
  8
0
100
AcDbCircle
 62
7
  6
CONTINUOUS
 10
53.7382438612
 20
12.705345302
 40
0.6304800194
100
AcDbArc
 50
270.0009986812
 51
271.5454665263
  0
ARC
  5
3F4
100
AcDbEntity
  8
0
100
AcDbCircle
 62
7
  6
CONTINUOUS
 10
53.7382548507
 20
12.7351726619
 40
0.6
100
AcDbArc
 50
270.0
 51
360.0
  0
ARC
  5
3F5
100
AcDbEntity
  8
0
100
AcDbCircle
 62
7
  6
CONTINUOUS
 10
53.7382548506
 20
10.9851726619
 40
0.6
100
AcDbArc
 50
269.9999999975
 51
359.999999999
  0
ARC
  5
3F6
100
AcDbEntity
  8
0
100
AcDbCircle
 62
7
  6
CONTINUOUS
 10
53.8149277738
 20
11.0093164047
 40
0.5233270772
100
AcDbArc
 50
357.62311675
 51
359.9977237049
  0
ARC
  5
3F7
100
AcDbEntity
  8
0
100
AcDbCircle
 62
7
  6
CONTINUOUS
 10
52.7726685564
 20
8.7214732759
 40
0.3764869265
100
AcDbArc
 50
353.4629134098
 51
357.006701577
  0
ARC
  5
3F8
100
AcDbEntity
  8
0
100
AcDbCircle
 62
7
  6
CONTINUOUS
 10
53.9880224693
 20
17.2353984968
 40
0.3002308489
100
AcDbArc
 50
270.0656336521
 51
0.0569640519
  0
ARC
  5
3F9
100
AcDbEntity
  8
0
100
AcDbCircle
 62
7
  6
CONTINUOUS
 10
53.9884459436
 20
17.2568020341
 40
0.2998318991
100
AcDbArc
 50
269.9634847653
 51
356.2002677948
  0
ARC
  5
3FA
100
AcDbEntity
  8
0
100
AcDbCircle
 62
7
  6
CONTINUOUS
 10
53.9908760046
 20
17.2566031439
 40
0.2973794025
100
AcDbArc
 50
356.2074764546
 51
359.0397090047
  0
ARC
  5
3FB
100
AcDbEntity
  8
0
100
AcDbCircle
 62
7
  6
CONTINUOUS
 10
53.8074213406
 20
43.9975685996
 40
34.9522497148
100
AcDbArc
 50
91.075508627
 51
91.1892354293
  0
ARC
  5
3FC
100
AcDbEntity
  8
0
100
AcDbCircle
 62
7
  6
CONTINUOUS
 10
43.2632548507
 20
42.6851726619
 40
0.3
100
AcDbArc
 50
0.0
 51
90.0000000153
  0
ARC
  5
3FD
100
AcDbEntity
  8
0
100
AcDbCircle
 62
7
  6
CONTINUOUS
 10
35.1132548507
 20
47.4851726619
 40
1.0
100
AcDbArc
 50
90.0150072771
 51
180.011273521
  0
ARC
  5
3FE
100
AcDbEntity
  8
0
100
AcDbCircle
 62
7
  6
CONTINUOUS
 10
32.5132548507
 20
45.2851726619
 40
0.3
100
AcDbArc
 50
270.000000001
 51
360.0
  0
ARC
  5
3FF
100
AcDbEntity
  8
0
100
AcDbCircle
 62
7
  6
CONTINUOUS
 10
41.6632548507
 20
45.2851726619
 40
0.3
100
AcDbArc
 50
180.0
 51
270.0000000249
  0
ARC
  5
400
100
AcDbEntity
  8
0
100
AcDbCircle
 62
7
  6
CONTINUOUS
 10
40.5382548507
 20
59.5851726619
 40
0.3
100
AcDbArc
 50
0.0
 51
90.0000000008
  0
ARC
  5
401
100
AcDbEntity
  8
0
100
AcDbCircle
 62
7
  6
CONTINUOUS
 10
36.8382548507
 20
59.5851726619
 40
0.3
100
AcDbArc
 50
90.0
 51
180.0004641077
  0
ARC
  5
402
100
AcDbEntity
  8
0
100
AcDbCircle
 62
7
  6
CONTINUOUS
 10
36.8382548507
 20
49.1851726619
 40
0.3
100
AcDbArc
 50
180.0
 51
270.0
  0
ARC
  5
403
100
AcDbEntity
  8
0
100
AcDbCircle
 62
7
  6
CONTINUOUS
 10
40.5382548507
 20
49.1851726619
 40
0.3
100
AcDbArc
 50
270.0
 51
360.0
  0
ARC
  5
404
100
AcDbEntity
  8
0
100
AcDbCircle
 62
7
  6
CONTINUOUS
 10
37.4632548507
 20
72.9351726619
 40
3.25
100
AcDbArc
 50
0.0
 51
180.0
  0
ARC
  5
405
100
AcDbEntity
  8
0
100
AcDbCircle
 62
7
  6
CONTINUOUS
 10
37.4632548507
 20
72.5851726619
 40
3.25
100
AcDbArc
 50
180.0000000001
 51
213.5918426848
  0
ARC
  5
406
100
AcDbEntity
  8
0
100
AcDbCircle
 62
7
  6
CONTINUOUS
 10
37.4632548507
 20
72.5851726619
 40
3.25
100
AcDbArc
 50
326.2917595961
 51
359.9999999999
  0
CIRCLE
  5
407
100
AcDbEntity
  8
0
100
AcDbCircle
 62
7
  6
CONTINUOUS
 10
37.1432548507
 20
64.2851726619
 40
3.25
  0
ARC
  5
408
100
AcDbEntity
  8
0
100
AcDbCircle
 62
7
  6
CONTINUOUS
 10
37.1382548507
 20
64.3851726619
 40
1.8
100
AcDbArc
 50
138.2977632145
 51
43.7170064877
  0
ARC
  5
409
100
AcDbEntity
  8
0
100
AcDbCircle
 62
7
  6
CONTINUOUS
 10
37.4882548507
 20
73.1351726619
 40
1.6
100
AcDbArc
 50
298.9550243719
 51
61.0449756281
  0
ARC
  5
40A
100
AcDbEntity
  8
0
100
AcDbCircle
 62
7
  6
CONTINUOUS
 10
37.4882548507
 20
73.1351726619
 40
1.6
100
AcDbArc
 50
118.9550243719
 51
241.0449756281
  0
ARC
  5
40B
100
AcDbEntity
  8
0
100
AcDbCircle
 62
7
  6
CONTINUOUS
 10
37.4882548507
 20
73.1351726619
 40
1.47
100
AcDbArc
 50
100.6630023073
 51
259.3369976927
  0
ARC
  5
40C
100
AcDbEntity
  8
0
100
AcDbCircle
 62
7
  6
CONTINUOUS
 10
37.4882548507
 20
73.1351726619
 40
1.47
100
AcDbArc
 50
280.6630023073
 51
79.3369976927
  0
ARC
  5
40D
100
AcDbEntity
  8
0
100
AcDbCircle
 62
7
  6
CONTINUOUS
 10
43.2632548507
 20
45.2851726619
 40
0.3
100
AcDbArc
 50
270.000000001
 51
360.0
  0
ARC
  5
40E
100
AcDbEntity
  8
0
100
AcDbCircle
 62
7
  6
CONTINUOUS
 10
49.0132548507
 20
73.0351726619
 40
3.25
100
AcDbArc
 50
316.6553113898
 51
333.7864727409
  0
ARC
  5
40F
100
AcDbEntity
  8
0
100
AcDbCircle
 62
7
  6
CONTINUOUS
 10
49.0132548507
 20
73.0351726619
 40
3.25
100
AcDbArc
 50
180.0
 51
223.4283807389
  0
CIRCLE
  5
410
100
AcDbEntity
  8
0
100
AcDbCircle
 62
7
  6
CONTINUOUS
 10
47.7432548507
 20
64.2851726619
 40
3.25
  0
ARC
  5
411
100
AcDbEntity
  8
0
100
AcDbCircle
 62
7
  6
CONTINUOUS
 10
49.0326382077
 20
72.0366649883
 40
3.234061874
100
AcDbArc
 50
26.5660662243
 51
58.0133854214
  0
ARC
  5
412
100
AcDbEntity
  8
0
100
AcDbCircle
 62
7
  6
CONTINUOUS
 10
48.9868930552
 20
72.0433354214
 40
3.2246289688
100
AcDbArc
 50
121.9442312519
 51
170.6683948485
  0
ARC
  5
413
100
AcDbEntity
  8
0
100
AcDbCircle
 62
7
  6
CONTINUOUS
 10
51.8793156382
 20
78.8851726619
 40
2.0
100
AcDbArc
 50
86.3355779721
 51
90.0
  0
ARC
  5
414
100
AcDbEntity
  8
0
100
AcDbCircle
 62
7
  6
CONTINUOUS
 10
51.8793156382
 20
78.8851726619
 40
2.0
100
AcDbArc
 50
49.4187040405
 51
53.3022889903
  0
ARC
  5
415
100
AcDbEntity
  8
0
100
AcDbCircle
 62
7
  6
CONTINUOUS
 10
47.7382548507
 20
64.3851726619
 40
1.8
100
AcDbArc
 50
138.2977632145
 51
43.7170064877
  0
ARC
  5
416
100
AcDbEntity
  8
0
100
AcDbCircle
 62
7
  6
CONTINUOUS
 10
51.3382548507
 20
74.0851726619
 40
1.2
100
AcDbArc
 50
134.6959754876
 51
300.2395371255
  0
ARC
  5
417
100
AcDbEntity
  8
0
100
AcDbCircle
 62
7
  6
CONTINUOUS
 10
51.8779207622
 20
78.9034566608
 40
1.0079446327
100
AcDbArc
 50
78.2567593068
 51
85.055398399
  0
ARC
  5
418
100
AcDbEntity
  8
0
100
AcDbCircle
 62
7
  6
CONTINUOUS
 10
51.8790442404
 20
78.916618454
 40
0.9947349858
100
AcDbArc
 50
85.0545257344
 51
89.9686224734
  0
ARC
  5
419
100
AcDbEntity
  8
0
100
AcDbCircle
 62
7
  6
CONTINUOUS
 10
53.7382130689
 20
75.0826409445
 40
0.6865063148
100
AcDbArc
 50
87.0282775665
 51
89.9965128966
  0
ARC
  5
41A
100
AcDbEntity
  8
0
100
AcDbCircle
 62
7
  6
CONTINUOUS
 10
53.6927779939
 20
70.2347512666
 40
0.6004491051
100
AcDbArc
 50
359.9290557315
 51
85.9888952542
  0
ARC
  5
41B
100
AcDbEntity
  8
0
100
AcDbCircle
 62
7
  6
CONTINUOUS
 10
53.7382548507
 20
75.0351726619
 40
0.6
100
AcDbArc
 50
0.0
 51
90.0
  0
ARC
  5
41C
100
AcDbEntity
  8
0
100
AcDbCircle
 62
7
  6
CONTINUOUS
 10
53.7382548507
 20
80.0851726619
 40
0.6
100
AcDbArc
 50
0.0
 51
90.0000000003
  0
ARC
  5
41D
100
AcDbEntity
  8
0
100
AcDbCircle
 62
7
  6
CONTINUOUS
 10
53.6936616554
 20
70.2129141484
 40
0.5996247045
100
AcDbArc
 50
0.0437754302
 51
90.0246649239
  0
ARC
  5
41E
100
AcDbEntity
  8
0
100
AcDbCircle
 62
7
  6
CONTINUOUS
 10
53.6933905771
 20
70.2442345494
 40
0.5909382127
100
AcDbArc
 50
85.9838271835
 51
89.9789848956
  0
SPLINE
  5
41F
100
AcDbEntity
  8
0
100
AcDbSpline
 62
7
  6
CONTINUOUS
 70
0
 71
3
 72
14
 73
10
 74
0
 42
0.0000001
 43
0.0000001
 44
0.0000000001
 40
0.0
 40
0.0
 40
0.0
 40
0.0
 40
0.1136403892
 40
0.2347042197
 40
0.3622146556
 40
0.493548401
 40
0.6260953755
 40
0.7568717803
 40
1.0
 40
1.0
 40
1.0
 40
1.0
 10
53.6458886357
 20
8.1709445871
 30
0.0
 10
53.6476067541
 20
8.2009765057
 30
0.0
 10
53.6449553396
 20
8.2635057977
 30
0.0
 10
53.6217778928
 20
8.3572524727
 30
0.0
 10
53.5768360621
 20
8.4480694226
 30
0.0
 10
53.5123229997
 20
8.5301535644
 30
0.0
 10
53.4305636559
 20
8.5965272907
 30
0.0
 10
53.3112934412
 20
8.6591549713
 30
0.0
 10
53.2110612636
 20
8.678310325
 30
0.0
 10
53.1467050425
 20
8.6786114248
 30
0.0
  0
SPLINE
  5
420
100
AcDbEntity
  8
0
100
AcDbSpline
 62
7
  6
CONTINUOUS
 70
0
 71
3
 72
14
 73
10
 74
0
 42
0.0000001
 43
0.0000001
 44
0.0000000001
 40
0.0
 40
0.0
 40
0.0
 40
0.0
 40
0.1110834392
 40
0.2296120977
 40
0.3551469086
 40
0.4855794826
 40
0.6185674201
 40
0.7510135927
 40
1.0
 40
1.0
 40
1.0
 40
1.0
 10
53.6484543871
 20
8.2328130155
 30
0.0
 10
53.6491933972
 20
8.2609822043
 30
0.0
 10
53.6446869052
 20
8.3195160084
 30
0.0
 10
53.6193435427
 20
8.4066740725
 30
0.0
 10
53.5731602662
 20
8.4905341657
 30
0.0
 10
53.5083834069
 20
8.5659346915
 30
0.0
 10
53.4274866062
 20
8.6266970676
 30
0.0
 10
53.3096854716
 20
8.6841663377
 30
0.0
 10
53.2118037882
 20
8.7015417928
 30
0.0
 10
53.1486432501
 20
8.7018209726
 30
0.0
  0
SPLINE
  5
421
100
AcDbEntity
  8
0
100
AcDbSpline
 62
7
  6
CONTINUOUS
 70
0
 71
3
 72
17
 73
13
 74
0
 42
0.0000001
 43
0.0000001
 44
0.0000000001
 40
0.0
 40
0.0
 40
0.0
 40
0.0
 40
0.1250837725
 40
0.2501538184
 40
0.3751887598
 40
0.4377604568
 40
0.5003193553
 40
0.625259097
 40
0.7501410372
 40
0.8126295104
 40
0.8751360334
 40
1.0
 40
1.0
 40
1.0
 40
1.0
 10
34.3632548561
 20
7.891734533
 30
0.0
 10
34.2285079309
 20
7.8917425457
 30
0.0
 10
33.9581317571
 20
7.9210607952
 30
0.0
 10
33.5720627565
 20
8.0499305173
 30
0.0
 10
33.2794318259
 20
8.2219498292
 30
0.0
 10
33.0701511108
 20
8.3923285835
 30
0.0
 10
32.8787964381
 20
8.5825004553
 30
0.0
 10
32.6758859579
 20
8.8537151221
 30
0.0
 10
32.5273763294
 20
9.1578495925
 30
0.0
 10
32.443253607
 20
9.4138986718
 30
0.0
 10
32.3825777826
 20
9.6764025979
 30
0.0
 10
32.3637721323
 20
9.8787873218
 30
0.0
 10
32.3632705544
 20
10.0132965252
 30
0.0
  0
SPLINE
  5
422
100
AcDbEntity
  8
0
100
AcDbSpline
 62
7
  6
CONTINUOUS
 70
0
 71
3
 72
15
 73
11
 74
0
 42
0.0000001
 43
0.0000001
 44
0.0000000001
 40
0.0
 40
0.0
 40
0.0
 40
0.0
 40
0.1248405603
 40
0.2497379316
 40
0.3746847674
 40
0.4996689975
 40
0.6247067682
 40
0.7497767291
 40
0.8749023284
 40
1.0
 40
1.0
 40
1.0
 40
1.0
 10
32.4574008566
 20
10.1032246304
 30
0.0
 10
32.4888709813
 20
10.0021202506
 30
0.0
 10
32.5674661406
 20
9.8043557386
 30
0.0
 10
32.7293995782
 20
9.5294925117
 30
0.0
 10
32.9321137216
 20
9.2828716858
 30
0.0
 10
33.171051307
 20
9.0709570328
 30
0.0
 10
33.4406516291
 20
8.8994984131
 30
0.0
 10
33.7343279525
 20
8.7732357058
 30
0.0
 10
34.0445082898
 20
8.6959724218
 30
0.0
 10
34.2571478518
 20
8.6786216988
 30
0.0
 10
34.3632548561
 20
8.6786112103
 30
0.0
  0
SPLINE
  5
423
100
AcDbEntity
  8
0
100
AcDbSpline
 62
7
  6
CONTINUOUS
 70
0
 71
3
 72
15
 73
11
 74
0
 42
0.0000001
 43
0.0000001
 44
0.0000000001
 40
0.0
 40
0.0
 40
0.0
 40
0.0
 40
0.1249847565
 40
0.2499873544
 40
0.3749882189
 40
0.4999809665
 40
0.6249904224
 40
0.7499858371
 40
0.8749878354
 40
1.0
 40
1.0
 40
1.0
 40
1.0
 10
34.3632449554
 20
7.412627415
 30
0.0
 10
34.1963248007
 20
7.4126488097
 30
0.0
 10
33.8613838795
 20
7.4477562046
 30
0.0
 10
33.3818644855
 20
7.6035338878
 30
0.0
 10
32.9434871327
 20
7.8529252556
 30
0.0
 10
32.5649004575
 20
8.185810404
 30
0.0
 10
32.2573145024
 20
8.5849397795
 30
0.0
 10
32.0318544181
 20
9.0355832823
 30
0.0
 10
31.8940975369
 20
9.5199498319
 30
0.0
 10
31.8632677575
 20
9.8546752182
 30
0.0
 10
31.8632548208
 20
10.021631978
 30
0.0
  0
SPLINE
  5
424
100
AcDbEntity
  8
0
100
AcDbSpline
 62
7
  6
CONTINUOUS
 70
0
 71
3
 72
17
 73
13
 74
0
 42
0.0000001
 43
0.0000001
 44
0.0000000001
 40
0.0
 40
0.0
 40
0.0
 40
0.0
 40
0.1100484311
 40
0.170611833
 40
0.234395447
 40
0.3693689493
 40
0.5093714515
 40
0.5792003199
 40
0.647672258
 40
0.7774177975
 40
0.895285807
 40
1.0
 40
1.0
 40
1.0
 40
1.0
 10
52.8692549045
 20
7.8917347089
 30
0.0
 10
52.9078041167
 20
7.8894800234
 30
0.0
 10
52.9674289712
 20
7.8790338288
 30
0.0
 10
53.0449272962
 20
7.8510460153
 30
0.0
 10
53.1262667957
 20
7.8097724593
 30
0.0
 10
53.2208635211
 20
7.7353520992
 30
0.0
 10
53.2931958686
 20
7.6361843401
 30
0.0
 10
53.3325126068
 20
7.546458387
 30
0.0
 10
53.3576344309
 20
7.4555318942
 30
0.0
 10
53.3635796456
 20
7.3430541369
 30
0.0
 10
53.3349426513
 20
7.2212537524
 30
0.0
 10
53.297362998
 20
7.1516983924
 30
0.0
 10
53.2759921959
 20
7.1218092181
 30
0.0
  0
SPLINE
  5
425
100
AcDbEntity
  8
0
100
AcDbSpline
 62
7
  6
CONTINUOUS
 70
0
 71
3
 72
11
 73
7
 74
0
 42
0.0000001
 43
0.0000001
 44
0.0000000001
 40
0.0
 40
0.0
 40
0.0
 40
0.0
 40
0.2357454694
 40
0.4771050061
 40
0.7295365542
 40
1.0
 40
1.0
 40
1.0
 40
1.0
 10
53.1467050587
 20
8.6786110373
 30
0.0
 10
53.142955237
 20
8.6122916578
 30
0.0
 10
53.1273196217
 20
8.4783381896
 30
0.0
 10
53.0754531748
 20
8.2787152906
 30
0.0
 10
52.9911941923
 20
8.0797280238
 30
0.0
 10
52.9138111677
 20
7.9535638634
 30
0.0
 10
52.8692607778
 20
7.8917344656
 30
0.0
  0
SPLINE
  5
426
100
AcDbEntity
  8
0
100
AcDbSpline
 62
7
  6
CONTINUOUS
 70
0
 71
3
 72
15
 73
11
 74
0
 42
0.0000001
 43
0.0000001
 44
0.0000000001
 40
0.0
 40
0.0
 40
0.0
 40
0.0
 40
0.1268235034
 40
0.2533547506
 40
0.3793311564
 40
0.5047171458
 40
0.6294475296
 40
0.7535095046
 40
0.876969055
 40
1.0
 40
1.0
 40
1.0
 40
1.0
 10
14.9671665863
 20
76.1864310685
 30
0.0
 10
15.1363366777
 20
76.1683549891
 30
0.0
 10
15.4720762311
 20
76.1061365397
 30
0.0
 10
15.9541454286
 20
75.937251092
 30
0.0
 10
16.4028571884
 20
75.6969639485
 30
0.0
 10
16.8070858901
 20
75.3916639705
 30
0.0
 10
17.1570608191
 20
75.0289636496
 30
0.0
 10
17.4444198133
 20
74.6179876917
 30
0.0
 10
17.6624390154
 20
74.1690435588
 30
0.0
 10
17.7583859124
 20
73.8508691365
 30
0.0
 10
17.79326016
 20
73.6895503073
 30
0.0
  0
SPLINE
  5
427
100
AcDbEntity
  8
0
100
AcDbSpline
 62
7
  6
CONTINUOUS
 70
0
 71
3
 72
15
 73
11
 74
0
 42
0.0000001
 43
0.0000001
 44
0.0000000001
 40
0.0
 40
0.0
 40
0.0
 40
0.0
 40
0.126348379
 40
0.2525468112
 40
0.3783284259
 40
0.5036714103
 40
0.628524959
 40
0.7528623419
 40
0.8766871486
 40
1.0
 40
1.0
 40
1.0
 40
1.0
 10
14.2594100005
 20
76.1864352669
 30
0.0
 10
14.126423463
 20
76.1722270911
 30
0.0
 10
13.862078504
 20
76.1275319582
 30
0.0
 10
13.4771238846
 20
76.0139039477
 30
0.0
 10
13.1094954339
 20
75.8552010575
 30
0.0
 10
12.7655306182
 20
75.6529974879
 30
0.0
 10
12.4500713042
 20
75.4112523974
 30
0.0
 10
12.1674697735
 20
75.1340905671
 30
0.0
 10
11.9216193958
 20
74.8260018847
 30
0.0
 10
11.7847060521
 20
74.60213364
 30
0.0
 10
11.7237533631
 20
74.4867087762
 30
0.0
  0
SPLINE
  5
428
100
AcDbEntity
  8
0
100
AcDbSpline
 62
7
  6
CONTINUOUS
 70
0
 71
3
 72
13
 73
9
 74
0
 42
0.0000001
 43
0.0000001
 44
0.0000000001
 40
0.0
 40
0.0
 40
0.0
 40
0.0
 40
0.1032552363
 40
0.2106493045
 40
0.3245469721
 40
0.446415216
 40
0.7129425786
 40
1.0
 40
1.0
 40
1.0
 40
1.0
 10
23.6632548507
 20
39.62659403
 30
0.0
 10
23.6632548507
 20
39.6173268968
 30
0.0
 10
23.6605177563
 20
39.5983347758
 30
0.0
 10
23.6487909406
 20
39.571338424
 30
0.0
 10
23.6298391042
 20
39.5467114081
 30
0.0
 10
23.5952818938
 20
39.5173404918
 30
0.0
 10
23.5389531433
 20
39.4918830731
 30
0.0
 10
23.4890181866
 20
39.4851726737
 30
0.0
 10
23.4632548507
 20
39.4851726737
 30
0.0
  0
SPLINE
  5
429
100
AcDbEntity
  8
0
100
AcDbSpline
 62
7
  6
CONTINUOUS
 70
0
 71
3
 72
13
 73
9
 74
0
 42
0.0000001
 43
0.0000001
 44
0.0000000001
 40
0.0
 40
0.0
 40
0.0
 40
0.0
 40
0.2870575551
 40
0.5535849332
 40
0.6754531349
 40
0.7893507534
 40
0.8967447786
 40
1.0
 40
1.0
 40
1.0
 40
1.0
 10
23.4632548507
 20
48.6316192713
 30
0.0
 10
23.4890181986
 20
48.6316192713
 30
0.0
 10
23.5389531686
 20
48.6249088645
 30
0.0
 10
23.5952819255
 20
48.599451435
 30
0.0
 10
23.6298391237
 20
48.5700805147
 30
0.0
 10
23.6487909489
 20
48.5454535061
 30
0.0
 10
23.6605177616
 20
48.5184571633
 30
0.0
 10
23.6632548507
 20
48.4994650468
 30
0.0
 10
23.6632548507
 20
48.490197915
 30
0.0
  0
SPLINE
  5
42A
100
AcDbEntity
  8
0
100
AcDbSpline
 62
7
  6
CONTINUOUS
 70
0
 71
3
 72
23
 73
19
 74
0
 42
0.0000001
 43
0.0000001
 44
0.0000000001
 40
0.0
 40
0.0
 40
0.0
 40
0.0
 40
0.1946710934
 40
0.3822257809
 40
0.5548522504
 40
0.6335408412
 40
0.7061501893
 40
0.7719980713
 40
0.8304068692
 40
0.8808061491
 40
0.9227643689
 40
0.9558628073
 40
0.968976569
 40
0.979772384
 40
0.9882397233
 40
0.9943774997
 40
0.9982172925
 40
1.0
 40
1.0
 40
1.0
 40
1.0
 10
9.9882548507
 20
17.2722697717
 30
0.0
 10
9.9492630821
 20
17.2722618239
 30
0.0
 10
9.8727048081
 20
17.2720681174
 30
0.0
 10
9.7615730973
 20
17.2712136448
 30
0.0
 10
9.6736769246
 20
17.270009069
 30
0.0
 10
9.6088081869
 20
17.2687577897
 30
0.0
 10
9.5653267471
 20
17.2677340758
 30
0.0
 10
9.5259111571
 20
17.2666074147
 30
0.0
 10
9.4909496023
 20
17.2653862573
 30
0.0
 10
9.460778658
 20
17.2640845953
 30
0.0
 10
9.4356885474
 20
17.2627261411
 30
0.0
 10
9.4180654851
 20
17.2614937336
 30
0.0
 10
9.4067009382
 20
17.260450683
 30
0.0
 10
9.4002430403
 20
17.2597125461
 30
0.0
 10
9.395241077
 20
17.259011879
 30
0.0
 10
9.3915339802
 20
17.2582317112
 30
0.0
 10
9.3894271314
 20
17.25765832
 30
0.0
 10
9.3882548505
 20
17.2569043901
 30
0.0
 10
9.3882548507
 20
17.2565473216
 30
0.0
  0
SPLINE
  5
42B
100
AcDbEntity
  8
0
100
AcDbSpline
 62
7
  6
CONTINUOUS
 70
0
 71
3
 72
23
 73
19
 74
0
 42
0.0000001
 43
0.0000001
 44
0.0000000001
 40
0.0
 40
0.0
 40
0.0
 40
0.0
 40
0.0017841922
 40
0.0056246427
 40
0.0117628007
 40
0.0202303881
 40
0.0310263701
 40
0.0441402427
 40
0.0772387831
 40
0.119196992
 40
0.1695961752
 40
0.2280048083
 40
0.2938524743
 40
0.3664615651
 40
0.4451498654
 40
0.6177756812
 40
0.8053296484
 40
1.0
 40
1.0
 40
1.0
 40
1.0
 10
54.2882548507
 20
17.2565349385
 30
0.0
 10
54.2882548423
 20
17.2568923057
 30
0.0
 10
54.2870832507
 20
17.257647513
 30
0.0
 10
54.2849755906
 20
17.2582218627
 30
0.0
 10
54.2812687451
 20
17.2590031599
 30
0.0
 10
54.2762666046
 20
17.259704836
 30
0.0
 10
54.269808743
 20
17.2604439904
 30
0.0
 10
54.2584441785
 20
17.261488441
 30
0.0
 10
54.24082113
 20
17.262722416
 30
0.0
 10
54.2157310055
 20
17.2640824877
 30
0.0
 10
54.1855600649
 20
17.2653855781
 30
0.0
 10
54.150598515
 20
17.2666079464
 30
0.0
 10
54.1111829325
 20
17.2677355848
 30
0.0
 10
54.0677014992
 20
17.2687600358
 30
0.0
 10
54.0028327712
 20
17.2700119827
 30
0.0
 10
53.9149366017
 20
17.2712166961
 30
0.0
 10
53.8038048898
 20
17.2720703503
 30
0.0
 10
53.7272466172
 20
17.272262864
 30
0.0
 10
53.6882548507
 20
17.2722700355
 30
0.0
  0
SPLINE
  5
42C
100
AcDbEntity
  8
0
100
AcDbSpline
 62
7
  6
CONTINUOUS
 70
0
 71
3
 72
18
 73
14
 74
0
 42
0.0000001
 43
0.0000001
 44
0.0000000001
 40
0.0
 40
0.0
 40
0.0
 40
0.0
 40
0.1942052122
 40
0.3812858418
 40
0.5534606455
 40
0.7043760784
 40
0.8283579661
 40
0.8786816517
 40
0.9206261507
 40
0.9538017772
 40
0.9779363957
 40
0.993052181
 40
1.0
 40
1.0
 40
1.0
 40
1.0
 10
53.6884107481
 20
16.9726811362
 30
0.0
 10
53.7079169006
 20
16.9726790515
 30
0.0
 10
53.7462139778
 20
16.9724817287
 30
0.0
 10
53.8017980121
 20
16.9716167077
 30
0.0
 10
53.8530235791
 20
16.970213639
 30
0.0
 10
53.8978866555
 20
16.9683360461
 30
0.0
 10
53.9305040436
 20
16.9663474686
 30
0.0
 10
53.9521331728
 20
16.964496361
 30
0.0
 10
53.9646884936
 20
16.9631191393
 30
0.0
 10
53.974489599
 20
16.9617776585
 30
0.0
 10
53.9818023207
 20
16.9602482961
 30
0.0
 10
53.9859321246
 20
16.9591251876
 30
0.0
 10
53.9882669959
 20
16.9576454997
 30
0.0
 10
53.9882548636
 20
16.9569477598
 30
0.0
  0
SPLINE
  5
42D
100
AcDbEntity
  8
0
100
AcDbSpline
 62
7
  6
CONTINUOUS
 70
0
 71
3
 72
18
 73
14
 74
0
 42
0.0000001
 43
0.0000001
 44
0.0000000001
 40
0.0
 40
0.0
 40
0.0
 40
0.0
 40
0.0068032723
 40
0.0217429624
 40
0.0457270481
 40
0.0787844886
 40
0.1206438546
 40
0.1709145779
 40
0.2948814773
 40
0.4458882475
 40
0.6182381062
 40
0.8055482703
 40
1.0
 40
1.0
 40
1.0
 40
1.0
 10
9.688260851
 20
16.9569106539
 30
0.0
 10
9.6882169499
 20
16.957592943
 30
0.0
 10
9.6905082875
 20
16.9591199862
 30
0.0
 10
9.6945946107
 20
16.9602072883
 30
0.0
 10
9.7018649712
 20
16.9617587132
 30
0.0
 10
9.7116353014
 20
16.9630939702
 30
0.0
 10
9.7241713886
 20
16.9644777169
 30
0.0
 10
9.7457964883
 20
16.9663324677
 30
0.0
 10
9.7784338706
 20
16.9683271898
 30
0.0
 10
9.8233465527
 20
16.9702092166
 30
0.0
 10
9.8746498908
 20
16.9716158094
 30
0.0
 10
9.9303296973
 20
16.9724824467
 30
0.0
 10
9.9686955323
 20
16.9726795397
 30
0.0
 10
9.9882371088
 20
16.972681108
 30
0.0
  0
SPLINE
  5
42E
100
AcDbEntity
  8
0
100
AcDbSpline
 62
7
  6
CONTINUOUS
 70
0
 71
3
 72
14
 73
10
 74
0
 42
0.0000001
 43
0.0000001
 44
0.0000000001
 40
0.0
 40
0.0
 40
0.0
 40
0.0
 40
0.1177285533
 40
0.2399617259
 40
0.3668352528
 40
0.4967774012
 40
0.6273960786
 40
0.756162393
 40
1.0
 40
1.0
 40
1.0
 40
1.0
 10
53.4085654807
 20
70.4980755126
 30
0.0
 10
53.4256654488
 20
70.4980755126
 30
0.0
 10
53.4606198387
 20
70.4932340331
 30
0.0
 10
53.5107331267
 20
70.474160726
 30
0.0
 10
53.5579165825
 20
70.445243755
 30
0.0
 10
53.6006542359
 20
70.408302479
 30
0.0
 10
53.6374337479
 20
70.3649890443
 30
0.0
 10
53.6755678035
 20
70.3025470363
 30
0.0
 10
53.6917919268
 20
70.2487731128
 30
0.0
 10
53.6932548507
 20
70.2133861426
 30
0.0
  0
SPLINE
  5
42F
100
AcDbEntity
  8
0
100
AcDbSpline
 62
7
  6
CONTINUOUS
 70
0
 71
3
 72
21
 73
17
 74
0
 42
0.0000001
 43
0.0000001
 44
0.0000000001
 40
0.0
 40
0.0
 40
0.0
 40
0.0
 40
0.0718110054
 40
0.142402515
 40
0.2742997352
 40
0.3350243257
 40
0.3920261262
 40
0.4460812809
 40
0.4985660662
 40
0.5511767267
 40
0.6055893528
 40
0.6630583742
 40
0.7242816395
 40
0.7893080309
 40
0.8575942268
 40
1.0
 40
1.0
 40
1.0
 40
1.0
 10
9.9927859921
 20
70.8125638574
 30
0.0
 10
9.9661472951
 20
70.8124969497
 30
0.0
 10
9.913229724
 20
70.808627029
 30
0.0
 10
9.8136201226
 20
70.7870340772
 30
0.0
 10
9.7231277838
 20
70.7447863836
 30
0.0
 10
9.6530354754
 20
70.6834487617
 30
0.0
 10
9.6146764101
 20
70.6318685504
 30
0.0
 10
9.5908651331
 20
70.5753634082
 30
0.0
 10
9.5828432507
 20
70.5161500185
 30
0.0
 10
9.5909665245
 20
70.4568181425
 30
0.0
 10
9.6149103448
 20
70.3999961238
 30
0.0
 10
9.6533164789
 20
70.347874686
 30
0.0
 10
9.704544759
 20
70.3022851598
 30
0.0
 10
9.7664708327
 20
70.2645535697
 30
0.0
 10
9.8617900822
 20
70.2262714615
 30
0.0
 10
9.9404734598
 20
70.2155661189
 30
0.0
 10
9.9932548507
 20
70.2133861426
 30
0.0
  0
SPLINE
  5
430
100
AcDbEntity
  8
0
100
AcDbSpline
 62
7
  6
CONTINUOUS
 70
0
 71
3
 72
20
 73
16
 74
0
 42
0.0000001
 43
0.0000001
 44
0.0000000001
 40
0.0
 40
0.0
 40
0.0
 40
0.0
 40
0.1424737744
 40
0.2107968757
 40
0.2758583411
 40
0.3371077499
 40
0.3945959179
 40
0.4490249232
 40
0.5016532867
 40
0.5541548269
 40
0.6082239613
 40
0.6652519473
 40
0.7260248179
 40
0.8579769038
 40
1.0
 40
1.0
 40
1.0
 40
1.0
 10
53.6932548507
 20
70.2133861426
 30
0.0
 10
53.7460436307
 20
70.2155647325
 30
0.0
 10
53.8247352866
 20
70.2262823466
 30
0.0
 10
53.9200824937
 20
70.2645407137
 30
0.0
 10
53.9820152607
 20
70.3022897651
 30
0.0
 10
54.0332253709
 20
70.3479086526
 30
0.0
 10
54.0716243423
 20
70.4000367257
 30
0.0
 10
54.0955448498
 20
70.4568675909
 30
0.0
 10
54.1036626103
 20
70.5161974168
 30
0.0
 10
54.0956398846
 20
70.5754090061
 30
0.0
 10
54.0718177802
 20
70.6319118248
 30
0.0
 10
54.0334480634
 20
70.6834916792
 30
0.0
 10
53.9632883313
 20
70.7448314047
 30
0.0
 10
53.8485183732
 20
70.7983848893
 30
0.0
 10
53.7463706971
 20
70.8124608782
 30
0.0
 10
53.6937042072
 20
70.8125638441
 30
0.0
  0
SPLINE
  5
431
100
AcDbEntity
  8
0
100
AcDbSpline
 62
7
  6
CONTINUOUS
 70
0
 71
3
 72
20
 73
16
 74
0
 42
0.0000001
 43
0.0000001
 44
0.0000000001
 40
0.0
 40
0.0
 40
0.0
 40
0.0
 40
0.0033029023
 40
0.0092308491
 40
0.0294084423
 40
0.0596956179
 40
0.0987053206
 40
0.1454790573
 40
0.1991238697
 40
0.2587592285
 40
0.3238143335
 40
0.4688434302
 40
0.6317673253
 40
0.8107011126
 40
1.0
 40
1.0
 40
1.0
 40
1.0
 10
53.6934225745
 20
70.8125660253
 30
0.0
 10
53.693362567
 20
70.8122569774
 30
0.0
 10
53.6925854061
 20
70.8116365893
 30
0.0
 10
53.6900460802
 20
70.8106412067
 30
0.0
 10
53.684703773
 20
70.8094744612
 30
0.0
 10
53.6763135941
 20
70.8082012009
 30
0.0
 10
53.665303648
 20
70.8069346415
 30
0.0
 10
53.652075636
 20
70.8057140582
 30
0.0
 10
53.6368621392
 20
70.8045468396
 30
0.0
 10
53.619900511
 20
70.8034376564
 30
0.0
 10
53.594231865
 20
70.8019950379
 30
0.0
 10
53.5587118115
 20
70.8004239192
 30
0.0
 10
53.5123264401
 20
70.7989357741
 30
0.0
 10
53.4617075321
 20
70.797928678
 30
0.0
 10
53.4266087114
 20
70.797664373
 30
0.0
 10
53.4085654807
 20
70.797664373
 30
0.0
  0
SPLINE
  5
432
100
AcDbEntity
  8
0
100
AcDbSpline
 62
7
  6
CONTINUOUS
 70
0
 71
3
 72
20
 73
16
 74
0
 42
0.0000001
 43
0.0000001
 44
0.0000000001
 40
0.0
 40
0.0
 40
0.0
 40
0.0
 40
0.1892986325
 40
0.3682512743
 40
0.5311752757
 40
0.676190458
 40
0.7412374422
 40
0.8008656083
 40
0.8545132447
 40
0.9012946159
 40
0.9403079069
 40
0.9705930333
 40
0.9907699408
 40
0.996697555
 40
1.0
 40
1.0
 40
1.0
 40
1.0
 10
10.2779442207
 20
70.797664373
 30
0.0
 10
10.2599006946
 20
70.797664373
 30
0.0
 10
10.2247994805
 20
70.7979289311
 30
0.0
 10
10.1741778943
 20
70.7989359838
 30
0.0
 10
10.1277912057
 20
70.8004237941
 30
0.0
 10
10.0922726319
 20
70.8019953506
 30
0.0
 10
10.0666063291
 20
70.8034381339
 30
0.0
 10
10.0496456087
 20
70.8045475615
 30
0.0
 10
10.0344315297
 20
70.8057147917
 30
0.0
 10
10.0212019296
 20
70.8069352289
 30
0.0
 10
10.0101908637
 20
70.808201527
 30
0.0
 10
10.0018004559
 20
70.8094747001
 30
0.0
 10
9.9964583055
 20
70.8106414437
 30
0.0
 10
9.9939191036
 20
70.8116367436
 30
0.0
 10
9.9931419942
 20
70.8122572182
 30
0.0
 10
9.9930821048
 20
70.8125662502
 30
0.0
  0
SPLINE
  5
433
100
AcDbEntity
  8
0
100
AcDbSpline
 62
7
  6
CONTINUOUS
 70
0
 71
3
 72
14
 73
10
 74
0
 42
0.0000001
 43
0.0000001
 44
0.0000000001
 40
0.0
 40
0.0
 40
0.0
 40
0.0
 40
0.243837607
 40
0.3726039214
 40
0.5032225988
 40
0.6331647472
 40
0.7600382741
 40
0.8822714467
 40
1.0
 40
1.0
 40
1.0
 40
1.0
 10
9.9932548507
 20
70.2133861426
 30
0.0
 10
9.9947177745
 20
70.2487731128
 30
0.0
 10
10.0109418978
 20
70.3025470363
 30
0.0
 10
10.0490759534
 20
70.3649890443
 30
0.0
 10
10.0858554654
 20
70.408302479
 30
0.0
 10
10.1285931189
 20
70.445243755
 30
0.0
 10
10.1757765747
 20
70.474160726
 30
0.0
 10
10.2258898626
 20
70.4932340331
 30
0.0
 10
10.2608442525
 20
70.4980755126
 30
0.0
 10
10.2779442207
 20
70.4980755126
 30
0.0
  0
SPLINE
  5
434
100
AcDbEntity
  8
0
100
AcDbSpline
 62
7
  6
CONTINUOUS
 70
0
 71
3
 72
18
 73
14
 74
0
 42
0.0000001
 43
0.0000001
 44
0.0000000001
 40
0.0
 40
0.0
 40
0.0
 40
0.0
 40
0.0141676581
 40
0.0316206046
 40
0.0549529006
 40
0.0852487506
 40
0.1229695611
 40
0.1683204228
 40
0.2816851084
 40
0.4240922603
 40
0.5936395123
 40
0.787025972
 40
1.0
 40
1.0
 40
1.0
 40
1.0
 10
52.0099585706
 20
80.8851726619
 30
0.0
 10
52.0086293895
 20
80.8851726598
 30
0.0
 10
52.0056343502
 20
80.8841439142
 30
0.0
 10
52.0021927727
 20
80.8801323352
 30
0.0
 10
51.9993040052
 20
80.8740889241
 30
0.0
 10
51.9968860519
 20
80.8658382122
 30
0.0
 10
51.9949608963
 20
80.855366963
 30
0.0
 10
51.9929828997
 20
80.8370313021
 30
0.0
 10
51.9922714608
 20
80.8087529166
 30
0.0
 10
51.9935957475
 20
80.768862366
 30
0.0
 10
51.9971734214
 20
80.7215758496
 30
0.0
 10
52.0027548168
 20
80.6678308287
 30
0.0
 10
52.0074002487
 20
80.6299890622
 30
0.0
 10
52.0099580611
 20
80.6101726619
 30
0.0
  0
SPLINE
  5
435
100
AcDbEntity
  8
0
100
AcDbSpline
 62
7
  6
CONTINUOUS
 70
0
 71
3
 72
18
 73
14
 74
0
 42
0.0000001
 43
0.0000001
 44
0.0000000001
 40
0.0
 40
0.0
 40
0.0
 40
0.0
 40
0.0141676584
 40
0.0316206055
 40
0.054952902
 40
0.0852487524
 40
0.1229695631
 40
0.1683204249
 40
0.2816851106
 40
0.4240922624
 40
0.5936395136
 40
0.7870259727
 40
1.0
 40
1.0
 40
1.0
 40
1.0
 10
18.0099585715
 20
80.8851726619
 30
0.0
 10
18.0086293904
 20
80.8851726598
 30
0.0
 10
18.005634351
 20
80.8841439141
 30
0.0
 10
18.0021927733
 20
80.8801323352
 30
0.0
 10
17.9993040054
 20
80.8740889241
 30
0.0
 10
17.9968860519
 20
80.8658382121
 30
0.0
 10
17.9949608959
 20
80.855366963
 30
0.0
 10
17.9929828991
 20
80.8370313019
 30
0.0
 10
17.9922714602
 20
80.8087529164
 30
0.0
 10
17.9935957471
 20
80.7688623657
 30
0.0
 10
17.9971734212
 20
80.7215758495
 30
0.0
 10
18.0027548168
 20
80.6678308286
 30
0.0
 10
18.0074002487
 20
80.6299890622
 30
0.0
 10
18.0099580611
 20
80.6101726619
 30
0.0
  0
SPLINE
  5
436
100
AcDbEntity
  8
0
100
AcDbSpline
 62
7
  6
CONTINUOUS
 70
0
 71
3
 72
18
 73
14
 74
0
 42
0.0000001
 43
0.0000001
 44
0.0000000001
 40
0.0
 40
0.0
 40
0.0
 40
0.0
 40
0.2129767147
 40
0.4063694416
 40
0.5759244286
 40
0.7183303884
 40
0.8316903639
 40
0.8770400276
 40
0.9147590442
 40
0.9450523331
 40
0.9683819502
 40
0.9858328955
 40
1.0
 40
1.0
 40
1.0
 40
1.0
 10
45.6665516402
 20
80.6101726619
 30
0.0
 10
45.6691094856
 20
80.6299893172
 30
0.0
 10
45.673755244
 20
80.6678318993
 30
0.0
 10
45.6793372734
 20
80.7215784367
 30
0.0
 10
45.682915802
 20
80.7688661139
 30
0.0
 10
45.6842385515
 20
80.8087569557
 30
0.0
 10
45.6835251388
 20
80.8370345883
 30
0.0
 10
45.6815473074
 20
80.8553695257
 30
0.0
 10
45.6796225213
 20
80.8658403144
 30
0.0
 10
45.6772049073
 20
80.8740904417
 30
0.0
 10
45.6743164621
 20
80.8801332623
 30
0.0
 10
45.6708749708
 20
80.8841443252
 30
0.0
 10
45.6678800923
 20
80.885172693
 30
0.0
 10
45.6665509628
 20
80.8851726619
 30
0.0
  0
SPLINE
  5
437
100
AcDbEntity
  8
0
100
AcDbSpline
 62
7
  6
CONTINUOUS
 70
0
 71
3
 72
18
 73
14
 74
0
 42
0.0000001
 43
0.0000001
 44
0.0000000001
 40
0.0
 40
0.0
 40
0.0
 40
0.0
 40
0.2129767162
 40
0.4063694442
 40
0.5759244319
 40
0.7183303916
 40
0.8316903664
 40
0.8770400296
 40
0.9147590455
 40
0.9450523337
 40
0.9683819503
 40
0.9858328954
 40
1.0
 40
1.0
 40
1.0
 40
1.0
 10
11.6665516402
 20
80.6101726619
 30
0.0
 10
11.6691094856
 20
80.6299893175
 30
0.0
 10
11.6737552441
 20
80.6678319
 30
0.0
 10
11.6793372737
 20
80.7215784379
 30
0.0
 10
11.6829158025
 20
80.7688661154
 30
0.0
 10
11.684238552
 20
80.8087569575
 30
0.0
 10
11.6835251392
 20
80.8370345901
 30
0.0
 10
11.6815473074
 20
80.8553695274
 30
0.0
 10
11.6796225209
 20
80.8658403159
 30
0.0
 10
11.6772049066
 20
80.8740904429
 30
0.0
 10
11.6743164609
 20
80.8801332633
 30
0.0
 10
11.6708749692
 20
80.8841443257
 30
0.0
 10
11.6678800906
 20
80.8851726931
 30
0.0
 10
11.6665509611
 20
80.8851726619
 30
0.0
  0
SPLINE
  5
438
100
AcDbEntity
  8
0
100
AcDbSpline
 62
7
  6
CONTINUOUS
 70
0
 71
3
 72
9
 73
5
 74
0
 42
0.0000001
 43
0.0000001
 44
0.0000000001
 40
0.0
 40
0.0
 40
0.0
 40
0.0
 40
0.2768958013
 40
1.0
 40
1.0
 40
1.0
 40
1.0
 10
52.0752672539
 20
80.6584545506
 30
0.0
 10
52.0740227498
 20
80.6697446357
 30
0.0
 10
52.0690769514
 20
80.7104625205
 30
0.0
 10
52.0624488621
 20
80.7510112638
 30
0.0
 10
52.0560755899
 20
80.7799807534
 30
0.0
  0
SPLINE
  5
439
100
AcDbEntity
  8
0
100
AcDbSpline
 62
7
  6
CONTINUOUS
 70
0
 71
3
 72
12
 73
8
 74
0
 42
0.0000001
 43
0.0000001
 44
0.0000000001
 40
0.0
 40
0.0
 40
0.0
 40
0.0
 40
0.3960273099
 40
0.6947719237
 40
0.8065216153
 40
0.8933926755
 40
1.0
 40
1.0
 40
1.0
 40
1.0
 10
52.0560755899
 20
80.7799807534
 30
0.0
 10
52.05273436
 20
80.795168199
 30
0.0
 10
52.0460334849
 20
80.8216737508
 30
0.0
 10
52.0357259506
 20
80.8515839119
 30
0.0
 10
52.0269203591
 20
80.8692614278
 30
0.0
 10
52.0205838024
 20
80.8789745652
 30
0.0
 10
52.0141448417
 20
80.8851725648
 30
0.0
 10
52.0099587368
 20
80.8851726619
 30
0.0
  0
SPLINE
  5
43A
100
AcDbEntity
  8
0
100
AcDbSpline
 62
7
  6
CONTINUOUS
 70
0
 71
3
 72
9
 73
5
 74
0
 42
0.0000001
 43
0.0000001
 44
0.0000000001
 40
0.0
 40
0.0
 40
0.0
 40
0.0
 40
0.2768956751
 40
1.0
 40
1.0
 40
1.0
 40
1.0
 10
18.0752672539
 20
80.6584545506
 30
0.0
 10
18.0740227543
 20
80.6697445954
 30
0.0
 10
18.0690769732
 20
80.7104623532
 30
0.0
 10
18.0624489116
 20
80.7510109704
 30
0.0
 10
18.0560756724
 20
80.7799803777
 30
0.0
  0
SPLINE
  5
43B
100
AcDbEntity
  8
0
100
AcDbSpline
 62
7
  6
CONTINUOUS
 70
0
 71
3
 72
12
 73
8
 74
0
 42
0.0000001
 43
0.0000001
 44
0.0000000001
 40
0.0
 40
0.0
 40
0.0
 40
0.0
 40
0.3960273575
 40
0.6947720241
 40
0.8065217202
 40
0.8933927642
 40
1.0
 40
1.0
 40
1.0
 40
1.0
 10
18.0560756724
 20
80.7799803777
 30
0.0
 10
18.0527344388
 20
80.7951678761
 30
0.0
 10
18.0460335542
 20
80.8216735213
 30
0.0
 10
18.0357260031
 20
80.851583789
 30
0.0
 10
18.0269203945
 20
80.8692613704
 30
0.0
 10
18.0205838269
 20
80.8789745396
 30
0.0
 10
18.0141448535
 20
80.8851725643
 30
0.0
 10
18.0099587386
 20
80.8851726619
 30
0.0
  0
SPLINE
  5
43C
100
AcDbEntity
  8
0
100
AcDbSpline
 62
7
  6
CONTINUOUS
 70
0
 71
3
 72
12
 73
8
 74
0
 42
0.0000001
 43
0.0000001
 44
0.0000000001
 40
0.0
 40
0.0
 40
0.0
 40
0.0
 40
0.1066072864
 40
0.1934783455
 40
0.3052280427
 40
0.6039726776
 40
1.0
 40
1.0
 40
1.0
 40
1.0
 10
45.6665509628
 20
80.8851726619
 30
0.0
 10
45.6623648518
 20
80.8851725639
 30
0.0
 10
45.6559258845
 20
80.8789745484
 30
0.0
 10
45.6495893215
 20
80.8692613924
 30
0.0
 10
45.6407837201
 20
80.8515838397
 30
0.0
 10
45.630476176
 20
80.8216736196
 30
0.0
 10
45.6237752959
 20
80.7951680162
 30
0.0
 10
45.6204340641
 20
80.7799805415
 30
0.0
  0
SPLINE
  5
43D
100
AcDbEntity
  8
0
100
AcDbSpline
 62
7
  6
CONTINUOUS
 70
0
 71
3
 72
9
 73
5
 74
0
 42
0.0000001
 43
0.0000001
 44
0.0000000001
 40
0.0
 40
0.0
 40
0.0
 40
0.0
 40
0.2215354527
 40
1.0
 40
1.0
 40
1.0
 40
1.0
 10
45.6204340641
 20
80.7799805415
 30
0.0
 10
45.6184814605
 20
80.771105037
 30
0.0
 10
45.610393957
 20
80.7308822343
 30
0.0
 10
45.6047413239
 20
80.6901962012
 30
0.0
 10
45.6012424474
 20
80.6584545506
 30
0.0
  0
SPLINE
  5
43E
100
AcDbEntity
  8
0
100
AcDbSpline
 62
7
  6
CONTINUOUS
 70
0
 71
3
 72
12
 73
8
 74
0
 42
0.0000001
 43
0.0000001
 44
0.0000000001
 40
0.0
 40
0.0
 40
0.0
 40
0.0
 40
0.1066071977
 40
0.1934782407
 40
0.3052279424
 40
0.60397263
 40
1.0
 40
1.0
 40
1.0
 40
1.0
 10
11.6665509611
 20
80.8851726619
 30
0.0
 10
11.66236484
 20
80.8851725634
 30
0.0
 10
11.65592586
 20
80.8789745229
 30
0.0
 10
11.649589286
 20
80.869261335
 30
0.0
 10
11.6407836676
 20
80.8515837167
 30
0.0
 10
11.6304761067
 20
80.8216733901
 30
0.0
 10
11.6237752171
 20
80.7951676934
 30
0.0
 10
11.6204339816
 20
80.7799801658
 30
0.0
  0
SPLINE
  5
43F
100
AcDbEntity
  8
0
100
AcDbSpline
 62
7
  6
CONTINUOUS
 70
0
 71
3
 72
9
 73
5
 74
0
 42
0.0000001
 43
0.0000001
 44
0.0000000001
 40
0.0
 40
0.0
 40
0.0
 40
0.0
 40
0.2215355928
 40
1.0
 40
1.0
 40
1.0
 40
1.0
 10
11.6204339816
 20
80.7799801658
 30
0.0
 10
11.6184813872
 20
80.7711046825
 30
0.0
 10
11.6103939243
 20
80.7308820024
 30
0.0
 10
11.6047413124
 20
80.6901960964
 30
0.0
 10
11.6012424474
 20
80.6584545506
 30
0.0
  0
SPLINE
  5
440
100
AcDbEntity
  8
0
100
AcDbSpline
 62
7
  6
CONTINUOUS
 70
0
 71
3
 72
13
 73
9
 74
0
 42
0.0000001
 43
0.0000001
 44
0.0000000001
 40
0.0
 40
0.0
 40
0.0
 40
0.0
 40
0.2657699868
 40
0.5216266473
 40
0.645126829
 40
0.7654767801
 40
0.8835188935
 40
1.0
 40
1.0
 40
1.0
 40
1.0
 10
53.7738036773
 20
75.7682240751
 30
0.0
 10
53.8482952301
 20
75.7643608991
 30
0.0
 10
53.9944462958
 20
75.7331316952
 30
0.0
 10
54.1520957951
 20
75.6359349843
 30
0.0
 10
54.2466543037
 20
75.5312881462
 30
0.0
 10
54.298873638
 20
75.4433081891
 30
0.0
 10
54.330938909
 20
75.3482560444
 30
0.0
 10
54.3382548507
 20
75.28222389
 30
0.0
 10
54.3382548507
 20
75.2495320158
 30
0.0
  0
SPLINE
  5
441
100
AcDbEntity
  8
0
100
AcDbSpline
 62
7
  6
CONTINUOUS
 70
0
 71
3
 72
13
 73
9
 74
0
 42
0.0000001
 43
0.0000001
 44
0.0000000001
 40
0.0
 40
0.0
 40
0.0
 40
0.0
 40
0.1162100181
 40
0.2340415939
 40
0.3543242613
 40
0.4779609581
 40
0.7342975378
 40
1.0
 40
1.0
 40
1.0
 40
1.0
 10
54.3382548507
 20
80.0315828234
 30
0.0
 10
54.3382548507
 20
80.0655638223
 30
0.0
 10
54.3303451638
 20
80.1342360608
 30
0.0
 10
54.2957140161
 20
80.2327349968
 30
0.0
 10
54.2394613762
 20
80.3232882087
 30
0.0
 10
54.137923483
 20
80.4298066363
 30
0.0
 10
53.9698624619
 20
80.525437381
 30
0.0
 10
53.8159489705
 20
80.5511980657
 30
0.0
 10
53.7382548507
 20
80.5511980657
 30
0.0
  0
SPLINE
  5
442
100
AcDbEntity
  8
0
100
AcDbSpline
 62
7
  6
CONTINUOUS
 70
0
 71
3
 72
11
 73
7
 74
0
 42
0.0000001
 43
0.0000001
 44
0.0000000001
 40
0.0
 40
0.0
 40
0.0
 40
0.0
 40
0.2572165687
 40
0.5100731749
 40
0.7570878595
 40
1.0
 40
1.0
 40
1.0
 40
1.0
 10
9.9212616625
 20
12.0750946274
 30
0.0
 10
9.8448348201
 20
12.0771553859
 30
0.0
 10
9.6925255704
 20
12.1088534955
 30
0.0
 10
9.4993096192
 20
12.2340270901
 30
0.0
 10
9.369002341
 20
12.4191779645
 30
0.0
 10
9.3382548507
 20
12.5664780591
 30
0.0
 10
9.3382548507
 20
12.6386808551
 30
0.0
  0
SPLINE
  5
443
100
AcDbEntity
  8
0
100
AcDbSpline
 62
7
  6
CONTINUOUS
 70
0
 71
3
 72
11
 73
7
 74
0
 42
0.0000001
 43
0.0000001
 44
0.0000000001
 40
0.0
 40
0.0
 40
0.0
 40
0.0
 40
0.2428730156
 40
0.489992881
 40
0.7429653141
 40
1.0
 40
1.0
 40
1.0
 40
1.0
 10
9.3387135093
 20
10.9874012779
 30
0.0
 10
9.3417153016
 20
10.9156589319
 30
0.0
 10
9.3780679352
 20
10.7705474068
 30
0.0
 10
9.5141460416
 20
10.5911913896
 30
0.0
 10
9.7100335752
 20
10.4728204425
 30
0.0
 10
9.8622628516
 20
10.4454800411
 30
0.0
 10
9.9382548505
 20
10.4454800411
 30
0.0
  0
SPLINE
  5
444
100
AcDbEntity
  8
0
100
AcDbSpline
 62
7
  6
CONTINUOUS
 70
0
 71
3
 72
11
 73
7
 74
0
 42
0.0000001
 43
0.0000001
 44
0.0000000001
 40
0.0
 40
0.0
 40
0.0
 40
0.0
 40
0.256949461
 40
0.5098493736
 40
0.7570299915
 40
1.0
 40
1.0
 40
1.0
 40
1.0
 10
53.7382548506
 20
10.4454800411
 30
0.0
 10
53.8142393152
 20
10.4454800411
 30
0.0
 10
53.9664575085
 20
10.4728136303
 30
0.0
 10
54.1623671827
 20
10.5911914537
 30
0.0
 10
54.2984941821
 20
10.7706157234
 30
0.0
 10
54.3348273135
 20
10.9158239179
 30
0.0
 10
54.3378046035
 20
10.9876127012
 30
0.0
  0
SPLINE
  5
445
100
AcDbEntity
  8
0
100
AcDbSpline
 62
7
  6
CONTINUOUS
 70
0
 71
3
 72
11
 73
7
 74
0
 42
0.0000001
 43
0.0000001
 44
0.0000000001
 40
0.0
 40
0.0
 40
0.0
 40
0.0
 40
0.2429121405
 40
0.4899268251
 40
0.7427834313
 40
1.0
 40
1.0
 40
1.0
 40
1.0
 10
54.3382548507
 20
12.6386808551
 30
0.0
 10
54.3382548507
 20
12.5664780591
 30
0.0
 10
54.3075073604
 20
12.4191779645
 30
0.0
 10
54.1772000821
 20
12.2340270901
 30
0.0
 10
53.9839841309
 20
12.1088534955
 30
0.0
 10
53.8316748812
 20
12.0771553859
 30
0.0
 10
53.7552480388
 20
12.0750946274
 30
0.0
  0
SPLINE
  5
446
100
AcDbEntity
  8
0
100
AcDbSpline
 62
7
  6
CONTINUOUS
 70
0
 71
3
 72
13
 73
9
 74
0
 42
0.0000001
 43
0.0000001
 44
0.0000000001
 40
0.0
 40
0.0
 40
0.0
 40
0.0
 40
0.2656105843
 40
0.5218824551
 40
0.6455335248
 40
0.7658760837
 40
0.8837711634
 40
1.0
 40
1.0
 40
1.0
 40
1.0
 10
9.9382548507
 20
80.5511980657
 30
0.0
 10
9.8605875493
 20
80.5511980657
 30
0.0
 10
9.7067209505
 20
80.5254552467
 30
0.0
 10
9.5386828871
 20
80.4298754709
 30
0.0
 10
9.4371175129
 20
80.3233799144
 30
0.0
 10
9.3808226595
 20
80.2328032165
 30
0.0
 10
9.3461779728
 20
80.1342643939
 30
0.0
 10
9.3382548507
 20
80.0655693458
 30
0.0
 10
9.3382548507
 20
80.0315828234
 30
0.0
  0
SPLINE
  5
447
100
AcDbEntity
  8
0
100
AcDbSpline
 62
7
  6
CONTINUOUS
 70
0
 71
3
 72
13
 73
9
 74
0
 42
0.0000001
 43
0.0000001
 44
0.0000000001
 40
0.0
 40
0.0
 40
0.0
 40
0.0
 40
0.1164811065
 40
0.2345232199
 40
0.354873171
 40
0.4783733527
 40
0.7342300132
 40
1.0
 40
1.0
 40
1.0
 40
1.0
 10
9.3382548507
 20
75.2495320158
 30
0.0
 10
9.3382548507
 20
75.28222389
 30
0.0
 10
9.3455707924
 20
75.3482560445
 30
0.0
 10
9.3776360633
 20
75.4433081891
 30
0.0
 10
9.4298553976
 20
75.5312881462
 30
0.0
 10
9.5244139062
 20
75.6359349843
 30
0.0
 10
9.6820634055
 20
75.7331316952
 30
0.0
 10
9.8282144712
 20
75.7643608991
 30
0.0
 10
9.902706024
 20
75.7682240751
 30
0.0
  0
ELLIPSE
  5
448
100
AcDbEntity
  8
0
100
AcDbEllipse
 62
7
  6
CONTINUOUS
 10
26.5132548507
 20
14.821923992
 30
0.0
 11
0.0
 21
3.2891533535
 31
0.0
 40
0.9880962213
 41
-4.7123889804
 42
-1.5707963268
  0
ELLIPSE
  5
449
100
AcDbEntity
  8
0
100
AcDbEllipse
 62
7
  6
CONTINUOUS
 10
26.5132548507
 20
15.176140507
 30
0.0
 11
0.0
 21
3.2891533535
 31
0.0
 40
0.9880962213
 41
4.7521707144
 42
5.287891325
  0
ELLIPSE
  5
44A
100
AcDbEntity
  8
0
100
AcDbEllipse
 62
7
  6
CONTINUOUS
 10
26.5132548507
 20
15.176140507
 30
0.0
 11
-0.0
 21
3.2891533535
 31
0.0
 40
0.9880962213
 41
7.2782649437
 42
7.8142715084
  0
ELLIPSE
  5
44B
100
AcDbEntity
  8
0
100
AcDbEllipse
 62
7
  6
CONTINUOUS
 10
26.5132548507
 20
15.4644052489
 30
0.0
 11
0.0
 21
3.3135051977
 31
0.0
 40
0.9808344355
 41
-1.5707963268
 42
-1.1072740513
  0
ELLIPSE
  5
44C
100
AcDbEntity
  8
0
100
AcDbEllipse
 62
7
  6
CONTINUOUS
 10
26.5132548507
 20
15.4644052489
 30
0.0
 11
-0.0
 21
3.3135051977
 31
0.0
 40
0.9808344355
 41
1.107764535
 42
1.5707963268
  0
ELLIPSE
  5
44D
100
AcDbEntity
  8
0
100
AcDbEllipse
 62
7
  6
CONTINUOUS
 10
14.6132548507
 20
72.1358732928
 30
0.0
 11
2.4900782742
 21
-2.1955824164
 31
0.0
 40
0.9512476432
 41
1.7064650677
 42
2.2687203323
  0
ELLIPSE
  5
44E
100
AcDbEntity
  8
0
100
AcDbEllipse
 62
7
  6
CONTINUOUS
 10
49.0132548507
 20
72.1358732928
 30
0.0
 11
2.4900782742
 21
2.1955824164
 31
0.0
 40
0.9512476432
 41
0.8728723213
 42
1.4351275859
  0
ELLIPSE
  5
44F
100
AcDbEntity
  8
0
100
AcDbEllipse
 62
7
  6
CONTINUOUS
 10
49.0132548507
 20
72.1358732928
 30
0.0
 11
2.4900782742
 21
-2.1955824164
 31
0.0
 40
0.9512476432
 41
1.7064650677
 42
2.2687203323
  0
ELLIPSE
  5
450
100
AcDbEntity
  8
0
100
AcDbEllipse
 62
7
  6
CONTINUOUS
 10
14.6132548507
 20
72.1358732928
 30
0.0
 11
2.4900782742
 21
2.1955824164
 31
0.0
 40
0.9512476432
 41
0.8728723213
 42
1.4351275859
  0
ELLIPSE
  5
451
100
AcDbEntity
  8
0
100
AcDbEllipse
 62
7
  6
CONTINUOUS
 10
49.0132548507
 20
73.0351726619
 30
0.0
 11
3.25
 21
-0.0
 31
0.0
 40
0.9754185324
 41
0.441220419
 42
1.4616881535
  0
ELLIPSE
  5
452
100
AcDbEntity
  8
0
100
AcDbEllipse
 62
7
  6
CONTINUOUS
 10
49.0132548507
 20
73.5023231846
 30
0.0
 11
3.25
 21
-0.0
 31
0.0
 40
0.8308200706
 41
1.4616881535
 42
1.6799045001
  0
ELLIPSE
  5
453
100
AcDbEntity
  8
0
100
AcDbEllipse
 62
7
  6
CONTINUOUS
 10
49.0132548507
 20
73.0351726619
 30
0.0
 11
3.25
 21
0.0
 31
0.0
 40
0.9754185324
 41
1.6799045001
 42
3.1415926536
  0
ELLIPSE
  5
454
100
AcDbEntity
  8
0
100
AcDbEllipse
 62
7
  6
CONTINUOUS
 10
43.5451222972
 20
79.9530026773
 30
0.0
 11
0.3213125492
 21
-0.9504890844
 31
0.0
 40
0.9886681835
 41
1.2413339107
 42
2.8190452271
  0
ELLIPSE
  5
455
100
AcDbEntity
  8
0
100
AcDbEllipse
 62
7
  6
CONTINUOUS
 10
20.1313874041
 20
79.9530026773
 30
0.0
 11
-0.3213125492
 21
-0.9504890844
 31
0.0
 40
0.9886681835
 41
-2.8190452271
 42
-1.2413339107
  0
ELLIPSE
  5
456
100
AcDbEntity
  8
0
100
AcDbEllipse
 62
7
  6
CONTINUOUS
 10
19.6348211274
 20
78.4840876696
 30
0.0
 11
0.1606562746
 21
0.4752445422
 31
0.0
 40
0.9886681835
 41
0.3225474265
 42
1.5025900294
  0
ELLIPSE
  5
457
100
AcDbEntity
  8
0
100
AcDbEllipse
 62
7
  6
CONTINUOUS
 10
44.0416885739
 20
78.4840876696
 30
0.0
 11
-0.1606562746
 21
0.4752445422
 31
0.0
 40
0.9886681835
 41
-1.5057468995
 42
-0.3225474265
  0
ELLIPSE
  5
458
100
AcDbEntity
  8
0
100
AcDbEllipse
 62
7
  6
CONTINUOUS
 10
48.8382548507
 20
80.4223360275
 30
0.0
 11
3.25
 21
-0.0
 31
0.0
 40
0.8134732862
 41
3.1415926366
 42
3.8544114018
  0
ELLIPSE
  5
459
100
AcDbEntity
  8
0
100
AcDbEllipse
 62
7
  6
CONTINUOUS
 10
48.8382548507
 20
80.4223360275
 30
0.0
 11
3.25
 21
0.0
 31
0.0
 40
0.8134732862
 41
-0.7171512645
 42
0.0000006435
  0
ELLIPSE
  5
45A
100
AcDbEntity
  8
0
100
AcDbEllipse
 62
7
  6
CONTINUOUS
 10
14.8382548507
 20
79.3820048254
 30
0.0
 11
-0.0
 21
5.6291651246
 31
0.0
 40
0.5773502692
 41
4.8572976552
 42
4.9323375112
  0
ELLIPSE
  5
45B
100
AcDbEntity
  8
0
100
AcDbEllipse
 62
7
  6
CONTINUOUS
 10
14.8382548507
 20
80.4223360275
 30
0.0
 11
3.25
 21
0.0
 31
0.0
 40
0.8134732862
 41
3.1415926366
 42
3.8544114018
  0
ELLIPSE
  5
45C
100
AcDbEntity
  8
0
100
AcDbEllipse
 62
7
  6
CONTINUOUS
 10
14.8382548507
 20
80.4223360275
 30
0.0
 11
3.25
 21
0.0
 31
0.0
 40
0.8134732862
 41
-0.7171512645
 42
0.0000006435
  0
ELLIPSE
  5
45D
100
AcDbEntity
  8
0
100
AcDbEllipse
 62
7
  6
CONTINUOUS
 10
14.8382548507
 20
79.3820048254
 30
0.0
 11
0.0
 21
5.6291651246
 31
0.0
 40
0.5773502692
 41
1.350847796
 42
1.4189193006
  0
ELLIPSE
  5
45E
100
AcDbEntity
  8
0
100
AcDbEllipse
 62
7
  6
CONTINUOUS
 10
48.8382548507
 20
79.3820048254
 30
0.0
 11
0.0
 21
5.6291651246
 31
0.0
 40
0.5773502692
 41
-1.4187985128
 42
-1.350847796
  0
ELLIPSE
  5
45F
100
AcDbEntity
  8
0
100
AcDbEllipse
 62
7
  6
CONTINUOUS
 10
48.8382548507
 20
79.3820048254
 30
0.0
 11
-0.0
 21
5.6291651246
 31
0.0
 40
0.5773502692
 41
7.6340331031
 42
7.7094780468
  0
ENDSEC
  0
SECTION
  2
OBJECTS
  0
DICTIONARY
  5
C
100
AcDbDictionary
280
0
281
1
  3
ACAD_GROUP
350
D
  3
ACAD_MLINESTYLE
350
17
  3
ACAD_LAYOUT
350
1A
  3
ACAD_PLOTSETTINGS
350
19
  3
ACAD_PLOTSTYLENAME
350
E
  0
DICTIONARY
  5
D
102
{ACAD_REACTORS
330
C
102
}
100
AcDbDictionary
280
0
281
1
  0
ACDBDICTIONARYWDFLT
  5
E
102
{ACAD_REACTORS
330
C
102
}
100
AcDbDictionary
281
1
  3
Normal
350
F
100
AcDbDictionaryWithDefault
340
F
  0
DICTIONARY
  5
17
102
{ACAD_REACTORS
330
C
102
}
100
AcDbDictionary
280
0
281
1
  3
Standard
350
18
  0
DICTIONARY
  5
19
102
{ACAD_REACTORS
330
C
102
}
100
AcDbDictionary
281
1
  0
DICTIONARY
  5
1A
102
{ACAD_REACTORS
330
C
102
}
100
AcDbDictionary
281
1
  3
Model
350
460
  3
Layout1
350
461
  0
ACDBPLACEHOLDER
  5
F
102
{ACAD_REACTORS
330
E
102
}
  0
MLINESTYLE
  5
18
102
{ACAD_REACTORS
330
17
102
}
100
AcDbMlineStyle
  2
STANDARD
 70
0
  3

 62
256
 51
90.0
 52
90.0
 71
2
 49
0.5
 62
256
  6
BYLAYER
 49
-0.5
 62
256
  6
BYLAYER
  0
LAYOUT
  5
460
102
{ACAD_REACTORS
330
1A
102
}
100
AcDbPlotSettings
  1

  2
none_device
  4

  6

 40
0.0
 41
0.0
 42
0.0
 43
0.0
 44
210.0
 45
297.0
 46
0.0
 47
0.0
 48
0.0
 49
0.0
140
0.0
141
0.0
142
1.0
143
1.0
 70
1024
 72
1
 73
0
 74
0
  7

 75
0
147
1.0
148
0.0
149
0.0
100
AcDbLayout
  1
Model
 70
0
 71
0
 10
0.0
 20
0.0
 11
210.0
 21
297.0
 12
0.0
 22
0.0
 32
0.0
 14
0.0
 24
0.0
 34
0.0
 15
0.0
 25
0.0
 35
0.0
146
0.0
 13
0.0
 23
0.0
 33
0.0
 16
1.0
 26
0.0
 36
0.0
 17
0.0
 27
1.0
 37
0.0
 76
0
330
210
345
0
346
0
  0
LAYOUT
  5
461
102
{ACAD_REACTORS
330
1A
102
}
100
AcDbPlotSettings
  1

  2
none_device
  4

  6

 40
0.0
 41
0.0
 42
0.0
 43
0.0
 44
210.0
 45
297.0
 46
0.0
 47
0.0
 48
0.0
 49
0.0
140
0.0
141
0.0
142
1.0
143
1.0
 70
0
 72
1
 73
0
 74
0
  7

 75
0
147
1.0
148
0.0
149
0.0
100
AcDbLayout
  1
Layout1
 70
0
 71
1
 10
0.0
 20
0.0
 11
210.0
 21
297.0
 12
0.0
 22
0.0
 32
0.0
 14
0.0
 24
0.0
 34
0.0
 15
0.0
 25
0.0
 35
0.0
146
0.0
 13
0.0
 23
0.0
 33
0.0
 16
1.0
 26
0.0
 36
0.0
 17
0.0
 27
1.0
 37
0.0
 76
0
330
211
345
0
346
0
  0
ENDSEC
  0
EOF
