999
DXF file: C:\New 2D genarating\updateCreo8 with 3dPdf\CAD\LC1N80-95-3D_CAD\drw0001_4.dxf
999
Pro/ENGINEER 2021284 by Parametric Technology Corporation
  0
SECTION
  2
HEADER
  9
$ACADVER
  1
AC1024
  9
$DWGCODEPAGE
  3
ANSI_1252
  9
$EXTMAX
 10
105.56107841
 20
149.2935251799
 30
0.0
  9
$EXTMIN
 10
0.0
 20
0.0
 30
0.0
  9
$LIMMIN
 10
0.0
 20
0.0
  9
$LIMMAX
 10
105.56107841
 20
149.2935251799
  9
$VIEWCTR
 10
52.780539205
 20
74.6467625899
  9
$VIEWSIZE
 40
149.2935251799
  9
$CLAYER
  8
0
  9
$LTSCALE
 40
9.7317260858
  9
$CELTYPE
  6
BYLAYER
  9
$DIMSCALE
 40
1.0
  9
$DIMASZ
 40
1.2566795049
  9
$DIMEXO
 40
1.0
  9
$DIMDLI
 40
6.7237380229
  9
$DIMEXE
 40
1.0
  9
$DIMCEN
 40
1.5924642686
  9
$DIMLFAC
 40
1.0
  9
$DIMBLK
  1
_FILLED
  9
$DIMALT
 70
0
  9
$DIMALTF
 40
0.0393700787
  9
$DIMTXT
 40
1.7593513068
  9
$DIMTOL
 70
1
  9
$DIMLIM
 70
0
  9
$DIMTFAC
 40
1.0
  9
$DIMTP
 40
0.01
  9
$DIMTM
 40
0.01
  9
$DIMGAP
 40
0.625
  9
$DIMDSEP
 70
46
  9
$AUNITS
 70
0
  9
$PDMODE
 70
3
  9
$PDSIZE
 40
0.3125
  9
$HANDSEED
  5
44C
  9
$TILEMODE
 70
1
  9
$MEASUREMENT
 70
1
  9
$INSUNITS
 70
4
  0
ENDSEC
  0
SECTION
  2
CLASSES
  0
CLASS
  1
ACDBDICTIONARYWDFLT
  2
AcDbDictionaryWithDefault
  3
AutoCAD 2000
 90
0
 91
1
280
0
281
0
  0
CLASS
  1
ACDBPLACEHOLDER
  2
AcDbPlaceHolder
  3
AutoCAD 2000
 90
0
 91
1
280
0
281
0
  0
CLASS
  1
LAYOUT
  2
AcDbLayout
  3
AutoCAD 2000
 90
0
 91
0
280
0
281
0
  0
ENDSEC
  0
SECTION
  2
TABLES
  0
TABLE
  2
VPORT
  5
8
100
AcDbSymbolTable
 70
2
  0
VPORT
  5
1F4
100
AcDbSymbolTableRecord
100
AcDbViewportTableRecord
  2
*ACTIVE
 70
0
 10
0.0
 20
0.0
 11
1.0
 21
1.0
 12
52.780539205
 22
74.6467625899
 13
0.0
 23
0.0
 14
1.0
 24
1.0
 15
0.0
 25
0.0
 16
0.0
 26
0.0
 36
1.0
 17
0.0
 27
0.0
 37
0.0
 40
149.2935251799
 41
0.7070707071
 42
50.0
 43
0.0
 44
0.0
 50
0.0
 51
0.0
 71
0
 72
100
 73
1
 74
1
 75
0
 76
0
 77
0
 78
0
  0
ENDTAB
  0
TABLE
  2
LTYPE
  5
5
100
AcDbSymbolTable
 70
6
  0
LTYPE
  5
14
100
AcDbSymbolTableRecord
100
AcDbLinetypeTableRecord
  2
BYBLOCK
 70
0
  3

 72
65
 73
0
 40
0.0
  0
LTYPE
  5
15
100
AcDbSymbolTableRecord
100
AcDbLinetypeTableRecord
  2
BYLAYER
 70
0
  3

 72
65
 73
0
 40
0.0
  0
LTYPE
  5
16
100
AcDbSymbolTableRecord
100
AcDbLinetypeTableRecord
  2
CONTINUOUS
 70
64
  3
Solid line
 72
65
 73
0
 40
0.0
  0
LTYPE
  5
1F5
100
AcDbSymbolTableRecord
100
AcDbLinetypeTableRecord
  2
CENTER
 70
64
  3
____ _ ____ _ ____ _ ____ _ ____ _ ____ _ ____
 72
65
 73
4
 40
0.6
 49
0.375
 74
0
 49
-0.075
 74
0
 49
0.075
 74
0
 49
-0.075
 74
0
  0
LTYPE
  5
1F6
100
AcDbSymbolTableRecord
100
AcDbLinetypeTableRecord
  2
HIDDEN
 70
64
  3
- - - - - - - - - - - - - - - - - - - -
 72
65
 73
2
 40
0.2
 49
0.1
 74
0
 49
-0.1
 74
0
  0
LTYPE
  5
1F7
100
AcDbSymbolTableRecord
100
AcDbLinetypeTableRecord
  2
PHANTOM
 70
64
  3
_____ _ _ _____ _ _ _____ _ _ _____
 72
65
 73
6
 40
0.8
 49
0.45
 74
0
 49
-0.05
 74
0
 49
0.1
 74
0
 49
-0.05
 74
0
 49
0.1
 74
0
 49
-0.05
 74
0
  0
LTYPE
  5
1F8
100
AcDbSymbolTableRecord
100
AcDbLinetypeTableRecord
  2
DOT
 70
64
  3
. . . . . . . . . . . . . . . . . . . .
 72
65
 73
2
 40
0.2
 49
0.1
 74
0
 49
-0.1
 74
0
  0
LTYPE
  5
1F9
100
AcDbSymbolTableRecord
100
AcDbLinetypeTableRecord
  2
DASHED
 70
64
  3
- - - - - - - - - - - - - - - - - - - -
 72
65
 73
2
 40
0.2
 49
0.1
 74
0
 49
-0.1
 74
0
  0
ENDTAB
  0
TABLE
  2
LAYER
  5
2
100
AcDbSymbolTable
 70
36
  0
LAYER
  5
10
100
AcDbSymbolTableRecord
100
AcDbLayerTableRecord
  2
0
 70
0
 62
7
  6
CONTINUOUS
370
-3
390
F
  0
LAYER
  5
1FA
100
AcDbSymbolTableRecord
100
AcDbLayerTableRecord
  2
DEFAULT_1
 70
0
 62
7
  6
CENTER
370
-3
390
F
  0
LAYER
  5
1FB
100
AcDbSymbolTableRecord
100
AcDbLayerTableRecord
  2
DEFAULT_2
 70
0
 62
8
  6
HIDDEN
370
-3
390
F
  0
LAYER
  5
1FC
100
AcDbSymbolTableRecord
100
AcDbLayerTableRecord
  2
DEFAULT_3
 70
0
 62
7
  6
PHANTOM
370
-3
390
F
  0
LAYER
  5
1FD
100
AcDbSymbolTableRecord
100
AcDbLayerTableRecord
  2
00_COMPONENTS
 70
0
 62
7
  6
CONTINUOUS
370
-3
390
F
  0
LAYER
  5
1FE
100
AcDbSymbolTableRecord
100
AcDbLayerTableRecord
  2
00_COMPONENTS_1
 70
0
 62
7
  6
CONTINUOUS
370
-3
390
F
  0
LAYER
  5
1FF
100
AcDbSymbolTableRecord
100
AcDbLayerTableRecord
  2
01_1_DEFAULT_DATUMS
 70
0
 62
7
  6
CONTINUOUS
370
-3
390
F
  0
LAYER
  5
200
100
AcDbSymbolTableRecord
100
AcDbLayerTableRecord
  2
01_PLANES
 70
0
 62
7
  6
CONTINUOUS
370
-3
390
F
  0
LAYER
  5
201
100
AcDbSymbolTableRecord
100
AcDbLayerTableRecord
  2
02_COORD_SYS
 70
0
 62
7
  6
CONTINUOUS
370
-3
390
F
  0
LAYER
  5
202
100
AcDbSymbolTableRecord
100
AcDbLayerTableRecord
  2
03_AXES
 70
0
 62
7
  6
CONTINUOUS
370
-3
390
F
  0
LAYER
  5
203
100
AcDbSymbolTableRecord
100
AcDbLayerTableRecord
  2
04_POINTS
 70
0
 62
7
  6
CONTINUOUS
370
-3
390
F
  0
LAYER
  5
204
100
AcDbSymbolTableRecord
100
AcDbLayerTableRecord
  2
05_CURVES
 70
0
 62
7
  6
CONTINUOUS
370
-3
390
F
  0
LAYER
  5
205
100
AcDbSymbolTableRecord
100
AcDbLayerTableRecord
  2
06_SURFS
 70
0
 62
7
  6
CONTINUOUS
370
-3
390
F
  0
LAYER
  5
206
100
AcDbSymbolTableRecord
100
AcDbLayerTableRecord
  2
07_COSMETICS
 70
0
 62
7
  6
CONTINUOUS
370
-3
390
F
  0
LAYER
  5
207
100
AcDbSymbolTableRecord
100
AcDbLayerTableRecord
  2
10_NOTES
 70
0
 62
7
  6
CONTINUOUS
370
-3
390
F
  0
LAYER
  5
208
100
AcDbSymbolTableRecord
100
AcDbLayerTableRecord
  2
11_NOTES_PUB
 70
0
 62
7
  6
CONTINUOUS
370
-3
390
F
  0
LAYER
  5
209
100
AcDbSymbolTableRecord
100
AcDbLayerTableRecord
  2
13_REF_GTOL
 70
0
 62
7
  6
CONTINUOUS
370
-3
390
F
  0
LAYER
  5
20A
100
AcDbSymbolTableRecord
100
AcDbLayerTableRecord
  2
16_MISC
 70
0
 62
7
  6
CONTINUOUS
370
-3
390
F
  0
LAYER
  5
20B
100
AcDbSymbolTableRecord
100
AcDbLayerTableRecord
  2
17_NO_PRINT
 70
0
 62
7
  6
CONTINUOUS
370
-3
390
F
  0
LAYER
  5
20C
100
AcDbSymbolTableRecord
100
AcDbLayerTableRecord
  2
18_DATUM_CAMS_JOINTS
 70
0
 62
7
  6
CONTINUOUS
370
-3
390
F
  0
LAYER
  5
20D
100
AcDbSymbolTableRecord
100
AcDbLayerTableRecord
  2
19_DATUM_FUNCTIONAL
 70
0
 62
7
  6
CONTINUOUS
370
-3
390
F
  0
LAYER
  5
20E
100
AcDbSymbolTableRecord
100
AcDbLayerTableRecord
  2
20_DATUM_KINEMATIC_SCHEME
 70
0
 62
7
  6
CONTINUOUS
370
-3
390
F
  0
ENDTAB
  0
TABLE
  2
STYLE
  5
3
100
AcDbSymbolTable
 70
1
  0
STYLE
  5
11
100
AcDbSymbolTableRecord
100
AcDbTextStyleTableRecord
  2
STANDARD
 70
0
 40
0.0
 41
0.8
 50
0.0
 71
0
 42
0.2
  3
txt
  4

  0
STYLE
  5
20F
100
AcDbSymbolTableRecord
100
AcDbTextStyleTableRecord
  2
TEXTSTYLE_1
 70
0
 40
0.0
 41
0.8
 50
0.0
 71
0
 42
0.2
  3
gdt
  4

  0
ENDTAB
  0
TABLE
  2
VIEW
  5
6
100
AcDbSymbolTable
 70
0
  0
ENDTAB
  0
TABLE
  2
UCS
  5
7
100
AcDbSymbolTable
 70
0
  0
ENDTAB
  0
TABLE
  2
APPID
  5
9
100
AcDbSymbolTable
 70
1
  0
APPID
  5
210
100
AcDbSymbolTableRecord
100
AcDbRegAppTableRecord
  2
ACAD
 70
0
  0
ENDTAB
  0
TABLE
  2
BLOCK_RECORD
  5
1
100
AcDbSymbolTable
 70
0
  0
BLOCK_RECORD
  5
211
100
AcDbSymbolTableRecord
100
AcDbBlockTableRecord
  2
*Model_Space
  0
BLOCK_RECORD
  5
212
100
AcDbSymbolTableRecord
100
AcDbBlockTableRecord
  2
*Paper_Space
  0
BLOCK_RECORD
  5
213
100
AcDbSymbolTableRecord
100
AcDbBlockTableRecord
  2
_FILLED
  0
ENDTAB
  0
TABLE
  2
DIMSTYLE
  5
A
100
AcDbSymbolTable
 70
1
100
AcDbDimStyleTable
 71
0
  0
DIMSTYLE
105
214
100
AcDbSymbolTableRecord
100
AcDbDimStyleTableRecord
  2
STANDARD
 70
0
  3

  4

 40
1.0
 41
1.2566795049
 42
1.0
 43
0.38
 44
1.0
 45
0.0
 46
0.0
 47
0.01
 48
0.01
140
1.7593513068
141
0.09
142
0.0
143
25.4
144
1.0
145
0.0
146
1.0
147
0.625
 71
1
 72
0
 73
0
 74
0
 75
0
 76
0
 77
1
 78
8
 79
2
170
0
171
1
172
0
173
0
174
0
175
0
176
0
177
0
178
0
270
2
179
2
271
2
272
2
273
2
274
2
275
0
280
0
281
0
282
0
283
1
284
8
285
0
286
0
287
3
288
0
340
11
278
46
341
213
342
213
343
213
344
213
  0
ENDTAB
  0
ENDSEC
  0
SECTION
  2
BLOCKS
  0
BLOCK
  5
20
100
AcDbEntity
  8
0
100
AcDbBlockBegin
  2
*Model_Space
 70
0
 10
0.0
 20
0.0
 30
0.0
  3
*Model_Space
  1

  0
ENDBLK
  5
21
100
AcDbEntity
  8
0
100
AcDbBlockEnd
  0
BLOCK
  5
1C
100
AcDbEntity
  8
0
100
AcDbBlockBegin
  2
*Paper_Space
 70
0
 10
0.0
 20
0.0
 30
0.0
  3
*Paper_Space
  1

  0
ENDBLK
  5
1D
100
AcDbEntity
  8
0
100
AcDbBlockEnd
  0
BLOCK
  5
215
100
AcDbEntity
  8
0
100
AcDbBlockBegin
  2
_FILLED
 70
64
 10
0.0
 20
0.0
  3
_FILLED
  1

  0
SOLID
  5
216
100
AcDbEntity
  8
0
  6
BYBLOCK
 62
0
100
AcDbTrace
 10
0.0
 20
0.0
 11
-1.0
 21
0.25
 12
-1.0
 22
-0.25
 13
-1.0
 23
-0.25
  0
ENDBLK
  5
217
100
AcDbEntity
  8
0
  6
BYBLOCK
 62
0
100
AcDbBlockEnd
  0
ENDSEC
  0
SECTION
  2
ENTITIES
  0
LINE
  5
218
100
AcDbEntity
  8
00_COMPONENTS_1
100
AcDbLine
 62
7
  6
CONTINUOUS
 10
47.7510428021
 20
10.6899280576
 11
68.7510428021
 21
10.6899280576
  0
LINE
  5
219
100
AcDbEntity
  8
00_COMPONENTS_1
100
AcDbLine
 62
7
  6
CONTINUOUS
 10
86.6485783572
 20
11.6899571537
 11
77.5003320322
 21
11.6899571537
  0
LINE
  5
21A
100
AcDbEntity
  8
00_COMPONENTS_1
100
AcDbLine
 62
7
  6
CONTINUOUS
 10
31.0011431639
 20
11.6899578733
 11
21.8557501278
 21
11.6899578733
  0
LINE
  5
21B
100
AcDbEntity
  8
00_COMPONENTS_1
100
AcDbLine
 62
7
  6
CONTINUOUS
 10
54.0010428021
 20
13.2148600387
 11
62.5010428021
 21
13.2148600387
  0
LINE
  5
21C
100
AcDbEntity
  8
00_COMPONENTS_1
100
AcDbLine
 62
7
  6
CONTINUOUS
 10
32.7010428021
 20
13.6437559489
 11
39.6010428021
 21
13.6437559489
  0
LINE
  5
21D
100
AcDbEntity
  8
00_COMPONENTS_1
100
AcDbLine
 62
7
  6
CONTINUOUS
 10
56.2010428021
 20
13.6437559489
 11
63.1010428021
 21
13.6437559489
  0
LINE
  5
21E
100
AcDbEntity
  8
00_COMPONENTS_1
100
AcDbLine
 62
7
  6
CONTINUOUS
 10
51.2510428021
 20
15.1899280576
 11
47.7510428021
 21
15.1899280576
  0
LINE
  5
21F
100
AcDbEntity
  8
00_COMPONENTS_1
100
AcDbLine
 62
7
  6
CONTINUOUS
 10
66.7510428021
 20
15.1899280576
 11
68.7510428021
 21
15.1899280576
  0
LINE
  5
220
100
AcDbEntity
  8
00_COMPONENTS_1
100
AcDbLine
 62
7
  6
CONTINUOUS
 10
31.0011431639
 20
15.6899280576
 11
16.9457605526
 21
15.6899280576
  0
LINE
  5
221
100
AcDbEntity
  8
00_COMPONENTS_1
100
AcDbLine
 62
7
  6
CONTINUOUS
 10
51.2514304843
 20
15.6899280576
 11
56.2010428021
 21
15.6899280576
  0
LINE
  5
222
100
AcDbEntity
  8
00_COMPONENTS_1
100
AcDbLine
 62
7
  6
CONTINUOUS
 10
63.1010428021
 20
15.6899280576
 11
66.7510428021
 21
15.6899280576
  0
LINE
  5
223
100
AcDbEntity
  8
00_COMPONENTS_1
100
AcDbLine
 62
7
  6
CONTINUOUS
 10
77.5003320322
 20
15.6899280576
 11
91.5566771101
 21
15.6899280576
  0
LINE
  5
224
100
AcDbEntity
  8
00_COMPONENTS_1
100
AcDbLine
 62
7
  6
CONTINUOUS
 10
84.3510428021
 20
18.6437559489
 11
79.7010428021
 21
18.6437559489
  0
LINE
  5
225
100
AcDbEntity
  8
00_COMPONENTS_1
100
AcDbLine
 62
7
  6
CONTINUOUS
 10
16.1010428021
 20
18.6437559489
 11
11.9010428021
 21
18.6437559489
  0
LINE
  5
226
100
AcDbEntity
  8
00_COMPONENTS_1
100
AcDbLine
 62
7
  6
CONTINUOUS
 10
12.4010428021
 20
19.1437559489
 11
11.9137926419
 21
19.1437559489
  0
LINE
  5
227
100
AcDbEntity
  8
00_COMPONENTS_1
100
AcDbLine
 62
7
  6
CONTINUOUS
 10
71.0010428021
 20
19.1899280576
 11
66.7510428021
 21
19.1899280576
  0
LINE
  5
228
100
AcDbEntity
  8
00_COMPONENTS_1
100
AcDbLine
 62
7
  6
CONTINUOUS
 10
51.2514304843
 20
19.1899280576
 11
47.2504525028
 21
19.1899280576
  0
LINE
  5
229
100
AcDbEntity
  8
00_COMPONENTS_1
100
AcDbLine
 62
7
  6
CONTINUOUS
 10
42.2510561054
 20
19.1899280576
 11
39.6010428021
 21
19.1899280576
  0
LINE
  5
22A
100
AcDbEntity
  8
00_COMPONENTS_1
100
AcDbLine
 62
7
  6
CONTINUOUS
 10
37.812868776
 20
20.1437559489
 11
34.4892168282
 21
20.1437559489
  0
LINE
  5
22B
100
AcDbEntity
  8
00_COMPONENTS_1
100
AcDbLine
 62
7
  6
CONTINUOUS
 10
57.9892168282
 20
20.1437559489
 11
61.312868776
 21
20.1437559489
  0
LINE
  5
22C
100
AcDbEntity
  8
00_COMPONENTS_1
100
AcDbLine
 62
7
  6
CONTINUOUS
 10
39.6010428021
 20
21.6894918046
 11
56.2010428021
 21
21.6894918046
  0
LINE
  5
22D
100
AcDbEntity
  8
00_COMPONENTS_1
100
AcDbLine
 62
7
  6
CONTINUOUS
 10
63.1010428021
 20
21.6894918046
 11
68.1510428021
 21
21.6894918046
  0
LINE
  5
22E
100
AcDbEntity
  8
00_COMPONENTS_1
100
AcDbLine
 62
7
  6
CONTINUOUS
 10
76.4010428021
 20
21.6894918046
 11
79.7010428021
 21
21.6894918046
  0
LINE
  5
22F
100
AcDbEntity
  8
00_COMPONENTS_1
100
AcDbLine
 62
7
  6
CONTINUOUS
 10
84.3510428021
 20
21.6894918046
 11
91.5010428021
 21
21.6894918046
  0
LINE
  5
230
100
AcDbEntity
  8
00_COMPONENTS_1
100
AcDbLine
 62
7
  6
CONTINUOUS
 10
85.9400904476
 20
27.0023887285
 11
84.3510428021
 21
26.9808282828
  0
LINE
  5
231
100
AcDbEntity
  8
00_COMPONENTS_1
100
AcDbLine
 62
7
  6
CONTINUOUS
 10
84.3510428021
 20
24.1445617323
 11
85.8835084482
 21
24.1445617323
  0
LINE
  5
232
100
AcDbEntity
  8
00_COMPONENTS_1
100
AcDbLine
 62
7
  6
CONTINUOUS
 10
83.7010428021
 20
24.4437559489
 11
77.7010428021
 21
24.4437559489
  0
LINE
  5
233
100
AcDbEntity
  8
00_COMPONENTS_1
100
AcDbLine
 62
7
  6
CONTINUOUS
 10
65.7010428021
 20
24.4437559489
 11
54.2010428021
 21
24.4437559489
  0
LINE
  5
234
100
AcDbEntity
  8
00_COMPONENTS_1
100
AcDbLine
 62
7
  6
CONTINUOUS
 10
42.2010428021
 20
24.4437559489
 11
30.7010428021
 21
24.4437559489
  0
LINE
  5
235
100
AcDbEntity
  8
00_COMPONENTS_1
100
AcDbLine
 62
7
  6
CONTINUOUS
 10
18.7010428021
 20
24.4437559489
 11
12.7010428021
 21
24.4437559489
  0
LINE
  5
236
100
AcDbEntity
  8
00_COMPONENTS_1
100
AcDbLine
 62
7
  6
CONTINUOUS
 10
68.1510428021
 20
24.6899280576
 11
66.4906170638
 21
24.6899280576
  0
LINE
  5
237
100
AcDbEntity
  8
00_COMPONENTS_1
100
AcDbLine
 62
7
  6
CONTINUOUS
 10
84.3510428021
 20
24.6956994257
 11
86.2849836634
 21
24.6956994257
  0
LINE
  5
238
100
AcDbEntity
  8
00_COMPONENTS_1
100
AcDbLine
 62
7
  6
CONTINUOUS
 10
84.3510428021
 20
28.2262408756
 11
85.9628103768
 21
28.2078105165
  0
LINE
  5
239
100
AcDbEntity
  8
00_COMPONENTS_1
100
AcDbLine
 62
7
  6
CONTINUOUS
 10
11.9010428021
 20
19.1437559489
 11
11.9010428021
 21
18.6437559489
  0
LINE
  5
23A
100
AcDbEntity
  8
00_COMPONENTS_1
100
AcDbLine
 62
7
  6
CONTINUOUS
 10
11.9010428021
 20
42.6975838403
 11
11.9010428021
 21
106.5899280576
  0
LINE
  5
23B
100
AcDbEntity
  8
00_COMPONENTS_1
100
AcDbLine
 62
7
  6
CONTINUOUS
 10
11.9010428021
 20
130.143755949
 11
11.9010428021
 21
130.643755949
  0
LINE
  5
23C
100
AcDbEntity
  8
00_COMPONENTS_1
100
AcDbLine
 62
7
  6
CONTINUOUS
 10
11.9137926419
 20
19.1437559489
 11
11.9137926419
 21
42.6975838403
  0
LINE
  5
23D
100
AcDbEntity
  8
00_COMPONENTS_1
100
AcDbLine
 62
7
  6
CONTINUOUS
 10
11.9137926419
 20
106.5899280576
 11
11.9137926419
 21
130.143755949
  0
LINE
  5
23E
100
AcDbEntity
  8
00_COMPONENTS_1
100
AcDbLine
 62
7
  6
CONTINUOUS
 10
12.0666094433
 20
42.6975838403
 11
12.0666094433
 21
44.4310823335
  0
LINE
  5
23F
100
AcDbEntity
  8
00_COMPONENTS_1
100
AcDbLine
 62
7
  6
CONTINUOUS
 10
12.0666094433
 20
106.160316519
 11
12.0666094433
 21
106.5899280576
  0
LINE
  5
240
100
AcDbEntity
  8
00_COMPONENTS_1
100
AcDbLine
 62
7
  6
CONTINUOUS
 10
12.4010428021
 20
130.643755949
 11
12.4010428021
 21
130.143755949
  0
LINE
  5
241
100
AcDbEntity
  8
00_COMPONENTS_1
100
AcDbLine
 62
7
  6
CONTINUOUS
 10
12.4010428021
 20
18.6437559489
 11
12.4010428021
 21
19.1437559489
  0
LINE
  5
242
100
AcDbEntity
  8
00_COMPONENTS_1
100
AcDbLine
 62
7
  6
CONTINUOUS
 10
12.7010428021
 20
124.843755949
 11
12.7010428021
 21
106.5899280576
  0
LINE
  5
243
100
AcDbEntity
  8
00_COMPONENTS_1
100
AcDbLine
 62
7
  6
CONTINUOUS
 10
12.7010428021
 20
24.4437559489
 11
12.7010428021
 21
42.6975838403
  0
LINE
  5
244
100
AcDbEntity
  8
00_COMPONENTS_1
100
AcDbLine
 62
7
  6
CONTINUOUS
 10
13.0010428021
 20
61.7956994262
 11
13.0010428021
 21
88.7956994262
  0
LINE
  5
245
100
AcDbEntity
  8
00_COMPONENTS_1
100
AcDbLine
 62
7
  6
CONTINUOUS
 10
91.1510428021
 20
30.7899280576
 11
92.4510428021
 21
30.7899280576
  0
LINE
  5
246
100
AcDbEntity
  8
00_COMPONENTS_1
100
AcDbLine
 62
7
  6
CONTINUOUS
 10
91.1510428021
 20
31.6437559489
 11
84.3510428021
 21
31.6437559489
  0
LINE
  5
247
100
AcDbEntity
  8
00_COMPONENTS_1
100
AcDbLine
 62
7
  6
CONTINUOUS
 10
92.4510428021
 20
31.6437559489
 11
96.4010428021
 21
31.6437559489
  0
LINE
  5
248
100
AcDbEntity
  8
00_COMPONENTS_1
100
AcDbLine
 62
7
  6
CONTINUOUS
 10
92.4510428021
 20
31.8437559489
 11
84.3510428033
 21
31.8437559489
  0
LINE
  5
249
100
AcDbEntity
  8
00_COMPONENTS_1
100
AcDbLine
 62
7
  6
CONTINUOUS
 10
16.1010428021
 20
24.4437559489
 11
16.1010428021
 21
18.6437559489
  0
LINE
  5
24A
100
AcDbEntity
  8
00_COMPONENTS_1
100
AcDbLine
 62
7
  6
CONTINUOUS
 10
16.1010428021
 20
124.843755949
 11
16.1010428021
 21
130.643755949
  0
LINE
  5
24B
100
AcDbEntity
  8
00_COMPONENTS_1
100
AcDbLine
 62
7
  6
CONTINUOUS
 10
16.8510428021
 20
137.6899280576
 11
16.8510428021
 21
124.843755949
  0
LINE
  5
24C
100
AcDbEntity
  8
00_COMPONENTS_1
100
AcDbLine
 62
7
  6
CONTINUOUS
 10
16.8510428021
 20
24.4437559489
 11
16.8510428021
 21
16.6507656536
  0
LINE
  5
24D
100
AcDbEntity
  8
00_COMPONENTS_1
100
AcDbLine
 62
7
  6
CONTINUOUS
 10
89.2716311467
 20
35.9399027908
 11
91.1203100631
 21
35.9648376361
  0
LINE
  5
24E
100
AcDbEntity
  8
00_COMPONENTS_1
100
AcDbLine
 62
7
  6
CONTINUOUS
 10
88.1706850997
 20
37.2837282395
 11
86.3214461035
 21
37.2587858751
  0
LINE
  5
24F
100
AcDbEntity
  8
00_COMPONENTS_1
100
AcDbLine
 62
7
  6
CONTINUOUS
 10
92.4510428021
 20
36.6437559489
 11
96.4010428021
 21
36.6437559489
  0
LINE
  5
250
100
AcDbEntity
  8
00_COMPONENTS_1
100
AcDbLine
 62
7
  6
CONTINUOUS
 10
92.4510428021
 20
37.4437559489
 11
84.3510428021
 21
37.4437559489
  0
LINE
  5
251
100
AcDbEntity
  8
00_COMPONENTS_1
100
AcDbLine
 62
7
  6
CONTINUOUS
 10
92.4510428021
 20
38.3937559489
 11
84.3510428021
 21
38.3937559489
  0
LINE
  5
252
100
AcDbEntity
  8
00_COMPONENTS_1
100
AcDbLine
 62
7
  6
CONTINUOUS
 10
86.2992395987
 20
36.0531183487
 11
88.1715718759
 21
36.0315530233
  0
LINE
  5
253
100
AcDbEntity
  8
00_COMPONENTS_1
100
AcDbLine
 62
7
  6
CONTINUOUS
 10
91.1431275712
 20
37.1705063348
 11
89.2707533008
 21
37.1920721439
  0
LINE
  5
254
100
AcDbEntity
  8
00_COMPONENTS_1
100
AcDbLine
 62
7
  6
CONTINUOUS
 10
23.6010428021
 20
38.6046142299
 11
23.6010428021
 21
36.4079063804
  0
LINE
  5
255
100
AcDbEntity
  8
00_COMPONENTS_1
100
AcDbLine
 62
7
  6
CONTINUOUS
 10
23.6010428021
 20
31.4644475215
 11
23.6010428021
 21
29.8829007463
  0
LINE
  5
256
100
AcDbEntity
  8
00_COMPONENTS_1
100
AcDbLine
 62
7
  6
CONTINUOUS
 10
23.6010428021
 20
110.6829007464
 11
23.6010428021
 21
112.879464528
  0
LINE
  5
257
100
AcDbEntity
  8
00_COMPONENTS_1
100
AcDbLine
 62
7
  6
CONTINUOUS
 10
23.6010428021
 20
117.8232053659
 11
23.6010428021
 21
119.40461423
  0
LINE
  5
258
100
AcDbEntity
  8
00_COMPONENTS_1
100
AcDbLine
 62
7
  6
CONTINUOUS
 10
89.2702975412
 20
41.6803414051
 11
91.1193019816
 21
41.7023326343
  0
LINE
  5
259
100
AcDbEntity
  8
00_COMPONENTS_1
100
AcDbLine
 62
7
  6
CONTINUOUS
 10
88.1716834398
 20
43.0381566436
 11
86.3226884337
 21
43.0161655266
  0
LINE
  5
25A
100
AcDbEntity
  8
00_COMPONENTS_1
100
AcDbLine
 62
7
  6
CONTINUOUS
 10
11.9137926419
 20
42.6975838403
 11
84.3510428021
 21
42.6975838403
  0
LINE
  5
25B
100
AcDbEntity
  8
00_COMPONENTS_1
100
AcDbLine
 62
7
  6
CONTINUOUS
 10
86.2981737541
 20
41.799679118
 11
88.1703991574
 21
41.7747083852
  0
LINE
  5
25C
100
AcDbEntity
  8
00_COMPONENTS_1
100
AcDbLine
 62
7
  6
CONTINUOUS
 10
91.1439920965
 20
42.9188191014
 11
89.2715909582
 21
42.9437921781
  0
LINE
  5
25D
100
AcDbEntity
  8
00_COMPONENTS_1
100
AcDbLine
 62
7
  6
CONTINUOUS
 10
24.7510428021
 20
75.7445920621
 11
24.7510428021
 21
77.6899280576
  0
LINE
  5
25E
100
AcDbEntity
  8
00_COMPONENTS_1
100
AcDbLine
 62
7
  6
CONTINUOUS
 10
25.2010428021
 20
119.5118389824
 11
25.2010428021
 21
117.8232053659
  0
LINE
  5
25F
100
AcDbEntity
  8
00_COMPONENTS_1
100
AcDbLine
 62
7
  6
CONTINUOUS
 10
25.2010428021
 20
112.879464528
 11
25.2010428021
 21
110.575671487
  0
LINE
  5
260
100
AcDbEntity
  8
00_COMPONENTS_1
100
AcDbLine
 62
7
  6
CONTINUOUS
 10
25.2010428021
 20
29.775671487
 11
25.2010428021
 21
31.4644475215
  0
LINE
  5
261
100
AcDbEntity
  8
00_COMPONENTS_1
100
AcDbLine
 62
7
  6
CONTINUOUS
 10
25.2010428021
 20
36.4079063804
 11
25.2010428021
 21
38.7118389823
  0
LINE
  5
262
100
AcDbEntity
  8
00_COMPONENTS_1
100
AcDbLine
 62
7
  6
CONTINUOUS
 10
60.1510428021
 20
45.7484859244
 11
61.5028574648
 21
45.7488712703
  0
LINE
  5
263
100
AcDbEntity
  8
00_COMPONENTS_1
100
AcDbLine
 62
7
  6
CONTINUOUS
 10
84.3510428021
 20
44.4310823335
 11
11.9010428021
 21
44.4310823335
  0
LINE
  5
264
100
AcDbEntity
  8
00_COMPONENTS_1
100
AcDbLine
 62
7
  6
CONTINUOUS
 10
65.1010428021
 20
45.26172483
 11
63.6503984031
 21
45.26172483
  0
LINE
  5
265
100
AcDbEntity
  8
00_COMPONENTS_1
100
AcDbLine
 62
7
  6
CONTINUOUS
 10
62.5458786171
 20
45.26172483
 11
56.7562069872
 21
45.26172483
  0
LINE
  5
266
100
AcDbEntity
  8
00_COMPONENTS_1
100
AcDbLine
 62
7
  6
CONTINUOUS
 10
55.6516872011
 20
45.26172483
 11
41.1010428021
 21
45.26172483
  0
LINE
  5
267
100
AcDbEntity
  8
00_COMPONENTS_1
100
AcDbLine
 62
7
  6
CONTINUOUS
 10
11.9010428021
 20
45.3956994262
 11
41.1010428021
 21
45.3956994262
  0
LINE
  5
268
100
AcDbEntity
  8
00_COMPONENTS_1
100
AcDbLine
 62
7
  6
CONTINUOUS
 10
55.6563390404
 20
45.3956994262
 11
56.7626371319
 21
45.3956994262
  0
LINE
  5
269
100
AcDbEntity
  8
00_COMPONENTS_1
100
AcDbLine
 62
7
  6
CONTINUOUS
 10
62.5394484724
 20
45.3956994262
 11
63.6457465638
 21
45.3956994262
  0
LINE
  5
26A
100
AcDbEntity
  8
00_COMPONENTS_1
100
AcDbLine
 62
7
  6
CONTINUOUS
 10
65.1010428021
 20
45.3956994262
 11
84.3510428021
 21
45.3956994262
  0
LINE
  5
26B
100
AcDbEntity
  8
00_COMPONENTS_1
100
AcDbLine
 62
7
  6
CONTINUOUS
 10
84.3510428021
 20
46.3737758174
 11
96.3597650268
 21
46.3737758174
  0
LINE
  5
26C
100
AcDbEntity
  8
00_COMPONENTS_1
100
AcDbLine
 62
7
  6
CONTINUOUS
 10
96.3597623735
 20
46.6437565645
 11
96.4010428021
 21
46.6437565645
  0
LINE
  5
26D
100
AcDbEntity
  8
00_COMPONENTS_1
100
AcDbLine
 62
7
  6
CONTINUOUS
 10
57.7992281395
 20
45.7488712703
 11
59.1510428021
 21
45.7484859244
  0
LINE
  5
26E
100
AcDbEntity
  8
00_COMPONENTS_1
100
AcDbLine
 62
7
  6
CONTINUOUS
 10
27.0503698329
 20
71.6899280576
 11
24.7510428021
 21
75.7445920621
  0
LINE
  5
26F
100
AcDbEntity
  8
00_COMPONENTS_1
100
AcDbLine
 62
7
  6
CONTINUOUS
 10
29.7510428021
 20
77.6899280576
 11
29.7510428021
 21
71.6899280576
  0
LINE
  5
270
100
AcDbEntity
  8
00_COMPONENTS_1
100
AcDbLine
 62
7
  6
CONTINUOUS
 10
31.0011431639
 20
11.6899578733
 11
31.0011431639
 21
24.4437559489
  0
LINE
  5
271
100
AcDbEntity
  8
00_COMPONENTS_1
100
AcDbLine
 62
7
  6
CONTINUOUS
 10
31.8529339658
 20
124.9393450444
 11
31.8529339658
 21
137.6899280576
  0
LINE
  5
272
100
AcDbEntity
  8
00_COMPONENTS_1
100
AcDbLine
 62
7
  6
CONTINUOUS
 10
32.7010428021
 20
135.643755949
 11
32.7010428021
 21
124.843755949
  0
LINE
  5
273
100
AcDbEntity
  8
00_COMPONENTS_1
100
AcDbLine
 62
7
  6
CONTINUOUS
 10
32.7010428021
 20
13.6437559489
 11
32.7010428021
 21
24.4437559489
  0
LINE
  5
274
100
AcDbEntity
  8
00_COMPONENTS_1
100
AcDbLine
 62
7
  6
CONTINUOUS
 10
34.4892168282
 20
129.143755949
 11
34.4892168282
 21
124.843755949
  0
LINE
  5
275
100
AcDbEntity
  8
00_COMPONENTS_1
100
AcDbLine
 62
7
  6
CONTINUOUS
 10
34.4892168282
 20
20.1437559489
 11
34.4892168282
 21
24.4437559489
  0
LINE
  5
276
100
AcDbEntity
  8
00_COMPONENTS_1
100
AcDbLine
 62
7
  6
CONTINUOUS
 10
34.5459140471
 20
24.4437559489
 11
34.5459140471
 21
20.1437559489
  0
LINE
  5
277
100
AcDbEntity
  8
00_COMPONENTS_1
100
AcDbLine
 62
7
  6
CONTINUOUS
 10
34.5459140471
 20
124.843755949
 11
34.5459140471
 21
129.143755949
  0
LINE
  5
278
100
AcDbEntity
  8
00_COMPONENTS_1
100
AcDbLine
 62
7
  6
CONTINUOUS
 10
34.5940995573
 20
20.1437559489
 11
34.5940995573
 21
13.6437559489
  0
LINE
  5
279
100
AcDbEntity
  8
00_COMPONENTS_1
100
AcDbLine
 62
7
  6
CONTINUOUS
 10
34.5940995573
 20
129.143755949
 11
34.5940995573
 21
135.643755949
  0
LINE
  5
27A
100
AcDbEntity
  8
00_COMPONENTS_1
100
AcDbLine
 62
7
  6
CONTINUOUS
 10
34.7408416301
 20
20.1437559489
 11
34.7408416301
 21
13.6437559489
  0
LINE
  5
27B
100
AcDbEntity
  8
00_COMPONENTS_1
100
AcDbLine
 62
7
  6
CONTINUOUS
 10
34.7408416301
 20
129.143755949
 11
34.7408416301
 21
135.643755949
  0
LINE
  5
27C
100
AcDbEntity
  8
00_COMPONENTS_1
100
AcDbLine
 62
7
  6
CONTINUOUS
 10
37.5612439742
 20
20.1437559489
 11
37.5612439742
 21
13.6437559489
  0
LINE
  5
27D
100
AcDbEntity
  8
00_COMPONENTS_1
100
AcDbLine
 62
7
  6
CONTINUOUS
 10
37.5612439742
 20
129.143755949
 11
37.5612439742
 21
135.643755949
  0
LINE
  5
27E
100
AcDbEntity
  8
00_COMPONENTS_1
100
AcDbLine
 62
7
  6
CONTINUOUS
 10
37.7079860469
 20
20.1437559489
 11
37.7079860469
 21
13.6437559489
  0
LINE
  5
27F
100
AcDbEntity
  8
00_COMPONENTS_1
100
AcDbLine
 62
7
  6
CONTINUOUS
 10
37.7079860469
 20
129.143755949
 11
37.7079860469
 21
135.643755949
  0
LINE
  5
280
100
AcDbEntity
  8
00_COMPONENTS_1
100
AcDbLine
 62
7
  6
CONTINUOUS
 10
37.7561715571
 20
24.4437559489
 11
37.7561715571
 21
20.1437559489
  0
LINE
  5
281
100
AcDbEntity
  8
00_COMPONENTS_1
100
AcDbLine
 62
7
  6
CONTINUOUS
 10
37.7561715571
 20
124.843755949
 11
37.7561715571
 21
129.143755949
  0
LINE
  5
282
100
AcDbEntity
  8
00_COMPONENTS_1
100
AcDbLine
 62
7
  6
CONTINUOUS
 10
37.812868776
 20
129.143755949
 11
37.8128687761
 21
124.843755949
  0
LINE
  5
283
100
AcDbEntity
  8
00_COMPONENTS_1
100
AcDbLine
 62
7
  6
CONTINUOUS
 10
37.812868776
 20
20.1437559489
 11
37.8128687761
 21
24.4437559489
  0
LINE
  5
284
100
AcDbEntity
  8
00_COMPONENTS_1
100
AcDbLine
 62
7
  6
CONTINUOUS
 10
65.1010428021
 20
59.2956994262
 11
41.1010428021
 21
59.2956994262
  0
LINE
  5
285
100
AcDbEntity
  8
00_COMPONENTS_1
100
AcDbLine
 62
7
  6
CONTINUOUS
 10
39.6010428021
 20
24.4437559489
 11
39.6010428021
 21
13.6437559489
  0
LINE
  5
286
100
AcDbEntity
  8
00_COMPONENTS_1
100
AcDbLine
 62
7
  6
CONTINUOUS
 10
39.6010428021
 20
124.843755949
 11
39.6010428021
 21
135.643755949
  0
LINE
  5
287
100
AcDbEntity
  8
00_COMPONENTS_1
100
AcDbLine
 62
7
  6
CONTINUOUS
 10
41.1010428021
 20
45.26172483
 11
41.1010428021
 21
61.7956994262
  0
LINE
  5
288
100
AcDbEntity
  8
00_COMPONENTS_1
100
AcDbLine
 62
7
  6
CONTINUOUS
 10
41.1010428021
 20
88.7956994262
 11
41.1010428021
 21
105.3296740224
  0
LINE
  5
289
100
AcDbEntity
  8
00_COMPONENTS_1
100
AcDbLine
 62
7
  6
CONTINUOUS
 10
41.9010428021
 20
24.4437559489
 11
41.9010428021
 21
21.6894918046
  0
LINE
  5
28A
100
AcDbEntity
  8
00_COMPONENTS_1
100
AcDbLine
 62
7
  6
CONTINUOUS
 10
42.1010428021
 20
59.2956994262
 11
42.1010428021
 21
68.7956994262
  0
LINE
  5
28B
100
AcDbEntity
  8
00_COMPONENTS_1
100
AcDbLine
 62
7
  6
CONTINUOUS
 10
42.2510543589
 20
21.6894918046
 11
42.2510561054
 21
19.1899280576
  0
LINE
  5
28C
100
AcDbEntity
  8
00_COMPONENTS_1
100
AcDbLine
 62
7
  6
CONTINUOUS
 10
43.9510428021
 20
67.7956994262
 11
43.9510428021
 21
70.2956994262
  0
LINE
  5
28D
100
AcDbEntity
  8
00_COMPONENTS_1
100
AcDbLine
 62
7
  6
CONTINUOUS
 10
44.1010428021
 20
80.2956994262
 11
44.1010428021
 21
91.2956994262
  0
LINE
  5
28E
100
AcDbEntity
  8
00_COMPONENTS_1
100
AcDbLine
 62
7
  6
CONTINUOUS
 10
44.154426656
 20
127.6899280576
 11
44.154426656
 21
129.439185931
  0
LINE
  5
28F
100
AcDbEntity
  8
00_COMPONENTS_1
100
AcDbLine
 62
7
  6
CONTINUOUS
 10
44.5010428021
 20
70.7956994262
 11
44.5010428021
 21
79.7956994262
  0
LINE
  5
290
100
AcDbEntity
  8
00_COMPONENTS_1
100
AcDbLine
 62
7
  6
CONTINUOUS
 10
95.5010428021
 20
61.7956994262
 11
65.1010428021
 21
61.7956994262
  0
LINE
  5
291
100
AcDbEntity
  8
00_COMPONENTS_1
100
AcDbLine
 62
7
  6
CONTINUOUS
 10
41.1010428021
 20
61.7956994262
 11
13.0010428021
 21
61.7956994262
  0
LINE
  5
292
100
AcDbEntity
  8
00_COMPONENTS_1
100
AcDbLine
 62
7
  6
CONTINUOUS
 10
46.6478895631
 20
129.4399363109
 11
46.6478895631
 21
127.6899280576
  0
LINE
  5
293
100
AcDbEntity
  8
00_COMPONENTS_1
100
AcDbLine
 62
7
  6
CONTINUOUS
 10
47.1010428021
 20
38.6046142299
 11
47.1010428021
 21
36.4079063804
  0
LINE
  5
294
100
AcDbEntity
  8
00_COMPONENTS_1
100
AcDbLine
 62
7
  6
CONTINUOUS
 10
47.1010428021
 20
31.4644475216
 11
47.1010428021
 21
29.8829007463
  0
LINE
  5
295
100
AcDbEntity
  8
00_COMPONENTS_1
100
AcDbLine
 62
7
  6
CONTINUOUS
 10
47.1010428021
 20
110.6829007464
 11
47.1010428021
 21
112.879464528
  0
LINE
  5
296
100
AcDbEntity
  8
00_COMPONENTS_1
100
AcDbLine
 62
7
  6
CONTINUOUS
 10
47.1010428021
 20
117.8232053659
 11
47.1010428021
 21
119.40461423
  0
LINE
  5
297
100
AcDbEntity
  8
00_COMPONENTS_1
100
AcDbLine
 62
7
  6
CONTINUOUS
 10
47.4181665942
 20
24.4246672012
 11
47.4181665942
 21
25.4220135329
  0
LINE
  5
298
100
AcDbEntity
  8
00_COMPONENTS_1
100
AcDbLine
 62
7
  6
CONTINUOUS
 10
47.7510428021
 20
10.6899280576
 11
47.7510428021
 21
15.1899280576
  0
LINE
  5
299
100
AcDbEntity
  8
00_COMPONENTS_1
100
AcDbLine
 62
7
  6
CONTINUOUS
 10
47.8010428021
 20
70.7956994262
 11
47.8010428021
 21
79.7956994262
  0
LINE
  5
29A
100
AcDbEntity
  8
00_COMPONENTS_1
100
AcDbLine
 62
7
  6
CONTINUOUS
 10
48.4010428021
 20
91.2956994262
 11
48.4010428021
 21
80.2956994262
  0
LINE
  5
29B
100
AcDbEntity
  8
00_COMPONENTS_1
100
AcDbLine
 62
7
  6
CONTINUOUS
 10
48.4010428021
 20
70.2956994262
 11
48.4010428021
 21
67.7956994262
  0
LINE
  5
29C
100
AcDbEntity
  8
00_COMPONENTS_1
100
AcDbLine
 62
7
  6
CONTINUOUS
 10
48.4181665942
 20
25.4377167916
 11
48.4181665942
 21
24.4246672012
  0
LINE
  5
29D
100
AcDbEntity
  8
00_COMPONENTS_1
100
AcDbLine
 62
7
  6
CONTINUOUS
 10
48.7010428021
 20
119.5118389824
 11
48.7010428021
 21
117.8232053659
  0
LINE
  5
29E
100
AcDbEntity
  8
00_COMPONENTS_1
100
AcDbLine
 62
7
  6
CONTINUOUS
 10
48.7010428021
 20
112.879464528
 11
48.7010428021
 21
110.575671487
  0
LINE
  5
29F
100
AcDbEntity
  8
00_COMPONENTS_1
100
AcDbLine
 62
7
  6
CONTINUOUS
 10
48.7010428021
 20
29.775671487
 11
48.7010428021
 21
31.4644475215
  0
LINE
  5
2A0
100
AcDbEntity
  8
00_COMPONENTS_1
100
AcDbLine
 62
7
  6
CONTINUOUS
 10
48.7010428021
 20
36.4079063804
 11
48.7010428021
 21
38.7118389823
  0
LINE
  5
2A1
100
AcDbEntity
  8
00_COMPONENTS_1
100
AcDbLine
 62
7
  6
CONTINUOUS
 10
48.7510428021
 20
124.2848278717
 11
48.7510428021
 21
123.8590345564
  0
LINE
  5
2A2
100
AcDbEntity
  8
00_COMPONENTS_1
100
AcDbLine
 62
7
  6
CONTINUOUS
 10
59.1171080502
 20
105.1899280576
 11
58.9016812375
 21
104.748557007
  0
LINE
  5
2A3
100
AcDbEntity
  8
00_COMPONENTS_1
100
AcDbLine
 62
7
  6
CONTINUOUS
 10
43.9510428021
 20
67.7956994262
 11
62.2510428021
 21
67.7956994262
  0
LINE
  5
2A4
100
AcDbEntity
  8
00_COMPONENTS_1
100
AcDbLine
 62
7
  6
CONTINUOUS
 10
42.1010428021
 20
68.7956994262
 11
43.9510428021
 21
68.7956994262
  0
LINE
  5
2A5
100
AcDbEntity
  8
00_COMPONENTS_1
100
AcDbLine
 62
7
  6
CONTINUOUS
 10
62.2510428021
 20
68.7956994262
 11
64.1010428021
 21
68.7956994262
  0
LINE
  5
2A6
100
AcDbEntity
  8
00_COMPONENTS_1
100
AcDbLine
 62
7
  6
CONTINUOUS
 10
51.0010428021
 20
71.5456994262
 11
51.0010428021
 21
79.7956994262
  0
LINE
  5
2A7
100
AcDbEntity
  8
00_COMPONENTS_1
100
AcDbLine
 62
7
  6
CONTINUOUS
 10
51.0083290383
 20
127.6899280576
 11
51.0083290383
 21
129.6859239838
  0
LINE
  5
2A8
100
AcDbEntity
  8
00_COMPONENTS_1
100
AcDbLine
 62
7
  6
CONTINUOUS
 10
51.2510428021
 20
15.1899280576
 11
51.2514304843
 21
19.1899280576
  0
LINE
  5
2A9
100
AcDbEntity
  8
00_COMPONENTS_1
100
AcDbLine
 62
7
  6
CONTINUOUS
 10
52.4010428021
 20
24.9565123968
 11
52.4010428021
 21
21.6894918046
  0
LINE
  5
2AA
100
AcDbEntity
  8
00_COMPONENTS_1
100
AcDbLine
 62
7
  6
CONTINUOUS
 10
54.0010428021
 20
15.6899280576
 11
54.0010428021
 21
13.2148600387
  0
LINE
  5
2AB
100
AcDbEntity
  8
00_COMPONENTS_1
100
AcDbLine
 62
7
  6
CONTINUOUS
 10
43.9510428021
 20
70.2956994262
 11
62.2510428021
 21
70.2956994262
  0
LINE
  5
2AC
100
AcDbEntity
  8
00_COMPONENTS_1
100
AcDbLine
 62
7
  6
CONTINUOUS
 10
44.5010428021
 20
70.7956994262
 11
57.9510428021
 21
70.7956994262
  0
LINE
  5
2AD
100
AcDbEntity
  8
00_COMPONENTS_1
100
AcDbLine
 62
7
  6
CONTINUOUS
 10
51.0010428021
 20
71.5456994262
 11
55.5010428021
 21
71.5456994262
  0
LINE
  5
2AE
100
AcDbEntity
  8
00_COMPONENTS_1
100
AcDbLine
 62
7
  6
CONTINUOUS
 10
81.7510428021
 20
71.6899280576
 11
76.7510428021
 21
71.6899280576
  0
LINE
  5
2AF
100
AcDbEntity
  8
00_COMPONENTS_1
100
AcDbLine
 62
7
  6
CONTINUOUS
 10
29.7510428021
 20
71.6899280576
 11
27.0503698329
 21
71.6899280576
  0
LINE
  5
2B0
100
AcDbEntity
  8
00_COMPONENTS_1
100
AcDbLine
 62
7
  6
CONTINUOUS
 10
57.9510428021
 20
73.8456994262
 11
62.0010428021
 21
73.8456994262
  0
LINE
  5
2B1
100
AcDbEntity
  8
00_COMPONENTS_1
100
AcDbLine
 62
7
  6
CONTINUOUS
 10
55.5010428021
 20
71.5456994262
 11
55.5010428021
 21
79.7956994262
  0
LINE
  5
2B2
100
AcDbEntity
  8
00_COMPONENTS_1
100
AcDbLine
 62
7
  6
CONTINUOUS
 10
55.6510428021
 20
105.3296740224
 11
55.6510428021
 21
104.1899280577
  0
LINE
  5
2B3
100
AcDbEntity
  8
00_COMPONENTS_1
100
AcDbLine
 62
7
  6
CONTINUOUS
 10
55.8010428021
 20
127.643755949
 11
55.8010428021
 21
127.6899280576
  0
LINE
  5
2B4
100
AcDbEntity
  8
00_COMPONENTS_1
100
AcDbLine
 62
7
  6
CONTINUOUS
 10
56.2010428021
 20
135.643755949
 11
56.2010428021
 21
124.843755949
  0
LINE
  5
2B5
100
AcDbEntity
  8
00_COMPONENTS_1
100
AcDbLine
 62
7
  6
CONTINUOUS
 10
56.2010428021
 20
13.6437559489
 11
56.2010428021
 21
24.4437559489
  0
LINE
  5
2B6
100
AcDbEntity
  8
00_COMPONENTS_1
100
AcDbLine
 62
7
  6
CONTINUOUS
 10
57.7510428015
 20
79.7956994262
 11
57.7510428015
 21
76.7456994262
  0
LINE
  5
2B7
100
AcDbEntity
  8
00_COMPONENTS_1
100
AcDbLine
 62
7
  6
CONTINUOUS
 10
57.8010428021
 20
70.2956994262
 11
57.8010428021
 21
67.7956994262
  0
LINE
  5
2B8
100
AcDbEntity
  8
00_COMPONENTS_1
100
AcDbLine
 62
7
  6
CONTINUOUS
 10
57.8010428021
 20
80.2956994262
 11
57.8010428021
 21
91.2956994262
  0
LINE
  5
2B9
100
AcDbEntity
  8
00_COMPONENTS_1
100
AcDbLine
 62
7
  6
CONTINUOUS
 10
57.9510428021
 20
73.8456994262
 11
57.9510428021
 21
70.7956994262
  0
LINE
  5
2BA
100
AcDbEntity
  8
00_COMPONENTS_1
100
AcDbLine
 62
7
  6
CONTINUOUS
 10
57.9892168282
 20
129.143755949
 11
57.9892168282
 21
124.843755949
  0
LINE
  5
2BB
100
AcDbEntity
  8
00_COMPONENTS_1
100
AcDbLine
 62
7
  6
CONTINUOUS
 10
57.9892168282
 20
20.1437559489
 11
57.9892168282
 21
24.4437559489
  0
LINE
  5
2BC
100
AcDbEntity
  8
00_COMPONENTS_1
100
AcDbLine
 62
7
  6
CONTINUOUS
 10
58.0459140455
 20
24.4437559489
 11
58.0459140455
 21
20.1437559489
  0
LINE
  5
2BD
100
AcDbEntity
  8
00_COMPONENTS_1
100
AcDbLine
 62
7
  6
CONTINUOUS
 10
58.0459140455
 20
124.843755949
 11
58.0459140455
 21
129.143755949
  0
LINE
  5
2BE
100
AcDbEntity
  8
00_COMPONENTS_1
100
AcDbLine
 62
7
  6
CONTINUOUS
 10
58.0940995561
 20
20.1437559489
 11
58.0940995561
 21
13.6437559489
  0
LINE
  5
2BF
100
AcDbEntity
  8
00_COMPONENTS_1
100
AcDbLine
 62
7
  6
CONTINUOUS
 10
58.0940995561
 20
129.143755949
 11
58.0940995561
 21
135.643755949
  0
LINE
  5
2C0
100
AcDbEntity
  8
00_COMPONENTS_1
100
AcDbLine
 62
7
  6
CONTINUOUS
 10
58.2408416445
 20
20.1437559489
 11
58.2408416445
 21
13.6437559489
  0
LINE
  5
2C1
100
AcDbEntity
  8
00_COMPONENTS_1
100
AcDbLine
 62
7
  6
CONTINUOUS
 10
58.2408416445
 20
129.143755949
 11
58.2408416445
 21
135.643755949
  0
LINE
  5
2C2
100
AcDbEntity
  8
00_COMPONENTS_1
100
AcDbLine
 62
7
  6
CONTINUOUS
 10
58.7010428021
 20
76.7456994262
 11
58.7010428021
 21
73.8456994262
  0
LINE
  5
2C3
100
AcDbEntity
  8
00_COMPONENTS_1
100
AcDbLine
 62
7
  6
CONTINUOUS
 10
59.1510428021
 20
45.7484859244
 11
59.1510428021
 21
48.0421603714
  0
LINE
  5
2C4
100
AcDbEntity
  8
00_COMPONENTS_1
100
AcDbLine
 62
7
  6
CONTINUOUS
 10
59.1510428021
 20
101.3376957437
 11
59.1510428021
 21
103.6313701907
  0
LINE
  5
2C5
100
AcDbEntity
  8
00_COMPONENTS_1
100
AcDbLine
 62
7
  6
CONTINUOUS
 10
57.7510428015
 20
76.7456994262
 11
62.0010428021
 21
76.7456994262
  0
LINE
  5
2C6
100
AcDbEntity
  8
00_COMPONENTS_1
100
AcDbLine
 62
7
  6
CONTINUOUS
 10
24.7510428021
 20
77.6899280576
 11
29.7510428021
 21
77.6899280576
  0
LINE
  5
2C7
100
AcDbEntity
  8
00_COMPONENTS_1
100
AcDbLine
 62
7
  6
CONTINUOUS
 10
76.7510428021
 20
77.6899280576
 11
79.4517157713
 21
77.6899280576
  0
LINE
  5
2C8
100
AcDbEntity
  8
00_COMPONENTS_1
100
AcDbLine
 62
7
  6
CONTINUOUS
 10
44.5010428021
 20
79.7956994262
 11
57.7510428015
 21
79.7956994262
  0
LINE
  5
2C9
100
AcDbEntity
  8
00_COMPONENTS_1
100
AcDbLine
 62
7
  6
CONTINUOUS
 10
60.1510428021
 20
103.6311088641
 11
60.1510428021
 21
101.3376957437
  0
LINE
  5
2CA
100
AcDbEntity
  8
00_COMPONENTS_1
100
AcDbLine
 62
7
  6
CONTINUOUS
 10
60.1510428021
 20
48.0421603714
 11
60.1510428021
 21
45.7484859244
  0
LINE
  5
2CB
100
AcDbEntity
  8
00_COMPONENTS_1
100
AcDbLine
 62
7
  6
CONTINUOUS
 10
61.0612439573
 20
20.1437559489
 11
61.0612439573
 21
13.6437559489
  0
LINE
  5
2CC
100
AcDbEntity
  8
00_COMPONENTS_1
100
AcDbLine
 62
7
  6
CONTINUOUS
 10
61.0612439573
 20
129.143755949
 11
61.0612439573
 21
135.643755949
  0
LINE
  5
2CD
100
AcDbEntity
  8
00_COMPONENTS_1
100
AcDbLine
 62
7
  6
CONTINUOUS
 10
61.2079860457
 20
20.1437559489
 11
61.2079860457
 21
13.6437559489
  0
LINE
  5
2CE
100
AcDbEntity
  8
00_COMPONENTS_1
100
AcDbLine
 62
7
  6
CONTINUOUS
 10
61.2079860457
 20
129.143755949
 11
61.2079860457
 21
135.643755949
  0
LINE
  5
2CF
100
AcDbEntity
  8
00_COMPONENTS_1
100
AcDbLine
 62
7
  6
CONTINUOUS
 10
61.2561715588
 20
24.4437559489
 11
61.2561715588
 21
20.1437559489
  0
LINE
  5
2D0
100
AcDbEntity
  8
00_COMPONENTS_1
100
AcDbLine
 62
7
  6
CONTINUOUS
 10
61.2561715588
 20
124.843755949
 11
61.2561715588
 21
129.143755949
  0
LINE
  5
2D1
100
AcDbEntity
  8
00_COMPONENTS_1
100
AcDbLine
 62
7
  6
CONTINUOUS
 10
61.312868776
 20
129.143755949
 11
61.3128687761
 21
124.843755949
  0
LINE
  5
2D2
100
AcDbEntity
  8
00_COMPONENTS_1
100
AcDbLine
 62
7
  6
CONTINUOUS
 10
61.312868776
 20
20.1437559489
 11
61.3128687761
 21
24.4437559489
  0
LINE
  5
2D3
100
AcDbEntity
  8
00_COMPONENTS_1
100
AcDbLine
 62
7
  6
CONTINUOUS
 10
62.0010428021
 20
76.7456994262
 11
62.0010428021
 21
73.8456994262
  0
LINE
  5
2D4
100
AcDbEntity
  8
00_COMPONENTS_1
100
AcDbLine
 62
7
  6
CONTINUOUS
 10
62.1010428021
 20
91.2956994262
 11
62.1010428021
 21
80.2956994262
  0
LINE
  5
2D5
100
AcDbEntity
  8
00_COMPONENTS_1
100
AcDbLine
 62
7
  6
CONTINUOUS
 10
62.2510428021
 20
67.7956994262
 11
62.2510428021
 21
70.2956994262
  0
LINE
  5
2D6
100
AcDbEntity
  8
00_COMPONENTS_1
100
AcDbLine
 62
7
  6
CONTINUOUS
 10
62.5010428021
 20
13.2148600387
 11
62.5010428021
 21
13.6437559489
  0
LINE
  5
2D7
100
AcDbEntity
  8
00_COMPONENTS_1
100
AcDbLine
 62
7
  6
CONTINUOUS
 10
63.1010428021
 20
24.4437559489
 11
63.1010428021
 21
13.6437559489
  0
LINE
  5
2D8
100
AcDbEntity
  8
00_COMPONENTS_1
100
AcDbLine
 62
7
  6
CONTINUOUS
 10
63.1010428021
 20
124.843755949
 11
63.1010428021
 21
135.643755949
  0
LINE
  5
2D9
100
AcDbEntity
  8
00_COMPONENTS_1
100
AcDbLine
 62
7
  6
CONTINUOUS
 10
63.6510428021
 20
104.1899280576
 11
63.6510428021
 21
105.3296740224
  0
LINE
  5
2DA
100
AcDbEntity
  8
00_COMPONENTS_1
100
AcDbLine
 62
7
  6
CONTINUOUS
 10
64.1010428021
 20
68.7956994262
 11
64.1010428021
 21
59.2956994262
  0
LINE
  5
2DB
100
AcDbEntity
  8
00_COMPONENTS_1
100
AcDbLine
 62
7
  6
CONTINUOUS
 10
62.1010428021
 20
80.2956994262
 11
57.8010428021
 21
80.2956994262
  0
LINE
  5
2DC
100
AcDbEntity
  8
00_COMPONENTS_1
100
AcDbLine
 62
7
  6
CONTINUOUS
 10
48.4010428021
 20
80.2956994262
 11
44.1010428021
 21
80.2956994262
  0
LINE
  5
2DD
100
AcDbEntity
  8
00_COMPONENTS_1
100
AcDbLine
 62
7
  6
CONTINUOUS
 10
65.1010428021
 20
105.3296740224
 11
65.1010428021
 21
88.7956994262
  0
LINE
  5
2DE
100
AcDbEntity
  8
00_COMPONENTS_1
100
AcDbLine
 62
7
  6
CONTINUOUS
 10
65.1010428021
 20
61.7956994262
 11
65.1010428021
 21
45.26172483
  0
LINE
  5
2DF
100
AcDbEntity
  8
00_COMPONENTS_1
100
AcDbLine
 62
7
  6
CONTINUOUS
 10
66.7510428021
 20
15.1899280576
 11
66.7510428021
 21
21.6894918046
  0
LINE
  5
2E0
100
AcDbEntity
  8
00_COMPONENTS_1
100
AcDbLine
 62
7
  6
CONTINUOUS
 10
67.3217927844
 20
124.376335185
 11
67.3217927844
 21
124.7827669451
  0
LINE
  5
2E1
100
AcDbEntity
  8
00_COMPONENTS_1
100
AcDbLine
 62
7
  6
CONTINUOUS
 10
68.1510428021
 20
21.6894918046
 11
68.1510428021
 21
25.0927827947
  0
LINE
  5
2E2
100
AcDbEntity
  8
00_COMPONENTS_1
100
AcDbLine
 62
7
  6
CONTINUOUS
 10
68.3217927844
 20
124.7827669451
 11
68.3217927844
 21
124.1614073094
  0
LINE
  5
2E3
100
AcDbEntity
  8
00_COMPONENTS_1
100
AcDbLine
 62
7
  6
CONTINUOUS
 10
68.7510427984
 20
25.2046687462
 11
68.7510427984
 21
19.1899280576
  0
LINE
  5
2E4
100
AcDbEntity
  8
00_COMPONENTS_1
100
AcDbLine
 62
7
  6
CONTINUOUS
 10
68.7510428021
 20
10.6899280576
 11
68.7510428021
 21
15.1899280576
  0
LINE
  5
2E5
100
AcDbEntity
  8
00_COMPONENTS_1
100
AcDbLine
 62
7
  6
CONTINUOUS
 10
13.0010428021
 20
88.7956994262
 11
41.1010428021
 21
88.7956994262
  0
LINE
  5
2E6
100
AcDbEntity
  8
00_COMPONENTS_1
100
AcDbLine
 62
7
  6
CONTINUOUS
 10
65.1010428021
 20
88.7956994262
 11
95.5010428021
 21
88.7956994262
  0
LINE
  5
2E7
100
AcDbEntity
  8
00_COMPONENTS_1
100
AcDbLine
 62
7
  6
CONTINUOUS
 10
70.6010428021
 20
38.6046142299
 11
70.6010428021
 21
36.4079063804
  0
LINE
  5
2E8
100
AcDbEntity
  8
00_COMPONENTS_1
100
AcDbLine
 62
7
  6
CONTINUOUS
 10
70.6010428021
 20
31.4644475216
 11
70.6010428021
 21
29.8829007463
  0
LINE
  5
2E9
100
AcDbEntity
  8
00_COMPONENTS_1
100
AcDbLine
 62
7
  6
CONTINUOUS
 10
70.6010428021
 20
110.6829007464
 11
70.6010428021
 21
112.879464528
  0
LINE
  5
2EA
100
AcDbEntity
  8
00_COMPONENTS_1
100
AcDbLine
 62
7
  6
CONTINUOUS
 10
70.6010428021
 20
117.8232053659
 11
70.6010428021
 21
119.40461423
  0
LINE
  5
2EB
100
AcDbEntity
  8
00_COMPONENTS_1
100
AcDbLine
 62
7
  6
CONTINUOUS
 10
71.0010428021
 20
24.6925007582
 11
71.0010428021
 21
19.1899280576
  0
LINE
  5
2EC
100
AcDbEntity
  8
00_COMPONENTS_1
100
AcDbLine
 62
7
  6
CONTINUOUS
 10
72.2010428021
 20
119.5118389824
 11
72.2010428021
 21
117.8232053659
  0
LINE
  5
2ED
100
AcDbEntity
  8
00_COMPONENTS_1
100
AcDbLine
 62
7
  6
CONTINUOUS
 10
72.2010428021
 20
112.879464528
 11
72.2010428021
 21
110.575671487
  0
LINE
  5
2EE
100
AcDbEntity
  8
00_COMPONENTS_1
100
AcDbLine
 62
7
  6
CONTINUOUS
 10
72.2010428021
 20
29.775671487
 11
72.2010428021
 21
31.4644475215
  0
LINE
  5
2EF
100
AcDbEntity
  8
00_COMPONENTS_1
100
AcDbLine
 62
7
  6
CONTINUOUS
 10
72.2010428021
 20
36.4079063804
 11
72.2010428021
 21
38.7118389823
  0
LINE
  5
2F0
100
AcDbEntity
  8
00_COMPONENTS_1
100
AcDbLine
 62
7
  6
CONTINUOUS
 10
73.4010428021
 20
123.928530916
 11
73.4010428021
 21
127.643755949
  0
LINE
  5
2F1
100
AcDbEntity
  8
00_COMPONENTS_1
100
AcDbLine
 62
7
  6
CONTINUOUS
 10
75.1510428021
 20
132.343755949
 11
75.1510428021
 21
127.643755949
  0
LINE
  5
2F2
100
AcDbEntity
  8
00_COMPONENTS_1
100
AcDbLine
 62
7
  6
CONTINUOUS
 10
41.1010428021
 20
91.2956994262
 11
65.1010428021
 21
91.2956994262
  0
LINE
  5
2F3
100
AcDbEntity
  8
00_COMPONENTS_1
100
AcDbLine
 62
7
  6
CONTINUOUS
 10
60.4004043668
 20
104.748557007
 11
60.184977554
 21
105.1899280576
  0
LINE
  5
2F4
100
AcDbEntity
  8
00_COMPONENTS_1
100
AcDbLine
 62
7
  6
CONTINUOUS
 10
76.4010428021
 20
24.8300530398
 11
76.4010428021
 21
21.6894918046
  0
LINE
  5
2F5
100
AcDbEntity
  8
00_COMPONENTS_1
100
AcDbLine
 62
7
  6
CONTINUOUS
 10
76.7510428021
 20
71.6899280576
 11
76.7510428021
 21
77.6899280576
  0
LINE
  5
2F6
100
AcDbEntity
  8
00_COMPONENTS_1
100
AcDbLine
 62
7
  6
CONTINUOUS
 10
76.8260428021
 20
127.6899280576
 11
76.8260428021
 21
127.643755949
  0
LINE
  5
2F7
100
AcDbEntity
  8
00_COMPONENTS_1
100
AcDbLine
 62
7
  6
CONTINUOUS
 10
77.5003320322
 20
21.6894918046
 11
77.5003320322
 21
11.6899571537
  0
LINE
  5
2F8
100
AcDbEntity
  8
00_COMPONENTS_1
100
AcDbLine
 62
7
  6
CONTINUOUS
 10
79.7010428021
 20
130.643755949
 11
79.7010428021
 21
124.843755949
  0
LINE
  5
2F9
100
AcDbEntity
  8
00_COMPONENTS_1
100
AcDbLine
 62
7
  6
CONTINUOUS
 10
79.7010428021
 20
18.6437559489
 11
79.7010428021
 21
24.4437559489
  0
LINE
  5
2FA
100
AcDbEntity
  8
00_COMPONENTS_1
100
AcDbLine
 62
7
  6
CONTINUOUS
 10
79.4517157713
 20
77.6899280576
 11
81.7510428021
 21
73.635264053
  0
LINE
  5
2FB
100
AcDbEntity
  8
00_COMPONENTS_1
100
AcDbLine
 62
7
  6
CONTINUOUS
 10
81.7510428021
 20
73.635264053
 11
81.7510428021
 21
71.6899280576
  0
LINE
  5
2FC
100
AcDbEntity
  8
00_COMPONENTS_1
100
AcDbLine
 62
7
  6
CONTINUOUS
 10
83.7010428021
 20
124.843755949
 11
83.7010428021
 21
106.5899280576
  0
LINE
  5
2FD
100
AcDbEntity
  8
00_COMPONENTS_1
100
AcDbLine
 62
7
  6
CONTINUOUS
 10
83.7010428021
 20
42.6975838403
 11
83.7010428021
 21
24.4437559489
  0
LINE
  5
2FE
100
AcDbEntity
  8
00_COMPONENTS_1
100
AcDbLine
 62
7
  6
CONTINUOUS
 10
84.3510428021
 20
18.6437559489
 11
84.3510428021
 21
46.3737758174
  0
LINE
  5
2FF
100
AcDbEntity
  8
00_COMPONENTS_1
100
AcDbLine
 62
7
  6
CONTINUOUS
 10
84.3510428021
 20
102.9137360804
 11
84.3510428021
 21
130.643755949
  0
LINE
  5
300
100
AcDbEntity
  8
00_COMPONENTS_1
100
AcDbLine
 62
7
  6
CONTINUOUS
 10
84.8871196085
 20
24.6956994257
 11
84.8871196087
 21
25.3366103203
  0
LINE
  5
301
100
AcDbEntity
  8
00_COMPONENTS_1
100
AcDbLine
 62
7
  6
CONTINUOUS
 10
61.503011146
 20
103.6314942538
 11
60.1510428021
 21
103.6311088641
  0
LINE
  5
302
100
AcDbEntity
  8
00_COMPONENTS_1
100
AcDbLine
 62
7
  6
CONTINUOUS
 10
59.1510428021
 20
103.6313701907
 11
57.7992281395
 21
103.6309848448
  0
LINE
  5
303
100
AcDbEntity
  8
00_COMPONENTS_1
100
AcDbLine
 62
7
  6
CONTINUOUS
 10
60.4004043668
 20
104.748557007
 11
61.5028574648
 21
104.7488712703
  0
LINE
  5
304
100
AcDbEntity
  8
00_COMPONENTS_1
100
AcDbLine
 62
7
  6
CONTINUOUS
 10
96.4010428021
 20
102.6437553333
 11
96.3597623735
 21
102.6437553333
  0
LINE
  5
305
100
AcDbEntity
  8
00_COMPONENTS_1
100
AcDbLine
 62
7
  6
CONTINUOUS
 10
96.3597650268
 20
102.9137360804
 11
84.3510428021
 21
102.9137360804
  0
LINE
  5
306
100
AcDbEntity
  8
00_COMPONENTS_1
100
AcDbLine
 62
7
  6
CONTINUOUS
 10
59.1171080502
 20
105.1899280576
 11
60.184977554
 21
105.1899280576
  0
LINE
  5
307
100
AcDbEntity
  8
00_COMPONENTS_1
100
AcDbLine
 62
7
  6
CONTINUOUS
 10
11.9010428021
 20
105.1956994262
 11
41.1010428021
 21
105.1956994262
  0
LINE
  5
308
100
AcDbEntity
  8
00_COMPONENTS_1
100
AcDbLine
 62
7
  6
CONTINUOUS
 10
55.6510428021
 20
105.1956994262
 11
56.9355956703
 21
105.1956994262
  0
LINE
  5
309
100
AcDbEntity
  8
00_COMPONENTS_1
100
AcDbLine
 62
7
  6
CONTINUOUS
 10
62.366489934
 20
105.1956994262
 11
63.6510428021
 21
105.1956994262
  0
LINE
  5
30A
100
AcDbEntity
  8
00_COMPONENTS_1
100
AcDbLine
 62
7
  6
CONTINUOUS
 10
65.1010428021
 20
105.1956994262
 11
84.3510428021
 21
105.1956994262
  0
LINE
  5
30B
100
AcDbEntity
  8
00_COMPONENTS_1
100
AcDbLine
 62
7
  6
CONTINUOUS
 10
62.313036098
 20
105.3296740224
 11
56.9890495062
 21
105.3296740224
  0
LINE
  5
30C
100
AcDbEntity
  8
00_COMPONENTS_1
100
AcDbLine
 62
7
  6
CONTINUOUS
 10
55.6510428021
 20
105.3296740224
 11
41.1010428021
 21
105.3296740224
  0
LINE
  5
30D
100
AcDbEntity
  8
00_COMPONENTS_1
100
AcDbLine
 62
7
  6
CONTINUOUS
 10
63.6510428021
 20
105.3296740224
 11
65.1010428021
 21
105.3296740224
  0
LINE
  5
30E
100
AcDbEntity
  8
00_COMPONENTS_1
100
AcDbLine
 62
7
  6
CONTINUOUS
 10
57.7992281395
 20
104.7488712703
 11
58.9016812375
 21
104.748557007
  0
LINE
  5
30F
100
AcDbEntity
  8
00_COMPONENTS_1
100
AcDbLine
 62
7
  6
CONTINUOUS
 10
88.1716834398
 20
106.2493552542
 11
88.1741227963
 21
103.8495518607
  0
LINE
  5
310
100
AcDbEntity
  8
00_COMPONENTS_1
100
AcDbLine
 62
7
  6
CONTINUOUS
 10
88.1703991574
 20
107.5128035126
 11
88.1680805319
 21
109.7938335082
  0
LINE
  5
311
100
AcDbEntity
  8
00_COMPONENTS_1
100
AcDbLine
 62
7
  6
CONTINUOUS
 10
89.2680801914
 20
109.7949281285
 11
89.2702975412
 21
107.6071704928
  0
LINE
  5
312
100
AcDbEntity
  8
00_COMPONENTS_1
100
AcDbLine
 62
7
  6
CONTINUOUS
 10
89.2741219766
 20
103.8506894862
 11
89.2715909582
 21
106.3437197197
  0
LINE
  5
313
100
AcDbEntity
  8
00_COMPONENTS_1
100
AcDbLine
 62
7
  6
CONTINUOUS
 10
88.1705717685
 20
37.4437559489
 11
88.1706850997
 21
37.2837282395
  0
LINE
  5
314
100
AcDbEntity
  8
00_COMPONENTS_1
100
AcDbLine
 62
7
  6
CONTINUOUS
 10
88.1715718759
 20
36.0315530233
 11
88.1730698895
 21
33.9163030954
  0
LINE
  5
315
100
AcDbEntity
  8
00_COMPONENTS_1
100
AcDbLine
 62
7
  6
CONTINUOUS
 10
89.2730697111
 20
33.9171150986
 11
89.2716311467
 21
35.9399027908
  0
LINE
  5
316
100
AcDbEntity
  8
00_COMPONENTS_1
100
AcDbLine
 62
7
  6
CONTINUOUS
 10
89.2707533008
 20
37.1920721439
 11
89.2705747431
 21
37.4437559489
  0
LINE
  5
317
100
AcDbEntity
  8
00_COMPONENTS_1
100
AcDbLine
 62
7
  6
CONTINUOUS
 10
85.6959908429
 20
106.8191508388
 11
85.6959902871
 21
106.8222213685
  0
LINE
  5
318
100
AcDbEntity
  8
00_COMPONENTS_1
100
AcDbLine
 62
7
  6
CONTINUOUS
 10
85.7510428021
 20
117.443755949
 11
85.7510428021
 21
118.5899280576
  0
LINE
  5
319
100
AcDbEntity
  8
00_COMPONENTS_1
100
AcDbLine
 62
7
  6
CONTINUOUS
 10
85.9462182499
 20
113.6831503524
 11
85.9462182499
 21
113.6393069756
  0
LINE
  5
31A
100
AcDbEntity
  8
00_COMPONENTS_1
100
AcDbLine
 62
7
  6
CONTINUOUS
 10
85.9462182499
 20
35.6482049222
 11
85.9462182499
 21
35.6043615454
  0
LINE
  5
31B
100
AcDbEntity
  8
00_COMPONENTS_1
100
AcDbLine
 62
7
  6
CONTINUOUS
 10
85.9485428021
 20
35.415249961
 11
85.9485428021
 21
35.7661515997
  0
LINE
  5
31C
100
AcDbEntity
  8
00_COMPONENTS_1
100
AcDbLine
 62
7
  6
CONTINUOUS
 10
85.9485428021
 20
35.9331593209
 11
85.9485428021
 21
36.0476837171
  0
LINE
  5
31D
100
AcDbEntity
  8
00_COMPONENTS_1
100
AcDbLine
 62
7
  6
CONTINUOUS
 10
85.9485428021
 20
113.2398281808
 11
85.9485428021
 21
113.354352577
  0
LINE
  5
31E
100
AcDbEntity
  8
00_COMPONENTS_1
100
AcDbLine
 62
7
  6
CONTINUOUS
 10
85.9485428021
 20
113.5213602982
 11
85.9485428021
 21
113.8722619369
  0
LINE
  5
31F
100
AcDbEntity
  8
00_COMPONENTS_1
100
AcDbLine
 62
7
  6
CONTINUOUS
 10
86.7260428021
 20
27.4156712167
 11
86.7260428021
 21
26.3065709797
  0
LINE
  5
320
100
AcDbEntity
  8
00_COMPONENTS_1
100
AcDbLine
 62
7
  6
CONTINUOUS
 10
86.7760428021
 20
124.2848278717
 11
86.7760428021
 21
123.1757276347
  0
LINE
  5
321
100
AcDbEntity
  8
00_COMPONENTS_1
100
AcDbLine
 62
7
  6
CONTINUOUS
 10
85.6959908429
 20
42.468361059
 11
85.6959902871
 21
42.4652905293
  0
LINE
  5
322
100
AcDbEntity
  8
00_COMPONENTS_1
100
AcDbLine
 62
7
  6
CONTINUOUS
 10
88.1705717685
 20
111.843755949
 11
88.1706850997
 21
112.0037836584
  0
LINE
  5
323
100
AcDbEntity
  8
00_COMPONENTS_1
100
AcDbLine
 62
7
  6
CONTINUOUS
 10
88.1715718759
 20
113.2559588745
 11
88.1730698895
 21
115.3712088025
  0
LINE
  5
324
100
AcDbEntity
  8
00_COMPONENTS_1
100
AcDbLine
 62
7
  6
CONTINUOUS
 10
89.2730697111
 20
115.3703967993
 11
89.2716311467
 21
113.347609107
  0
LINE
  5
325
100
AcDbEntity
  8
00_COMPONENTS_1
100
AcDbLine
 62
7
  6
CONTINUOUS
 10
89.2707533008
 20
112.095439754
 11
89.2705747431
 21
111.843755949
  0
LINE
  5
326
100
AcDbEntity
  8
00_COMPONENTS_1
100
AcDbLine
 62
7
  6
CONTINUOUS
 10
88.1741227963
 20
45.4379600371
 11
88.1716834398
 21
43.0381566436
  0
LINE
  5
327
100
AcDbEntity
  8
00_COMPONENTS_1
100
AcDbLine
 62
7
  6
CONTINUOUS
 10
88.1703991574
 20
41.7747083852
 11
88.1680805917
 21
39.4937372069
  0
LINE
  5
328
100
AcDbEntity
  8
00_COMPONENTS_1
100
AcDbLine
 62
7
  6
CONTINUOUS
 10
89.2680802507
 20
39.4926423374
 11
89.2702975412
 21
41.6803414051
  0
LINE
  5
329
100
AcDbEntity
  8
00_COMPONENTS_1
100
AcDbLine
 62
7
  6
CONTINUOUS
 10
89.2715909582
 20
42.9437921781
 11
89.2741219766
 21
45.4368224116
  0
LINE
  5
32A
100
AcDbEntity
  8
00_COMPONENTS_1
100
AcDbLine
 62
7
  6
CONTINUOUS
 10
89.2715909582
 20
106.3437197197
 11
91.1439920965
 21
106.3686927964
  0
LINE
  5
32B
100
AcDbEntity
  8
00_COMPONENTS_1
100
AcDbLine
 62
7
  6
CONTINUOUS
 10
88.1703991574
 20
107.5128035126
 11
86.2981737541
 21
107.4878327798
  0
LINE
  5
32C
100
AcDbEntity
  8
00_COMPONENTS_1
100
AcDbLine
 62
7
  6
CONTINUOUS
 10
84.3510428021
 20
106.160316519
 11
11.9010428021
 21
106.160316519
  0
LINE
  5
32D
100
AcDbEntity
  8
00_COMPONENTS_1
100
AcDbLine
 62
7
  6
CONTINUOUS
 10
11.9137926419
 20
106.5899280576
 11
84.3510428021
 21
106.5899280576
  0
LINE
  5
32E
100
AcDbEntity
  8
00_COMPONENTS_1
100
AcDbLine
 62
7
  6
CONTINUOUS
 10
86.3226884337
 20
106.2713463712
 11
88.1716834398
 21
106.2493552542
  0
LINE
  5
32F
100
AcDbEntity
  8
00_COMPONENTS_1
100
AcDbLine
 62
7
  6
CONTINUOUS
 10
91.1193019816
 20
107.5851792636
 11
89.2702975412
 21
107.6071704928
  0
LINE
  5
330
100
AcDbEntity
  8
00_COMPONENTS_1
100
AcDbLine
 62
7
  6
CONTINUOUS
 10
91.7460950021
 20
106.8252923463
 11
91.7460955583
 21
106.8222213342
  0
LINE
  5
331
100
AcDbEntity
  8
00_COMPONENTS_1
100
AcDbLine
 62
7
  6
CONTINUOUS
 10
91.1510428021
 20
31.8437559489
 11
91.1510428021
 21
30.7899280576
  0
LINE
  5
332
100
AcDbEntity
  8
00_COMPONENTS_1
100
AcDbLine
 62
7
  6
CONTINUOUS
 10
91.5010428021
 20
21.6894918046
 11
91.5010428021
 21
30.7899280576
  0
LINE
  5
333
100
AcDbEntity
  8
00_COMPONENTS_1
100
AcDbLine
 62
7
  6
CONTINUOUS
 10
91.5010428021
 20
117.4451998986
 11
91.5010428021
 21
127.6899280576
  0
LINE
  5
334
100
AcDbEntity
  8
00_COMPONENTS_1
100
AcDbLine
 62
7
  6
CONTINUOUS
 10
91.6510428021
 20
16.650765392
 11
91.6510428021
 21
30.7899280576
  0
LINE
  5
335
100
AcDbEntity
  8
00_COMPONENTS_1
100
AcDbLine
 62
7
  6
CONTINUOUS
 10
91.6510428021
 20
117.4451998986
 11
91.6510428021
 21
132.6966146803
  0
LINE
  5
336
100
AcDbEntity
  8
00_COMPONENTS_1
100
AcDbLine
 62
7
  6
CONTINUOUS
 10
92.4510428021
 20
30.7899280576
 11
92.4510428021
 21
46.3737758174
  0
LINE
  5
337
100
AcDbEntity
  8
00_COMPONENTS_1
100
AcDbLine
 62
7
  6
CONTINUOUS
 10
92.4510428021
 20
102.9137360804
 11
92.4510428021
 21
117.4466438484
  0
LINE
  5
338
100
AcDbEntity
  8
00_COMPONENTS_1
100
AcDbLine
 62
7
  6
CONTINUOUS
 10
95.5010428021
 20
88.7956994262
 11
95.5010428021
 21
61.7956994262
  0
LINE
  5
339
100
AcDbEntity
  8
00_COMPONENTS_1
100
AcDbLine
 62
7
  6
CONTINUOUS
 10
91.7460950021
 20
42.462219551
 11
91.7460955583
 21
42.4652905637
  0
LINE
  5
33A
100
AcDbEntity
  8
00_COMPONENTS_1
100
AcDbLine
 62
7
  6
CONTINUOUS
 10
91.1431275712
 20
112.117005563
 11
89.2707533008
 21
112.095439754
  0
LINE
  5
33B
100
AcDbEntity
  8
00_COMPONENTS_1
100
AcDbLine
 62
7
  6
CONTINUOUS
 10
86.2992395987
 20
113.2343935491
 11
88.1715718759
 21
113.2559588745
  0
LINE
  5
33C
100
AcDbEntity
  8
00_COMPONENTS_1
100
AcDbLine
 62
7
  6
CONTINUOUS
 10
92.4510428021
 20
110.893755949
 11
84.3510428021
 21
110.893755949
  0
LINE
  5
33D
100
AcDbEntity
  8
00_COMPONENTS_1
100
AcDbLine
 62
7
  6
CONTINUOUS
 10
92.4510428021
 20
111.843755949
 11
84.3510428021
 21
111.843755949
  0
LINE
  5
33E
100
AcDbEntity
  8
00_COMPONENTS_1
100
AcDbLine
 62
7
  6
CONTINUOUS
 10
92.4510428021
 20
112.643755949
 11
96.4010428021
 21
112.643755949
  0
LINE
  5
33F
100
AcDbEntity
  8
00_COMPONENTS_1
100
AcDbLine
 62
7
  6
CONTINUOUS
 10
88.1706850997
 20
112.0037836583
 11
86.3214461035
 21
112.0287260227
  0
LINE
  5
340
100
AcDbEntity
  8
00_COMPONENTS_1
100
AcDbLine
 62
7
  6
CONTINUOUS
 10
89.2716311467
 20
113.3476091069
 11
91.1203100631
 21
113.3226742617
  0
LINE
  5
341
100
AcDbEntity
  8
00_COMPONENTS_1
100
AcDbLine
 62
7
  6
CONTINUOUS
 10
96.3067046904
 20
102.9137360804
 11
96.3067046904
 21
46.3737758174
  0
LINE
  5
342
100
AcDbEntity
  8
00_COMPONENTS_1
100
AcDbLine
 62
7
  6
CONTINUOUS
 10
96.3597623735
 20
102.6437553333
 11
96.3597650268
 21
102.9137360804
  0
LINE
  5
343
100
AcDbEntity
  8
00_COMPONENTS_1
100
AcDbLine
 62
7
  6
CONTINUOUS
 10
96.3597623735
 20
46.6437565645
 11
96.3597650268
 21
46.3737758174
  0
LINE
  5
344
100
AcDbEntity
  8
00_COMPONENTS_1
100
AcDbLine
 62
7
  6
CONTINUOUS
 10
96.4010428021
 20
31.6437559489
 11
96.4010428021
 21
117.4466438484
  0
LINE
  5
345
100
AcDbEntity
  8
00_COMPONENTS_1
100
AcDbLine
 62
7
  6
CONTINUOUS
 10
96.4010428021
 20
117.443755949
 11
84.3510428033
 21
117.443755949
  0
LINE
  5
346
100
AcDbEntity
  8
00_COMPONENTS_1
100
AcDbLine
 62
7
  6
CONTINUOUS
 10
91.5010428021
 20
117.643755949
 11
85.7510428021
 21
117.643755949
  0
LINE
  5
347
100
AcDbEntity
  8
00_COMPONENTS_1
100
AcDbLine
 62
7
  6
CONTINUOUS
 10
85.7510428021
 20
118.5899280576
 11
84.3510428021
 21
118.5899280576
  0
LINE
  5
348
100
AcDbEntity
  8
00_COMPONENTS_1
100
AcDbLine
 62
7
  6
CONTINUOUS
 10
85.9628099649
 20
121.1720438465
 11
84.3510428021
 21
121.1536156016
  0
LINE
  5
349
100
AcDbEntity
  8
00_COMPONENTS_1
100
AcDbLine
 62
7
  6
CONTINUOUS
 10
86.7760428021
 20
123.6899280576
 11
85.4426059091
 21
123.6899280576
  0
LINE
  5
34A
100
AcDbEntity
  8
00_COMPONENTS_1
100
AcDbLine
 62
7
  6
CONTINUOUS
 10
12.7010428021
 20
124.843755949
 11
18.7010428021
 21
124.843755949
  0
LINE
  5
34B
100
AcDbEntity
  8
00_COMPONENTS_1
100
AcDbLine
 62
7
  6
CONTINUOUS
 10
30.7010428021
 20
124.843755949
 11
42.2010428021
 21
124.843755949
  0
LINE
  5
34C
100
AcDbEntity
  8
00_COMPONENTS_1
100
AcDbLine
 62
7
  6
CONTINUOUS
 10
54.2010428021
 20
124.843755949
 11
65.7010428021
 21
124.843755949
  0
LINE
  5
34D
100
AcDbEntity
  8
00_COMPONENTS_1
100
AcDbLine
 62
7
  6
CONTINUOUS
 10
77.7010428021
 20
124.843755949
 11
83.7010428021
 21
124.843755949
  0
LINE
  5
34E
100
AcDbEntity
  8
00_COMPONENTS_1
100
AcDbLine
 62
7
  6
CONTINUOUS
 10
84.3510428021
 20
122.3990276529
 11
85.9400900626
 21
122.3774687857
  0
LINE
  5
34F
100
AcDbEntity
  8
00_COMPONENTS_1
100
AcDbLine
 62
7
  6
CONTINUOUS
 10
55.8010428021
 20
127.643755949
 11
56.2010428021
 21
127.643755949
  0
LINE
  5
350
100
AcDbEntity
  8
00_COMPONENTS_1
100
AcDbLine
 62
7
  6
CONTINUOUS
 10
63.1010428021
 20
127.643755949
 11
79.7010428021
 21
127.643755949
  0
LINE
  5
351
100
AcDbEntity
  8
00_COMPONENTS_1
100
AcDbLine
 62
7
  6
CONTINUOUS
 10
91.5010428021
 20
127.6899280576
 11
84.3510428021
 21
127.6899280576
  0
LINE
  5
352
100
AcDbEntity
  8
00_COMPONENTS_1
100
AcDbLine
 62
7
  6
CONTINUOUS
 10
39.6010428021
 20
127.6899280576
 11
56.2010428021
 21
127.6899280576
  0
LINE
  5
353
100
AcDbEntity
  8
00_COMPONENTS_1
100
AcDbLine
 62
7
  6
CONTINUOUS
 10
75.1510428021
 20
127.6899280576
 11
79.7010428021
 21
127.6899280576
  0
LINE
  5
354
100
AcDbEntity
  8
00_COMPONENTS_1
100
AcDbLine
 62
7
  6
CONTINUOUS
 10
39.6010428021
 20
128.68992806
 11
44.154426656
 21
128.68992806
  0
LINE
  5
355
100
AcDbEntity
  8
00_COMPONENTS_1
100
AcDbLine
 62
7
  6
CONTINUOUS
 10
75.1510428021
 20
128.68992806
 11
79.7010428021
 21
128.68992806
  0
LINE
  5
356
100
AcDbEntity
  8
00_COMPONENTS_1
100
AcDbLine
 62
7
  6
CONTINUOUS
 10
84.3510428021
 20
128.68992806
 11
91.6510428021
 21
128.68992806
  0
LINE
  5
357
100
AcDbEntity
  8
00_COMPONENTS_1
100
AcDbLine
 62
7
  6
CONTINUOUS
 10
34.4892168282
 20
129.143755949
 11
37.812868776
 21
129.143755949
  0
LINE
  5
358
100
AcDbEntity
  8
00_COMPONENTS_1
100
AcDbLine
 62
7
  6
CONTINUOUS
 10
57.9892168282
 20
129.143755949
 11
61.312868776
 21
129.143755949
  0
LINE
  5
359
100
AcDbEntity
  8
00_COMPONENTS_1
100
AcDbLine
 62
7
  6
CONTINUOUS
 10
12.4010428021
 20
130.143755949
 11
11.9137926419
 21
130.143755949
  0
LINE
  5
35A
100
AcDbEntity
  8
00_COMPONENTS_1
100
AcDbLine
 62
7
  6
CONTINUOUS
 10
84.3510428021
 20
130.643755949
 11
79.7010428021
 21
130.643755949
  0
LINE
  5
35B
100
AcDbEntity
  8
00_COMPONENTS_1
100
AcDbLine
 62
7
  6
CONTINUOUS
 10
16.1010428021
 20
130.643755949
 11
11.9010428021
 21
130.643755949
  0
LINE
  5
35C
100
AcDbEntity
  8
00_COMPONENTS_1
100
AcDbLine
 62
7
  6
CONTINUOUS
 10
63.1010428021
 20
132.343755949
 11
75.1510428021
 21
132.343755949
  0
LINE
  5
35D
100
AcDbEntity
  8
00_COMPONENTS_1
100
AcDbLine
 62
7
  6
CONTINUOUS
 10
32.7010428021
 20
135.643755949
 11
39.6010428021
 21
135.643755949
  0
LINE
  5
35E
100
AcDbEntity
  8
00_COMPONENTS_1
100
AcDbLine
 62
7
  6
CONTINUOUS
 10
56.2010428021
 20
135.643755949
 11
63.1010428021
 21
135.643755949
  0
LINE
  5
35F
100
AcDbEntity
  8
00_COMPONENTS_1
100
AcDbLine
 62
7
  6
CONTINUOUS
 10
16.8510428021
 20
137.6899280576
 11
31.8529339658
 21
137.6899280576
  0
LINE
  5
360
100
AcDbEntity
  8
00_COMPONENTS_1
100
AcDbLine
 62
7
  6
CONTINUOUS
 10
39.3224727229
 20
137.6899280576
 11
86.7612802095
 21
137.6899280576
  0
ARC
  5
361
100
AcDbEntity
  8
00_COMPONENTS_1
100
AcDbCircle
 62
7
  6
CONTINUOUS
 10
24.7010428021
 20
6.9437559489
 40
18.5
100
AcDbArc
 50
71.0753555839
 51
108.9246444161
  0
ARC
  5
362
100
AcDbEntity
  8
00_COMPONENTS_1
100
AcDbCircle
 62
7
  6
CONTINUOUS
 10
48.2010428021
 20
6.9437559489
 40
18.5
100
AcDbArc
 50
71.0753555839
 51
108.9246444161
  0
CIRCLE
  5
363
100
AcDbEntity
  8
00_COMPONENTS_1
100
AcDbCircle
 62
7
  6
CONTINUOUS
 10
24.7010428021
 20
34.2437559489
 40
4.5
  0
CIRCLE
  5
364
100
AcDbEntity
  8
00_COMPONENTS_1
100
AcDbCircle
 62
7
  6
CONTINUOUS
 10
48.2010428021
 20
34.2437559489
 40
4.5
  0
ARC
  5
365
100
AcDbEntity
  8
00_COMPONENTS_1
100
AcDbCircle
 62
7
  6
CONTINUOUS
 10
47.9181665942
 20
27.4840789094
 40
3.1
100
AcDbArc
 50
225.5613379553
 51
316.1523329088
  0
ARC
  5
366
100
AcDbEntity
  8
00_COMPONENTS_1
100
AcDbCircle
 62
7
  6
CONTINUOUS
 10
24.4010428021
 20
33.936176951
 40
2.5981038024
100
AcDbArc
 50
72.0662636261
 51
107.9337363739
  0
ARC
  5
367
100
AcDbEntity
  8
00_COMPONENTS_1
100
AcDbCircle
 62
7
  6
CONTINUOUS
 10
24.4010428021
 20
33.936176951
 40
2.5981038024
100
AcDbArc
 50
252.0662636261
 51
287.9337363739
  0
ARC
  5
368
100
AcDbEntity
  8
00_COMPONENTS_1
100
AcDbCircle
 62
7
  6
CONTINUOUS
 10
47.9010428021
 20
33.936176951
 40
2.5981038024
100
AcDbArc
 50
72.0662636261
 51
107.9337363739
  0
ARC
  5
369
100
AcDbEntity
  8
00_COMPONENTS_1
100
AcDbCircle
 62
7
  6
CONTINUOUS
 10
47.9010428021
 20
33.936176951
 40
2.5981038024
100
AcDbArc
 50
252.0662636261
 51
287.9337363739
  0
ARC
  5
36A
100
AcDbEntity
  8
00_COMPONENTS_1
100
AcDbCircle
 62
7
  6
CONTINUOUS
 10
47.2508885165
 20
21.6894918046
 40
2.4995637471
100
AcDbArc
 50
179.9966666468
 51
269.9900055592
  0
ARC
  5
36B
100
AcDbEntity
  8
00_COMPONENTS_1
100
AcDbCircle
 62
7
  6
CONTINUOUS
 10
48.2010428021
 20
142.343755949
 40
18.5
100
AcDbArc
 50
251.0753555839
 51
288.9246444161
  0
ARC
  5
36C
100
AcDbEntity
  8
00_COMPONENTS_1
100
AcDbCircle
 62
7
  6
CONTINUOUS
 10
24.7010428021
 20
142.343755949
 40
18.5
100
AcDbArc
 50
251.0753555839
 51
288.9246444161
  0
ARC
  5
36D
100
AcDbEntity
  8
00_COMPONENTS_1
100
AcDbCircle
 62
7
  6
CONTINUOUS
 10
39.3492163848
 20
132.6955898326
 40
4.9944098281
100
AcDbArc
 50
90.3068042733
 51
143.7870796337
  0
CIRCLE
  5
36E
100
AcDbEntity
  8
00_COMPONENTS_1
100
AcDbCircle
 62
7
  6
CONTINUOUS
 10
24.7010428021
 20
115.043755949
 40
4.5
  0
CIRCLE
  5
36F
100
AcDbEntity
  8
00_COMPONENTS_1
100
AcDbCircle
 62
7
  6
CONTINUOUS
 10
48.2010428021
 20
115.043755949
 40
4.5
  0
ARC
  5
370
100
AcDbEntity
  8
00_COMPONENTS_1
100
AcDbCircle
 62
7
  6
CONTINUOUS
 10
54.2579736534
 20
129.6859239838
 40
3.2496446151
100
AcDbArc
 50
53.2346700104
 51
180.0000000007
  0
CIRCLE
  5
371
100
AcDbEntity
  8
00_COMPONENTS_1
100
AcDbCircle
 62
7
  6
CONTINUOUS
 10
24.3515709313
 20
130.1920527736
 40
3.2496446151
  0
ARC
  5
372
100
AcDbEntity
  8
00_COMPONENTS_1
100
AcDbCircle
 62
7
  6
CONTINUOUS
 10
47.9010428021
 20
115.3513349469
 40
2.5981038024
100
AcDbArc
 50
252.0662636261
 51
287.9337363739
  0
ARC
  5
373
100
AcDbEntity
  8
00_COMPONENTS_1
100
AcDbCircle
 62
7
  6
CONTINUOUS
 10
47.9010428021
 20
115.3513349469
 40
2.5981038024
100
AcDbArc
 50
72.0662636261
 51
107.9337363739
  0
ARC
  5
374
100
AcDbEntity
  8
00_COMPONENTS_1
100
AcDbCircle
 62
7
  6
CONTINUOUS
 10
24.4010428021
 20
115.3513349469
 40
2.5981038024
100
AcDbArc
 50
252.0662636261
 51
287.9337363739
  0
ARC
  5
375
100
AcDbEntity
  8
00_COMPONENTS_1
100
AcDbCircle
 62
7
  6
CONTINUOUS
 10
24.4010428021
 20
115.3513349469
 40
2.5981038024
100
AcDbArc
 50
72.0662636261
 51
107.9337363739
  0
ARC
  5
376
100
AcDbEntity
  8
00_COMPONENTS_1
100
AcDbCircle
 62
7
  6
CONTINUOUS
 10
33.1038702613
 20
124.9393450444
 40
1.2509362955
100
AcDbArc
 50
180.0000000013
 51
184.4167878199
  0
ARC
  5
377
100
AcDbEntity
  8
00_COMPONENTS_1
100
AcDbCircle
 62
7
  6
CONTINUOUS
 10
45.4011582225
 20
129.439185931
 40
1.2467315665
100
AcDbArc
 50
0.034485054
 51
180.0000000018
  0
ARC
  5
378
100
AcDbEntity
  8
00_COMPONENTS_1
100
AcDbCircle
 62
7
  6
CONTINUOUS
 10
71.7010428021
 20
6.9437559489
 40
18.5
100
AcDbArc
 50
71.0753555839
 51
108.9246444161
  0
ARC
  5
379
100
AcDbEntity
  8
00_COMPONENTS_1
100
AcDbCircle
 62
7
  6
CONTINUOUS
 10
74.2506874172
 20
24.6925007582
 40
3.2496446151
100
AcDbArc
 50
166.6147114466
 51
179.9999999995
  0
CIRCLE
  5
37A
100
AcDbEntity
  8
00_COMPONENTS_1
100
AcDbCircle
 62
7
  6
CONTINUOUS
 10
71.7010428021
 20
34.2437559489
 40
4.5
  0
ARC
  5
37B
100
AcDbEntity
  8
00_COMPONENTS_1
100
AcDbCircle
 62
7
  6
CONTINUOUS
 10
59.6510428021
 20
45.1899280576
 40
4.0
100
AcDbArc
 50
1.0284682404
 51
178.9715317596
  0
ARC
  5
37C
100
AcDbEntity
  8
00_COMPONENTS_1
100
AcDbCircle
 62
7
  6
CONTINUOUS
 10
59.6510428021
 20
45.1899280576
 40
2.8957260181
100
AcDbArc
 50
1.4207399491
 51
178.5792600509
  0
ARC
  5
37D
100
AcDbEntity
  8
00_COMPONENTS_1
100
AcDbCircle
 62
7
  6
CONTINUOUS
 10
71.4010428021
 20
33.936176951
 40
2.5981038024
100
AcDbArc
 50
72.0662636261
 51
107.9337363739
  0
ARC
  5
37E
100
AcDbEntity
  8
00_COMPONENTS_1
100
AcDbCircle
 62
7
  6
CONTINUOUS
 10
71.4010428021
 20
33.936176951
 40
2.5981038024
100
AcDbArc
 50
252.0662636261
 51
287.9337363739
  0
ARC
  5
37F
100
AcDbEntity
  8
00_COMPONENTS_1
100
AcDbCircle
 62
7
  6
CONTINUOUS
 10
59.6510428021
 20
45.1899280576
 40
1.9343306491
100
AcDbArc
 50
2.1271426279
 51
16.7956729241
  0
ARC
  5
380
100
AcDbEntity
  8
00_COMPONENTS_1
100
AcDbCircle
 62
7
  6
CONTINUOUS
 10
59.6510428021
 20
45.1899280576
 40
1.9343306491
100
AcDbArc
 50
163.2043270757
 51
177.8728573721
  0
ARC
  5
381
100
AcDbEntity
  8
00_COMPONENTS_1
100
AcDbCircle
 62
7
  6
CONTINUOUS
 10
88.3302157113
 20
37.5555539002
 40
3.573862701
100
AcDbArc
 50
325.8036118785
 51
334.6708553745
  0
ARC
  5
382
100
AcDbEntity
  8
00_COMPONENTS_1
100
AcDbCircle
 62
7
  6
CONTINUOUS
 10
88.338896588
 20
37.5513153512
 40
3.5642030357
100
AcDbArc
 50
334.672740108
 51
335.5111470122
  0
ARC
  5
383
100
AcDbEntity
  8
00_COMPONENTS_1
100
AcDbCircle
 62
7
  6
CONTINUOUS
 10
88.3498403607
 20
37.3149104824
 40
3.5519270786
100
AcDbArc
 50
334.1347600502
 51
339.916264005
  0
ARC
  5
384
100
AcDbEntity
  8
00_COMPONENTS_1
100
AcDbCircle
 62
7
  6
CONTINUOUS
 10
88.3553110409
 20
37.5440727384
 40
3.5462630212
100
AcDbArc
 50
335.5077060417
 51
340.2152115251
  0
ARC
  5
385
100
AcDbEntity
  8
00_COMPONENTS_1
100
AcDbCircle
 62
7
  6
CONTINUOUS
 10
88.4119821165
 20
37.5238863171
 40
3.4861043428
100
AcDbArc
 50
340.2121273245
 51
345.7952251033
  0
ARC
  5
386
100
AcDbEntity
  8
00_COMPONENTS_1
100
AcDbCircle
 62
7
  6
CONTINUOUS
 10
88.416669863
 20
37.2916175422
 40
3.4811628903
100
AcDbArc
 50
339.8986160023
 51
347.7727023315
  0
ARC
  5
387
100
AcDbEntity
  8
00_COMPONENTS_1
100
AcDbCircle
 62
7
  6
CONTINUOUS
 10
88.3293525795
 20
36.6901270425
 40
2.6363303942
100
AcDbArc
 50
213.055986354
 51
218.3955781217
  0
ARC
  5
388
100
AcDbEntity
  8
00_COMPONENTS_1
100
AcDbCircle
 62
7
  6
CONTINUOUS
 10
88.1809942912
 20
36.5928849148
 40
2.4589442234
100
AcDbArc
 50
211.6981946828
 51
213.0424936139
  0
ARC
  5
389
100
AcDbEntity
  8
00_COMPONENTS_1
100
AcDbCircle
 62
7
  6
CONTINUOUS
 10
87.945391571
 20
36.4497351693
 40
2.1832705319
100
AcDbArc
 50
208.9937522164
 51
211.7506932286
  0
ARC
  5
38A
100
AcDbEntity
  8
00_COMPONENTS_1
100
AcDbCircle
 62
7
  6
CONTINUOUS
 10
89.0093917314
 20
37.599693781
 40
3.6321054885
100
AcDbArc
 50
217.270114028
 51
221.9562986047
  0
ARC
  5
38B
100
AcDbEntity
  8
00_COMPONENTS_1
100
AcDbCircle
 62
7
  6
CONTINUOUS
 10
89.0057422035
 20
37.5962709992
 40
3.6271031532
100
AcDbArc
 50
221.9546332174
 51
225.2205456749
  0
ARC
  5
38C
100
AcDbEntity
  8
00_COMPONENTS_1
100
AcDbCircle
 62
7
  6
CONTINUOUS
 10
88.9935778237
 20
37.5875077896
 40
3.6121414373
100
AcDbArc
 50
215.5266325901
 51
217.2681946973
  0
ARC
  5
38D
100
AcDbEntity
  8
00_COMPONENTS_1
100
AcDbCircle
 62
7
  6
CONTINUOUS
 10
88.9712231253
 20
37.5716956894
 40
3.5847600526
100
AcDbArc
 50
212.450752013
 51
215.5285712015
  0
ARC
  5
38E
100
AcDbEntity
  8
00_COMPONENTS_1
100
AcDbCircle
 62
7
  6
CONTINUOUS
 10
88.6882337246
 20
37.9800403505
 40
3.2091069031
100
AcDbArc
 50
332.4230629645
 51
337.9335416863
  0
ARC
  5
38F
100
AcDbEntity
  8
00_COMPONENTS_1
100
AcDbCircle
 62
7
  6
CONTINUOUS
 10
88.6023337413
 20
37.9792256885
 40
3.2073804698
100
AcDbArc
 50
199.3004186132
 51
213.2685067377
  0
ARC
  5
390
100
AcDbEntity
  8
00_COMPONENTS_1
100
AcDbCircle
 62
7
  6
CONTINUOUS
 10
88.5986496992
 20
37.9770790423
 40
3.2031229908
100
AcDbArc
 50
213.2726196604
 51
214.6989567906
  0
ARC
  5
391
100
AcDbEntity
  8
00_COMPONENTS_1
100
AcDbCircle
 62
7
  6
CONTINUOUS
 10
88.7017548878
 20
37.9744251061
 40
3.1944666398
100
AcDbArc
 50
337.9357705086
 51
340.7066007826
  0
ARC
  5
392
100
AcDbEntity
  8
00_COMPONENTS_1
100
AcDbCircle
 62
7
  6
CONTINUOUS
 10
88.5899893076
 20
35.8568056033
 40
3.1939465929
100
AcDbArc
 50
150.2073993176
 51
179.9865943501
  0
ARC
  5
393
100
AcDbEntity
  8
00_COMPONENTS_1
100
AcDbCircle
 62
7
  6
CONTINUOUS
 10
88.7020962966
 20
35.8568056033
 40
3.1939465929
100
AcDbArc
 50
0.0134056499
 51
29.7926006824
  0
ARC
  5
394
100
AcDbEntity
  8
00_COMPONENTS_1
100
AcDbCircle
 62
7
  6
CONTINUOUS
 10
88.7210428021
 20
36.6626313104
 40
2.8004629934
100
AcDbArc
 50
164.2332529746
 51
16.198607662
  0
ARC
  5
395
100
AcDbEntity
  8
00_COMPONENTS_1
100
AcDbCircle
 62
7
  6
CONTINUOUS
 10
88.6898639709
 20
42.4653005147
 40
2.9938211688
100
AcDbArc
 50
180.0001911012
 51
180.8979014192
  0
CIRCLE
  5
396
100
AcDbEntity
  8
00_COMPONENTS_1
100
AcDbCircle
 62
7
  6
CONTINUOUS
 10
88.6460428021
 20
42.6437559489
 40
3.25
  0
ARC
  5
397
100
AcDbEntity
  8
00_COMPONENTS_1
100
AcDbCircle
 62
7
  6
CONTINUOUS
 10
88.7158890574
 20
42.4838156299
 40
3.0418834169
100
AcDbArc
 50
289.2474858004
 51
291.6566129312
  0
ARC
  5
398
100
AcDbEntity
  8
00_COMPONENTS_1
100
AcDbCircle
 62
7
  6
CONTINUOUS
 10
88.7261461843
 20
42.4835988953
 40
3.0416630524
100
AcDbArc
 50
247.7935242245
 51
250.1925689513
  0
ARC
  5
399
100
AcDbEntity
  8
00_COMPONENTS_1
100
AcDbCircle
 62
7
  6
CONTINUOUS
 10
88.7256892728
 20
42.4822815884
 40
3.0402688526
100
AcDbArc
 50
250.1922579337
 51
252.7276788064
  0
ARC
  5
39A
100
AcDbEntity
  8
00_COMPONENTS_1
100
AcDbCircle
 62
7
  6
CONTINUOUS
 10
88.7125249259
 20
42.4514817759
 40
3.0394918584
100
AcDbArc
 50
48.451664152
 51
48.9752607502
  0
ARC
  5
39B
100
AcDbEntity
  8
00_COMPONENTS_1
100
AcDbCircle
 62
7
  6
CONTINUOUS
 10
88.7168160963
 20
42.4492684602
 40
3.0392161272
100
AcDbArc
 50
66.4031192156
 51
75.7691777193
  0
ARC
  5
39C
100
AcDbEntity
  8
00_COMPONENTS_1
100
AcDbCircle
 62
7
  6
CONTINUOUS
 10
88.7168008504
 20
42.4811367779
 40
3.0390537316
100
AcDbArc
 50
286.4298383448
 51
289.2479053676
  0
ARC
  5
39D
100
AcDbEntity
  8
00_COMPONENTS_1
100
AcDbCircle
 62
7
  6
CONTINUOUS
 10
88.7170658285
 20
42.4808862194
 40
3.0387265075
100
AcDbArc
 50
291.6563748477
 51
293.9460211234
  0
ARC
  5
39E
100
AcDbEntity
  8
00_COMPONENTS_1
100
AcDbCircle
 62
7
  6
CONTINUOUS
 10
88.7245782347
 20
42.4797889586
 40
3.0375431074
100
AcDbArc
 50
245.5316500243
 51
247.7937449784
  0
ARC
  5
39F
100
AcDbEntity
  8
00_COMPONENTS_1
100
AcDbCircle
 62
7
  6
CONTINUOUS
 10
88.7280015478
 20
42.4532571367
 40
3.0371309737
100
AcDbArc
 50
123.6779513101
 51
133.5516398224
  0
ARC
  5
3A0
100
AcDbEntity
  8
00_COMPONENTS_1
100
AcDbCircle
 62
7
  6
CONTINUOUS
 10
88.7113684107
 20
42.4573146346
 40
3.0366332582
100
AcDbArc
 50
29.5110850329
 51
32.8361827949
  0
ARC
  5
3A1
100
AcDbEntity
  8
00_COMPONENTS_1
100
AcDbCircle
 62
7
  6
CONTINUOUS
 10
88.7144565108
 20
42.4538481466
 40
3.0364387448
100
AcDbArc
 50
48.9734490707
 51
55.4902205732
  0
ARC
  5
3A2
100
AcDbEntity
  8
00_COMPONENTS_1
100
AcDbCircle
 62
7
  6
CONTINUOUS
 10
88.7238375322
 20
42.452836304
 40
3.0353743244
100
AcDbArc
 50
109.2250427724
 51
117.7937100632
  0
ARC
  5
3A3
100
AcDbEntity
  8
00_COMPONENTS_1
100
AcDbCircle
 62
7
  6
CONTINUOUS
 10
88.7108845295
 20
42.4679307357
 40
3.0352728093
100
AcDbArc
 50
348.667454917
 51
352.4322032634
  0
ARC
  5
3A4
100
AcDbEntity
  8
00_COMPONENTS_1
100
AcDbCircle
 62
7
  6
CONTINUOUS
 10
88.7311514752
 20
42.4626576616
 40
3.0352226881
100
AcDbArc
 50
169.0794451094
 51
172.3789622821
  0
ARC
  5
3A5
100
AcDbEntity
  8
00_COMPONENTS_1
100
AcDbCircle
 62
7
  6
CONTINUOUS
 10
88.7310997373
 20
42.4678972257
 40
3.03516754
100
AcDbArc
 50
189.1786135622
 51
192.3987797914
  0
ARC
  5
3A6
100
AcDbEntity
  8
00_COMPONENTS_1
100
AcDbCircle
 62
7
  6
CONTINUOUS
 10
88.7110449344
 20
42.4626949748
 40
3.0351074595
100
AcDbArc
 50
9.2538194723
 51
12.4686145411
  0
ARC
  5
3A7
100
AcDbEntity
  8
00_COMPONENTS_1
100
AcDbCircle
 62
7
  6
CONTINUOUS
 10
88.7180728221
 20
42.4769316296
 40
3.0346605274
100
AcDbArc
 50
286.2581752141
 51
286.4292597598
  0
ARC
  5
3A8
100
AcDbEntity
  8
00_COMPONENTS_1
100
AcDbCircle
 62
7
  6
CONTINUOUS
 10
88.7289129076
 20
42.4723142209
 40
3.034593796
100
AcDbArc
 50
205.8042740233
 51
209.2420161554
  0
ARC
  5
3A9
100
AcDbEntity
  8
00_COMPONENTS_1
100
AcDbCircle
 62
7
  6
CONTINUOUS
 10
88.7118807846
 20
42.4677269413
 40
3.0342559317
100
AcDbArc
 50
347.7876382387
 51
348.6675314637
  0
ARC
  5
3AA
100
AcDbEntity
  8
00_COMPONENTS_1
100
AcDbCircle
 62
7
  6
CONTINUOUS
 10
88.7166907624
 20
42.4742721918
 40
3.0331256302
100
AcDbArc
 50
300.7232836853
 51
314.1338935929
  0
ARC
  5
3AB
100
AcDbEntity
  8
00_COMPONENTS_1
100
AcDbCircle
 62
7
  6
CONTINUOUS
 10
88.7287494882
 20
42.4631530317
 40
3.0327703526
100
AcDbArc
 50
166.0458983807
 51
169.0800373504
  0
ARC
  5
3AC
100
AcDbEntity
  8
00_COMPONENTS_1
100
AcDbCircle
 62
7
  6
CONTINUOUS
 10
88.7140473438
 20
42.4631322539
 40
3.0320738069
100
AcDbArc
 50
5.4193796156
 51
9.254787436
  0
ARC
  5
3AD
100
AcDbEntity
  8
00_COMPONENTS_1
100
AcDbCircle
 62
7
  6
CONTINUOUS
 10
88.727837639
 20
42.4674227423
 40
3.0318715244
100
AcDbArc
 50
185.3370179969
 51
189.1795950802
  0
ARC
  5
3AE
100
AcDbEntity
  8
00_COMPONENTS_1
100
AcDbCircle
 62
7
  6
CONTINUOUS
 10
88.7231294646
 20
42.4739131777
 40
3.0315176826
100
AcDbArc
 50
252.8285369689
 51
255.7166024725
  0
ARC
  5
3AF
100
AcDbEntity
  8
00_COMPONENTS_1
100
AcDbCircle
 62
7
  6
CONTINUOUS
 10
88.7202667619
 20
42.4736993253
 40
3.0308590207
100
AcDbArc
 50
293.9458616291
 51
296.109586383
  0
ARC
  5
3B0
100
AcDbEntity
  8
00_COMPONENTS_1
100
AcDbCircle
 62
7
  6
CONTINUOUS
 10
88.7263186103
 20
42.4668494305
 40
3.0302729471
100
AcDbArc
 50
192.3988406772
 51
194.228371047
  0
ARC
  5
3B1
100
AcDbEntity
  8
00_COMPONENTS_1
100
AcDbCircle
 62
7
  6
CONTINUOUS
 10
88.7159838784
 20
42.4668144554
 40
3.0300526665
100
AcDbArc
 50
345.333956833
 51
347.7880899012
  0
ARC
  5
3B2
100
AcDbEntity
  8
00_COMPONENTS_1
100
AcDbCircle
 62
7
  6
CONTINUOUS
 10
88.7212044818
 20
42.4723798092
 40
3.0294019957
100
AcDbArc
 50
243.5868931683
 51
245.5316870438
  0
ARC
  5
3B3
100
AcDbEntity
  8
00_COMPONENTS_1
100
AcDbCircle
 62
7
  6
CONTINUOUS
 10
88.7226398489
 20
42.471542309
 40
3.0292482162
100
AcDbArc
 50
221.6697298489
 51
229.0420406654
  0
ARC
  5
3B4
100
AcDbEntity
  8
00_COMPONENTS_1
100
AcDbCircle
 62
7
  6
CONTINUOUS
 10
88.7230250895
 20
42.4708844782
 40
3.029003716
100
AcDbArc
 50
229.0702335192
 51
239.2384198252
  0
ARC
  5
3B5
100
AcDbEntity
  8
00_COMPONENTS_1
100
AcDbCircle
 62
7
  6
CONTINUOUS
 10
88.7180514105
 20
42.4642704237
 40
3.0279260884
100
AcDbArc
 50
12.468130895
 51
15.4433129428
  0
ARC
  5
3B6
100
AcDbEntity
  8
00_COMPONENTS_1
100
AcDbCircle
 62
7
  6
CONTINUOUS
 10
88.7200170146
 20
42.4700454876
 40
3.0275054555
100
AcDbArc
 50
283.299453897
 51
286.2593379996
  0
ARC
  5
3B7
100
AcDbEntity
  8
00_COMPONENTS_1
100
AcDbCircle
 62
7
  6
CONTINUOUS
 10
88.7210714495
 20
42.4701536027
 40
3.0271192351
100
AcDbArc
 50
314.1286666778
 51
316.3197269117
  0
ARC
  5
3B8
100
AcDbEntity
  8
00_COMPONENTS_1
100
AcDbCircle
 62
7
  6
CONTINUOUS
 10
88.722976589
 20
42.46370161
 40
3.026981563
100
AcDbArc
 50
172.3780266723
 51
175.9781635602
  0
ARC
  5
3B9
100
AcDbEntity
  8
00_COMPONENTS_1
100
AcDbCircle
 62
7
  6
CONTINUOUS
 10
88.7201287132
 20
42.4689194219
 40
3.0268546467
100
AcDbArc
 50
334.1510058788
 51
335.2828058131
  0
ARC
  5
3BA
100
AcDbEntity
  8
00_COMPONENTS_1
100
AcDbCircle
 62
7
  6
CONTINUOUS
 10
88.7202191159
 20
42.461941892
 40
3.0266515086
100
AcDbArc
 50
21.3811025793
 51
29.5173863468
  0
ARC
  5
3BB
100
AcDbEntity
  8
00_COMPONENTS_1
100
AcDbCircle
 62
7
  6
CONTINUOUS
 10
88.719561112
 20
42.4668308414
 40
3.0265269474
100
AcDbArc
 50
352.4312115416
 51
356.1424716785
  0
ARC
  5
3BC
100
AcDbEntity
  8
00_COMPONENTS_1
100
AcDbCircle
 62
7
  6
CONTINUOUS
 10
88.7215591446
 20
42.461458739
 40
3.0264825927
100
AcDbArc
 50
100.4213416884
 51
109.2380650219
  0
ARC
  5
3BD
100
AcDbEntity
  8
00_COMPONENTS_1
100
AcDbCircle
 62
7
  6
CONTINUOUS
 10
88.7207546539
 20
42.4654468779
 40
3.0245349422
100
AcDbArc
 50
194.228523028
 51
195.3790626795
  0
ARC
  5
3BE
100
AcDbEntity
  8
00_COMPONENTS_1
100
AcDbCircle
 62
7
  6
CONTINUOUS
 10
88.7251185738
 20
42.4642169021
 40
3.020949625
100
AcDbArc
 50
3.4079044475
 51
5.4187314079
  0
ARC
  5
3BF
100
AcDbEntity
  8
00_COMPONENTS_1
100
AcDbCircle
 62
7
  6
CONTINUOUS
 10
88.7171548323
 20
42.4644649494
 40
3.0208036105
100
AcDbArc
 50
195.3792128683
 51
195.7605401868
  0
ARC
  5
3C0
100
AcDbEntity
  8
00_COMPONENTS_1
100
AcDbCircle
 62
7
  6
CONTINUOUS
 10
88.7251199642
 20
42.4637936134
 40
3.0198283046
100
AcDbArc
 50
296.1096138331
 51
297.9800742433
  0
ARC
  5
3C1
100
AcDbEntity
  8
00_COMPONENTS_1
100
AcDbCircle
 62
7
  6
CONTINUOUS
 10
88.7273645688
 20
42.4638042247
 40
3.018280638
100
AcDbArc
 50
342.509910575
 51
345.3345402786
  0
ARC
  5
3C2
100
AcDbEntity
  8
00_COMPONENTS_1
100
AcDbCircle
 62
7
  6
CONTINUOUS
 10
88.7279322219
 20
42.4653586357
 40
3.0182771683
100
AcDbArc
 50
335.2822666969
 51
337.3887308302
  0
ARC
  5
3C3
100
AcDbEntity
  8
00_COMPONENTS_1
100
AcDbCircle
 62
7
  6
CONTINUOUS
 10
88.7275578704
 20
42.4633309188
 40
3.0177327436
100
AcDbArc
 50
318.8345631967
 51
334.1849959183
  0
ARC
  5
3C4
100
AcDbEntity
  8
00_COMPONENTS_1
100
AcDbCircle
 62
7
  6
CONTINUOUS
 10
88.712830065
 20
42.4644948895
 40
3.016804389
100
AcDbArc
 50
175.9796769102
 51
176.5927353568
  0
ARC
  5
3C5
100
AcDbEntity
  8
00_COMPONENTS_1
100
AcDbCircle
 62
7
  6
CONTINUOUS
 10
88.7301998592
 20
42.4660261875
 40
3.0158581707
100
AcDbArc
 50
356.1441264485
 51
356.7474627613
  0
ARC
  5
3C6
100
AcDbEntity
  8
00_COMPONENTS_1
100
AcDbCircle
 62
7
  6
CONTINUOUS
 10
88.7292613534
 20
42.4623205276
 40
3.0157864721
100
AcDbArc
 50
316.3198921474
 51
318.0290395601
  0
ARC
  5
3C7
100
AcDbEntity
  8
00_COMPONENTS_1
100
AcDbCircle
 62
7
  6
CONTINUOUS
 10
88.7114169504
 20
42.4676537438
 40
3.0148639953
100
AcDbArc
 50
160.7485250294
 51
166.0494758859
  0
ARC
  5
3C8
100
AcDbEntity
  8
00_COMPONENTS_1
100
AcDbCircle
 62
7
  6
CONTINUOUS
 10
88.7115279698
 20
42.4697431028
 40
3.0138323369
100
AcDbArc
 50
133.5406073451
 51
151.2808430859
  0
ARC
  5
3C9
100
AcDbEntity
  8
00_COMPONENTS_1
100
AcDbCircle
 62
7
  6
CONTINUOUS
 10
88.7187111244
 20
42.4563430877
 40
3.0134006476
100
AcDbArc
 50
255.7155927727
 51
259.0675285954
  0
ARC
  5
3CA
100
AcDbEntity
  8
00_COMPONENTS_1
100
AcDbCircle
 62
7
  6
CONTINUOUS
 10
88.7321393489
 20
42.4681805815
 40
3.0133055393
100
AcDbArc
 50
15.484344051
 51
18.200096415
  0
ARC
  5
3CB
100
AcDbEntity
  8
00_COMPONENTS_1
100
AcDbCircle
 62
7
  6
CONTINUOUS
 10
88.7092597476
 20
42.4657891525
 40
3.0132222267
100
AcDbArc
 50
180.9014121673
 51
185.3389478861
  0
ARC
  5
3CC
100
AcDbEntity
  8
00_COMPONENTS_1
100
AcDbCircle
 62
7
  6
CONTINUOUS
 10
88.7108472463
 20
42.4602820837
 40
3.0129531187
100
AcDbArc
 50
209.2101874734
 51
221.6588690393
  0
ARC
  5
3CD
100
AcDbEntity
  8
00_COMPONENTS_1
100
AcDbCircle
 62
7
  6
CONTINUOUS
 10
88.7093264444
 20
42.4622040164
 40
3.01265542
100
AcDbArc
 50
195.759596748
 51
198.1391933034
  0
ARC
  5
3CE
100
AcDbEntity
  8
00_COMPONENTS_1
100
AcDbCircle
 62
7
  6
CONTINUOUS
 10
88.7236717241
 20
42.4755303773
 40
3.0120747979
100
AcDbArc
 50
75.7727788495
 51
79.3669641298
  0
ARC
  5
3CF
100
AcDbEntity
  8
00_COMPONENTS_1
100
AcDbCircle
 62
7
  6
CONTINUOUS
 10
88.7319301911
 20
42.4713789359
 40
3.0117306123
100
AcDbArc
 50
32.8234789921
 51
48.4768903922
  0
ARC
  5
3D0
100
AcDbEntity
  8
00_COMPONENTS_1
100
AcDbCircle
 62
7
  6
CONTINUOUS
 10
88.7069201627
 20
42.4688350696
 40
3.0102291872
100
AcDbArc
 50
151.223542894
 51
160.7415322122
  0
ARC
  5
3D1
100
AcDbEntity
  8
00_COMPONENTS_1
100
AcDbCircle
 62
7
  6
CONTINUOUS
 10
88.729447464
 20
42.475693695
 40
3.0099442905
100
AcDbArc
 50
55.4897724794
 51
66.4221012403
  0
ARC
  5
3D2
100
AcDbEntity
  8
00_COMPONENTS_1
100
AcDbCircle
 62
7
  6
CONTINUOUS
 10
88.7243209523
 20
42.4517548667
 40
3.0087152899
100
AcDbArc
 50
280.4123720132
 51
283.299817094
  0
ARC
  5
3D3
100
AcDbEntity
  8
00_COMPONENTS_1
100
AcDbCircle
 62
7
  6
CONTINUOUS
 10
88.738734554
 20
42.465001606
 40
3.0073110769
100
AcDbArc
 50
0.9913993732
 51
3.4084011994
  0
ARC
  5
3D4
100
AcDbEntity
  8
00_COMPONENTS_1
100
AcDbCircle
 62
7
  6
CONTINUOUS
 10
88.735942254
 20
42.4562815771
 40
3.0067807588
100
AcDbArc
 50
318.0294584809
 51
318.8305221181
  0
ARC
  5
3D5
100
AcDbEntity
  8
00_COMPONENTS_1
100
AcDbCircle
 62
7
  6
CONTINUOUS
 10
88.710077039
 20
42.4507363266
 40
3.0050679624
100
AcDbArc
 50
239.2540769369
 51
243.5933368646
  0
ARC
  5
3D6
100
AcDbEntity
  8
00_COMPONENTS_1
100
AcDbCircle
 62
7
  6
CONTINUOUS
 10
88.7006219018
 20
42.4594658064
 40
3.0035309916
100
AcDbArc
 50
198.1412502086
 51
205.8185386632
  0
ARC
  5
3D7
100
AcDbEntity
  8
00_COMPONENTS_1
100
AcDbCircle
 62
7
  6
CONTINUOUS
 10
88.6994243163
 20
42.4651797205
 40
3.0033816382
100
AcDbArc
 50
176.590577306
 51
179.9393103471
  0
ARC
  5
3D8
100
AcDbEntity
  8
00_COMPONENTS_1
100
AcDbCircle
 62
7
  6
CONTINUOUS
 10
88.7091840544
 20
42.4813346951
 40
3.0033309852
100
AcDbArc
 50
117.7999209724
 51
123.676241566
  0
ARC
  5
3D9
100
AcDbEntity
  8
00_COMPONENTS_1
100
AcDbCircle
 62
7
  6
CONTINUOUS
 10
88.743225847
 20
42.4653899164
 40
3.0028170674
100
AcDbArc
 50
356.74548201
 51
359.9395083166
  0
ARC
  5
3DA
100
AcDbEntity
  8
00_COMPONENTS_1
100
AcDbCircle
 62
7
  6
CONTINUOUS
 10
88.7426303243
 20
42.4592667658
 40
3.002366658
100
AcDbArc
 50
337.3882067041
 51
339.8543768945
  0
ARC
  5
3DB
100
AcDbEntity
  8
00_COMPONENTS_1
100
AcDbCircle
 62
7
  6
CONTINUOUS
 10
88.7341666997
 20
42.4469927996
 40
3.0007469193
100
AcDbArc
 50
297.9780326347
 51
300.702542698
  0
ARC
  5
3DC
100
AcDbEntity
  8
00_COMPONENTS_1
100
AcDbCircle
 62
7
  6
CONTINUOUS
 10
88.7448960346
 20
42.4582731051
 40
2.999897343
100
AcDbArc
 50
339.8572903231
 51
342.5100345087
  0
ARC
  5
3DD
100
AcDbEntity
  8
00_COMPONENTS_1
100
AcDbCircle
 62
7
  6
CONTINUOUS
 10
88.7450337758
 20
42.4721855045
 40
2.9998102198
100
AcDbArc
 50
20.5715078464
 51
21.3717067263
  0
ARC
  5
3DE
100
AcDbEntity
  8
00_COMPONENTS_1
100
AcDbCircle
 62
7
  6
CONTINUOUS
 10
88.7158243164
 20
42.4420282411
 40
2.9987981093
100
AcDbArc
 50
259.0698132868
 51
259.4753841921
  0
ARC
  5
3DF
100
AcDbEntity
  8
00_COMPONENTS_1
100
AcDbCircle
 62
7
  6
CONTINUOUS
 10
88.7500745064
 20
42.4740848057
 40
2.9944235455
100
AcDbArc
 50
18.1999617053
 51
20.5713739312
  0
ARC
  5
3E0
100
AcDbEntity
  8
00_COMPONENTS_1
100
AcDbCircle
 62
7
  6
CONTINUOUS
 10
88.7518340743
 20
42.4652784536
 40
2.9942087278
100
AcDbArc
 50
0.0002317327
 51
0.990439648
  0
CIRCLE
  5
3E1
100
AcDbEntity
  8
00_COMPONENTS_1
100
AcDbCircle
 62
7
  6
CONTINUOUS
 10
71.7010428021
 20
115.043755949
 40
4.5
  0
ARC
  5
3E2
100
AcDbEntity
  8
00_COMPONENTS_1
100
AcDbCircle
 62
7
  6
CONTINUOUS
 10
59.6510428021
 20
104.1899280576
 40
4.0
100
AcDbArc
 50
179.9999999978
 51
360.0
  0
ARC
  5
3E3
100
AcDbEntity
  8
00_COMPONENTS_1
100
AcDbCircle
 62
7
  6
CONTINUOUS
 10
67.8217927844
 20
121.7233552369
 40
3.1
100
AcDbArc
 50
45.4346741079
 51
113.3850617958
  0
ARC
  5
3E4
100
AcDbEntity
  8
00_COMPONENTS_1
100
AcDbCircle
 62
7
  6
CONTINUOUS
 10
59.6510428021
 20
104.1899280576
 40
2.8957260181
100
AcDbArc
 50
156.8215656755
 51
23.1784343245
  0
ARC
  5
3E5
100
AcDbEntity
  8
00_COMPONENTS_1
100
AcDbCircle
 62
7
  6
CONTINUOUS
 10
71.4010428021
 20
115.3513349469
 40
2.5981038024
100
AcDbArc
 50
252.0662636261
 51
287.9337363739
  0
ARC
  5
3E6
100
AcDbEntity
  8
00_COMPONENTS_1
100
AcDbCircle
 62
7
  6
CONTINUOUS
 10
71.4010428021
 20
115.3513349469
 40
2.5981038024
100
AcDbArc
 50
72.0662636261
 51
107.9337363739
  0
ARC
  5
3E7
100
AcDbEntity
  8
00_COMPONENTS_1
100
AcDbCircle
 62
7
  6
CONTINUOUS
 10
59.6510428021
 20
104.1899280576
 40
1.9343306491
100
AcDbArc
 50
163.2043270755
 51
196.7956729241
  0
ARC
  5
3E8
100
AcDbEntity
  8
00_COMPONENTS_1
100
AcDbCircle
 62
7
  6
CONTINUOUS
 10
59.6510428021
 20
104.1899280576
 40
1.9343306491
100
AcDbArc
 50
343.2200877092
 51
16.7956729241
  0
ARC
  5
3E9
100
AcDbEntity
  8
00_COMPONENTS_1
100
AcDbCircle
 62
7
  6
CONTINUOUS
 10
71.7010428021
 20
142.343755949
 40
18.5
100
AcDbArc
 50
251.0753555839
 51
288.9246444161
  0
ARC
  5
3EA
100
AcDbEntity
  8
00_COMPONENTS_1
100
AcDbCircle
 62
7
  6
CONTINUOUS
 10
89.0093179569
 20
111.6878991931
 40
3.6319984618
100
AcDbArc
 50
138.0656491551
 51
142.7437085876
  0
ARC
  5
3EB
100
AcDbEntity
  8
00_COMPONENTS_1
100
AcDbCircle
 62
7
  6
CONTINUOUS
 10
89.0056057511
 20
111.6913770108
 40
3.6269127612
100
AcDbArc
 50
134.7735567901
 51
138.0673299824
  0
ARC
  5
3EC
100
AcDbEntity
  8
00_COMPONENTS_1
100
AcDbCircle
 62
7
  6
CONTINUOUS
 10
88.9804500322
 20
111.709636633
 40
3.5958620175
100
AcDbArc
 50
142.740928081
 51
147.5450457591
  0
ARC
  5
3ED
100
AcDbEntity
  8
00_COMPONENTS_1
100
AcDbCircle
 62
7
  6
CONTINUOUS
 10
88.3220227977
 20
111.7267520748
 40
3.58348052
100
AcDbArc
 50
25.4689410163
 51
33.9674687707
  0
ARC
  5
3EE
100
AcDbEntity
  8
00_COMPONENTS_1
100
AcDbCircle
 62
7
  6
CONTINUOUS
 10
88.3456952694
 20
111.7391646452
 40
3.5567710468
100
AcDbArc
 50
23.3436121896
 51
25.4524032563
  0
ARC
  5
3EF
100
AcDbEntity
  8
00_COMPONENTS_1
100
AcDbCircle
 62
7
  6
CONTINUOUS
 10
88.3498299898
 20
111.9725963053
 40
3.5519386398
100
AcDbArc
 50
20.0883561093
 51
25.8652411415
  0
ARC
  5
3F0
100
AcDbEntity
  8
00_COMPONENTS_1
100
AcDbCircle
 62
7
  6
CONTINUOUS
 10
88.3669490899
 20
111.7481015318
 40
3.5337157716
100
AcDbArc
 50
18.5069392396
 51
23.3471201137
  0
ARC
  5
3F1
100
AcDbEntity
  8
00_COMPONENTS_1
100
AcDbCircle
 62
7
  6
CONTINUOUS
 10
88.416642257
 20
111.9958874006
 40
3.481191359
100
AcDbArc
 50
12.2274863706
 51
20.1060289683
  0
ARC
  5
3F2
100
AcDbEntity
  8
00_COMPONENTS_1
100
AcDbCircle
 62
7
  6
CONTINUOUS
 10
88.4184822407
 20
111.7653926335
 40
3.4793591137
100
AcDbArc
 50
14.2241096227
 51
18.5062925883
  0
CIRCLE
  5
3F3
100
AcDbEntity
  8
00_COMPONENTS_1
100
AcDbCircle
 62
7
  6
CONTINUOUS
 10
88.6460428021
 20
106.6437559489
 40
3.25
  0
ARC
  5
3F4
100
AcDbEntity
  8
00_COMPONENTS_1
100
AcDbCircle
 62
7
  6
CONTINUOUS
 10
88.6877912237
 20
111.3072443364
 40
3.2096007233
100
AcDbArc
 50
22.1859033981
 51
27.7551956419
  0
ARC
  5
3F5
100
AcDbEntity
  8
00_COMPONENTS_1
100
AcDbCircle
 62
7
  6
CONTINUOUS
 10
88.6038518797
 20
111.3074715473
 40
3.2091069031
100
AcDbArc
 50
152.4230629645
 51
157.9335416863
  0
ARC
  5
3F6
100
AcDbEntity
  8
00_COMPONENTS_1
100
AcDbCircle
 62
7
  6
CONTINUOUS
 10
88.6021458938
 20
111.308374406
 40
3.2071767656
100
AcDbArc
 50
146.9670356559
 51
152.4232508494
  0
ARC
  5
3F7
100
AcDbEntity
  8
00_COMPONENTS_1
100
AcDbCircle
 62
7
  6
CONTINUOUS
 10
88.5995577622
 20
111.3097826414
 40
3.2042393362
100
AcDbArc
 50
145.307960112
 51
146.962918644
  0
ARC
  5
3F8
100
AcDbEntity
  8
00_COMPONENTS_1
100
AcDbCircle
 62
7
  6
CONTINUOUS
 10
88.7017331235
 20
111.3130639
 40
3.1944934924
100
AcDbArc
 50
19.2905697862
 51
22.1836782608
  0
ARC
  5
3F9
100
AcDbEntity
  8
00_COMPONENTS_1
100
AcDbCircle
 62
7
  6
CONTINUOUS
 10
88.5903307165
 20
111.3130867917
 40
3.1944666398
100
AcDbArc
 50
157.9357705085
 51
160.7066007825
  0
ARC
  5
3FA
100
AcDbEntity
  8
00_COMPONENTS_1
100
AcDbCircle
 62
7
  6
CONTINUOUS
 10
88.7020962966
 20
113.4307062945
 40
3.1939465929
100
AcDbArc
 50
330.2073993175
 51
359.9865943501
  0
ARC
  5
3FB
100
AcDbEntity
  8
00_COMPONENTS_1
100
AcDbCircle
 62
7
  6
CONTINUOUS
 10
88.5899893076
 20
113.4307062945
 40
3.1939465929
100
AcDbArc
 50
180.0134056499
 51
209.7926006826
  0
ARC
  5
3FC
100
AcDbEntity
  8
00_COMPONENTS_1
100
AcDbCircle
 62
7
  6
CONTINUOUS
 10
88.7210428021
 20
112.6248805874
 40
2.8004629934
100
AcDbArc
 50
343.8013971013
 51
195.7652644592
  0
ARC
  5
3FD
100
AcDbEntity
  8
00_COMPONENTS_1
100
AcDbCircle
 62
7
  6
CONTINUOUS
 10
88.0035047662
 20
112.8037203825
 40
2.250608681
100
AcDbArc
 50
148.2924866313
 51
150.9660229476
  0
ARC
  5
3FE
100
AcDbEntity
  8
00_COMPONENTS_1
100
AcDbCircle
 62
7
  6
CONTINUOUS
 10
86.656632974
 20
132.6966146804
 40
4.9944098281
100
AcDbArc
 50
0.0
 51
88.7994009412
  0
LINE
  5
3FF
100
AcDbEntity
  8
00_COMPONENTS_1
100
AcDbLine
 62
7
  6
CONTINUOUS
 10
89.2741324972
 20
45.4368790276
 11
89.279453939
 21
45.435885207
  0
LINE
  5
400
100
AcDbEntity
  8
00_COMPONENTS_1
100
AcDbLine
 62
7
  6
CONTINUOUS
 10
91.6360722614
 20
43.272657997
 11
91.6366523523
 21
43.2705612765
  0
LINE
  5
401
100
AcDbEntity
  8
00_COMPONENTS_1
100
AcDbLine
 62
7
  6
CONTINUOUS
 10
87.8281277585
 20
39.5775238037
 11
87.8229920799
 21
39.5791156486
  0
LINE
  5
402
100
AcDbEntity
  8
00_COMPONENTS_1
100
AcDbLine
 62
7
  6
CONTINUOUS
 10
86.7386235602
 20
40.1824321449
 11
86.7369522371
 21
40.1838820493
  0
SPLINE
  5
403
100
AcDbEntity
  8
00_COMPONENTS_1
100
AcDbSpline
 62
7
  6
CONTINUOUS
 70
0
 71
3
 72
11
 73
7
 74
0
 42
0.0000001
 43
0.0000001
 44
0.0000000001
 40
0.0
 40
0.0
 40
0.0
 40
0.0
 40
0.2502663203
 40
0.5001745364
 40
0.7500827525
 40
1.0
 40
1.0
 40
1.0
 40
1.0
 10
86.6485783575
 20
11.6899577622
 30
0.0
 10
87.2226828196
 20
11.6896742176
 30
0.0
 10
88.370009752
 20
11.8871333926
 30
0.0
 10
89.8890031491
 20
12.7419356866
 30
0.0
 10
91.0279208343
 20
14.0543099729
 30
0.0
 10
91.4453394491
 20
15.1319485646
 30
0.0
 10
91.5563730549
 20
15.6899885556
 30
0.0
  0
SPLINE
  5
404
100
AcDbEntity
  8
00_COMPONENTS_1
100
AcDbSpline
 62
7
  6
CONTINUOUS
 70
0
 71
3
 72
11
 73
7
 74
0
 42
0.0000001
 43
0.0000001
 44
0.0000000001
 40
0.0
 40
0.0
 40
0.0
 40
0.0
 40
0.2499055875
 40
0.499800868
 40
0.7496961486
 40
1.0
 40
1.0
 40
1.0
 40
1.0
 10
16.9457468087
 20
15.6899971045
 30
0.0
 10
17.0568220934
 20
15.1319542569
 30
0.0
 10
17.4743990879
 20
14.0543127668
 30
0.0
 10
18.6137501631
 20
12.7419366277
 30
0.0
 10
20.1334212491
 20
11.8870768879
 30
0.0
 10
21.2813122713
 20
11.6896352185
 30
0.0
 10
21.8557501274
 20
11.6899586648
 30
0.0
  0
SPLINE
  5
405
100
AcDbEntity
  8
00_COMPONENTS_1
100
AcDbSpline
 62
7
  6
CONTINUOUS
 70
0
 71
3
 72
9
 73
5
 74
0
 42
0.0000001
 43
0.0000001
 44
0.0000000001
 40
0.0
 40
0.0
 40
0.0
 40
0.0
 40
0.211051604
 40
1.0
 40
1.0
 40
1.0
 40
1.0
 10
85.9462182499
 20
35.6043615454
 30
0.0
 10
85.9462182499
 20
35.6030905232
 30
0.0
 10
85.9464908754
 20
35.59706824
 30
0.0
 10
85.9475843466
 20
35.5911132406
 30
0.0
 10
85.9486218239
 20
35.5864765869
 30
0.0
  0
SPLINE
  5
406
100
AcDbEntity
  8
00_COMPONENTS_1
100
AcDbSpline
 62
7
  6
CONTINUOUS
 70
0
 71
3
 72
9
 73
5
 74
0
 42
0.0000001
 43
0.0000001
 44
0.0000000001
 40
0.0
 40
0.0
 40
0.0
 40
0.0
 40
0.3926266871
 40
1.0
 40
1.0
 40
1.0
 40
1.0
 10
85.9486218239
 20
35.5864765869
 30
0.0
 10
85.9547356403
 20
35.5591529534
 30
0.0
 10
85.9826188092
 20
35.4928472778
 30
0.0
 10
86.0147666816
 20
35.42936712
 30
0.0
 10
86.0357447289
 20
35.3914728419
 30
0.0
  0
SPLINE
  5
407
100
AcDbEntity
  8
00_COMPONENTS_1
100
AcDbSpline
 62
7
  6
CONTINUOUS
 70
0
 71
3
 72
9
 73
5
 74
0
 42
0.0000001
 43
0.0000001
 44
0.0000000001
 40
0.0
 40
0.0
 40
0.0
 40
0.0
 40
0.2259381573
 40
1.0
 40
1.0
 40
1.0
 40
1.0
 10
86.2631513242
 20
35.052735727
 30
0.0
 10
86.2946523309
 20
35.0129396014
 30
0.0
 10
86.4389871497
 20
34.840837028
 30
0.0
 10
86.6056102367
 20
34.6866164125
 30
0.0
 10
86.7462182499
 20
34.5843155083
 30
0.0
  0
SPLINE
  5
408
100
AcDbEntity
  8
00_COMPONENTS_1
100
AcDbSpline
 62
7
  6
CONTINUOUS
 70
0
 71
3
 72
9
 73
5
 74
0
 42
0.0000001
 43
0.0000001
 44
0.0000000001
 40
0.0
 40
0.0
 40
0.0
 40
0.0
 40
0.2714663992
 40
1.0
 40
1.0
 40
1.0
 40
1.0
 10
86.7462182499
 20
114.7031963896
 30
0.0
 10
86.6968808488
 20
114.6673004216
 30
0.0
 10
86.5207161174
 20
114.5274505675
 30
0.0
 10
86.3646931448
 20
114.3630694283
 30
0.0
 10
86.263072001
 20
114.2346759561
 30
0.0
  0
SPLINE
  5
409
100
AcDbEntity
  8
00_COMPONENTS_1
100
AcDbSpline
 62
7
  6
CONTINUOUS
 70
0
 71
3
 72
9
 73
5
 74
0
 42
0.0000001
 43
0.0000001
 44
0.0000000001
 40
0.0
 40
0.0
 40
0.0
 40
0.0
 40
0.2713949783
 40
1.0
 40
1.0
 40
1.0
 40
1.0
 10
86.263072001
 20
114.2346759561
 30
0.0
 10
86.2460459423
 20
114.2131643422
 30
0.0
 10
86.1845283495
 20
114.1329456456
 30
0.0
 10
86.1275083992
 20
114.0492727112
 30
0.0
 10
86.088816996
 20
113.9866025309
 30
0.0
  0
SPLINE
  5
40A
100
AcDbEntity
  8
00_COMPONENTS_1
100
AcDbSpline
 62
7
  6
CONTINUOUS
 70
0
 71
3
 72
9
 73
5
 74
0
 42
0.0000001
 43
0.0000001
 44
0.0000000001
 40
0.0
 40
0.0
 40
0.0
 40
0.0
 40
0.6073777152
 40
1.0
 40
1.0
 40
1.0
 40
1.0
 10
86.0357254516
 20
113.89600423
 30
0.0
 10
86.0147512837
 20
113.8581151651
 30
0.0
 10
85.9826096877
 20
113.7946443389
 30
0.0
 10
85.954732072
 20
113.7283483428
 30
0.0
 10
85.9486204174
 20
113.701029021
 30
0.0
  0
LINE
  5
40B
100
AcDbEntity
  8
00_COMPONENTS_1
100
AcDbLine
 62
7
  6
CONTINUOUS
 10
85.9486204174
 20
113.701029021
 11
85.9473443092
 21
113.6946121372
  0
SPLINE
  5
40C
100
AcDbEntity
  8
00_COMPONENTS_1
100
AcDbSpline
 62
7
  6
CONTINUOUS
 70
0
 71
3
 72
8
 73
4
 74
0
 42
0.0000001
 43
0.0000001
 44
0.0000000001
 40
0.0
 40
0.0
 40
0.0
 40
0.0
 40
1.0
 40
1.0
 40
1.0
 40
1.0
 10
85.9473443092
 20
113.6946121372
 30
0.0
 10
85.9466966974
 20
113.6908281665
 30
0.0
 10
85.9462182499
 20
113.6869893413
 30
0.0
 10
85.9462182499
 20
113.6831503524
 30
0.0
  0
SPLINE
  5
40D
100
AcDbEntity
  8
00_COMPONENTS_1
100
AcDbSpline
 62
7
  6
CONTINUOUS
 70
0
 71
3
 72
21
 73
17
 74
0
 42
0.0000001
 43
0.0000001
 44
0.0000000001
 40
0.0
 40
0.0
 40
0.0
 40
0.0
 40
0.0622432647
 40
0.1246078168
 40
0.1869983348
 40
0.2495106537
 40
0.3121423582
 40
0.3748837594
 40
0.4999913022
 40
0.6250981408
 40
0.687840988
 40
0.7504758171
 40
0.8129921356
 40
0.8753873621
 40
0.9377558914
 40
1.0
 40
1.0
 40
1.0
 40
1.0
 10
91.8960428021
 20
113.4299589982
 30
0.0
 10
91.8960428021
 20
113.6401760555
 30
0.0
 10
91.853918585
 20
114.0621764129
 30
0.0
 10
91.6679312113
 20
114.6698502577
 30
0.0
 10
91.3653612511
 20
115.2300181501
 30
0.0
 10
90.9585348937
 20
115.7207218845
 30
0.0
 10
90.4626652943
 20
116.1234042014
 30
0.0
 10
89.7111574445
 20
116.5216192102
 30
0.0
 10
88.6461376712
 20
116.7325661666
 30
0.0
 10
87.5810998328
 20
116.5216823732
 30
0.0
 10
86.8295598855
 20
116.1234965277
 30
0.0
 10
86.3336580099
 20
115.7208093585
 30
0.0
 10
85.9267717392
 20
115.230102615
 30
0.0
 10
85.6241754867
 20
114.6698978037
 30
0.0
 10
85.4381714604
 20
114.062195672
 30
0.0
 10
85.3960428021
 20
113.6401789057
 30
0.0
 10
85.3960428021
 20
113.4299589982
 30
0.0
  0
SPLINE
  5
40E
100
AcDbEntity
  8
00_COMPONENTS_1
100
AcDbSpline
 62
7
  6
CONTINUOUS
 70
0
 71
3
 72
21
 73
17
 74
0
 42
0.0000001
 43
0.0000001
 44
0.0000000001
 40
0.0
 40
0.0
 40
0.0
 40
0.0
 40
0.0622432647
 40
0.1246078168
 40
0.1869983348
 40
0.2495106537
 40
0.3121423582
 40
0.3748837594
 40
0.4999913022
 40
0.6250981408
 40
0.687840988
 40
0.7504758171
 40
0.8129921356
 40
0.8753873621
 40
0.9377558914
 40
1.0
 40
1.0
 40
1.0
 40
1.0
 10
85.3960428021
 20
35.8575528997
 30
0.0
 10
85.3960428021
 20
35.6473358424
 30
0.0
 10
85.4381670192
 20
35.2253354849
 30
0.0
 10
85.6241543929
 20
34.6176616402
 30
0.0
 10
85.9267243531
 20
34.0574937477
 30
0.0
 10
86.3335507106
 20
33.5667900134
 30
0.0
 10
86.82942031
 20
33.1641076965
 30
0.0
 10
87.5809281598
 20
32.7658926877
 30
0.0
 10
88.6459479331
 20
32.5549457313
 30
0.0
 10
89.7109857714
 20
32.7658295246
 30
0.0
 10
90.4625257187
 20
33.1640153702
 30
0.0
 10
90.9584275943
 20
33.5667025394
 30
0.0
 10
91.3653138651
 20
34.0574092829
 30
0.0
 10
91.6679101175
 20
34.6176140942
 30
0.0
 10
91.8539141439
 20
35.2253162259
 30
0.0
 10
91.8960428021
 20
35.6473329922
 30
0.0
 10
91.8960428021
 20
35.8575528997
 30
0.0
  0
ELLIPSE
  5
40F
100
AcDbEntity
  8
00_COMPONENTS_1
100
AcDbEllipse
 62
7
  6
CONTINUOUS
 10
88.7210428022
 20
42.3594225585
 30
0.0
 11
-2.4867885554
 21
0.0
 31
0.0
 40
0.9991868289
 41
9.1571471164
 42
9.6518548703
  0
ELLIPSE
  5
410
100
AcDbEntity
  8
00_COMPONENTS_1
100
AcDbEllipse
 62
7
  6
CONTINUOUS
 10
88.7210428022
 20
42.3594225585
 30
0.0
 11
-2.4867885554
 21
0.0
 31
0.0
 40
0.9991868289
 41
6.0156992477
 42
6.5104055072
  0
ELLIPSE
  5
411
100
AcDbEntity
  8
00_COMPONENTS_1
100
AcDbEllipse
 62
7
  6
CONTINUOUS
 10
88.7210428021
 20
42.4652905464
 30
0.0
 11
3.025
 21
0.0
 31
0.0
 40
0.9991868289
 41
1.3869259077
 42
1.7525961042
  0
ELLIPSE
  5
412
100
AcDbEntity
  8
00_COMPONENTS_1
100
AcDbEllipse
 62
7
  6
CONTINUOUS
 10
88.7210428021
 20
42.4652905464
 30
0.0
 11
3.025
 21
0.0
 31
0.0
 40
0.9991868289
 41
-1.7546274174
 42
-1.3889570745
  0
ELLIPSE
  5
413
100
AcDbEntity
  8
00_COMPONENTS_1
100
AcDbEllipse
 62
7
  6
CONTINUOUS
 10
88.7210428022
 20
106.9280893393
 30
0.0
 11
-2.4867885554
 21
0.0
 31
0.0
 40
0.9991868289
 41
6.0559651072
 42
6.5506713666
  0
ELLIPSE
  5
414
100
AcDbEntity
  8
00_COMPONENTS_1
100
AcDbEllipse
 62
7
  6
CONTINUOUS
 10
88.7210428021
 20
106.8222213514
 30
0.0
 11
3.025
 21
0.0
 31
0.0
 40
0.9991868289
 41
0.0010160132
 42
3.1415926479
  0
ELLIPSE
  5
415
100
AcDbEntity
  8
00_COMPONENTS_1
100
AcDbEllipse
 62
7
  6
CONTINUOUS
 10
88.7210428021
 20
106.8222213514
 30
0.0
 11
3.025
 21
0.0
 31
0.0
 40
0.9991868289
 41
3.1426085073
 42
6.2831853015
  0
ELLIPSE
  5
416
100
AcDbEntity
  8
00_COMPONENTS_1
100
AcDbEllipse
 62
7
  6
CONTINUOUS
 10
88.7210428022
 20
106.9280893393
 30
0.0
 11
-2.4867885554
 21
0.0
 31
0.0
 40
0.9991868289
 41
9.1977010513
 42
9.6924088051
  0
ELLIPSE
  5
417
100
AcDbEntity
  8
00_COMPONENTS_1
100
AcDbEllipse
 62
7
  6
CONTINUOUS
 10
47.9010428021
 20
115.3513349469
 30
0.0
 11
-2.6
 21
-0.0
 31
0.0
 40
0.9991943951
 41
1.8835797239
 42
4.3996055833
  0
ELLIPSE
  5
418
100
AcDbEntity
  8
00_COMPONENTS_1
100
AcDbEllipse
 62
7
  6
CONTINUOUS
 10
47.9010428021
 20
115.3513349469
 30
0.0
 11
-2.6
 21
-0.0
 31
0.0
 40
0.9991943951
 41
-1.2580129297
 42
1.2580129297
  0
ELLIPSE
  5
419
100
AcDbEntity
  8
00_COMPONENTS_1
100
AcDbEllipse
 62
7
  6
CONTINUOUS
 10
71.4010428021
 20
115.3513349469
 30
0.0
 11
-2.6
 21
-0.0
 31
0.0
 40
0.9991943951
 41
1.8835797239
 42
4.3996055833
  0
ELLIPSE
  5
41A
100
AcDbEntity
  8
00_COMPONENTS_1
100
AcDbEllipse
 62
7
  6
CONTINUOUS
 10
71.4010428021
 20
115.3513349469
 30
0.0
 11
-2.6
 21
-0.0
 31
0.0
 40
0.9991943951
 41
-1.2580129297
 42
1.2580129297
  0
ELLIPSE
  5
41B
100
AcDbEntity
  8
00_COMPONENTS_1
100
AcDbEllipse
 62
7
  6
CONTINUOUS
 10
24.4010428021
 20
33.936176951
 30
0.0
 11
-2.6
 21
0.0
 31
0.0
 40
0.9991943951
 41
-1.2580129297
 42
1.2580129297
  0
ELLIPSE
  5
41C
100
AcDbEntity
  8
00_COMPONENTS_1
100
AcDbEllipse
 62
7
  6
CONTINUOUS
 10
24.4010428021
 20
33.936176951
 30
0.0
 11
-2.6
 21
0.0
 31
0.0
 40
0.9991943951
 41
1.8835797238
 42
4.3996055833
  0
ELLIPSE
  5
41D
100
AcDbEntity
  8
00_COMPONENTS_1
100
AcDbEllipse
 62
7
  6
CONTINUOUS
 10
47.9010428021
 20
33.936176951
 30
0.0
 11
-2.6
 21
0.0
 31
0.0
 40
0.9991943951
 41
-1.2580129297
 42
1.2580129297
  0
ELLIPSE
  5
41E
100
AcDbEntity
  8
00_COMPONENTS_1
100
AcDbEllipse
 62
7
  6
CONTINUOUS
 10
47.9010428021
 20
33.936176951
 30
0.0
 11
-2.6
 21
0.0
 31
0.0
 40
0.9991943951
 41
1.8835797238
 42
4.3996055833
  0
ELLIPSE
  5
41F
100
AcDbEntity
  8
00_COMPONENTS_1
100
AcDbEllipse
 62
7
  6
CONTINUOUS
 10
71.4010428021
 20
33.936176951
 30
0.0
 11
-2.6
 21
0.0
 31
0.0
 40
0.9991943951
 41
-1.2580129297
 42
1.2580129297
  0
ELLIPSE
  5
420
100
AcDbEntity
  8
00_COMPONENTS_1
100
AcDbEllipse
 62
7
  6
CONTINUOUS
 10
71.4010428021
 20
33.936176951
 30
0.0
 11
-2.6
 21
0.0
 31
0.0
 40
0.9991943951
 41
1.8835797238
 42
4.3996055833
  0
ELLIPSE
  5
421
100
AcDbEntity
  8
00_COMPONENTS_1
100
AcDbEllipse
 62
7
  6
CONTINUOUS
 10
24.4010428021
 20
115.3513349469
 30
0.0
 11
-2.6
 21
-0.0
 31
0.0
 40
0.9991943951
 41
1.8835797239
 42
4.3996055833
  0
ELLIPSE
  5
422
100
AcDbEntity
  8
00_COMPONENTS_1
100
AcDbEllipse
 62
7
  6
CONTINUOUS
 10
24.4010428021
 20
115.3513349469
 30
0.0
 11
-2.6
 21
-0.0
 31
0.0
 40
0.9991943951
 41
-1.2580129298
 42
1.2580129297
  0
ELLIPSE
  5
423
100
AcDbEntity
  8
00_COMPONENTS_1
100
AcDbEllipse
 62
7
  6
CONTINUOUS
 10
83.5407703927
 20
28.0188161808
 30
0.0
 11
3.025
 21
-0.0
 31
0.0
 40
0.9900663215
 41
4.9839375894
 42
6.4619079313
  0
ELLIPSE
  5
424
100
AcDbEntity
  8
00_COMPONENTS_1
100
AcDbEllipse
 62
7
  6
CONTINUOUS
 10
83.5407703927
 20
27.6496381732
 30
0.0
 11
2.4867885554
 21
0.0
 31
0.0
 40
0.9900663215
 41
-0.2660128774
 42
0.2286954397
  0
ELLIPSE
  5
425
100
AcDbEntity
  8
00_COMPONENTS_1
100
AcDbEllipse
 62
7
  6
CONTINUOUS
 10
86.6510428021
 20
16.650765392
 30
0.0
 11
5.0
 21
-0.0
 31
0.0
 40
0.9921616477
 41
-0.1949175462
 42
0.0
  0
ELLIPSE
  5
426
100
AcDbEntity
  8
00_COMPONENTS_1
100
AcDbEllipse
 62
7
  6
CONTINUOUS
 10
21.8529384042
 20
16.6507656536
 30
0.0
 11
5.001895602
 21
0.0
 31
0.0
 40
0.9917855499
 41
-3.1415926536
 42
-2.9466750354
  0
ELLIPSE
  5
427
100
AcDbEntity
  8
00_COMPONENTS_1
100
AcDbEllipse
 62
7
  6
CONTINUOUS
 10
88.7210428022
 20
36.6124108158
 30
0.0
 11
-2.4867885554
 21
0.0
 31
0.0
 40
0.9902680687
 41
2.8754990318
 42
3.3702086417
  0
ELLIPSE
  5
428
100
AcDbEntity
  8
00_COMPONENTS_1
100
AcDbEllipse
 62
7
  6
CONTINUOUS
 10
88.7210428022
 20
36.6124108158
 30
0.0
 11
-2.4867885554
 21
0.0
 31
0.0
 40
0.9902680687
 41
-0.2655893796
 42
0.2291150546
  0
ELLIPSE
  5
429
100
AcDbEntity
  8
00_COMPONENTS_1
100
AcDbEllipse
 62
7
  6
CONTINUOUS
 10
88.6460428021
 20
37.2457957263
 30
0.0
 11
0.0
 21
-3.2819396107
 31
0.0
 40
0.9902680687
 41
-0.9791076844
 42
-0.4498985554
  0
ELLIPSE
  5
42A
100
AcDbEntity
  8
00_COMPONENTS_1
100
AcDbEllipse
 62
7
  6
CONTINUOUS
 10
88.6460428021
 20
37.2457957263
 30
0.0
 11
0.0
 21
-3.2819396107
 31
0.0
 40
0.9902680687
 41
7.0113404295
 42
7.6386409006
  0
ELLIPSE
  5
42B
100
AcDbEntity
  8
00_COMPONENTS_1
100
AcDbEllipse
 62
7
  6
CONTINUOUS
 10
88.6460428021
 20
37.7637050862
 30
0.0
 11
0.0
 21
3.2819396107
 31
0.0
 40
0.9902680687
 41
2.1624849692
 42
2.210041708
  0
ELLIPSE
  5
42C
100
AcDbEntity
  8
00_COMPONENTS_1
100
AcDbEllipse
 62
7
  6
CONTINUOUS
 10
88.6460428021
 20
37.7637050862
 30
0.0
 11
0.0
 21
3.2819396107
 31
0.0
 40
0.9902680687
 41
10.4797690606
 42
10.6978054697
  0
ELLIPSE
  5
42D
100
AcDbEntity
  8
00_COMPONENTS_1
100
AcDbEllipse
 62
7
  6
CONTINUOUS
 10
88.6460428021
 20
36.3884966346
 30
0.0
 11
0.0
 21
-3.2819396107
 31
0.0
 40
0.9902680687
 41
4.8103584465
 42
7.7525510454
  0
ELLIPSE
  5
42E
100
AcDbEntity
  8
00_COMPONENTS_1
100
AcDbEllipse
 62
7
  6
CONTINUOUS
 10
83.5407703927
 20
121.3610399344
 30
0.0
 11
3.025
 21
0.0
 31
0.0
 40
0.9900663215
 41
0.1852127151
 42
1.2990531019
  0
ELLIPSE
  5
42F
100
AcDbEntity
  8
00_COMPONENTS_1
100
AcDbEllipse
 62
7
  6
CONTINUOUS
 10
83.5407703928
 20
121.730217942
 30
0.0
 11
-2.4867885554
 21
0.0
 31
0.0
 40
0.9900663215
 41
2.9128964832
 42
3.40760612
  0
ELLIPSE
  5
430
100
AcDbEntity
  8
00_COMPONENTS_1
100
AcDbEllipse
 62
7
  6
CONTINUOUS
 10
88.6460428021
 20
112.8990152633
 30
0.0
 11
0.0
 21
3.2819396107
 31
0.0
 40
0.9902680687
 41
-1.4743895415
 42
1.477306848
  0
ELLIPSE
  5
431
100
AcDbEntity
  8
00_COMPONENTS_1
100
AcDbEllipse
 62
7
  6
CONTINUOUS
 10
88.7210428022
 20
112.6751010821
 30
0.0
 11
-2.4867885554
 21
0.0
 31
0.0
 40
0.9902680687
 41
-0.2291150546
 42
0.2655893796
  0
ELLIPSE
  5
432
100
AcDbEntity
  8
00_COMPONENTS_1
100
AcDbEllipse
 62
7
  6
CONTINUOUS
 10
88.7210428022
 20
112.6751010821
 30
0.0
 11
-2.4867885554
 21
0.0
 31
0.0
 40
0.9902680687
 41
2.9129766654
 42
3.4076862753
  0
ELLIPSE
  5
433
100
AcDbEntity
  8
00_COMPONENTS_1
100
AcDbEllipse
 62
7
  6
CONTINUOUS
 10
88.6460428021
 20
111.5238068117
 30
0.0
 11
0.0
 21
3.2819396107
 31
0.0
 40
0.9902680687
 41
0.931518871
 42
0.9791076844
  0
ELLIPSE
  5
434
100
AcDbEntity
  8
00_COMPONENTS_1
100
AcDbEllipse
 62
7
  6
CONTINUOUS
 10
88.6460428021
 20
111.5238068117
 30
0.0
 11
0.0
 21
3.2819396107
 31
0.0
 40
0.9902680687
 41
-1.273024283
 42
-1.0550000897
  0
ELLIPSE
  5
435
100
AcDbEntity
  8
00_COMPONENTS_1
100
AcDbEllipse
 62
7
  6
CONTINUOUS
 10
88.6460428021
 20
112.0417161716
 30
0.0
 11
0.0
 21
3.2819396107
 31
0.0
 40
0.9902680687
 41
0.449823657
 42
0.9791076844
  0
ELLIPSE
  5
436
100
AcDbEntity
  8
00_COMPONENTS_1
100
AcDbEllipse
 62
7
  6
CONTINUOUS
 10
88.6460428021
 20
112.0417161716
 30
0.0
 11
-0.0
 21
3.2819396107
 31
0.0
 40
0.9902680687
 41
-1.3554597859
 42
-0.7281646089
  0
ELLIPSE
  5
437
100
AcDbEntity
  8
00_COMPONENTS_1
100
AcDbEllipse
 62
7
  6
CONTINUOUS
 10
83.5260428021
 20
123.1757276347
 30
0.0
 11
3.25
 21
-0.0
 31
0.0
 40
0.9902680687
 41
-1.313879211
 42
-0.0
  0
ELLIPSE
  5
438
100
AcDbEntity
  8
00_COMPONENTS_1
100
AcDbEllipse
 62
7
  6
CONTINUOUS
 10
83.5260428021
 20
124.2848278717
 30
0.0
 11
3.25
 21
0.0
 31
0.0
 40
0.9902680687
 41
-0.0
 42
1.3139303829
  0
ELLIPSE
  5
439
100
AcDbEntity
  8
00_COMPONENTS_1
100
AcDbEllipse
 62
7
  6
CONTINUOUS
 10
45.5010428021
 20
124.2848278717
 30
0.0
 11
3.25
 21
-0.0
 31
0.0
 40
0.9902680687
 41
6.2831853072
 42
9.2596403733
  0
ELLIPSE
  5
43A
100
AcDbEntity
  8
00_COMPONENTS_1
100
AcDbEllipse
 62
7
  6
CONTINUOUS
 10
83.4760428021
 20
26.3065709797
 30
0.0
 11
3.25
 21
-0.0
 31
0.0
 40
0.9902680687
 41
-1.2978508007
 42
0.0
  0
ELLIPSE
  5
43B
100
AcDbEntity
  8
00_COMPONENTS_1
100
AcDbEllipse
 62
7
  6
CONTINUOUS
 10
83.4760428021
 20
27.4156712167
 30
0.0
 11
3.25
 21
0.0
 31
0.0
 40
0.9902680687
 41
0.0
 42
1.2978672784
  0
ELLIPSE
  5
43C
100
AcDbEntity
  8
00_COMPONENTS_1
100
AcDbEllipse
 62
7
  6
CONTINUOUS
 10
88.6460428021
 20
37.596697365
 30
0.0
 11
0.0
 21
-3.2819396107
 31
0.0
 40
0.9902680687
 41
-0.9791076844
 42
-0.8841742052
  0
ELLIPSE
  5
43D
100
AcDbEntity
  8
00_COMPONENTS_1
100
AcDbEllipse
 62
7
  6
CONTINUOUS
 10
88.6460428021
 20
37.596697365
 30
0.0
 11
0.0
 21
-3.2819396107
 31
0.0
 40
0.9902680687
 41
7.2953559841
 42
7.5828681695
  0
ELLIPSE
  5
43E
100
AcDbEntity
  8
00_COMPONENTS_1
100
AcDbEllipse
 62
7
  6
CONTINUOUS
 10
88.6460428021
 20
112.6179335939
 30
0.0
 11
-0.0
 21
3.2819396107
 31
0.0
 40
0.9902680687
 41
-1.4492648384
 42
1.4498823432
  0
ELLIPSE
  5
43F
100
AcDbEntity
  8
00_COMPONENTS_1
100
AcDbEllipse
 62
7
  6
CONTINUOUS
 10
88.6460428021
 20
111.4092824154
 30
0.0
 11
-0.0
 21
3.2819396107
 31
0.0
 40
0.9902680687
 41
0.9444556451
 42
0.9791076844
  0
ELLIPSE
  5
440
100
AcDbEntity
  8
00_COMPONENTS_1
100
AcDbEllipse
 62
7
  6
CONTINUOUS
 10
88.6460428021
 20
111.4092824154
 30
0.0
 11
0.0
 21
3.2819396107
 31
0.0
 40
0.9902680687
 41
-1.2543476404
 42
-1.0960409688
  0
ELLIPSE
  5
441
100
AcDbEntity
  8
00_COMPONENTS_1
100
AcDbEllipse
 62
7
  6
CONTINUOUS
 10
88.6460428021
 20
111.6908145328
 30
0.0
 11
0.0
 21
3.2819396107
 31
0.0
 40
0.9902680687
 41
0.8842444847
 42
0.9791076844
  0
ELLIPSE
  5
442
100
AcDbEntity
  8
00_COMPONENTS_1
100
AcDbEllipse
 62
7
  6
CONTINUOUS
 10
88.6460428021
 20
111.6908145328
 30
0.0
 11
0.0
 21
3.2819396107
 31
0.0
 40
0.9902680687
 41
-1.2996771851
 42
-1.0121551874
  0
ELLIPSE
  5
443
100
AcDbEntity
  8
00_COMPONENTS_1
100
AcDbEllipse
 62
7
  6
CONTINUOUS
 10
88.6460428021
 20
112.040396413
 30
0.0
 11
0.0
 21
3.2819396107
 31
0.0
 40
0.9902680687
 41
0.4563117601
 42
0.6243393724
  0
ELLIPSE
  5
444
100
AcDbEntity
  8
00_COMPONENTS_1
100
AcDbEllipse
 62
7
  6
CONTINUOUS
 10
88.6460428021
 20
112.040396413
 30
0.0
 11
-0.0
 21
3.2819396107
 31
0.0
 40
0.9902680687
 41
-1.1023647185
 42
-0.7759668807
  0
ELLIPSE
  5
445
100
AcDbEntity
  8
00_COMPONENTS_1
100
AcDbEllipse
 62
7
  6
CONTINUOUS
 10
88.6460428021
 20
37.2471154849
 30
0.0
 11
-0.0
 21
3.2819396107
 31
0.0
 40
0.9902680687
 41
-2.3572796885
 42
-2.0392279351
  0
ELLIPSE
  5
446
100
AcDbEntity
  8
00_COMPONENTS_1
100
AcDbEllipse
 62
7
  6
CONTINUOUS
 10
88.6460428021
 20
37.2471154849
 30
0.0
 11
-0.0
 21
3.2819396107
 31
0.0
 40
0.9902680687
 41
-3.765932026
 42
-3.5974849924
  0
ELLIPSE
  5
447
100
AcDbEntity
  8
00_COMPONENTS_1
100
AcDbEllipse
 62
7
  6
CONTINUOUS
 10
88.6460428021
 20
37.8782294824
 30
0.0
 11
0.0
 21
3.2819396107
 31
0.0
 40
0.9902680687
 41
2.1624849692
 42
2.1971364594
  0
ELLIPSE
  5
448
100
AcDbEntity
  8
00_COMPONENTS_1
100
AcDbEllipse
 62
7
  6
CONTINUOUS
 10
88.6460428021
 20
37.8782294824
 30
0.0
 11
0.0
 21
3.2819396107
 31
0.0
 40
0.9902680687
 41
10.5204455779
 42
10.6791308266
  0
ELLIPSE
  5
449
100
AcDbEntity
  8
00_COMPONENTS_1
100
AcDbEllipse
 62
7
  6
CONTINUOUS
 10
88.6460428021
 20
36.669578304
 30
0.0
 11
0.0
 21
3.2819396107
 31
0.0
 40
0.9902680687
 41
7.9762769525
 42
10.8724150309
  0
ENDSEC
  0
SECTION
  2
OBJECTS
  0
DICTIONARY
  5
C
100
AcDbDictionary
280
0
281
1
  3
ACAD_GROUP
350
D
  3
ACAD_MLINESTYLE
350
17
  3
ACAD_LAYOUT
350
1A
  3
ACAD_PLOTSETTINGS
350
19
  3
ACAD_PLOTSTYLENAME
350
E
  0
DICTIONARY
  5
D
102
{ACAD_REACTORS
330
C
102
}
100
AcDbDictionary
280
0
281
1
  0
ACDBDICTIONARYWDFLT
  5
E
102
{ACAD_REACTORS
330
C
102
}
100
AcDbDictionary
281
1
  3
Normal
350
F
100
AcDbDictionaryWithDefault
340
F
  0
DICTIONARY
  5
17
102
{ACAD_REACTORS
330
C
102
}
100
AcDbDictionary
280
0
281
1
  3
Standard
350
18
  0
DICTIONARY
  5
19
102
{ACAD_REACTORS
330
C
102
}
100
AcDbDictionary
281
1
  0
DICTIONARY
  5
1A
102
{ACAD_REACTORS
330
C
102
}
100
AcDbDictionary
281
1
  3
Model
350
44A
  3
Layout1
350
44B
  0
ACDBPLACEHOLDER
  5
F
102
{ACAD_REACTORS
330
E
102
}
  0
MLINESTYLE
  5
18
102
{ACAD_REACTORS
330
17
102
}
100
AcDbMlineStyle
  2
STANDARD
 70
0
  3

 62
256
 51
90.0
 52
90.0
 71
2
 49
0.5
 62
256
  6
BYLAYER
 49
-0.5
 62
256
  6
BYLAYER
  0
LAYOUT
  5
44A
102
{ACAD_REACTORS
330
1A
102
}
100
AcDbPlotSettings
  1

  2
none_device
  4

  6

 40
0.0
 41
0.0
 42
0.0
 43
0.0
 44
210.0
 45
297.0
 46
0.0
 47
0.0
 48
0.0
 49
0.0
140
0.0
141
0.0
142
1.0
143
1.0
 70
1024
 72
1
 73
0
 74
0
  7

 75
0
147
1.0
148
0.0
149
0.0
100
AcDbLayout
  1
Model
 70
0
 71
0
 10
0.0
 20
0.0
 11
210.0
 21
297.0
 12
0.0
 22
0.0
 32
0.0
 14
0.0
 24
0.0
 34
0.0
 15
0.0
 25
0.0
 35
0.0
146
0.0
 13
0.0
 23
0.0
 33
0.0
 16
1.0
 26
0.0
 36
0.0
 17
0.0
 27
1.0
 37
0.0
 76
0
330
211
345
0
346
0
  0
LAYOUT
  5
44B
102
{ACAD_REACTORS
330
1A
102
}
100
AcDbPlotSettings
  1

  2
none_device
  4

  6

 40
0.0
 41
0.0
 42
0.0
 43
0.0
 44
210.0
 45
297.0
 46
0.0
 47
0.0
 48
0.0
 49
0.0
140
0.0
141
0.0
142
1.0
143
1.0
 70
0
 72
1
 73
0
 74
0
  7

 75
0
147
1.0
148
0.0
149
0.0
100
AcDbLayout
  1
Layout1
 70
0
 71
1
 10
0.0
 20
0.0
 11
210.0
 21
297.0
 12
0.0
 22
0.0
 32
0.0
 14
0.0
 24
0.0
 34
0.0
 15
0.0
 25
0.0
 35
0.0
146
0.0
 13
0.0
 23
0.0
 33
0.0
 16
1.0
 26
0.0
 36
0.0
 17
0.0
 27
1.0
 37
0.0
 76
0
330
212
345
0
346
0
  0
ENDSEC
  0
EOF
